<svg width="338" height="291" viewBox="0 0 338 291" fill="none" xmlns="http://www.w3.org/2000/svg">
<path d="M97.5162 182.094C95.8862 181.307 93.1572 179.664 91.4654 179.022C89.7737 178.379 87.8843 178.071 86.1741 178.657C85.1738 178.996 84.1798 179.809 84.1736 180.879L90.8109 185.84L97.5101 184.039V182.094H97.5162Z" fill="#FF9A6C"/>
<path d="M90.2554 182.022C90.2554 182.022 78.3267 179.384 76.3633 178.346C74.3998 177.301 63.9838 171.987 62.2612 171.987C60.5324 171.987 59.0444 172.465 58.7295 174.228L60.9955 176.029L61.2856 176.948L65.1631 179.007L65.8731 180.335L75.7397 185.712C75.7397 185.712 86.1001 191.076 87.8289 191.397C89.5577 191.718 98.1894 192.436 101.882 195.64L116.7 189.439C116.7 189.439 112.421 183.238 109.124 181.714C106.185 180.354 101.252 180.354 97.8004 181.789L90.2554 182.022Z" fill="#FFBF9D"/>
<path d="M100.173 192.184C100.173 192.184 119.035 234.127 122.073 242.526C122.073 242.526 143.158 238.994 143.88 227.057L116.701 189.288L100.173 192.184Z" fill="#FFBF9D"/>
<path d="M82.6553 182.972C82.6553 182.984 82.5874 182.978 82.4516 182.965C82.3158 182.959 82.1305 182.915 81.8836 182.852C81.402 182.713 80.7228 182.443 79.9201 182.046C79.1175 181.649 78.1852 181.127 77.1602 180.541C76.6478 180.252 76.1106 179.943 75.5487 179.641C74.993 179.339 74.3756 179.093 73.7582 178.816C72.5172 178.269 71.3193 177.79 70.1895 177.494C69.0719 177.211 67.9976 176.997 67.1887 177.274C66.3737 177.557 66.0095 178.269 65.8057 178.703C65.5958 179.156 65.5217 179.427 65.4908 179.421C65.4785 179.421 65.4908 179.345 65.5217 179.219C65.5464 179.087 65.602 178.898 65.6946 178.659C65.7872 178.42 65.9168 178.13 66.1329 177.828C66.349 177.532 66.6763 177.23 67.1208 177.06C67.5592 176.884 68.0778 176.865 68.6088 176.909C69.1398 176.959 69.6955 177.06 70.2697 177.205C71.4243 177.494 72.6468 177.973 73.894 178.52C74.5115 178.797 75.1351 179.049 75.7031 179.364C76.2711 179.673 76.8083 179.987 77.3146 180.283C78.3333 180.881 79.2471 181.423 80.0313 181.845C80.8154 182.266 81.4699 182.569 81.933 182.739C82.3837 182.902 82.6553 182.94 82.6553 182.972Z" fill="#FF9A6C"/>
<path d="M71.2814 176.938C71.2691 176.976 70.6146 176.787 69.6144 176.346C68.6203 175.887 67.262 175.245 65.6937 174.754C64.9219 174.514 64.1316 174.502 63.4401 174.558C62.7424 174.615 62.162 174.898 61.8471 175.314C61.5322 175.729 61.4396 176.17 61.3779 176.466C61.3347 176.768 61.31 176.938 61.2914 176.938C61.2729 176.938 61.2544 176.768 61.2544 176.453C61.2791 176.145 61.3347 175.666 61.6681 175.175C61.841 174.942 62.0817 174.716 62.3843 174.558C62.6868 174.401 63.0388 174.307 63.4092 174.263C64.1378 174.181 64.9651 174.193 65.7863 174.445C67.3916 174.955 68.75 175.641 69.7132 176.145C70.6764 176.63 71.2938 176.888 71.2814 176.938Z" fill="#FF9A6C"/>
<path d="M101.012 180.838C101.018 180.857 100.845 180.933 100.53 181.052C100.215 181.172 99.746 181.323 99.1594 181.48C97.9863 181.795 96.3254 182.11 94.4731 182.192C92.6208 182.274 90.9353 182.11 89.7436 181.896C89.1447 181.789 88.6631 181.682 88.3421 181.594C88.0148 181.505 87.8358 181.443 87.842 181.424C87.8543 181.373 88.589 181.518 89.7807 181.669C90.9723 181.82 92.6332 181.946 94.4608 181.864C96.2884 181.782 97.9307 181.512 99.11 181.254C100.277 181.002 100.999 180.788 101.012 180.838Z" fill="#FF9A6C"/>
<path d="M276.666 155.927L249.197 150.134L242.442 144.94L206.193 152.067C205.612 153.15 199.741 161.486 199.741 161.486L185.472 166.428C179.366 168.103 173.926 171.603 169.987 176.514C166.974 180.267 163.621 185.442 160.744 192.317C154.323 207.685 145.055 225.44 145.055 225.44L139.245 215.901L114.764 227.656C114.764 227.656 129.107 257.146 133.855 261.351C139.134 266.029 151.266 266.571 159.657 257.844C164.714 252.581 179.328 231.779 182.379 226.573L186.873 248.35L191.029 273.206L184.311 290.306H282.359L278.302 274.144C278.302 274.144 282.297 232 283.402 224.161C285.995 205.664 276.666 155.927 276.666 155.927Z" fill="#27AE60"/>
<path d="M276.665 155.927C276.665 155.927 296.3 161.543 300.622 181.438C303.239 193.495 312.13 227.864 315.261 256.158C317.119 272.98 317.064 288.525 317.119 290.306H286.989L274.214 161.543L276.665 155.927Z" fill="#27AE60"/>
<path d="M226.308 173.012C226.315 173.019 226.29 173.088 226.228 173.22C226.154 173.378 226.061 173.566 225.95 173.799C225.709 174.309 225.351 175.052 224.931 176.003C224.067 177.898 223.036 180.7 221.387 183.822L221.301 183.98L221.165 183.86C219.128 182.091 216.917 179.963 214.633 177.665C210.595 173.573 207.045 169.764 204.427 167.063C203.13 165.734 202.074 164.651 201.315 163.871C200.963 163.518 200.679 163.229 200.463 163.008C200.271 162.807 200.173 162.7 200.179 162.693C200.185 162.687 200.296 162.775 200.506 162.964C200.734 163.172 201.031 163.443 201.401 163.783C202.167 164.507 203.26 165.564 204.587 166.899C207.254 169.562 210.823 173.346 214.861 177.432C217.14 179.73 219.344 181.858 221.357 183.64L221.134 183.678C222.795 180.593 223.863 177.804 224.777 175.927C225.222 174.983 225.598 174.246 225.87 173.755C226 173.529 226.105 173.346 226.191 173.195C226.259 173.075 226.302 173.012 226.308 173.012Z" fill="black"/>
<path d="M249.609 150.844C249.621 150.844 249.597 150.995 249.554 151.285C249.498 151.606 249.418 152.021 249.325 152.537C249.103 153.62 248.732 155.182 248.201 157.083C247.139 160.892 245.411 166.074 243.287 171.715C242.163 174.699 241.052 177.519 240.014 180.019L239.934 180.208L239.78 180.069C236.983 177.551 234.476 175.568 232.778 174.095C231.926 173.364 231.259 172.772 230.808 172.357C230.605 172.162 230.438 172.004 230.302 171.878C230.191 171.765 230.135 171.708 230.142 171.702C230.148 171.696 230.216 171.746 230.333 171.841C230.475 171.96 230.654 172.105 230.87 172.288C231.364 172.697 232.043 173.257 232.889 173.962C234.618 175.398 237.149 177.343 239.977 179.855L239.743 179.906C240.761 177.4 241.86 174.579 242.99 171.601C245.108 165.967 246.868 160.804 247.985 157.02C248.541 155.125 248.942 153.583 249.208 152.506C249.325 151.996 249.424 151.58 249.498 151.266C249.56 150.989 249.603 150.838 249.609 150.844Z" fill="black"/>
<path d="M186.095 245.573C186.089 245.573 186.07 245.529 186.039 245.428C186.002 245.315 185.965 245.17 185.91 245C185.798 244.597 185.638 244.043 185.446 243.344C185.237 242.626 185.033 241.738 184.786 240.7C184.527 239.667 184.273 238.49 184.008 237.174C182.909 231.942 181.816 224.62 181.131 216.486C180.433 208.345 180.279 200.947 180.316 195.602C180.334 192.926 180.39 190.761 180.458 189.269C180.495 188.545 180.519 187.972 180.538 187.55C180.55 187.367 180.563 187.222 180.569 187.103C180.575 187.002 180.587 186.952 180.587 186.952C180.593 186.952 180.6 187.002 180.6 187.103C180.6 187.222 180.6 187.373 180.6 187.55C180.593 187.972 180.587 188.545 180.575 189.269C180.544 190.761 180.526 192.926 180.532 195.596C180.556 200.941 180.748 208.326 181.439 216.454C182.119 224.576 183.181 231.892 184.218 237.13C184.471 238.439 184.706 239.623 184.946 240.656C185.175 241.688 185.366 242.582 185.558 243.306C185.73 244.011 185.866 244.572 185.965 244.975C186.002 245.151 186.039 245.296 186.064 245.409C186.095 245.522 186.101 245.573 186.095 245.573Z" fill="black"/>
<path d="M278.295 178.005C278.301 178.005 278.326 178.062 278.382 178.175C278.437 178.308 278.511 178.478 278.598 178.692C278.789 179.17 279.061 179.844 279.406 180.694C279.579 181.128 279.783 181.613 279.981 182.148C280.16 182.69 280.357 183.281 280.567 183.911C280.777 184.547 280.999 185.221 281.24 185.938C281.438 186.669 281.642 187.443 281.864 188.255C283.704 194.734 284.636 204.108 284.105 214.364C283.562 224.626 282.389 233.85 281.66 240.53C281.283 243.854 280.975 246.549 280.759 248.444C280.648 249.357 280.561 250.081 280.506 250.591C280.475 250.824 280.45 251.006 280.431 251.151C280.413 251.277 280.401 251.34 280.394 251.34C280.388 251.34 280.388 251.277 280.401 251.145C280.413 251 280.425 250.817 280.444 250.584C280.493 250.068 280.555 249.344 280.641 248.425C280.814 246.555 281.086 243.848 281.438 240.505C282.111 233.818 283.247 224.589 283.784 214.345C284.315 204.108 283.42 194.784 281.642 188.312C281.432 187.5 281.234 186.725 281.043 185.995C280.814 185.277 280.598 184.597 280.394 183.961C280.191 183.325 280.005 182.74 279.833 182.192C279.647 181.657 279.45 181.172 279.289 180.732C278.968 179.869 278.715 179.189 278.536 178.711C278.456 178.49 278.394 178.32 278.345 178.182C278.307 178.075 278.289 178.012 278.295 178.005Z" fill="black"/>
<path d="M145.192 246.89C145.106 246.89 145.001 242.093 144.964 236.168C144.927 230.244 144.964 225.447 145.056 225.44C145.143 225.44 145.248 230.238 145.285 236.162C145.322 242.093 145.285 246.89 145.192 246.89Z" fill="black"/>
<path d="M234.285 275.946C234.279 275.946 234.285 275.858 234.304 275.682C234.322 275.493 234.353 275.241 234.39 274.914C234.477 274.221 234.594 273.233 234.748 271.961C234.829 271.319 234.915 270.607 235.014 269.826C235.094 269.046 235.187 268.196 235.279 267.283C235.458 265.457 235.705 263.386 235.872 261.081C235.965 259.929 236.064 258.727 236.162 257.474C236.261 256.221 236.317 254.912 236.403 253.558C236.588 250.851 236.662 247.955 236.774 244.901C236.909 238.8 236.891 232.089 236.576 225.056C236.236 218.024 235.644 211.338 234.94 205.275C234.551 202.246 234.211 199.369 233.773 196.693C233.563 195.352 233.39 194.055 233.174 192.815C232.958 191.575 232.748 190.385 232.55 189.252C232.18 186.973 231.742 184.933 231.39 183.138C231.211 182.238 231.044 181.407 230.89 180.633C230.723 179.871 230.568 179.166 230.426 178.536C230.155 177.29 229.945 176.314 229.797 175.634C229.729 175.313 229.679 175.061 229.642 174.878C229.611 174.708 229.593 174.62 229.599 174.62C229.605 174.62 229.63 174.702 229.673 174.872C229.716 175.054 229.778 175.306 229.858 175.621C230.019 176.301 230.247 177.271 230.544 178.511C230.692 179.141 230.852 179.839 231.032 180.601C231.192 181.369 231.365 182.207 231.556 183.101C231.921 184.895 232.371 186.935 232.76 189.214C232.964 190.347 233.18 191.543 233.402 192.777C233.625 194.018 233.804 195.315 234.02 196.656C234.464 199.338 234.816 202.215 235.212 205.243C235.928 211.306 236.533 217.999 236.872 225.044C237.181 232.089 237.193 238.807 237.039 244.914C236.922 247.967 236.835 250.87 236.638 253.577C236.545 254.93 236.483 256.24 236.378 257.499C236.267 258.752 236.169 259.961 236.064 261.113C235.885 263.417 235.625 265.489 235.428 267.314C235.323 268.227 235.224 269.071 235.137 269.852C235.032 270.626 234.934 271.337 234.841 271.98C234.662 273.245 234.52 274.234 234.421 274.926C234.372 275.247 234.335 275.505 234.304 275.688C234.31 275.858 234.292 275.946 234.285 275.946Z" fill="black"/>
<path d="M247.338 207.987C247.338 207.987 247.375 207.974 247.461 207.968C247.56 207.955 247.684 207.943 247.844 207.918C248.202 207.88 248.709 207.817 249.363 207.748C250.715 207.603 252.672 207.389 255.142 207.118C260.156 206.589 267.268 205.84 275.733 204.946L275.888 204.927L275.894 205.084C276.055 211.443 276.234 218.627 276.425 226.251V226.32L276.382 226.371C275.591 227.233 274.746 228.159 273.9 229.091C270.794 232.49 267.775 235.796 264.91 238.931L264.83 239.019L264.725 238.969C259.205 236.174 254.086 233.586 249.554 231.288L249.487 231.256L249.48 231.181C248.82 224.161 248.276 218.35 247.894 214.283C247.715 212.281 247.566 210.707 247.468 209.611C247.424 209.089 247.387 208.686 247.363 208.396C247.344 208.119 247.338 207.987 247.338 207.987C247.338 207.987 247.363 208.138 247.393 208.421C247.424 208.717 247.474 209.133 247.529 209.662C247.647 210.757 247.813 212.344 248.023 214.352C248.437 218.4 249.023 224.174 249.74 231.149L249.666 231.042C254.204 233.321 259.328 235.896 264.861 238.679L264.675 238.711C267.54 235.569 270.553 232.264 273.659 228.864C274.511 227.932 275.357 227.007 276.147 226.144L276.104 226.257C275.925 218.633 275.758 211.443 275.61 205.091L275.764 205.229C267.33 206.06 260.242 206.759 255.247 207.25C252.759 207.489 250.789 207.678 249.425 207.804C248.758 207.867 248.246 207.911 247.875 207.943C247.708 207.955 247.579 207.968 247.474 207.974C247.387 207.987 247.344 207.987 247.338 207.987Z" fill="black"/>
<path d="M275.932 212.416C275.932 212.442 275.556 212.511 274.864 212.624C274.172 212.738 273.172 212.882 271.931 213.046C269.449 213.373 266.01 213.745 262.213 214.11C258.44 214.488 255.026 214.828 252.488 215.08C251.284 215.206 250.29 215.313 249.543 215.394C248.846 215.47 248.463 215.495 248.457 215.476C248.457 215.451 248.833 215.382 249.525 215.269C250.216 215.155 251.216 215.01 252.457 214.847C254.94 214.519 258.379 214.148 262.176 213.783C265.948 213.405 269.363 213.065 271.9 212.813C273.104 212.687 274.098 212.58 274.845 212.498C275.543 212.423 275.932 212.391 275.932 212.416Z" fill="black"/>
<g opacity="0.3">
<g opacity="0.3">
<path opacity="0.3" d="M281.896 237.189C282.242 241.476 282.587 245.764 282.933 250.051C285.224 239.033 288.824 227.191 288.262 215.94C287.706 204.765 286.663 193.942 280.451 183.762C280.451 183.762 284.662 194.522 284.094 207.68C283.532 220.845 281.896 237.189 281.896 237.189Z" fill="black"/>
</g>
</g>
<path d="M141.104 213.241C140.69 212.517 140.214 211.736 139.437 211.459C138.572 211.157 137.634 211.579 136.812 212C129.342 215.791 121.877 219.581 114.406 223.377C112.936 224.126 111.337 225.014 110.782 226.588C110.072 228.603 111.368 230.731 112.603 232.462C114.665 235.358 117.135 238.5 120.623 238.909L139.887 225.436C142.246 225.083 143.709 222.408 143.617 219.984C143.53 217.553 142.301 215.344 141.104 213.241Z" fill="#27AE60"/>
<path d="M143.537 221.47C143.543 221.476 143.475 221.552 143.339 221.69C143.172 221.848 142.975 222.043 142.734 222.276C142.203 222.779 141.419 223.491 140.437 224.347C138.467 226.066 135.67 228.351 132.435 230.681C129.2 233.01 126.156 234.93 123.908 236.253C122.785 236.914 121.865 237.43 121.223 237.77C120.926 237.921 120.685 238.053 120.482 238.154C120.309 238.242 120.216 238.28 120.21 238.267C120.204 238.255 120.284 238.198 120.451 238.097C120.648 237.978 120.883 237.833 121.167 237.657C121.834 237.254 122.723 236.712 123.797 236.051C126.014 234.685 129.033 232.733 132.256 230.416C135.479 228.093 138.295 225.845 140.295 224.177C141.264 223.359 142.061 222.691 142.654 222.188C142.907 221.974 143.123 221.797 143.302 221.646C143.45 221.52 143.53 221.457 143.537 221.47Z" fill="black"/>
<g opacity="0.3">
<g opacity="0.3">
<path opacity="0.3" d="M249.32 152.287C246.683 161.221 242.991 171.313 239.873 179.964C237.212 177.666 233.501 174.625 230.84 172.321C233.125 176.948 235.884 181.336 239.046 185.397C239.41 185.869 239.91 186.379 240.484 186.266C241.034 186.159 241.312 185.548 241.509 185.019C243.133 180.65 244.751 176.281 246.375 171.905C248.647 165.792 250.839 158.64 249.32 152.287Z" fill="black"/>
</g>
</g>
<path d="M207.642 55.1507C215.644 52.796 223.177 55.1695 230.58 59.0667C237.983 62.9639 243.953 69.4423 247.818 76.9722C251.893 84.8987 253.69 94.1411 252.221 102.962C250.745 111.782 245.861 120.093 238.532 125.016C228.524 131.74 214.737 131.388 204.426 125.161C194.114 118.934 187.341 107.451 185.538 95.3751C184.297 87.0519 185.304 78.2754 189.119 70.8085C192.923 63.329 199.659 57.3039 207.642 55.1507Z" fill="#263238"/>
<path d="M233.993 80.7673C232.443 77.7201 232.511 74.1126 231.665 70.7947C229.8 63.4851 223.268 58.2029 216.155 56.0875C209.536 54.1231 201.887 55.6027 194.558 58.9899C189.532 61.3131 184.957 64.8765 181.956 69.5984C177.98 75.8691 177.251 84.1545 180.073 91.0422L216.742 81.2018C220.558 83.7453 224.466 86.3266 228.881 87.4788C230.177 87.8187 231.554 88.0265 232.844 87.6613C234.135 87.2962 235.308 86.2385 235.475 84.8848C235.66 83.4116 234.666 82.0958 233.993 80.7673Z" fill="#263238"/>
<path d="M242.739 147.077L233.273 79.1947C232.853 75.9838 231.427 72.7162 228.26 72.8673L194.931 69.5935C184.49 70.0846 179.588 84.0551 180.508 94.67C181.533 106.468 183.249 120.829 185.91 129.335C191.263 146.441 204.779 146.624 204.779 146.624C204.773 146.561 205.6 150.023 206.625 156.382L228.235 171.033L242.739 147.077Z" fill="#FFBF9D"/>
<path d="M188.548 107.602C188.684 108.798 189.789 109.661 191.012 109.541C192.234 109.421 193.117 108.351 192.981 107.161C192.845 105.965 191.74 105.102 190.518 105.222C189.295 105.342 188.412 106.406 188.548 107.602Z" fill="#263238"/>
<path d="M184.654 101.619C184.969 101.871 186.451 100.348 188.828 99.9887C191.193 99.592 193.119 100.568 193.335 100.228C193.44 100.077 193.082 99.592 192.242 99.145C191.409 98.698 190.056 98.3517 188.581 98.591C187.105 98.8302 185.944 99.5794 185.315 100.259C184.666 100.939 184.5 101.512 184.654 101.619Z" fill="#263238"/>
<path d="M210.485 103.982C210.621 105.178 211.726 106.041 212.948 105.921C214.171 105.802 215.054 104.731 214.918 103.542C214.782 102.345 213.677 101.483 212.454 101.602C211.232 101.722 210.349 102.792 210.485 103.982Z" fill="#263238"/>
<path d="M207.221 98.414C207.542 98.6658 209.023 97.1422 211.394 96.7834C213.759 96.3867 215.686 97.3563 215.902 97.0226C216.007 96.8715 215.655 96.3867 214.809 95.9397C213.975 95.4927 212.623 95.1464 211.147 95.3857C209.672 95.6249 208.511 96.3741 207.881 97.0541C207.233 97.7341 207.066 98.307 207.221 98.414Z" fill="#263238"/>
<path d="M202.12 117.696C202.108 117.557 200.595 117.526 198.162 117.589C197.545 117.62 196.952 117.589 196.792 117.179C196.582 116.758 196.736 116.053 196.921 115.284C197.267 113.698 197.631 112.042 198.008 110.298C199.49 103.215 200.472 97.423 200.188 97.3663C199.91 97.3097 198.477 103.001 196.989 110.09C196.637 111.834 196.298 113.496 195.983 115.089C195.859 115.826 195.582 116.682 196.032 117.564C196.267 117.998 196.761 118.262 197.162 118.313C197.57 118.376 197.909 118.325 198.212 118.3C200.638 118.055 202.132 117.834 202.12 117.696Z" fill="#263238"/>
<path d="M204.774 146.608C204.774 146.608 216.456 145.569 226.86 136.761C226.86 136.761 221.469 150.517 205.848 151.903L204.774 146.608Z" fill="#FF9A6C"/>
<path d="M203.991 123.459C204.67 122.175 206.072 121.312 207.585 121.243C208.634 121.199 209.746 121.539 210.499 122.301C211.252 123.056 211.567 124.253 211.116 125.153C210.616 126.173 209.307 126.588 208.128 126.437C206.949 126.286 205.856 125.675 204.818 125.065C204.528 124.895 204.238 124.718 204.034 124.454C203.831 124.19 203.744 123.824 203.905 123.554" fill="#FF9A6C"/>
<path d="M209.365 118.301C208.976 118.339 209.365 120.964 207.438 123.174C205.518 125.384 202.727 125.522 202.765 125.887C202.752 126.057 203.45 126.303 204.617 126.152C205.759 126.013 207.364 125.384 208.544 124.036C209.717 122.683 210.069 121.071 209.995 119.975C209.921 118.867 209.538 118.263 209.365 118.301Z" fill="#263238"/>
<path d="M206.555 91.1956C206.888 91.8189 209.21 91.1389 212.044 91.0445C214.878 90.8934 217.249 91.3782 217.527 90.7297C217.65 90.4212 217.162 89.8609 216.162 89.3698C215.168 88.8724 213.643 88.4947 211.939 88.5639C210.241 88.6395 208.753 89.1494 207.802 89.7224C206.845 90.3016 206.407 90.8997 206.555 91.1956Z" fill="#263238"/>
<path d="M183.77 90.9661C184.27 91.4509 185.82 90.6261 187.784 90.2924C189.735 89.8895 191.47 90.0972 191.766 89.4614C191.889 89.1592 191.55 88.6492 190.741 88.24C189.945 87.8307 188.685 87.5978 187.339 87.8496C185.993 88.1014 184.9 88.7814 184.301 89.4551C183.69 90.1224 183.548 90.7268 183.77 90.9661Z" fill="#263238"/>
<path d="M239.389 74.9648C234.895 65.2502 218.631 53.1747 208.308 55.3342L193.002 67.7749C194.768 73.4223 199.8 77.8609 205.536 78.8179C208.598 79.3278 212.173 79.1012 214.26 81.4433C216.39 83.8357 215.847 87.8147 217.866 90.3016C220.663 93.7517 226.936 92.7192 229.202 96.5534C230.19 98.2281 230.072 100.413 231.091 102.069C232.449 104.278 238.679 106.469 240.989 105.355C243.304 104.247 242.761 100.054 243.261 97.7496C244.119 93.8084 243.31 91.9385 242.588 89.9049C240.89 85.0823 241.538 79.5986 239.389 74.9648Z" fill="#263238"/>
<path d="M234.126 108.385C233.934 107.081 234.953 103.77 236.188 103.373C239.485 102.309 245.61 101.642 246.981 110.374C248.845 122.318 236.707 121.764 236.633 121.424C236.571 121.159 234.793 112.893 234.126 108.385Z" fill="#FFBF9D"/>
<path d="M239.504 116.334C239.547 116.29 239.733 116.447 240.103 116.554C240.461 116.655 241.06 116.674 241.634 116.34C242.801 115.679 243.53 113.501 243.246 111.341C243.104 110.252 242.721 109.251 242.208 108.458C241.715 107.639 241.066 107.123 240.424 107.11C239.782 107.066 239.399 107.52 239.307 107.878C239.202 108.237 239.313 108.464 239.257 108.495C239.232 108.533 238.973 108.338 238.992 107.828C239.004 107.582 239.097 107.28 239.337 107.003C239.584 106.726 239.98 106.537 240.418 106.518C241.332 106.437 242.276 107.148 242.838 108.023C243.449 108.892 243.906 110.013 244.067 111.234C244.369 113.652 243.511 116.101 241.9 116.875C241.109 117.228 240.381 117.089 239.986 116.863C239.572 116.617 239.467 116.359 239.504 116.334Z" fill="#FF9A6C"/>
<path d="M196.013 63.7573C195.469 68.7688 188.881 75.8769 186.109 80.0511C180.812 88.0154 179.879 90.5652 181.738 106.783C178.237 101.514 175.421 96.2756 174.94 89.923C174.458 83.5705 176.039 76.9724 179.848 71.9231C183.658 66.8801 189.77 63.5559 196.013 63.7573Z" fill="#263238"/>
<path d="M223.991 46.6687C226.479 43.8859 230.029 42.079 233.734 41.1409C239.013 39.7936 244.81 40.1588 249.614 42.5009C254.424 44.8429 258.135 49.2249 259.122 54.2679C260.11 59.3172 258.202 64.9142 254.01 68.2699C256.677 70.9394 260.067 72.9604 263.772 74.0999C262.771 75.6298 260.919 76.5238 259.061 76.8449C257.196 77.166 255.294 76.9834 253.417 76.8071C254.621 78.7022 256.572 80.1503 258.814 80.8176C255.801 81.6046 252.584 81.3591 249.62 80.5154C246.657 79.6718 243.921 78.2552 241.303 76.7064C232.27 71.3549 227.288 66.6771 221.188 58.4169C220.373 54.91 221.502 49.4515 223.991 46.6687Z" fill="#263238"/>
<path d="M243.463 71.9079C236.838 62.0359 228.397 56.7474 220.754 55.1042Z" fill="#263238"/>
<path d="M220.754 55.1033C220.748 55.1284 221.137 55.2481 221.834 55.4369C222.532 55.6384 223.538 55.9469 224.748 56.4191C227.169 57.3446 230.398 58.9941 233.547 61.4306C236.696 63.8671 239.184 66.524 240.845 68.5513C241.66 69.5775 242.321 70.4086 242.753 71.0067C243.191 71.5985 243.444 71.9133 243.463 71.9007C243.481 71.8881 243.265 71.5418 242.858 70.9248C242.463 70.3015 241.833 69.439 241.036 68.3876C239.419 66.3036 236.943 63.5964 233.763 61.141C230.583 58.6856 227.305 57.0487 224.841 56.1798C223.612 55.7391 222.587 55.4621 221.877 55.2984C221.155 55.1536 220.76 55.0781 220.754 55.1033Z" fill="#455A64"/>
<path d="M251.368 80.3229C251.368 80.3166 251.313 80.3355 251.22 80.3733C251.103 80.4236 250.961 80.4803 250.794 80.5496C250.424 80.7132 249.862 80.9273 249.14 81.1917C247.689 81.6954 245.521 82.2809 242.78 82.5139C240.045 82.7531 236.748 82.6146 233.185 81.8969C229.616 81.1917 225.801 79.92 221.911 78.3145C218.021 76.6965 214.354 75.0344 211.087 73.4037C207.827 71.7605 204.987 70.0795 202.734 68.4677C200.474 66.8686 198.788 65.3702 197.683 64.2873C197.121 63.7521 196.714 63.3051 196.423 63.0155C196.294 62.8833 196.183 62.77 196.096 62.6818C196.022 62.6063 195.979 62.5748 195.973 62.5748C195.967 62.5811 195.997 62.6252 196.065 62.707C196.146 62.8014 196.244 62.9211 196.368 63.0659C196.633 63.3744 197.029 63.8403 197.578 64.388C198.659 65.5087 200.332 67.0449 202.579 68.6755C204.827 70.3187 207.667 72.0312 210.933 73.6996C214.205 75.3554 217.867 77.0239 221.769 78.6482C225.671 80.2599 229.511 81.5317 233.111 82.218C236.704 82.9231 240.032 83.0364 242.786 82.7594C245.546 82.4887 247.719 81.8591 249.17 81.3176C249.893 81.0343 250.448 80.8014 250.813 80.6125C250.979 80.5307 251.115 80.4614 251.226 80.4047C251.325 80.3544 251.375 80.3292 251.368 80.3229Z" fill="#455A64"/>
</svg>
