<svg width="314" height="285" viewBox="0 0 314 285" fill="none" xmlns="http://www.w3.org/2000/svg">
<g clip-path="url(#clip0_803_10)">
<path d="M144.516 77.6467C139.165 74.742 130.866 74.742 125.028 82.8519C119.051 91.1584 121.249 97.6376 122.742 104.437C123.542 108.099 125.261 111.972 123.79 115.423C122.21 119.128 117.748 120.504 114.799 123.249C111.254 126.546 110.096 132.167 112.062 136.593C114.173 141.347 119.313 144.477 120.594 149.515C121.686 153.81 119.597 158.338 116.685 161.672C113.765 165.007 110.045 167.533 106.922 170.671C103.799 173.808 101.193 177.921 101.448 182.34C101.79 188.179 106.828 192.503 111.53 195.969C114.37 198.058 117.282 200.133 120.609 201.298C128.405 204.035 149.037 207.449 156.572 204.057C167.834 198.99 174.597 188.419 181.979 178.518C190.861 166.608 196.408 142.097 182.583 127.209" fill="#263238"/>
<path d="M105.678 190.024C105.678 190.024 105.452 189.675 105.117 188.947C104.812 188.226 104.287 187.112 104.302 185.562C104.302 183.997 105.27 182.235 106.792 180.713C108.299 179.155 110.388 177.772 112.842 176.622C115.295 175.443 118.119 174.525 121.046 173.324C123.944 172.116 127.067 170.587 129.389 167.893C130.539 166.568 131.493 164.988 131.944 163.212C132.41 161.436 132.265 159.507 131.646 157.701C131.034 155.881 130.044 154.17 129.01 152.46C127.977 150.756 126.841 149.016 126.091 147.065C125.334 145.136 124.875 143.032 125.196 140.972C125.356 139.953 125.742 138.962 126.331 138.125C126.914 137.274 127.693 136.611 128.486 136.036C130.095 134.9 131.857 134.107 133.255 132.92C134.689 131.77 135.541 130.095 135.803 128.37C136.087 126.637 135.846 124.905 135.322 123.318C134.805 121.731 134.026 120.282 133.204 118.935C131.544 116.242 129.687 113.934 128.093 111.75C124.795 107.426 123.063 103.32 122.087 100.466C121.607 99.0244 121.359 97.8741 121.25 97.0806C121.133 96.2944 121.155 95.8721 121.155 95.8721C121.184 95.8721 121.199 96.2871 121.345 97.0661C121.483 97.845 121.76 98.988 122.262 100.408C123.281 103.232 125.05 107.287 128.355 111.553C129.964 113.723 131.835 116.023 133.531 118.731C134.368 120.085 135.169 121.556 135.708 123.187C136.254 124.81 136.516 126.616 136.225 128.428C135.963 130.226 135.046 132.032 133.546 133.24C132.083 134.485 130.314 135.279 128.748 136.393C127.977 136.946 127.241 137.579 126.703 138.373C126.157 139.152 125.8 140.076 125.647 141.037C125.341 142.974 125.778 145.005 126.521 146.89C127.249 148.798 128.362 150.494 129.404 152.219C130.445 153.937 131.449 155.677 132.075 157.556C132.716 159.419 132.869 161.458 132.374 163.314C131.901 165.17 130.903 166.808 129.709 168.17C127.307 170.929 124.118 172.472 121.192 173.674C118.236 174.867 115.419 175.77 112.98 176.913C110.541 178.034 108.474 179.381 106.974 180.895C105.452 182.38 104.506 184.062 104.477 185.569C104.433 187.069 104.921 188.183 105.198 188.911C105.503 189.639 105.693 190.01 105.678 190.024Z" fill="#455A64"/>
<path d="M121.111 96.7329C121.096 96.7329 121.06 96.6164 121.002 96.3907C120.958 96.1578 120.849 95.8229 120.798 95.3715C120.652 94.4834 120.587 93.1657 120.798 91.5568C121.002 89.9552 121.555 88.0697 122.596 86.1915C123.63 84.3132 125.209 82.4714 127.284 81.0955C129.381 79.7487 131.703 79.0498 133.836 78.8532C135.977 78.6567 137.92 78.9042 139.471 79.3628C141.022 79.8142 142.208 80.4039 142.965 80.8916C143.358 81.1173 143.621 81.3503 143.817 81.4813C144.006 81.6269 144.101 81.707 144.086 81.7215C144.028 81.8307 142.47 80.4839 139.391 79.6686C137.862 79.2609 135.962 79.0498 133.88 79.2682C131.805 79.4793 129.563 80.1709 127.532 81.474C125.53 82.8063 123.986 84.5826 122.96 86.3953C121.926 88.2153 121.358 90.0353 121.118 91.6005C120.623 94.7527 121.235 96.7256 121.111 96.7329Z" fill="#455A64"/>
<path d="M183.63 89.569L219.84 152.395L193.61 172.153L177.725 149.374C177.725 149.374 164.141 156.079 155.383 143.936C151.372 138.381 144.398 127.148 139.163 116.352C131.745 101.042 136.128 88.3532 148.969 80.7675C161.571 73.3273 176.102 77.0183 183.63 89.569Z" fill="#FCCBB9"/>
<path d="M177.368 149.22C177.368 149.22 185.551 144.408 190.145 133.466C190.145 133.466 192.562 144.932 179.574 152.416L177.368 149.22Z" fill="#C1502D"/>
<path d="M170.92 101.883C170.549 101.789 169.821 103.667 167.87 104.89C165.941 106.142 163.88 106.04 163.822 106.411C163.786 106.579 164.281 106.863 165.191 106.921C166.086 106.986 167.404 106.761 168.612 105.996C169.821 105.225 170.556 104.133 170.855 103.31C171.16 102.473 171.095 101.92 170.92 101.883Z" fill="#263238"/>
<path d="M151.613 112.965C151.242 112.87 150.506 114.748 148.563 115.971C146.634 117.224 144.573 117.122 144.515 117.493C144.479 117.66 144.974 117.944 145.884 118.003C146.779 118.068 148.097 117.842 149.305 117.078C150.514 116.306 151.249 115.214 151.548 114.392C151.853 113.562 151.788 113.001 151.613 112.965Z" fill="#263238"/>
<path d="M169.158 128.381C168.619 128.031 168.32 127.383 168.248 126.743C168.175 126.102 168.284 125.454 168.393 124.821C168.539 124.005 168.706 123.146 169.26 122.528C169.747 121.989 170.461 121.72 171.167 121.574C171.931 121.414 172.761 121.37 173.467 121.698C174.574 122.2 175.164 123.54 174.967 124.733C174.778 125.935 173.912 126.954 172.849 127.536C171.786 128.119 170.541 128.308 169.325 128.286" fill="#F3B09B"/>
<path d="M170.57 120.196C170.25 120.393 171.684 122.439 170.956 125.118C170.235 127.797 167.891 129.1 168.08 129.398C168.138 129.544 168.845 129.457 169.784 128.83C170.708 128.226 171.822 127.01 172.266 125.372C172.71 123.734 172.332 122.227 171.815 121.339C171.283 120.437 170.701 120.087 170.57 120.196Z" fill="#263238"/>
<path d="M169.549 96.8412C169.12 96.3316 167.067 97.3944 164.417 98.006C161.782 98.6757 159.467 98.6684 159.321 99.3164C159.263 99.6221 159.816 100.044 160.85 100.314C161.876 100.583 163.376 100.649 164.963 100.27C166.55 99.8842 167.853 99.1416 168.639 98.4282C169.44 97.722 169.739 97.0887 169.549 96.8412Z" fill="#263238"/>
<path d="M145.104 106.099C144.442 106.055 143.801 107.598 142.556 109.047C141.362 110.532 139.964 111.449 140.125 112.09C140.212 112.388 140.773 112.541 141.61 112.345C142.44 112.148 143.51 111.551 144.347 110.539C145.184 109.535 145.577 108.37 145.621 107.518C145.665 106.659 145.41 106.135 145.104 106.099Z" fill="#263238"/>
<path d="M164.297 123.237C164.246 123.12 162.914 123.55 160.81 124.329C160.278 124.54 159.754 124.685 159.492 124.387C159.186 124.088 159.114 123.433 159.048 122.727C158.888 121.264 158.713 119.735 158.538 118.133C157.76 111.618 156.915 106.369 156.653 106.405C156.391 106.442 156.813 111.749 157.592 118.257C157.796 119.859 157.992 121.38 158.182 122.843C158.291 123.513 158.298 124.329 158.953 124.947C159.281 125.253 159.798 125.333 160.162 125.253C160.533 125.18 160.817 125.042 161.072 124.925C163.11 123.994 164.348 123.353 164.297 123.237Z" fill="#263238"/>
<path d="M193.627 117.417C193.001 121.079 193.707 125.17 193.824 128.883C193.948 132.596 195.338 136.541 198.483 138.521C201.592 140.48 206.287 140.582 207.772 143.952C208.398 145.387 208.209 147.046 208.639 148.546C209.265 150.73 211.158 152.375 213.254 153.256C213.764 153.475 214.288 153.649 214.819 153.795C215.766 155.426 216.719 157.049 217.666 158.68C221.182 164.715 225.084 171.107 231.432 174.026C234.89 175.613 238.982 175.992 242.513 174.579C246.043 173.167 248.861 169.833 249.203 166.047C249.465 163.172 248.358 160.347 248.315 157.457C248.227 151.451 252.69 145.685 251.205 139.861C249.399 132.748 240.132 130.339 236.492 123.969C234.978 121.319 234.555 118.152 233.078 115.48C230.304 110.464 224.502 108.142 219.282 105.776C217.549 104.99 215.78 104.08 214.15 103.017C214.412 102.769 214.659 102.507 214.885 102.223C217.069 99.5007 217.171 95.4239 215.482 92.3735C213.793 89.3159 210.546 87.2921 207.117 86.6588C204.882 86.2438 202.451 86.3384 200.514 85.1372C198.359 83.7977 197.238 81.0677 194.894 80.0849C193.161 79.3569 191.189 79.801 189.31 79.8738C185.161 80.0339 180.698 77.0637 175.755 73.6348C172.224 70.752 168.257 68.1821 163.75 67.9419C158.392 67.6579 153.493 70.701 149.001 73.6275C144.924 76.2847 140.352 79.8592 140.629 84.7223C146.045 93.8878 154.315 102.471 169.13 95.038C172.544 93.3272 177.451 93.2253 179.999 96.0718C182.715 99.1003 181.2 105.041 184.826 106.883C185.554 107.254 186.391 107.378 187.243 107.436C188.109 107.581 189.208 108.062 190.257 108.863C190.271 108.87 193.875 113.274 193.627 117.417Z" fill="#263238"/>
<path d="M200.571 104.755C200.549 104.741 200.687 104.537 200.782 104.085C200.869 103.649 200.855 102.935 200.44 102.171C200.054 101.392 199.217 100.664 198.059 100.256C196.902 99.812 195.482 99.6956 193.924 99.3825C193.145 99.2151 192.33 98.9748 191.558 98.5235C190.794 98.0576 190.131 97.3805 189.644 96.5652C188.639 94.9417 188.224 92.9543 187.489 91.0324C186.033 87.2031 182.32 83.8252 177.682 82.7696C176.532 82.5148 175.36 82.391 174.21 82.442C173.067 82.5075 171.939 82.704 170.861 83.0244C168.706 83.6504 166.719 84.5823 164.76 85.3103C162.802 86.0601 160.829 86.5115 158.966 86.6571C157.102 86.7881 155.347 86.6498 153.79 86.3513C150.659 85.7616 148.33 84.5604 146.852 83.6068C146.109 83.1263 145.563 82.7113 145.214 82.4056C144.857 82.1071 144.675 81.9396 144.69 81.9324C144.697 81.9178 144.901 82.0634 145.272 82.34C145.636 82.624 146.204 83.0098 146.946 83.4684C148.439 84.3712 150.761 85.5068 153.848 86.0456C155.384 86.3149 157.102 86.4387 158.936 86.2931C160.764 86.1329 162.686 85.6816 164.615 84.9317C166.551 84.2037 168.539 83.2646 170.745 82.6167C171.844 82.2818 173.001 82.078 174.195 82.0052C175.389 81.9469 176.598 82.078 177.792 82.34C182.575 83.432 186.404 86.9264 187.882 90.894C188.624 92.8596 189.025 94.8252 189.971 96.3759C190.43 97.1548 191.041 97.7882 191.747 98.2323C192.461 98.6691 193.24 98.9093 193.997 99.0768C195.518 99.4044 196.967 99.55 198.154 100.03C199.348 100.475 200.229 101.283 200.6 102.105C201.008 102.921 201 103.67 200.877 104.122C200.746 104.566 200.571 104.755 200.571 104.755Z" fill="#455A64"/>
<path d="M179.918 76.4211C179.903 76.4284 179.838 76.2974 179.729 76.0571C179.627 75.8096 179.474 75.4456 179.219 75.0161C178.979 74.572 178.608 74.077 178.105 73.5892C177.574 73.1306 176.853 72.7302 175.987 72.6137C174.218 72.3516 172.121 73.2398 170.243 74.6666C168.277 76.0935 166.013 77.4549 163.633 78.9036C158.74 81.7355 153.484 82.3689 149.852 82.1359C148.024 82.0267 146.561 81.7428 145.571 81.488C145.076 81.3715 144.697 81.2332 144.442 81.1531C144.188 81.0658 144.057 81.0148 144.057 81.0002C144.064 80.9638 144.617 81.1022 145.607 81.306C146.605 81.5098 148.053 81.7355 149.866 81.8083C153.455 81.9612 158.602 81.2842 163.4 78.5032C165.758 77.0618 168.044 75.7004 169.995 74.3172C171.925 72.883 174.138 71.9585 176.038 72.2861C176.977 72.4317 177.741 72.8903 178.287 73.3926C178.804 73.9314 179.168 74.4555 179.387 74.9214C179.627 75.3801 179.751 75.7586 179.831 76.0134C179.896 76.2828 179.933 76.4138 179.918 76.4211Z" fill="#455A64"/>
<path d="M255.87 196.041C247.811 199.696 244.361 201.37 236.302 202.331L236.331 202.433L225.615 176.705C226.758 175.643 228.068 174.354 229.539 172.774C230.805 171.413 231.81 169.84 232.545 168.137C233.441 166.069 234.511 163.274 234.62 161.563C234.758 159.445 237.401 158.6 238.435 160.224C239.469 161.847 239.228 167.7 235.967 173.706C232.705 179.712 242.65 175.621 246.305 174.194L255.87 196.041Z" fill="#FFBE9D"/>
<path d="M190.853 161.445C190.853 161.445 196.072 153.706 207.145 152.418C212.926 151.741 217.745 151.107 223.38 153.619C235.959 159.217 237.925 166.184 244.645 178.204C249.872 187.551 253.162 204.142 251.51 220.886C249.828 237.885 246.85 259.477 246.85 259.477L263.252 285.329H178.375V236.276L150.187 218.076L190.853 161.445Z" fill="#455A64"/>
<path d="M248.015 179.995C246.61 182.637 245.205 185.28 243.807 187.923C243.123 189.211 242.147 190.682 240.684 190.653C239.352 190.624 238.383 189.233 238.325 187.901C238.267 186.569 238.871 185.316 239.468 184.123C241.062 180.905 242.657 177.694 244.244 174.477L244.513 173.581C244.513 173.581 246.049 170.953 247.862 171.863C249.507 172.686 250.17 175.94 248.015 179.995Z" fill="#FFBE9D"/>
<path d="M251.014 186.526C249.609 189.169 248.204 191.811 246.806 194.454C246.122 195.742 245.146 197.213 243.683 197.184C242.351 197.155 241.382 195.764 241.324 194.432C241.266 193.1 241.87 191.848 242.467 190.654C244.062 187.436 245.656 184.225 247.243 181.008L247.512 180.112C247.512 180.112 249.048 177.484 250.861 178.394C252.514 179.217 253.169 182.471 251.014 186.526Z" fill="#FFBE9D"/>
<path d="M253.846 193.238C252.514 195.742 251.182 198.246 249.857 200.751C249.209 201.974 248.284 203.364 246.901 203.342C245.642 203.32 244.717 201.996 244.666 200.736C244.615 199.477 245.183 198.283 245.743 197.154C247.25 194.104 248.765 191.054 250.272 188.011L250.526 187.166C250.526 187.166 251.982 184.676 253.701 185.535C255.266 186.314 255.885 189.394 253.846 193.238Z" fill="#FFBE9D"/>
<path d="M256.424 196.536C255.434 198.399 254.444 200.27 253.447 202.134C252.966 203.044 252.274 204.085 251.241 204.063C250.302 204.041 249.61 203.058 249.574 202.119C249.53 201.18 249.959 200.292 250.382 199.448C251.51 197.176 252.631 194.905 253.76 192.633L253.949 192C253.949 192 255.034 190.144 256.315 190.784C257.487 191.374 257.946 193.667 256.424 196.536Z" fill="#FFBE9D"/>
<path d="M248.568 178.472C248.597 178.486 248.393 178.93 248.007 179.724C247.578 180.583 247.01 181.704 246.326 183.058C245.59 184.478 244.731 186.138 243.785 187.972C243.297 188.875 242.788 189.952 241.688 190.578C241.15 190.877 240.444 190.957 239.839 190.731C239.235 190.52 238.718 190.083 238.376 189.53C237.699 188.387 237.815 187.04 238.172 185.948C238.536 184.834 239.104 183.888 239.57 182.956C240.524 181.129 241.397 179.476 242.14 178.057C242.853 176.724 243.45 175.618 243.909 174.773C244.338 174.002 244.586 173.579 244.615 173.594C244.644 173.609 244.448 174.053 244.069 174.854C243.647 175.72 243.093 176.848 242.431 178.202C241.71 179.636 240.873 181.304 239.948 183.145C239.49 184.077 238.937 185.031 238.602 186.079C238.267 187.106 238.194 188.329 238.769 189.29C239.33 190.243 240.575 190.724 241.485 190.185C242.402 189.676 242.933 188.671 243.414 187.776C244.389 185.963 245.277 184.318 246.042 182.905C246.777 181.58 247.381 180.481 247.847 179.644C248.291 178.872 248.539 178.457 248.568 178.472Z" fill="#EB996E"/>
<path d="M251.51 185.469C251.539 185.484 251.335 185.928 250.95 186.721C250.52 187.58 249.952 188.701 249.268 190.055C248.533 191.475 247.674 193.135 246.727 194.969C246.239 195.872 245.73 196.95 244.631 197.576C244.092 197.874 243.386 197.954 242.781 197.728C242.177 197.517 241.66 197.081 241.318 196.527C240.641 195.384 240.758 194.038 241.114 192.946C241.478 191.832 242.046 190.885 242.512 189.953C243.466 188.126 244.339 186.474 245.082 185.054C245.795 183.722 246.392 182.615 246.851 181.771C247.273 180.999 247.528 180.577 247.557 180.591C247.586 180.606 247.39 181.05 247.011 181.851C246.589 182.717 246.036 183.846 245.373 185.2C244.652 186.634 243.815 188.301 242.891 190.143C242.432 191.075 241.879 192.028 241.544 193.077C241.209 194.103 241.136 195.326 241.711 196.287C242.272 197.241 243.517 197.721 244.427 197.182C245.344 196.673 245.875 195.668 246.356 194.773C247.331 192.96 248.22 191.315 248.984 189.902C249.719 188.578 250.323 187.478 250.789 186.641C251.233 185.869 251.488 185.454 251.51 185.469Z" fill="#EB996E"/>
<path d="M254.873 190.65C254.902 190.665 254.698 191.109 254.327 191.917C253.934 192.805 253.417 193.962 252.798 195.36C252.158 196.816 251.415 198.563 250.462 200.449C249.974 201.366 249.493 202.451 248.46 203.164C247.95 203.507 247.258 203.667 246.618 203.499C245.984 203.339 245.431 202.931 245.052 202.393C244.288 201.279 244.361 199.903 244.696 198.789C245.045 197.653 245.613 196.692 246.086 195.753C247.054 193.912 247.928 192.237 248.678 190.803C249.399 189.456 250.003 188.335 250.462 187.483C250.891 186.704 251.146 186.282 251.168 186.297C251.197 186.311 251 186.763 250.614 187.563C250.185 188.437 249.632 189.573 248.962 190.949C248.234 192.397 247.389 194.079 246.458 195.943C245.992 196.889 245.438 197.85 245.125 198.913C244.812 199.954 244.783 201.199 245.431 202.131C245.751 202.582 246.225 202.924 246.741 203.055C247.258 203.186 247.797 203.07 248.234 202.786C249.122 202.189 249.624 201.162 250.112 200.252C251.08 198.396 251.852 196.663 252.529 195.229C253.199 193.788 253.767 192.63 254.189 191.844C254.582 191.058 254.844 190.635 254.873 190.65Z" fill="#EB996E"/>
<path d="M205.407 74.2727L202.619 74.542L187.106 105.387L181.565 116.395C180.248 118.477 178.719 120.588 176.979 122.488C170.529 129.55 151.819 139.582 151.819 139.582L187.819 159.347L206.973 146.119L207.024 146.163C207.024 146.163 220.943 152.14 229.046 139.552C237.148 126.965 253.193 96.4621 253.193 96.4621C242.463 80.9412 224.175 72.46 205.407 74.2727Z" fill="#FFBE9D"/>
<path d="M207.154 145.978C207.154 145.978 195.135 141.749 192.288 128.077C192.288 128.077 190.213 141.654 203.587 148.446L207.154 145.978Z" fill="#EB996E"/>
<path d="M195.947 88.6522C195.787 88.4265 188.849 80.6151 183.695 89.4603C178.541 98.3055 189.155 101.931 189.323 101.691C189.483 101.443 195.947 88.6522 195.947 88.6522Z" fill="#FFBE9D"/>
<path d="M187.9 96.4984C187.878 96.4475 187.682 96.513 187.354 96.4839C187.034 96.4548 186.546 96.28 186.189 95.836C185.454 94.9478 185.534 93.004 186.422 91.3879C186.866 90.5725 187.485 89.9028 188.14 89.4296C188.788 88.9418 189.472 88.7307 189.989 88.9199C190.521 89.0874 190.688 89.5606 190.652 89.8736C190.623 90.1867 190.47 90.3323 190.506 90.376C190.521 90.4124 190.783 90.3396 190.921 89.9319C190.987 89.7353 191.009 89.466 190.899 89.1748C190.79 88.8763 190.528 88.6069 190.179 88.454C189.472 88.1046 188.49 88.374 187.769 88.8908C187.012 89.3859 186.298 90.1284 185.796 91.0457C184.813 92.8584 184.755 95.057 185.818 96.1781C186.349 96.7023 186.975 96.8188 187.361 96.7678C187.762 96.7023 187.922 96.5348 187.9 96.4984Z" fill="#EB996E"/>
<path d="M231.796 108.308C232.16 108.184 233.048 109.99 235.094 111.038C237.125 112.115 239.163 111.839 239.258 112.203C239.309 112.37 238.836 112.691 237.94 112.829C237.052 112.975 235.72 112.865 234.446 112.203C233.179 111.54 232.349 110.521 231.978 109.72C231.607 108.92 231.621 108.359 231.796 108.308Z" fill="#263238"/>
<path d="M212.626 97.084C212.997 96.9821 213.776 98.8385 215.749 100.011C217.707 101.212 219.767 101.059 219.833 101.43C219.877 101.598 219.389 101.896 218.479 101.976C217.583 102.064 216.258 101.874 215.035 101.139C213.812 100.396 213.041 99.3263 212.728 98.5109C212.4 97.681 212.451 97.1277 212.626 97.084Z" fill="#263238"/>
<path d="M218.24 120.048C218.298 119.931 219.645 120.484 221.763 121.46C222.294 121.722 222.826 121.919 223.124 121.627C223.467 121.343 223.598 120.674 223.714 119.946C223.998 118.446 224.304 116.881 224.617 115.235C225.956 108.56 227.252 103.194 227.522 103.253C227.791 103.311 226.925 108.764 225.585 115.439C225.243 117.077 224.923 118.643 224.61 120.135C224.442 120.819 224.369 121.664 223.641 122.253C223.277 122.545 222.739 122.581 222.367 122.472C221.989 122.37 221.705 122.202 221.45 122.057C219.412 120.921 218.181 120.164 218.24 120.048Z" fill="#263238"/>
<path d="M211.657 117.796C211.985 117.978 210.667 120.097 211.534 122.732C212.4 125.375 214.802 126.547 214.635 126.853C214.584 127.005 213.878 126.947 212.909 126.379C211.956 125.826 210.776 124.676 210.245 123.06C209.714 121.444 210.012 119.922 210.485 119.005C210.958 118.073 211.519 117.694 211.657 117.796Z" fill="#263238"/>
<path d="M225.512 93.8265C224.988 94.2342 223.197 92.7636 220.736 91.6061C218.297 90.3976 216.033 89.9171 216.033 89.2474C216.04 88.9343 216.674 88.6358 217.744 88.5922C218.807 88.5412 220.285 88.796 221.755 89.5022C223.219 90.2156 224.34 91.2202 224.966 92.0793C225.585 92.9456 225.752 93.6299 225.512 93.8265Z" fill="#263238"/>
<path d="M242.426 106.712C241.807 106.938 240.751 105.642 239.15 104.608C237.584 103.516 235.983 103.036 235.954 102.381C235.954 102.068 236.449 101.762 237.308 101.718C238.159 101.667 239.353 101.944 240.445 102.672C241.53 103.4 242.244 104.404 242.52 105.213C242.811 106.013 242.717 106.588 242.426 106.712Z" fill="#263238"/>
<path d="M264.381 92.3119C265.502 90.8268 265.975 88.7738 265.269 87.0485C264.57 85.3231 262.546 84.1365 260.762 84.6752C262.684 82.928 262.481 79.4045 260.377 77.8902C258.389 76.4633 255.645 76.922 253.308 76.2158C251.022 75.5315 249.216 73.7552 247.811 71.8187C246.406 69.8895 245.307 67.7419 243.844 65.8637C240.786 61.9325 236.142 59.2753 231.206 58.6346C226.27 57.994 221.094 59.3772 217.133 62.3911C214.906 59.7849 210.865 59.217 207.684 60.4983C204.503 61.7796 202.129 64.5897 200.659 67.6837C199.669 69.7803 199.05 72.0153 198.54 74.2866C198.438 74.4468 198.322 74.5997 198.22 74.7671C193.983 81.8214 189.637 90.5065 192.585 92.4211C197.725 95.7481 202.61 85.2066 202.61 85.2066C210.516 86.7354 214.119 75.7135 216.617 75.2621C219.114 74.8108 224.552 73.5368 233.608 88.6937C237.124 94.5833 244.055 98.8057 248.35 100.305C248.474 100.349 248.598 100.407 248.721 100.444C248.75 100.451 248.78 100.466 248.809 100.473C248.86 100.487 248.896 100.487 248.947 100.495C250.337 100.931 251.786 101.193 253.271 101.186C254.953 101.179 256.7 100.83 258.047 99.8176C259.394 98.8057 260.246 97.0221 259.809 95.3913C261.578 94.7798 263.26 93.8043 264.381 92.3119Z" fill="#263238"/>
<path d="M253.956 89.0037C253.956 89.0037 253.694 88.8799 253.344 88.465C253.016 88.05 252.645 87.2783 252.689 86.2373C252.711 85.7204 252.849 85.1526 253.155 84.5993C253.453 84.046 253.963 83.5219 254.647 83.2234C255.994 82.6046 257.945 82.8521 259.299 84.1698C260.66 85.5093 260.959 87.9044 259.954 89.8627C258.964 91.8574 256.613 93.1242 254.174 93.1315C251.706 93.146 249.231 91.9448 247.374 90.103C245.467 88.2757 244.062 85.8806 243.028 83.3253C241.98 80.7627 241.216 78.1856 240.342 75.7541C239.483 73.3226 238.478 71.0294 237.132 69.1002C236.964 68.8599 236.789 68.6197 236.622 68.3867C236.447 68.1538 236.243 67.9499 236.061 67.7315L235.501 67.0909C235.297 66.8943 235.1 66.6978 234.889 66.5158C234.059 65.7805 233.164 65.1544 232.247 64.6594C230.405 63.6693 228.483 63.1524 226.707 63.0141C223.125 62.752 220.3 63.9022 218.597 64.8996C217.73 65.4019 217.104 65.8751 216.697 66.21C216.289 66.5449 216.078 66.7269 216.063 66.7196C216.063 66.7196 216.777 65.8315 218.502 64.754C220.198 63.6984 223.052 62.4754 226.728 62.701C228.548 62.8248 230.521 63.3344 232.421 64.3318C233.368 64.8341 234.292 65.4674 235.151 66.2246C235.37 66.4138 235.574 66.6177 235.785 66.8143C235.981 67.0327 236.171 67.251 236.367 67.4694C236.556 67.6951 236.768 67.9062 236.95 68.1392C237.124 68.3794 237.299 68.627 237.474 68.8672C238.871 70.8401 239.891 73.1697 240.764 75.6158C241.645 78.0619 242.417 80.6317 243.451 83.1651C244.47 85.6913 245.846 88.0282 247.68 89.7972C249.471 91.5881 251.844 92.7383 254.174 92.7311C256.482 92.7383 258.695 91.5444 259.619 89.7099C260.573 87.8899 260.304 85.6476 259.073 84.4173C257.836 83.187 256.001 82.9176 254.749 83.4782C253.439 84.0242 252.929 85.3273 252.864 86.2737C252.791 87.2638 253.118 88.0136 253.417 88.4286C253.73 88.8362 253.977 88.9819 253.956 89.0037Z" fill="#FAFAFA"/>
<path d="M178.375 234.103L201.394 164.098L195.949 153.71L162.694 132.139C161.485 132.947 122.661 148.002 111.028 183.441C102.677 208.87 97.7125 261.214 97.7125 261.214L93.3445 285.303H178.375V234.103Z" fill="#27AE60"/>
<g opacity="0.2">
<g opacity="0.2">
<path opacity="0.2" d="M112.054 259.776C118.17 264.064 124.372 268.395 131.368 271.016C138.364 273.637 146.351 274.408 153.237 271.504C156.324 270.201 159.389 268.148 162.709 268.584C166.676 269.101 169.261 272.902 172.631 275.049C174.437 276.199 176.49 277.684 178.12 276.294L178.251 270.332C178.164 262.775 178.383 246.286 178.383 246.286C178.324 245.463 178.383 246.097 178.099 245.9C176.621 244.866 174.692 245.689 173.337 246.876C167.04 252.365 161.748 259.281 154.227 262.921C147.734 266.066 140.163 266.408 133.043 265.221C125.923 264.027 119.138 261.392 112.411 258.771" fill="black"/>
</g>
</g>
<path d="M171.197 159.367C171.197 159.367 151.228 173.898 163.313 203.12C175.405 232.342 186.383 247.426 186.383 247.426L225.04 215.853L218.073 202.836C215.015 197.121 212.744 191.013 211.477 184.658C209.825 176.373 205.784 163.59 196.109 156.28C190.205 151.825 181.586 153.012 171.197 159.367Z" fill="#27AE60"/>
<path d="M140.112 145.311C140.112 145.311 141.327 145.253 143.489 145.646C144.552 145.872 145.892 146.192 147.239 147.022C147.908 147.43 148.578 147.969 149.146 148.66C149.721 149.352 150.165 150.211 150.486 151.143C151.133 153.014 151.323 155.256 150.813 157.534C150.318 159.799 149.102 162.128 147.093 163.839C145.12 165.579 142.645 166.78 140.279 168.251C139.1 168.993 137.935 169.816 136.959 170.85C135.984 171.876 135.205 173.121 134.812 174.526C133.975 177.343 134.266 180.299 134.076 183.109C133.989 184.521 133.785 185.919 133.341 187.222C132.912 188.525 132.3 189.734 131.565 190.811C130.094 192.981 128.136 194.626 126.076 195.703C124.001 196.766 121.824 197.232 119.851 197.225C117.871 197.247 116.109 196.839 114.646 196.308C113.176 195.769 112.003 195.077 111.123 194.429C110.227 193.789 109.623 193.185 109.23 192.762C109.055 192.559 108.917 192.398 108.8 192.267C108.706 192.151 108.662 192.093 108.669 192.085C108.72 192.034 109.434 193.046 111.225 194.284C112.113 194.903 113.277 195.558 114.733 196.067C116.182 196.57 117.922 196.948 119.851 196.905C121.781 196.89 123.892 196.417 125.901 195.369C127.896 194.306 129.789 192.69 131.215 190.578C132.657 188.474 133.523 185.868 133.632 183.08C133.822 180.314 133.509 177.336 134.375 174.388C134.79 172.917 135.613 171.599 136.632 170.529C137.651 169.452 138.845 168.615 140.046 167.865C142.441 166.38 144.902 165.2 146.824 163.519C148.775 161.873 149.954 159.638 150.456 157.44C150.966 155.234 150.806 153.057 150.194 151.237C149.896 150.327 149.474 149.505 148.935 148.835C148.396 148.165 147.763 147.634 147.115 147.226C145.819 146.403 144.509 146.054 143.46 145.806C142.397 145.573 141.553 145.479 140.985 145.413C140.723 145.384 140.512 145.362 140.337 145.34C140.184 145.333 140.112 145.319 140.112 145.311Z" fill="#FAFAFA"/>
<path d="M158.639 139.108C158.632 139.094 158.748 139.035 158.981 138.926C159.214 138.824 159.571 138.7 160.044 138.591C160.976 138.387 162.446 138.234 164.121 138.824C164.951 139.115 165.803 139.61 166.523 140.375C167.222 141.146 167.775 142.166 167.979 143.323C168.19 144.466 168.088 145.777 167.448 146.92C166.807 148.055 165.679 148.907 164.398 149.344C161.813 150.239 158.967 149.475 157.321 147.8C155.64 146.119 155.225 143.767 155.712 142.078C156.208 140.353 157.372 139.341 158.21 138.875C158.639 138.635 159.003 138.518 159.243 138.453C159.491 138.395 159.622 138.38 159.629 138.395C159.644 138.438 159.105 138.526 158.297 139.028C157.518 139.523 156.448 140.528 156.018 142.158C155.596 143.745 156.026 145.951 157.613 147.502C159.156 149.045 161.842 149.751 164.252 148.914C165.446 148.507 166.48 147.72 167.062 146.701C167.644 145.675 167.754 144.473 167.564 143.403C167.382 142.319 166.88 141.365 166.239 140.637C165.584 139.916 164.783 139.428 164.004 139.137C162.425 138.54 160.998 138.635 160.08 138.78C159.141 138.933 158.654 139.152 158.639 139.108Z" fill="#FAFAFA"/>
<path d="M175.528 228.937C175.557 228.916 175.79 229.403 176.577 229.993C177.341 230.561 178.782 231.172 180.624 230.881C182.459 230.597 184.504 229.389 186.324 227.496C187.234 226.542 188.079 225.407 188.829 224.118C189.542 222.808 190.139 221.33 190.54 219.728C191.355 216.532 191.326 212.718 189.87 209.107C189.149 207.301 188.013 205.62 186.718 203.989C185.436 202.344 184.002 200.713 182.801 198.835C181.578 196.978 180.697 194.75 180.595 192.392C180.457 190.04 180.901 187.674 181.323 185.316C181.738 182.957 182.182 180.533 181.927 178.094C181.709 175.655 180.915 173.231 179.634 171.069C178.979 169.991 178.229 168.987 177.363 168.098C176.482 167.218 175.514 166.453 174.465 165.827C173.41 165.208 172.274 164.757 171.117 164.458C169.952 164.167 168.751 164.102 167.571 164.145C166.385 164.204 165.234 164.451 164.128 164.793C163.021 165.157 161.987 165.674 161.019 166.271C160.08 166.912 159.214 167.64 158.5 168.492C157.816 169.358 157.183 170.275 156.819 171.294C156.003 173.311 155.879 175.488 155.734 177.562C155.603 179.645 155.472 181.712 154.846 183.619C154.205 185.519 153.128 187.136 152.057 188.613C150.987 190.099 149.903 191.467 149.044 192.887C148.17 194.299 147.588 195.777 147.391 197.255C147.187 198.725 147.333 200.145 147.689 201.404C148.075 202.664 148.68 203.741 149.342 204.644C149.713 205.066 150.026 205.51 150.427 205.838C150.616 206.013 150.798 206.18 150.98 206.348C151.177 206.493 151.373 206.631 151.555 206.77C153.077 207.847 154.496 208.24 155.443 208.473C155.923 208.568 156.294 208.604 156.542 208.648C156.789 208.684 156.921 208.714 156.921 208.721C156.921 208.728 156.789 208.721 156.542 208.699C156.294 208.67 155.916 208.648 155.428 208.568C154.467 208.364 153.018 207.993 151.461 206.915C151.271 206.777 151.067 206.639 150.864 206.493C150.682 206.326 150.485 206.158 150.296 205.984C149.888 205.649 149.56 205.205 149.175 204.782C148.49 203.865 147.864 202.766 147.449 201.477C147.071 200.189 146.911 198.733 147.107 197.211C147.296 195.697 147.893 194.154 148.774 192.719C149.641 191.271 150.718 189.88 151.781 188.402C152.829 186.924 153.885 185.33 154.496 183.496C155.093 181.646 155.217 179.615 155.341 177.533C155.479 175.451 155.588 173.238 156.433 171.134C156.811 170.064 157.467 169.11 158.18 168.208C158.923 167.327 159.818 166.57 160.786 165.9C161.784 165.274 162.854 164.742 163.989 164.364C165.132 164.014 166.326 163.752 167.549 163.694C168.765 163.65 170.01 163.716 171.226 164.014C172.434 164.32 173.606 164.786 174.698 165.427C175.783 166.075 176.788 166.868 177.69 167.771C178.586 168.688 179.357 169.722 180.035 170.821C181.352 173.042 182.168 175.524 182.393 178.036C182.655 180.562 182.197 183.022 181.774 185.381C181.345 187.74 180.915 190.069 181.046 192.355C181.141 194.641 181.971 196.774 183.172 198.602C185.538 202.263 188.8 205.175 190.241 208.961C191.712 212.674 191.719 216.554 190.874 219.801C190.452 221.432 189.833 222.924 189.105 224.256C188.334 225.567 187.467 226.71 186.528 227.671C184.665 229.578 182.561 230.794 180.675 231.056C178.775 231.332 177.312 230.67 176.547 230.066C176.154 229.76 175.907 229.469 175.754 229.265C175.586 229.054 175.528 228.937 175.528 228.937Z" fill="#FAFAFA"/>
<path d="M207.022 174.628C207.036 174.635 206.963 174.766 206.818 174.999C206.672 175.232 206.425 175.567 206.061 175.945C205.347 176.717 204.095 177.692 202.282 178.282C200.491 178.879 198.082 179.017 195.723 178.086C193.372 177.19 191.1 175.348 189.652 172.815C188.196 170.281 187.693 167.464 187.759 164.974C187.832 162.484 188.356 160.199 189.462 158.612C190.554 157.003 192.112 156.34 193.153 156.202C193.685 156.136 194.1 156.165 194.376 156.224C194.653 156.282 194.784 156.333 194.784 156.347C194.777 156.406 194.202 156.195 193.182 156.377C192.192 156.559 190.729 157.236 189.732 158.794C188.712 160.322 188.232 162.55 188.181 164.989C188.145 167.42 188.647 170.158 190.045 172.596C191.435 175.035 193.619 176.819 195.876 177.7C198.14 178.617 200.441 178.522 202.188 177.984C203.957 177.452 205.202 176.542 205.937 175.829C206.672 175.093 206.985 174.598 207.022 174.628Z" fill="#FAFAFA"/>
<path d="M214.746 196.294C214.702 196.331 214.389 195.697 213.377 195.079C212.395 194.482 210.575 194.008 208.587 194.736C206.614 195.472 204.838 197.525 203.95 200.167C203.025 202.824 202.982 205.962 202.596 209.224C202.21 212.485 201.686 215.557 201.445 218.367C201.183 221.177 201.227 223.733 201.518 225.844C201.802 227.955 202.341 229.608 202.785 230.714C203.236 231.821 203.571 232.396 203.528 232.418C203.513 232.425 203.418 232.287 203.258 232.017C203.091 231.748 202.872 231.333 202.618 230.787C202.115 229.695 201.525 228.028 201.198 225.895C200.856 223.762 200.783 221.177 201.023 218.338C201.242 215.499 201.751 212.412 202.137 209.173C202.516 205.948 202.567 202.766 203.542 200.029C204.481 197.313 206.359 195.173 208.463 194.438C210.582 193.71 212.467 194.27 213.457 194.933C213.974 195.268 214.28 195.632 214.484 195.879C214.68 196.141 214.761 196.287 214.746 196.294Z" fill="#FAFAFA"/>
<path d="M96.1904 271.997C96.2195 271.99 96.3433 272.405 96.7146 273.14C97.0786 273.875 97.6901 274.938 98.7312 276.11C99.2626 276.678 99.896 277.282 100.675 277.814C101.454 278.338 102.408 278.789 103.5 278.891C104.599 279.022 105.72 278.607 106.856 278.069C107.991 277.53 109.149 276.86 110.343 276.132C112.716 274.683 115.381 272.929 118.678 272.245C121.911 271.48 125.529 271.437 128.914 269.973C132.285 268.51 135.16 265.642 137.075 262.14C139.004 258.616 139.972 254.481 140.336 250.244C140.722 246 140.54 241.771 139.397 237.919C138.815 236.005 137.97 234.207 136.842 232.656C135.721 231.105 134.287 229.839 132.692 228.929C131.105 228.004 129.424 227.305 127.895 226.388C126.351 225.5 125.048 224.277 124.051 222.944C122.034 220.258 120.957 217.317 119.763 214.791C118.598 212.25 117.31 210.037 115.73 208.472C114.172 206.892 112.359 206.077 110.852 205.749C109.324 205.414 108.086 205.611 107.307 205.836C106.521 206.091 106.157 206.332 106.142 206.302C106.142 206.302 106.499 206.033 107.278 205.749C108.064 205.494 109.324 205.254 110.889 205.574C112.439 205.88 114.296 206.688 115.912 208.29C117.543 209.862 118.868 212.105 120.054 214.653C121.27 217.186 122.369 220.098 124.349 222.712C125.34 224.015 126.584 225.172 128.099 226.038C129.598 226.934 131.28 227.626 132.903 228.565C134.541 229.482 136.034 230.8 137.191 232.394C138.363 233.988 139.223 235.83 139.827 237.781C140.999 241.705 141.181 245.993 140.795 250.274C140.424 254.554 139.441 258.748 137.468 262.344C135.51 265.911 132.561 268.845 129.081 270.345C127.349 271.109 125.536 271.458 123.796 271.75C122.056 272.034 120.36 272.245 118.758 272.601C115.526 273.257 112.905 274.96 110.503 276.394C109.294 277.115 108.13 277.792 106.972 278.323C106.382 278.578 105.829 278.84 105.232 278.993C105.087 279.03 104.941 279.081 104.788 279.102L104.344 279.146C104.046 279.197 103.754 279.146 103.47 279.139C102.327 279.022 101.345 278.535 100.551 277.989C99.7504 277.435 99.1243 276.816 98.5928 276.227C97.5591 275.026 96.9694 273.934 96.6272 273.176C96.2851 272.427 96.1904 271.997 96.1904 271.997Z" fill="#FAFAFA"/>
<path d="M225.047 215.855C225.054 215.862 224.988 215.913 224.872 216.015C224.741 216.132 224.566 216.277 224.341 216.474C223.853 216.881 223.154 217.471 222.251 218.221C220.402 219.75 217.716 221.97 214.338 224.758C207.516 230.357 197.878 238.27 186.528 247.581L186.353 247.727L186.222 247.545C184.759 245.455 183.441 243.206 182.102 240.891C180.777 238.576 179.445 236.195 178.105 233.756C175.448 228.872 172.813 223.732 170.214 218.418C167.688 213.256 165.329 208.175 163.167 203.202C162.096 200.713 161.055 198.266 160.145 195.813C159.687 194.59 159.265 193.367 158.908 192.137C158.755 191.511 158.609 190.892 158.456 190.28C158.347 189.654 158.231 189.035 158.122 188.424C157.364 183.466 157.889 178.603 159.308 174.395C160.742 170.18 162.912 166.562 165.402 163.723C167.899 160.876 170.694 158.809 173.33 157.389C175.965 155.941 178.462 155.169 180.522 154.747C182.59 154.303 184.242 154.303 185.349 154.273C185.888 154.303 186.302 154.324 186.608 154.346C186.892 154.361 187.038 154.383 187.038 154.383C187.038 154.383 186.892 154.39 186.608 154.39C186.302 154.383 185.888 154.375 185.349 154.368C184.25 154.426 182.604 154.455 180.559 154.921C178.513 155.373 176.045 156.159 173.446 157.615C170.84 159.042 168.095 161.109 165.635 163.934C163.188 166.751 161.048 170.348 159.65 174.519C158.26 178.683 157.758 183.481 158.515 188.366C158.624 188.97 158.74 189.581 158.85 190.2C158.995 190.804 159.148 191.416 159.301 192.035C159.65 193.251 160.073 194.459 160.531 195.675C161.441 198.106 162.482 200.552 163.552 203.035C165.715 207.993 168.081 213.074 170.6 218.228C173.198 223.535 175.827 228.675 178.476 233.56C179.809 235.999 181.134 238.379 182.459 240.694C183.784 243.002 185.094 245.252 186.543 247.319L186.237 247.275C197.63 238.008 207.305 230.146 214.156 224.576C217.57 221.825 220.271 219.633 222.142 218.126C223.059 217.391 223.773 216.823 224.275 216.43C224.508 216.248 224.69 216.11 224.828 216.001C224.974 215.891 225.039 215.848 225.047 215.855Z" fill="#263238"/>
<path d="M258.112 246.904C256.19 237.557 249.929 235.336 249.929 235.336L248.495 246.802L231.78 239.952L218.72 221.286L191.202 243.781C191.202 243.781 213.136 266.334 222.346 267.303C231.555 268.264 253.315 267.244 253.315 267.244C253.315 267.244 260.034 256.252 258.112 246.904Z" fill="#FFBE9D"/>
<path d="M154.54 220.878L137.534 241.196L101.206 235.933L101.272 235.459L102.393 223.95C91.5603 225.537 89.8714 233.894 89.3836 239.718C88.8449 246.161 96.7801 252.189 98.4326 253.375L98.4035 253.667C98.4035 253.667 135.146 273.548 151.802 268.088C159.534 265.555 178.36 245.79 178.36 245.79V236.26L154.54 220.878Z" fill="#FCCBB9"/>
<path d="M149.779 217.937L178.374 239.697L179.918 237.113C174.931 228.013 169.071 216.78 163.45 203.443L149.779 217.937Z" fill="#455A64"/>
<path d="M113.503 172.386C114.908 175.029 116.313 177.671 117.711 180.314C118.395 181.602 119.371 183.073 120.834 183.044C122.166 183.015 123.135 181.624 123.193 180.292C123.251 178.96 122.647 177.708 122.05 176.514C120.456 173.296 118.861 170.086 117.274 166.868L117.005 165.972C117.005 165.972 115.469 163.344 113.656 164.254C112.011 165.077 111.348 168.331 113.503 172.386Z" fill="#FCCBB9"/>
<path d="M110.503 178.918C111.908 181.561 113.313 184.203 114.711 186.846C115.395 188.135 116.284 190.035 117.747 190.006C119.079 189.977 120.397 188.542 120.455 187.21C120.513 185.878 119.647 184.24 119.057 183.046C117.463 179.828 115.869 176.618 114.282 173.4L114.012 172.505C114.012 172.505 112.476 169.876 110.663 170.786C109.004 171.609 108.348 174.863 110.503 178.918Z" fill="#FCCBB9"/>
<path d="M107.672 185.629C109.004 188.133 110.337 190.638 111.662 193.142C112.31 194.365 113.234 195.755 114.617 195.734C115.877 195.712 116.801 194.387 116.852 193.127C116.903 191.868 116.335 190.674 115.775 189.546C114.268 186.495 112.754 183.445 111.247 180.402L110.992 179.557C110.992 179.557 109.536 177.068 107.818 177.927C106.253 178.698 105.634 181.785 107.672 185.629Z" fill="#FCCBB9"/>
<path d="M105.095 188.93C106.085 190.794 107.075 192.665 108.072 194.528C108.553 195.438 109.244 196.479 110.278 196.457C111.217 196.436 111.909 195.453 111.945 194.514C111.989 193.575 111.559 192.686 111.137 191.842C110.016 189.571 108.888 187.299 107.759 185.028L107.57 184.395C107.57 184.395 106.485 182.538 105.204 183.179C104.032 183.768 103.573 186.062 105.095 188.93Z" fill="#FCCBB9"/>
<path d="M112.95 170.858C112.979 170.844 113.233 171.259 113.663 172.023C114.129 172.868 114.733 173.96 115.468 175.285C116.226 176.697 117.114 178.335 118.096 180.155C118.584 181.05 119.108 182.062 120.026 182.565C120.936 183.103 122.181 182.623 122.741 181.669C123.316 180.708 123.243 179.485 122.909 178.459C122.574 177.41 122.02 176.457 121.562 175.525C120.637 173.683 119.8 172.016 119.079 170.582C118.417 169.22 117.864 168.092 117.441 167.233C117.063 166.439 116.866 165.988 116.895 165.973C116.924 165.959 117.172 166.381 117.594 167.153C118.053 167.997 118.642 169.104 119.363 170.436C120.106 171.856 120.972 173.508 121.933 175.335C122.399 176.26 122.96 177.206 123.331 178.328C123.688 179.42 123.797 180.766 123.127 181.909C122.785 182.463 122.268 182.899 121.664 183.111C121.059 183.336 120.353 183.256 119.815 182.958C118.715 182.332 118.213 181.254 117.718 180.351C116.772 178.524 115.912 176.864 115.177 175.437C114.5 174.083 113.932 172.962 113.503 172.103C113.124 171.317 112.92 170.873 112.95 170.858Z" fill="#C55734"/>
<path d="M110.008 177.855C110.037 177.84 110.292 178.255 110.728 179.019C111.194 179.864 111.799 180.956 112.534 182.281C113.291 183.693 114.179 185.331 115.162 187.151C115.65 188.047 116.174 189.058 117.091 189.561C118.001 190.1 119.246 189.619 119.807 188.665C120.382 187.704 120.309 186.481 119.974 185.455C119.639 184.407 119.086 183.453 118.627 182.521C117.703 180.679 116.865 179.012 116.145 177.578C115.482 176.217 114.929 175.088 114.507 174.229C114.128 173.436 113.932 172.984 113.961 172.97C113.99 172.955 114.237 173.377 114.667 174.149C115.126 174.994 115.715 176.1 116.436 177.432C117.179 178.852 118.045 180.504 119.006 182.332C119.472 183.256 120.032 184.203 120.404 185.324C120.76 186.416 120.869 187.763 120.2 188.906C119.858 189.459 119.341 189.896 118.736 190.107C118.132 190.332 117.426 190.252 116.887 189.954C115.788 189.328 115.286 188.243 114.791 187.348C113.844 185.52 112.985 183.861 112.25 182.434C111.573 181.08 111.005 179.958 110.568 179.099C110.175 178.313 109.979 177.869 110.008 177.855Z" fill="#C1502D"/>
<path d="M106.645 183.048C106.674 183.033 106.929 183.455 107.351 184.242C107.774 185.028 108.341 186.185 109.011 187.627C109.688 189.068 110.46 190.794 111.428 192.65C111.916 193.56 112.418 194.586 113.306 195.183C113.743 195.467 114.282 195.591 114.799 195.453C115.316 195.322 115.789 194.98 116.109 194.528C116.75 193.596 116.721 192.352 116.415 191.31C116.102 190.248 115.541 189.287 115.083 188.34C114.151 186.477 113.299 184.788 112.578 183.346C111.909 181.97 111.348 180.835 110.926 179.961C110.547 179.16 110.343 178.709 110.373 178.694C110.402 178.68 110.649 179.102 111.079 179.881C111.537 180.733 112.142 181.854 112.862 183.201C113.612 184.635 114.486 186.309 115.454 188.151C115.927 189.083 116.495 190.051 116.845 191.187C117.179 192.301 117.245 193.676 116.488 194.79C116.109 195.322 115.556 195.729 114.915 195.897C114.275 196.064 113.583 195.904 113.073 195.562C112.04 194.849 111.559 193.764 111.071 192.847C110.118 190.961 109.375 189.214 108.735 187.758C108.116 186.36 107.599 185.203 107.206 184.314C106.827 183.506 106.616 183.062 106.645 183.048Z" fill="#C1502D"/>
</g>
<defs>
<clipPath id="clip0_803_10">
<rect width="314" height="285" fill="white"/>
</clipPath>
</defs>
</svg>
