<svg width="334" height="286" viewBox="0 0 334 286" fill="none" xmlns="http://www.w3.org/2000/svg">
<path d="M233.096 156.471C234.262 160.959 232.707 166.038 229.236 169.113C226.954 171.132 223.985 172.299 221.905 174.521C219.228 177.386 218.457 181.761 219.632 185.501C220.798 189.241 223.746 192.293 227.284 193.984C232.101 196.287 238.04 196.086 242.692 193.46C248.474 190.191 251.848 183.639 252.701 177.049C253.553 170.459 252.214 163.787 250.472 157.377" fill="#263238"/>
<path d="M306.019 272.677C312.003 271.697 317.613 273.522 323.537 274.838C325.13 275.19 326.805 275.497 328.391 275.1C330.957 274.449 332.782 271.944 333.178 269.326C333.523 267.059 332.932 264.681 331.667 262.766C331.129 261.958 330.463 261.21 329.618 260.731C328.75 260.237 327.748 260.05 326.753 259.953C323.148 259.602 319.483 260.409 316.199 261.943C312.915 263.476 310.005 265.728 307.447 268.286C306.198 269.543 306.572 270.986 306.019 272.677Z" fill="#263238"/>
<path d="M184.67 176.093C183.712 170.416 183.832 164.559 185.014 158.919C185.59 156.174 186.435 153.444 187.969 151.103C188.53 150.25 189.218 149.42 190.16 149.046C191.469 148.522 193.025 149.008 194.057 149.966C195.404 151.215 195.965 153.152 195.905 154.985C195.845 156.825 195.247 158.598 194.573 160.311C192.27 166.22 188.619 171.127 184.67 176.093Z" fill="#263238"/>
<path d="M300.625 197.718C301.986 198.683 332.078 263.46 332.078 263.46C329.662 262.42 326.984 262.158 324.411 262.704L322.781 263.138C319.863 263.916 317.088 265.18 314.583 266.878L306.01 272.683C305.322 272.294 304.866 271.583 304.791 270.79L304.769 270.543L281.454 230.525L300.625 197.718Z" fill="#27AE60"/>
<path d="M187.758 94.6285L195.777 140.204C198.357 146.338 228.457 183.498 228.457 183.498L218.501 215.468L178.977 161.425C175.304 157.498 173.307 152.299 173.412 146.929L174.953 98.2339L187.758 94.6285Z" fill="#FFBE9D"/>
<path d="M230.433 176.356L251.07 177.919L269.067 180.709C269.067 180.709 300.633 189.005 300.633 192.46C300.633 193.612 292.008 221.056 287.206 237.497C285.134 244.596 284.304 249.637 284.304 249.637L300.633 285.9H222.975V252.644C222.975 252.644 217.762 209.014 218.659 203.059C219.557 197.105 230.433 176.356 230.433 176.356Z" fill="#27AE60"/>
<path d="M177.99 76.2137C178.11 71.5686 178.581 66.9385 179.404 62.3682C179.524 61.7175 179.786 60.9321 180.436 60.8498C181.244 60.7451 181.656 61.7848 181.76 62.5851C182.478 68.0829 182.247 73.7004 181.08 79.1234" fill="#EB996E"/>
<path d="M187.168 172.72C196.025 164.806 196.324 151.095 195.568 140.182C195.516 139.374 195.456 138.499 195.913 137.841C196.758 136.637 198.815 137.078 199.638 138.305C200.46 139.524 200.415 141.11 200.341 142.583C200.797 141.334 202.742 141.342 203.654 142.306C204.567 143.271 204.724 144.7 204.829 146.024C204.926 147.243 205.023 148.462 205.12 149.682L230.986 174.336C230.986 174.336 231.697 172.122 233.597 173.386C235.497 174.65 236.723 177.403 236.723 177.403L218.495 217.196L184.663 176.034C184.67 176.026 185.732 174.007 187.168 172.72Z" fill="#27AE60"/>
<path d="M222.28 200.255C219.662 203.748 217.478 207.622 216.341 211.841C215.204 216.06 215.174 220.638 216.723 224.722C218.914 230.474 224.345 234.857 230.426 235.792" fill="#27AE60"/>
<path d="M306.018 272.675L305.038 285.915H324.21L328.705 262.54C322.863 262.21 317.104 264.021 312.496 267.619L306.018 272.675Z" fill="#FFBE9D"/>
<path d="M196.182 169.795C196.16 169.78 196.31 169.406 196.601 168.748C196.9 168.09 197.304 167.118 197.761 165.906C198.224 164.694 198.703 163.228 199.159 161.582C199.593 159.929 199.997 158.089 200.289 156.137C200.566 154.185 200.708 152.3 200.76 150.594C200.798 148.881 200.753 147.34 200.655 146.046C200.566 144.752 200.453 143.713 200.356 142.995C200.266 142.276 200.229 141.873 200.252 141.865C200.281 141.858 200.364 142.254 200.506 142.965C200.655 143.675 200.805 144.722 200.932 146.024C201.067 147.318 201.134 148.874 201.119 150.602C201.082 152.33 200.955 154.222 200.678 156.197C200.386 158.164 199.967 160.019 199.511 161.68C199.032 163.34 198.524 164.806 198.022 166.011C197.529 167.215 197.087 168.172 196.743 168.816C196.399 169.451 196.205 169.803 196.182 169.795Z" fill="#263238"/>
<path d="M201.814 162.846C201.762 162.817 202.121 162.113 202.615 160.947C203.108 159.78 203.707 158.134 204.141 156.257C204.574 154.379 204.762 152.636 204.821 151.372C204.889 150.108 204.874 149.323 204.934 149.315C204.978 149.315 205.091 150.101 205.098 151.38C205.098 152.659 204.956 154.439 204.515 156.346C204.073 158.254 203.423 159.914 202.854 161.066C202.301 162.218 201.859 162.876 201.814 162.846Z" fill="#263238"/>
<path d="M232.198 183.539C232.138 183.501 232.453 183.015 232.632 182.14C232.827 181.265 232.812 180.001 232.438 178.677C232.064 177.353 231.503 176.208 231.136 175.371C230.762 174.533 230.568 173.987 230.62 173.972C230.672 173.95 230.949 174.443 231.383 175.251C231.809 176.066 232.415 177.196 232.812 178.572C233.201 179.956 233.171 181.302 232.901 182.207C232.64 183.113 232.228 183.561 232.198 183.539Z" fill="#263238"/>
<path d="M227.703 236.225C227.695 236.233 227.583 236.173 227.381 236.046C227.142 235.888 226.85 235.694 226.491 235.462C225.728 234.946 224.628 234.183 223.327 233.166C222.033 232.141 220.529 230.847 219.131 229.149C217.739 227.458 216.49 225.304 215.884 222.828C215.256 220.36 215.211 217.899 215.458 215.722C215.705 213.538 216.221 211.623 216.737 210.053C217.261 208.482 217.784 207.255 218.166 206.41C218.36 205.991 218.51 205.669 218.622 205.452C218.734 205.235 218.794 205.123 218.809 205.131C218.839 205.146 218.644 205.617 218.308 206.47C217.971 207.33 217.492 208.571 217.006 210.135C216.528 211.706 216.041 213.606 215.824 215.76C215.6 217.907 215.66 220.315 216.273 222.731C216.864 225.155 218.068 227.249 219.422 228.925C220.784 230.608 222.25 231.909 223.514 232.949C224.785 233.988 225.855 234.781 226.588 235.342C226.925 235.597 227.201 235.814 227.433 235.986C227.613 236.128 227.71 236.21 227.703 236.225Z" fill="#263238"/>
<path d="M270.077 243.622C270.077 243.637 269.965 243.674 269.748 243.742C269.523 243.802 269.202 243.914 268.775 243.996C267.923 244.191 266.674 244.392 265.11 244.437C262.013 244.55 257.548 243.839 253.471 241.258C249.395 238.678 246.837 234.953 245.61 232.103C244.982 230.674 244.622 229.455 244.435 228.602C244.331 228.183 244.286 227.839 244.248 227.615C244.211 227.39 244.204 227.271 244.211 227.263C244.241 227.256 244.346 227.727 244.578 228.557C244.809 229.395 245.206 230.584 245.857 231.983C247.128 234.766 249.679 238.393 253.673 240.929C257.668 243.45 262.036 244.198 265.103 244.161C266.644 244.153 267.893 243.996 268.745 243.846C269.598 243.697 270.069 243.592 270.077 243.622Z" fill="#263238"/>
<path d="M281.978 258.163C281.873 258.134 282.861 254.005 284.185 248.933C285.509 243.862 286.668 239.77 286.773 239.8C286.877 239.83 285.89 243.959 284.566 249.038C283.242 254.094 282.083 258.186 281.978 258.163Z" fill="#263238"/>
<path d="M292.442 249.383C292.353 249.436 289.346 244.521 285.725 238.403C282.105 232.284 279.255 227.28 279.345 227.227C279.435 227.175 282.442 232.089 286.062 238.208C289.682 244.319 292.54 249.323 292.442 249.383Z" fill="#263238"/>
<path d="M321.127 261.491C321.134 261.565 320.035 261.655 318.329 262.089C317.476 262.298 316.482 262.628 315.404 263.061C314.335 263.51 313.19 264.086 312.053 264.789C310.924 265.515 309.922 266.3 309.054 267.071C308.201 267.856 307.476 268.619 306.922 269.3C305.8 270.654 305.247 271.604 305.187 271.566C305.164 271.551 305.284 271.304 305.531 270.871C305.77 270.429 306.167 269.831 306.705 269.12C307.244 268.41 307.954 267.617 308.807 266.801C309.675 266.001 310.692 265.186 311.844 264.453C313.003 263.727 314.17 263.159 315.27 262.717C316.369 262.291 317.394 261.992 318.269 261.812C319.144 261.625 319.855 261.528 320.356 261.498C320.85 261.468 321.119 261.461 321.127 261.491Z" fill="#263238"/>
<path d="M324.794 256.99C324.786 257.072 323.59 256.923 321.675 257.087C320.717 257.162 319.588 257.357 318.354 257.671C317.134 258.007 315.81 258.479 314.501 259.129C313.192 259.795 312.025 260.566 311.023 261.344C310.036 262.144 309.205 262.929 308.57 263.655C307.291 265.091 306.685 266.138 306.625 266.093C306.602 266.078 306.745 265.817 307.021 265.345C307.156 265.106 307.328 264.822 307.567 264.515C307.799 264.201 308.039 263.834 308.368 263.468C308.981 262.712 309.811 261.882 310.806 261.059C311.816 260.251 312.998 259.451 314.329 258.778C315.668 258.12 317.015 257.648 318.271 257.319C319.528 257.02 320.687 256.848 321.66 256.811C322.146 256.766 322.587 256.788 322.976 256.796C323.365 256.796 323.694 256.826 323.964 256.856C324.495 256.915 324.794 256.96 324.794 256.99Z" fill="#263238"/>
<g opacity="0.3">
<g opacity="0.3">
<g opacity="0.3">
<path opacity="0.3" d="M245.011 228.857C243.246 232.193 244.719 236.262 246.327 239.68C247.577 242.328 248.968 245.021 251.234 246.861C253.463 248.671 256.47 249.509 259.313 249.105C262.163 248.701 264.81 247.07 266.456 244.714C256.949 244.751 247.771 238.259 244.644 229.283" fill="black"/>
</g>
</g>
</g>
<g opacity="0.3">
<g opacity="0.3">
<g opacity="0.3">
<path opacity="0.3" d="M279.352 227.227C278.014 230.436 279.023 234.834 280.43 238.013C281.843 241.192 283.332 244.745 282.195 248.044C281.985 248.657 281.679 249.278 281.754 249.929C281.836 250.572 282.531 251.193 283.107 250.894C283.444 250.722 283.594 250.325 283.706 249.966C284.768 246.765 285.838 243.563 286.9 240.369" fill="black"/>
</g>
</g>
</g>
<path d="M208.592 184.973C208.487 184.958 208.831 182.287 209.354 179.019C209.886 175.75 210.402 173.109 210.506 173.124C210.611 173.139 210.267 175.81 209.743 179.078C209.212 182.347 208.704 184.988 208.592 184.973Z" fill="#FAFAFA"/>
<path d="M200.715 183.32C200.618 183.388 199.331 181.585 197.558 179.521C195.786 177.449 194.207 175.908 194.282 175.825C194.349 175.751 196.062 177.179 197.85 179.274C199.638 181.353 200.797 183.261 200.715 183.32Z" fill="#FAFAFA"/>
<path d="M207.477 164.05C207.522 164.08 207.2 164.596 206.632 165.396C206.063 166.197 205.241 167.266 204.268 168.403C203.303 169.54 202.376 170.528 201.68 171.223C200.984 171.911 200.528 172.308 200.491 172.271C200.408 172.188 202.047 170.423 203.969 168.149C205.899 165.89 207.387 163.983 207.477 164.05Z" fill="#FAFAFA"/>
<path d="M204.836 154.636C204.731 154.68 204.305 153.723 203.474 152.781C202.659 151.823 201.776 151.27 201.836 151.165C201.874 151.075 202.898 151.509 203.773 152.526C204.649 153.536 204.933 154.613 204.836 154.636Z" fill="#FAFAFA"/>
<path d="M198.015 160.438C198.03 160.543 197.162 160.767 196.07 160.947C194.978 161.119 194.081 161.171 194.066 161.067C194.051 160.962 194.918 160.737 196.01 160.558C197.102 160.386 198 160.333 198.015 160.438Z" fill="#FAFAFA"/>
<path d="M215.225 168.748C215.106 168.733 215.397 167.155 214.979 165.27C214.582 163.378 213.662 162.061 213.759 162.001C213.819 161.927 214.934 163.206 215.353 165.188C215.794 167.17 215.308 168.786 215.225 168.748Z" fill="#FAFAFA"/>
<path d="M224.419 178.636C224.314 178.696 223.529 177.111 222.01 175.6C220.507 174.074 218.929 173.273 218.988 173.169C219.018 173.079 220.724 173.737 222.287 175.323C223.858 176.894 224.509 178.607 224.419 178.636Z" fill="#FAFAFA"/>
<path d="M209.661 195.797C209.699 195.887 208.173 196.44 206.206 196.365C204.238 196.305 202.757 195.647 202.802 195.565C202.84 195.453 204.328 195.924 206.221 195.976C208.113 196.051 209.631 195.685 209.661 195.797Z" fill="#FAFAFA"/>
<path d="M216.587 199.346C216.483 199.309 217.066 197.581 217.552 195.397C218.046 193.212 218.255 191.41 218.368 191.417C218.465 191.425 218.427 193.272 217.926 195.486C217.44 197.693 216.685 199.383 216.587 199.346Z" fill="#FAFAFA"/>
<path d="M231.72 199.926C231.638 200.001 230.179 198.52 228.452 196.627C226.724 194.735 225.392 193.142 225.475 193.067C225.557 192.992 227.015 194.473 228.743 196.366C230.464 198.266 231.795 199.859 231.72 199.926Z" fill="#FAFAFA"/>
<path d="M238.772 217.403C238.697 217.478 237.605 216.476 236.334 215.159C235.062 213.843 234.097 212.721 234.172 212.646C234.247 212.571 235.339 213.574 236.611 214.89C237.882 216.199 238.847 217.329 238.772 217.403Z" fill="#FAFAFA"/>
<path d="M225.668 219.074C225.735 219.149 224.486 220.308 222.683 221.348C220.88 222.403 219.257 222.911 219.227 222.814C219.182 222.709 220.716 222.044 222.489 221.011C224.261 219.987 225.593 218.984 225.668 219.074Z" fill="#FAFAFA"/>
<path d="M231.698 235.702C231.585 235.672 232.034 233.713 232.259 231.244C232.491 228.783 232.416 226.771 232.535 226.764C232.633 226.749 232.887 228.783 232.648 231.282C232.416 233.787 231.795 235.732 231.698 235.702Z" fill="#FAFAFA"/>
<path d="M254.368 222.186C254.308 222.269 252.707 221.147 251.129 219.336C249.543 217.534 248.653 215.798 248.735 215.753C248.833 215.694 249.865 217.317 251.421 219.082C252.969 220.855 254.443 222.089 254.368 222.186Z" fill="#FAFAFA"/>
<path d="M262.649 229.239C262.559 229.172 263.696 227.616 264.96 225.619C266.239 223.622 267.166 221.946 267.271 221.991C267.361 222.036 266.583 223.809 265.289 225.828C264.01 227.848 262.731 229.307 262.649 229.239Z" fill="#FAFAFA"/>
<path d="M261.438 211.974C261.408 212.079 259.71 211.712 257.638 211.159C255.566 210.605 253.906 210.067 253.936 209.962C253.966 209.857 255.664 210.224 257.736 210.777C259.808 211.331 261.468 211.869 261.438 211.974Z" fill="#FAFAFA"/>
<path d="M255.401 242.358C255.296 242.35 255.296 240.765 255.416 238.812C255.528 236.86 255.708 235.282 255.82 235.289C255.925 235.297 255.925 236.883 255.805 238.835C255.685 240.787 255.506 242.365 255.401 242.358Z" fill="#FAFAFA"/>
<path d="M260.622 252.762C260.51 252.71 261.295 251.162 261.564 249.075C261.856 246.995 261.504 245.29 261.624 245.267C261.714 245.23 262.245 246.958 261.946 249.127C261.669 251.296 260.697 252.822 260.622 252.762Z" fill="#FAFAFA"/>
<path d="M247.091 250.469C246.993 250.484 246.762 248.726 247.173 246.602C247.577 244.478 248.445 242.929 248.527 242.982C248.632 243.026 247.943 244.612 247.554 246.677C247.151 248.741 247.203 250.462 247.091 250.469Z" fill="#FAFAFA"/>
<path d="M234.749 255.739C234.674 255.821 233.156 254.527 231.233 253.009C229.311 251.483 227.71 250.309 227.77 250.219C227.83 250.129 229.543 251.169 231.473 252.702C233.41 254.236 234.816 255.664 234.749 255.739Z" fill="#FAFAFA"/>
<path d="M243.104 241.065C243.157 241.162 241.19 242.299 238.721 243.615C236.245 244.932 234.203 245.912 234.151 245.822C234.099 245.725 236.066 244.588 238.534 243.271C241.01 241.955 243.06 240.967 243.104 241.065Z" fill="#FAFAFA"/>
<path d="M269.068 274.001C269.068 274.016 268.903 274.053 268.582 274.128C268.26 274.188 267.789 274.307 267.175 274.39C265.949 274.592 264.146 274.764 261.917 274.726C259.688 274.696 257.033 274.39 254.175 273.634C251.325 272.886 248.288 271.644 245.386 269.849C242.499 268.032 240.053 265.847 238.123 263.611C236.193 261.374 234.75 259.123 233.747 257.133C232.738 255.144 232.102 253.453 231.743 252.264C231.541 251.673 231.443 251.202 231.361 250.887C231.279 250.573 231.249 250.401 231.256 250.401C231.271 250.401 231.331 250.558 231.436 250.872C231.548 251.179 231.668 251.643 231.885 252.226C232.289 253.401 232.954 255.061 233.987 257.021C235.019 258.973 236.47 261.187 238.392 263.386C240.315 265.586 242.738 267.732 245.588 269.528C248.453 271.3 251.445 272.535 254.265 273.297C257.085 274.06 259.71 274.397 261.917 274.464C264.124 274.539 265.919 274.405 267.146 274.255C267.766 274.203 268.238 274.105 268.559 274.068C268.896 274.001 269.068 273.986 269.068 274.001Z" fill="#263238"/>
<path d="M246.716 270.124C246.627 270.154 246.342 268.486 247.068 266.586C247.771 264.686 249.08 263.609 249.125 263.691C249.215 263.773 248.093 264.918 247.427 266.72C246.746 268.523 246.844 270.124 246.716 270.124Z" fill="#FAFAFA"/>
<path d="M240.561 267.554C240.614 267.658 239.492 268.204 238.617 269.401C237.719 270.583 237.51 271.817 237.39 271.795C237.293 271.81 237.33 270.448 238.302 269.169C239.26 267.883 240.546 267.456 240.561 267.554Z" fill="#FAFAFA"/>
<path d="M264.234 281.646C264.234 281.743 262.529 281.608 260.793 280.509C259.043 279.424 258.168 277.958 258.258 277.913C258.355 277.838 259.327 279.147 261.003 280.172C262.656 281.227 264.257 281.526 264.234 281.646Z" fill="#FAFAFA"/>
<path d="M267.914 260.925C268.011 260.925 267.795 262.481 266.575 263.91C265.371 265.346 263.86 265.81 263.853 265.713C263.8 265.608 265.147 265.01 266.284 263.656C267.428 262.317 267.802 260.888 267.914 260.925Z" fill="#FAFAFA"/>
<path d="M278.38 276.372C278.29 276.297 279.277 275.048 280.19 273.328C281.11 271.607 281.589 270.089 281.701 270.126C281.798 270.149 281.476 271.749 280.534 273.515C279.599 275.28 278.447 276.447 278.38 276.372Z" fill="#FAFAFA"/>
<path d="M292.21 278.412C292.255 278.524 290.894 279.063 289.525 280.192C288.141 281.307 287.341 282.534 287.243 282.466C287.154 282.429 287.842 281.06 289.278 279.893C290.707 278.711 292.188 278.315 292.21 278.412Z" fill="#FAFAFA"/>
<path d="M281.663 260.693C281.551 260.731 280.892 258.539 279.516 256.116C278.155 253.685 276.621 251.994 276.711 251.912C276.748 251.882 277.175 252.256 277.781 252.959C278.387 253.655 279.15 254.694 279.853 255.929C280.548 257.163 281.035 258.352 281.319 259.235C281.603 260.117 281.708 260.686 281.663 260.693Z" fill="#FAFAFA"/>
<path d="M283.727 238.425C283.75 238.529 282.164 238.986 280.182 239.442C278.2 239.898 276.569 240.183 276.547 240.078C276.524 239.973 278.11 239.517 280.092 239.061C282.082 238.604 283.705 238.32 283.727 238.425Z" fill="#FAFAFA"/>
<path d="M277.363 231.768C277.28 231.836 276.256 230.654 275.074 229.143C273.892 227.625 273.009 226.338 273.091 226.278C273.174 226.211 274.199 227.385 275.38 228.904C276.562 230.415 277.452 231.701 277.363 231.768Z" fill="#FAFAFA"/>
<path d="M293.131 227.775C293.124 227.88 291.493 227.775 289.548 227.311C287.596 226.855 286.1 226.212 286.137 226.115C286.175 226.01 287.715 226.474 289.638 226.93C291.56 227.386 293.146 227.663 293.131 227.775Z" fill="#FAFAFA"/>
<path d="M304.342 227.572C304.245 227.519 304.858 226.165 305.486 224.452C306.115 222.74 306.518 221.311 306.631 221.333C306.728 221.356 306.496 222.844 305.853 224.587C305.217 226.337 304.432 227.624 304.342 227.572Z" fill="#FAFAFA"/>
<path d="M301.821 242.768C301.799 242.865 300.243 242.476 298.56 241.466C296.869 240.471 295.785 239.289 295.86 239.222C295.934 239.14 297.116 240.165 298.762 241.13C300.392 242.109 301.859 242.655 301.821 242.768Z" fill="#FAFAFA"/>
<path d="M309.108 242.305C309.003 242.283 309.37 240.293 309.931 237.862C310.492 235.431 311.031 233.479 311.135 233.509C311.24 233.531 310.873 235.521 310.312 237.952C309.751 240.383 309.213 242.328 309.108 242.305Z" fill="#FAFAFA"/>
<path d="M303.027 259.301C302.937 259.36 301.755 257.887 300.379 256.009C299.003 254.125 297.963 252.554 298.045 252.486C298.135 252.427 299.317 253.893 300.693 255.778C302.07 257.655 303.109 259.233 303.027 259.301Z" fill="#FAFAFA"/>
<path d="M313.41 252.801C313.305 252.846 312.625 251.499 311.547 249.988C310.478 248.47 309.431 247.378 309.513 247.295C309.58 247.221 310.77 248.208 311.869 249.764C312.969 251.312 313.507 252.763 313.41 252.801Z" fill="#FAFAFA"/>
<path d="M323.147 251.341C323.05 251.401 322.07 249.935 320.753 248.215C319.437 246.487 318.278 245.163 318.36 245.081C318.435 245.006 319.729 246.232 321.06 247.975C322.399 249.718 323.237 251.289 323.147 251.341Z" fill="#FAFAFA"/>
<path d="M320.859 257.798C320.74 257.805 320.822 256.504 319.969 255.247C319.147 253.968 317.927 253.527 317.972 253.422C317.987 253.377 318.316 253.414 318.787 253.654C319.259 253.886 319.85 254.349 320.298 255.03C320.747 255.711 320.942 256.436 320.972 256.96C321.002 257.483 320.904 257.798 320.859 257.798Z" fill="#FAFAFA"/>
<path d="M313.266 266.645C313.206 266.63 313.228 266.443 313.168 266.181C313.116 265.919 312.959 265.567 312.652 265.321C312.346 265.081 311.964 265.021 311.695 265.029C311.426 265.036 311.246 265.096 311.224 265.044C311.194 265.006 311.336 264.842 311.657 264.752C311.964 264.662 312.473 264.685 312.899 265.006C313.318 265.336 313.46 265.822 313.445 266.143C313.43 266.488 313.311 266.66 313.266 266.645Z" fill="#FAFAFA"/>
<path d="M235.445 280.789C235.422 280.879 233.478 280.146 231.712 278.358C229.925 276.585 229.191 274.641 229.281 274.626C229.386 274.566 230.261 276.376 231.989 278.089C233.694 279.809 235.505 280.677 235.445 280.789Z" fill="#FAFAFA"/>
<path d="M187.835 95.1375C186.638 83.7605 184.462 73.0641 183.871 61.9039C183.841 61.3429 183.781 60.7146 183.34 60.363C182.741 59.8843 181.791 60.2658 181.402 60.924C181.013 61.5823 181.021 62.3901 181.021 63.1531C181.043 69.0698 180.033 74.9864 178.059 80.5665C176.772 84.1868 175.082 87.6725 174.109 91.3901C173.137 95.1076 174.955 96.3717 176.623 99.8275" fill="#FFBE9D"/>
<path d="M176.622 99.8277C173.638 97.6061 172.052 93.6492 172.673 89.984C173.047 87.74 174.161 85.698 175.044 83.6036C175.934 81.5092 176.607 79.1904 176.069 76.9763C175.859 76.131 175.478 75.3157 175.478 74.4406C175.47 73.5729 176.031 72.6005 176.899 72.5556C177.557 72.5257 178.111 73.0268 178.522 73.5355C179.973 75.3382 181.147 80.6116 180.414 84.5386" fill="#FFBE9D"/>
<path d="M180.415 84.5467C180.377 84.5393 180.489 83.9409 180.534 82.8488C180.572 81.7567 180.527 80.1709 180.153 78.2561C179.966 77.2986 179.689 76.2664 179.255 75.2117C179.038 74.6881 178.784 74.1495 178.417 73.6933C178.058 73.237 177.58 72.7807 177.011 72.7433C176.443 72.6984 175.949 73.1996 175.762 73.7905C175.553 74.3814 175.687 75.0546 175.882 75.7129C176.084 76.3711 176.331 77.0817 176.405 77.8297C176.48 78.5777 176.45 79.3407 176.323 80.0887C175.799 83.1181 174.184 85.579 173.361 88.0025C172.942 89.2143 172.688 90.4111 172.695 91.548C172.688 92.685 172.875 93.7397 173.159 94.6597C173.735 96.5147 174.685 97.8237 175.403 98.6241C176.136 99.4319 176.637 99.7835 176.607 99.8134C176.6 99.8209 176.473 99.7386 176.241 99.5666C176.001 99.3945 175.672 99.1178 175.291 98.7288C174.52 97.9434 173.518 96.6344 172.89 94.742C172.583 93.7995 172.374 92.7149 172.366 91.5405C172.344 90.3662 172.598 89.117 173.017 87.8753C173.84 85.392 175.433 82.9385 175.927 80.0139C176.054 79.2883 176.076 78.5627 176.009 77.8596C175.942 77.149 175.717 76.4908 175.508 75.8101C175.306 75.1369 175.149 74.3665 175.396 73.6559C175.515 73.3118 175.702 72.9827 175.986 72.7358C176.263 72.4815 176.645 72.3394 177.019 72.3693C177.782 72.4366 178.29 72.9827 178.672 73.4689C179.068 73.9775 179.315 74.5385 179.539 75.0771C179.973 76.1617 180.228 77.2238 180.407 78.1887C180.751 80.1335 180.759 81.7417 180.669 82.8413C180.617 83.3873 180.564 83.8137 180.504 84.0979C180.467 84.3971 180.43 84.5467 180.415 84.5467Z" fill="#EB996E"/>
<path d="M149.635 50.0779C149.568 50.1601 145.356 46.7343 140.24 42.4333C135.116 38.1248 131.025 34.5718 131.092 34.4896C131.159 34.4073 135.371 37.8256 140.487 42.1341C145.611 46.4426 149.71 49.9956 149.635 50.0779Z" fill="#263238"/>
<path d="M170.966 44.9567C170.862 44.9642 170.435 38.3145 170.024 30.1089C169.613 21.9033 169.358 15.2461 169.47 15.2387C169.575 15.2312 170.001 21.8809 170.413 30.0865C170.824 38.2995 171.071 44.9567 170.966 44.9567Z" fill="#263238"/>
<path d="M157.384 40.2044C157.279 40.2343 155.97 36.4419 154.452 31.7295C152.933 27.0171 151.789 23.1724 151.894 23.135C151.998 23.1051 153.307 26.8974 154.826 31.6098C156.337 36.3222 157.481 40.1744 157.384 40.2044Z" fill="#263238"/>
<path d="M145.272 57.095C145.227 57.1922 142.647 56.1001 139.498 54.664C136.356 53.2203 133.843 51.9787 133.888 51.8814C133.933 51.7842 136.513 52.8688 139.662 54.3124C142.804 55.7486 145.317 56.9977 145.272 57.095Z" fill="#263238"/>
<path d="M125.594 48.5C125.579 48.6048 124.958 48.6197 124.202 48.5225C123.447 48.4252 122.848 48.2682 122.863 48.156C122.878 48.0512 123.499 48.0363 124.255 48.1335C125.003 48.2308 125.608 48.3953 125.594 48.5Z" fill="#263238"/>
<path d="M152.379 18.3118C152.274 18.3118 152.184 17.6984 152.184 16.9429C152.184 16.1875 152.274 15.5741 152.379 15.5741C152.484 15.5741 152.573 16.1875 152.573 16.9429C152.573 17.7059 152.484 18.3118 152.379 18.3118Z" fill="#263238"/>
<path d="M197.424 28.8744C197.506 28.9492 194.05 32.9061 189.719 37.7158C185.381 42.5254 181.805 46.3701 181.723 46.2953C181.641 46.2205 185.089 42.2636 189.428 37.454C193.766 32.6443 197.341 28.8071 197.424 28.8744Z" fill="#263238"/>
<path d="M202.914 23.4356C202.989 23.5104 202.593 24.034 202.024 24.595C201.456 25.1635 200.94 25.5599 200.865 25.4851C200.79 25.4103 201.186 24.8867 201.755 24.3257C202.316 23.7572 202.84 23.3608 202.914 23.4356Z" fill="#263238"/>
<path d="M216.245 42.5798C216.26 42.6022 215.893 42.8191 215.227 43.1857C214.562 43.5522 213.589 44.0683 212.37 44.6742C209.939 45.9009 206.543 47.5016 202.706 49.0874C198.869 50.6731 195.338 51.9522 192.75 52.8049C191.456 53.2313 190.409 53.5604 189.676 53.7699C188.943 53.9793 188.539 54.084 188.531 54.0616C188.524 54.0391 188.913 53.8821 189.631 53.6277C190.409 53.351 191.434 52.9845 192.66 52.5431C195.218 51.6231 198.727 50.3066 202.556 48.7209C206.379 47.1351 209.79 45.5793 212.25 44.4199C213.432 43.8589 214.405 43.3951 215.153 43.0435C215.848 42.7294 216.237 42.5573 216.245 42.5798Z" fill="#263238"/>
<path d="M205.308 61.0008C205.323 61.0531 204.567 61.3149 203.325 61.659C202.084 62.0031 200.341 62.407 198.404 62.7361C196.459 63.0652 194.686 63.2597 193.399 63.3495C192.113 63.4393 191.313 63.4393 191.313 63.3869C191.305 63.3271 192.098 63.2373 193.377 63.0727C194.649 62.9157 196.414 62.6763 198.344 62.3472C200.274 62.0181 202.009 61.659 203.266 61.3823C204.507 61.113 205.285 60.9409 205.308 61.0008Z" fill="#263238"/>
<path d="M215.248 59.1582C215.248 59.2629 214.283 59.3527 213.093 59.3527C211.904 59.3527 210.939 59.2629 210.939 59.1582C210.939 59.0535 211.904 58.9637 213.093 58.9637C214.283 58.9637 215.248 59.046 215.248 59.1582Z" fill="#263238"/>
<path d="M278.207 145.289C278.604 147.443 280.646 149.103 282.83 149.283C285.007 149.463 287.191 148.296 288.462 146.515C289.734 144.735 290.153 142.431 289.861 140.262C289.435 137.113 287.34 134.084 284.304 133.149C281.267 132.206 277.489 133.882 276.652 136.948L273.151 141.84L278.207 145.289Z" fill="#263238"/>
<path d="M274.064 135.692C275.485 124.345 267.279 113.977 255.76 112.878C244.899 111.845 235.25 119.931 233.627 130.71C232.198 140.165 230.971 149.709 231.016 153.172C231.151 163.622 237.262 167.691 239.745 168.918C240.314 169.195 241.87 169.516 242.498 169.606C242.536 169.613 242.565 169.651 242.558 169.688L240.239 181.686C239.184 189.548 243.575 196.556 251.422 197.701C259.298 198.845 265.454 192.809 266.651 184.94L274.064 135.692Z" fill="#FFBE9D"/>
<path d="M235.427 136.833C235.599 137.08 236.983 136.34 238.749 136.601C240.521 136.841 241.688 137.94 241.905 137.746C242.01 137.664 241.86 137.245 241.359 136.751C240.865 136.257 239.968 135.726 238.868 135.569C237.769 135.412 236.781 135.681 236.183 136.025C235.577 136.362 235.338 136.721 235.427 136.833Z" fill="#263238"/>
<path d="M251.168 140.242C251.34 140.489 252.724 139.748 254.489 140.01C256.262 140.249 257.429 141.349 257.645 141.154C257.75 141.072 257.601 140.653 257.099 140.159C256.606 139.666 255.708 139.135 254.609 138.978C253.509 138.82 252.522 139.097 251.923 139.434C251.325 139.77 251.086 140.129 251.168 140.242Z" fill="#263238"/>
<path d="M245.048 148.601C245.071 148.504 244.001 148.153 242.251 147.666C241.81 147.554 241.391 147.405 241.361 147.083C241.301 146.739 241.563 146.283 241.854 145.789C242.438 144.757 243.051 143.68 243.694 142.543C246.268 137.913 248.197 134.083 248.01 133.978C247.823 133.873 245.587 137.546 243.021 142.176C242.4 143.321 241.802 144.405 241.234 145.452C240.987 145.939 240.605 146.477 240.74 147.188C240.815 147.547 241.106 147.838 241.383 147.958C241.66 148.085 241.914 148.13 242.131 148.175C243.911 148.534 245.026 148.699 245.048 148.601Z" fill="#263238"/>
<path d="M242.565 169.619C242.565 169.619 249.312 171.174 258.61 167.285C258.61 167.285 254.601 175.924 241.945 172.85L242.565 169.619Z" fill="#EB996E"/>
<path d="M245.174 152.981C245.929 152.233 247.111 151.934 248.203 152.211C248.959 152.405 249.684 152.891 250.058 153.579C250.432 154.275 250.402 155.173 249.894 155.711C249.318 156.31 248.3 156.325 247.485 155.958C246.677 155.592 246.027 154.933 245.421 154.275C245.249 154.096 245.077 153.909 244.994 153.677C244.905 153.452 244.92 153.168 245.092 153.018" fill="#EB996E"/>
<path d="M250.073 150.585C249.789 150.525 249.504 152.447 247.664 153.569C245.824 154.699 243.805 154.183 243.752 154.452C243.707 154.572 244.156 154.893 245.016 155.043C245.862 155.193 247.141 155.103 248.263 154.415C249.385 153.727 249.983 152.672 250.163 151.894C250.35 151.101 250.208 150.592 250.073 150.585Z" fill="#263238"/>
<path d="M252.388 134.482C252.492 134.991 254.295 135.021 256.33 135.574C258.379 136.083 259.965 136.936 260.302 136.547C260.451 136.36 260.227 135.866 259.621 135.298C259.015 134.737 258.013 134.138 256.786 133.817C255.559 133.503 254.392 133.532 253.592 133.727C252.784 133.921 252.35 134.243 252.388 134.482Z" fill="#263238"/>
<path d="M237.22 131.373C237.474 131.822 238.753 131.583 240.219 131.777C241.693 131.919 242.889 132.443 243.234 132.062C243.391 131.875 243.248 131.448 242.762 130.984C242.284 130.528 241.438 130.087 240.421 129.967C239.411 129.855 238.484 130.087 237.915 130.423C237.339 130.768 237.107 131.156 237.22 131.373Z" fill="#263238"/>
<path d="M231.577 128.376C233.739 131.675 240.605 129.641 244.749 127.374C249.117 130.269 255.184 129.012 258.206 124.584C260.577 127.606 265.394 126.604 267.152 123.2C268.91 119.797 267.922 115.107 265.506 112.13C263.09 109.153 259.56 107.649 256.074 107.006C247.808 105.48 238.81 108.682 233.866 116.154C231.592 119.602 230.223 124.247 231.577 128.376Z" fill="#263238"/>
<path d="M254.421 108.181C254.414 108.323 252.469 107.949 249.41 108.466C246.403 108.967 242.177 110.537 239.02 114.053C235.938 117.621 234.54 121.847 234.031 124.869C233.515 127.936 233.911 129.866 233.777 129.881C233.739 129.888 233.612 129.417 233.492 128.542C233.388 127.667 233.358 126.373 233.552 124.802C233.956 121.69 235.303 117.329 238.512 113.604C241.81 109.924 246.231 108.383 249.335 107.994C250.906 107.785 252.2 107.83 253.075 107.934C253.95 108.017 254.421 108.144 254.421 108.181Z" fill="#455A64"/>
<path d="M243.246 123.547C243.208 123.555 243.119 123.136 243.081 122.373C243.044 121.61 243.104 120.488 243.418 119.149C244.009 116.501 245.924 112.836 249.626 110.637C253.344 108.467 257.48 108.565 260.083 109.335C261.407 109.709 262.417 110.203 263.068 110.607C263.718 111.011 264.04 111.287 264.018 111.325C263.95 111.452 262.567 110.42 259.964 109.806C257.42 109.178 253.486 109.178 249.97 111.235C246.47 113.314 244.57 116.755 243.882 119.283C243.156 121.842 243.388 123.555 243.246 123.547Z" fill="#455A64"/>
<path d="M263.075 119.969C262.379 122.916 261.684 125.893 261.684 128.915C261.684 131.945 262.439 135.064 264.369 137.398C267.256 140.883 272.074 141.938 276.517 142.783C278.895 136.889 279.621 130.329 278.589 124.053C278.087 120.987 277.1 117.875 274.938 115.638C271.819 112.422 266.389 111.771 262.604 114.165" fill="#263238"/>
<path d="M265.544 134.452C264.369 136.98 264.459 139.905 264.863 142.665C265.267 145.425 265.97 148.156 265.94 150.946C265.91 153.728 265.028 156.683 262.844 158.411C262.223 158.904 261.505 159.286 260.988 159.884C260.472 160.483 260.188 161.395 260.6 162.068C261.018 162.742 262.275 162.727 262.462 161.956L262.35 162.151C261.871 162.966 262.455 164.036 263.397 164.013C264.878 163.983 266.397 163.198 267.391 162.053C268.82 160.4 269.389 158.179 269.763 156.025C270.914 149.42 270.69 142.575 272.515 136.12" fill="#263238"/>
<path d="M240.179 177.827C241.204 182.308 244.248 186.295 248.317 188.449C252.379 190.611 257.383 190.902 261.677 189.249C265.551 187.753 268.67 184.836 271.692 181.986C272.769 188.449 270.974 195.338 266.89 200.462C262.806 205.586 256.485 208.862 249.94 209.258C244.989 209.558 239.655 208.039 236.544 204.179C234.367 201.487 233.484 197.911 233.522 194.448C233.559 190.985 234.442 187.589 235.474 184.283C236.364 181.455 237.756 178.284 240.62 177.513" fill="#27AE60"/>
<path d="M275.665 143.024C278.627 144.632 280.258 147.998 280.826 151.319C281.402 154.64 281.11 158.044 281.252 161.41C281.395 164.776 282.038 168.299 284.17 170.909C286.429 173.684 289.967 175.001 293.116 176.699C300.087 180.461 305.824 186.827 307.926 194.464C310.028 202.101 308.121 210.935 302.398 216.417C297.192 221.407 289.608 223.157 282.404 223.135C277.258 223.12 271.618 222.027 268.409 218.011C265.238 214.039 265.387 208.362 266.539 203.417C267.699 198.473 269.718 193.656 269.793 188.577C269.03 191.711 267.684 194.703 265.844 197.358C265.32 198.114 264.415 198.937 263.6 198.503C262.695 198.024 263.039 196.67 263.458 195.735C269.658 181.95 267.497 154.161 271.169 138.94" fill="#263238"/>
<path d="M270.566 141.445C270.753 141.385 277.987 140.017 277.052 147.167C276.124 154.318 269.138 151.91 269.153 151.708C269.168 151.498 270.566 141.445 270.566 141.445Z" fill="#FFBE9D"/>
<path d="M271.685 149.289C271.723 149.267 271.798 149.394 272 149.514C272.194 149.633 272.538 149.745 272.927 149.656C273.72 149.476 274.513 148.362 274.715 147.075C274.819 146.424 274.76 145.789 274.595 145.25C274.445 144.696 274.154 144.293 273.78 144.173C273.413 144.038 273.114 144.225 273.002 144.42C272.882 144.607 272.905 144.756 272.867 144.764C272.845 144.779 272.733 144.622 272.822 144.337C272.867 144.203 272.979 144.038 273.159 143.926C273.346 143.806 273.608 143.769 273.87 143.836C274.416 143.948 274.849 144.517 275.029 145.115C275.238 145.721 275.321 146.439 275.201 147.165C274.969 148.601 274.057 149.85 272.987 150.015C272.463 150.082 272.067 149.873 271.872 149.678C271.678 149.461 271.663 149.297 271.685 149.289Z" fill="#EB996E"/>
<path d="M232.789 193.236C232.737 193.206 233.231 192.368 234.009 191.022C234.772 189.675 235.849 187.805 236.589 185.569C237.33 183.332 237.457 181.171 237.233 179.652C237.023 178.126 236.589 177.244 236.657 177.221C236.679 177.214 236.806 177.416 236.978 177.82C237.158 178.223 237.36 178.829 237.502 179.607C237.801 181.156 237.719 183.4 236.956 185.688C236.193 187.977 235.071 189.847 234.241 191.164C233.822 191.822 233.47 192.346 233.216 192.697C232.961 193.064 232.812 193.251 232.789 193.236Z" fill="#263238"/>
<path d="M236.432 184.988C236.327 185.01 236.118 184.382 235.482 183.948C234.854 183.499 234.188 183.522 234.181 183.417C234.173 183.372 234.338 183.282 234.637 183.282C234.929 183.275 235.34 183.372 235.714 183.634C236.088 183.896 236.32 184.247 236.417 184.524C236.507 184.793 236.485 184.98 236.432 184.988Z" fill="#FAFAFA"/>
<path d="M241.054 184.971C240.95 185.03 240.389 183.998 239.214 183.243C238.055 182.465 236.888 182.353 236.903 182.233C236.88 182.136 238.167 182.076 239.431 182.914C240.695 183.751 241.151 184.956 241.054 184.971Z" fill="#FAFAFA"/>
<path d="M243.957 200.147C243.852 200.124 244.047 198.756 244.391 197.095C244.735 195.427 245.102 194.096 245.206 194.118C245.311 194.14 245.116 195.509 244.772 197.17C244.428 198.838 244.062 200.169 243.957 200.147Z" fill="#FAFAFA"/>
<path d="M255.626 202.437C255.521 202.437 255.476 200.986 255.529 199.206C255.581 197.426 255.716 195.982 255.82 195.989C255.925 195.989 255.97 197.441 255.917 199.221C255.865 201.001 255.738 202.445 255.626 202.437Z" fill="#FAFAFA"/>
<path d="M17.3804 235.678L5.84619 285.907L30.2385 285.981L41.5034 241.812L17.3804 235.678Z" fill="#FFBE9D"/>
<path d="M137.164 173.967C134.845 170.856 132.182 167.871 130.963 164.191C130.372 162.411 130.14 160.526 129.512 158.76C128.884 156.995 127.739 155.275 125.989 154.609C124.238 153.943 122.907 154.616 121.77 155.866L113.4 180.348L118.225 199.152C123.042 198.068 129.07 196.781 133.573 194.754C138.069 192.727 141.083 189.481 141.368 184.551C141.585 180.692 139.483 177.079 137.164 173.967Z" fill="#263238"/>
<path d="M60.9962 169.643C60.9962 169.643 31.899 182.315 28.2637 188.022C24.6284 193.737 12.6829 234.48 12.6829 234.48L43.3135 243.494L42.8123 285.905H117.986L117.365 211.128L107.933 169.793C107.933 169.793 91.3351 168.723 89.8017 167.968C88.2608 167.205 60.9962 169.643 60.9962 169.643Z" fill="#27AE60"/>
<path d="M164.399 65.9567C164.639 64.2437 163.442 62.3588 164.302 60.8553C164.781 60.025 165.738 59.6211 166.636 59.277C167.1 59.0975 167.571 58.918 168.065 58.9329C168.558 58.9479 169.082 59.2172 169.239 59.6809C169.426 60.227 169.074 60.8179 168.663 61.2218C168.252 61.6332 167.751 61.9848 167.534 62.5233C167.242 63.2414 167.511 65.4929 167.81 66.2035C168.319 67.4302 170.129 72.8906 170.286 74.2071" fill="#FFBE9D"/>
<path d="M158.257 66.5455C158.362 63.95 160.471 53.7173 160.576 51.1218C162.333 51.6603 163.351 53.5303 163.68 55.3405C164.009 57.1506 163.837 59.0132 164.151 60.8233C164.57 63.2543 165.834 65.446 167.106 67.5553C168.377 69.6647 169.709 71.804 170.277 74.205C170.853 76.6061 173.022 82.822 171.332 84.6172" fill="#FFBE9D"/>
<path d="M157.771 84.0514L147.374 133.479C147.008 135.708 107.932 169.787 107.932 169.787L115.651 200.612L166.553 150.848C170.226 146.921 172.223 141.722 172.118 136.352L171.258 89.9756L157.771 84.0514Z" fill="#FFBE9D"/>
<path d="M155.992 66.8615L157.765 84.0506L171.251 89.9747C171.251 89.9747 171.416 88.7555 171.999 82.7939C172.642 76.219 165.574 73.3991 162.425 68.552C161.078 66.4726 161.43 62.6578 160.39 57.9304C160.271 57.3844 159.515 54.0857 159.111 52.3055C158.887 51.3256 158.333 50.4355 157.495 49.8745C156.89 49.4631 156.194 49.2611 155.693 49.8745C155.184 50.5028 155.992 66.8615 155.992 66.8615Z" fill="#FFBE9D"/>
<path d="M164.399 86.9385C165.932 85.6445 166.262 83.3257 165.693 81.4033C165.125 79.481 163.831 77.8653 162.514 76.3468C161.198 74.8284 159.814 73.3249 159.006 71.4848C158.438 70.1908 158.176 68.7771 157.547 67.513C156.919 66.2488 155.775 65.0894 154.368 65.0296C155.498 72.1431 155.468 76.2346 157.779 84.0512" fill="#FFBE9D"/>
<path d="M155.729 73.131C155.729 73.1609 155.677 72.9365 155.587 72.5625C155.49 72.1062 155.37 71.5676 155.228 70.9318C154.914 69.4433 154.503 67.521 154.039 65.3368L153.994 65.1274L154.211 65.1124C155.101 65.0451 156.021 65.434 156.724 66.0549C157.899 67.0572 158.437 68.4634 158.834 69.6528C159.223 70.8645 159.559 71.9417 160.016 72.7719C160.427 73.6247 161.003 74.1482 161.332 74.5896C161.661 75.0234 161.796 75.2852 161.781 75.3002C161.758 75.3151 161.571 75.0833 161.22 74.6868C160.876 74.2979 160.24 73.7817 159.776 72.9066C159.275 72.0688 158.901 70.9618 158.497 69.765C158.086 68.5831 157.562 67.2666 156.477 66.3391C155.827 65.7706 155.011 65.4266 154.241 65.4789L154.413 65.2545C155.311 69.765 155.894 73.1384 155.729 73.131Z" fill="#7C5142"/>
<path d="M161.781 68.756C161.677 68.771 161.116 65.6294 160.54 61.7398C159.964 57.8502 159.575 54.6786 159.687 54.6637C159.792 54.6487 160.353 57.7903 160.929 61.6799C161.505 65.577 161.886 68.741 161.781 68.756Z" fill="#7C5142"/>
<path d="M166.066 69.3371C166.089 69.3371 166.119 69.4194 166.164 69.5989L166.051 69.6214C165.797 69.0005 165.214 67.0632 164.698 64.7294C164.376 63.2858 164.137 61.9693 164.002 61.0119C163.86 60.0544 163.815 59.456 163.867 59.4486C163.98 59.4336 164.436 61.7748 165.079 64.6472C165.595 66.9734 166.066 68.9332 166.171 69.5914L166.059 69.6139C166.044 69.4269 166.044 69.3371 166.066 69.3371Z" fill="#7C5142"/>
<path d="M168.723 78.8149C168.671 78.8448 168.394 78.4259 167.855 77.85C167.317 77.274 166.472 76.5634 165.387 76.0398C164.302 75.5162 163.218 75.2993 162.432 75.232C161.647 75.1647 161.146 75.217 161.138 75.1497C161.131 75.1048 161.624 74.9552 162.447 74.9552C163.27 74.9478 164.415 75.1347 165.559 75.6883C166.696 76.2418 167.564 77.0197 168.065 77.6705C168.566 78.3137 168.76 78.7925 168.723 78.8149Z" fill="#7C5142"/>
<path d="M158.991 85.4117C158.946 85.4267 158.587 84.6637 158.108 83.3771C157.63 82.0906 157.046 80.2879 156.56 78.2533C156.074 76.2188 155.775 74.3413 155.618 72.9799C155.461 71.6186 155.438 70.7733 155.49 70.7659C155.55 70.7584 155.67 71.5961 155.894 72.9425C156.119 74.2889 156.455 76.1365 156.942 78.1636C157.428 80.1832 157.959 81.9933 158.37 83.2874C158.774 84.5889 159.043 85.3893 158.991 85.4117Z" fill="#7C5142"/>
<path d="M98.7996 170.67C100.049 168.583 103.123 167.865 105.173 169.182C110.663 164.716 116.28 160.34 121.771 155.875C119.975 164.828 118.801 177.372 122.795 185.578C122.795 185.578 127.859 194.995 135.923 193.551L128.735 200.62L117.365 211.129" fill="#27AE60"/>
<path d="M97.0203 174.872C96.923 174.879 97.0277 173.211 98.0749 171.498C99.1147 169.778 100.543 168.918 100.588 169.007C100.663 169.097 99.3989 170.062 98.4115 171.7C97.4017 173.331 97.1399 174.894 97.0203 174.872Z" fill="#263238"/>
<path d="M102.951 180.37C102.914 180.385 102.592 179.794 102.323 178.732C102.061 177.677 101.919 176.151 102.211 174.506C102.503 172.86 103.161 171.469 103.774 170.571C104.388 169.666 104.896 169.225 104.926 169.247C104.978 169.292 104.545 169.801 104.014 170.713C103.475 171.626 102.884 172.98 102.6 174.566C102.323 176.151 102.413 177.632 102.6 178.672C102.779 179.719 103.011 180.348 102.951 180.37Z" fill="#263238"/>
<path d="M130.433 199.616C130.433 199.616 129.857 200.02 128.645 200.335C127.448 200.656 125.571 200.806 123.401 200.177C121.24 199.572 118.906 198.016 117.103 195.66C115.271 193.318 114.029 190.222 113.348 186.9C112.062 180.221 112.114 174.027 112.451 169.614C112.623 167.4 112.877 165.62 113.079 164.401C113.176 163.787 113.273 163.316 113.333 162.994C113.401 162.673 113.438 162.508 113.453 162.508C113.468 162.508 113.453 162.68 113.408 163.002C113.363 163.368 113.303 163.832 113.221 164.416C113.064 165.642 112.862 167.423 112.72 169.629C112.451 174.027 112.451 180.198 113.722 186.818C114.395 190.102 115.607 193.139 117.38 195.435C119.13 197.746 121.374 199.28 123.476 199.908C125.578 200.559 127.411 200.454 128.6 200.185C129.812 199.923 130.418 199.579 130.433 199.616Z" fill="#FAFAFA"/>
<path d="M43.4691 256.083C43.3644 256.083 43.2747 245.454 43.2747 232.334C43.2747 219.214 43.3644 208.585 43.4691 208.585C43.5739 208.585 43.6636 219.214 43.6636 232.334C43.6636 245.446 43.5813 256.083 43.4691 256.083Z" fill="#263238"/>
<path d="M42.8717 200.38C42.7895 200.38 42.8119 199.318 42.4454 197.665C42.2733 196.834 41.9517 195.877 41.5104 194.852C41.0466 193.842 40.4333 192.765 39.6628 191.741C38.8699 190.723 38.0023 189.856 37.1421 189.138C36.2744 188.442 35.4291 187.881 34.6737 187.499C33.1777 186.707 32.1379 186.452 32.1679 186.377C32.1753 186.355 32.4297 186.407 32.9009 186.527C33.1328 186.587 33.417 186.669 33.7312 186.796C34.0453 186.923 34.4193 187.043 34.8008 187.253C35.5862 187.612 36.4614 188.165 37.3665 188.861C38.2566 189.579 39.1617 190.461 39.9695 191.509C40.7624 192.563 41.3757 193.67 41.8395 194.718C42.2733 195.772 42.5725 196.767 42.7147 197.62C42.8119 198.039 42.8343 198.435 42.8717 198.772C42.9166 199.108 42.9166 199.408 42.9166 199.647C42.9091 200.118 42.8942 200.38 42.8717 200.38Z" fill="#263238"/>
<path d="M94.1022 169.316C94.1172 169.316 94.1546 169.533 94.2294 169.944C94.3116 170.355 94.3715 170.976 94.4238 171.777C94.5061 173.37 94.364 175.726 93.4888 178.471C92.5912 181.186 90.9082 184.306 88.0658 186.864C85.2608 189.444 81.2216 191.217 76.8309 191.554C72.4401 191.868 68.184 190.723 65.02 188.584C61.826 186.475 59.7017 183.64 58.4076 181.089C57.136 178.509 56.6424 176.197 56.4853 174.612C56.418 173.811 56.3806 173.19 56.403 172.771C56.4105 172.353 56.418 172.128 56.4329 172.128C56.4479 172.128 56.4628 172.353 56.4853 172.771C56.4928 173.19 56.5451 173.804 56.6424 174.597C56.8443 176.167 57.3754 178.441 58.6545 180.97C59.956 183.468 62.0728 186.235 65.2144 188.285C68.3186 190.364 72.4925 191.471 76.801 191.165C81.102 190.828 85.0589 189.108 87.819 186.594C90.6165 184.096 92.2995 181.044 93.2196 178.381C94.1097 175.689 94.2967 173.362 94.2668 171.777C94.2443 170.984 94.2069 170.363 94.1471 169.951C94.1097 169.54 94.0947 169.323 94.1022 169.316Z" fill="#263238"/>
<path d="M42.8265 234.213C42.7891 234.318 36.6181 232.365 29.0259 229.86C21.4412 227.354 15.3151 225.237 15.3525 225.132C15.3899 225.028 21.5609 226.98 29.1531 229.486C36.7378 231.999 42.8564 234.108 42.8265 234.213Z" fill="#FAFAFA"/>
<path d="M116.631 223.83C116.631 223.935 100.138 224.092 79.792 224.181C59.439 224.264 42.9456 224.249 42.9456 224.144C42.9456 224.039 59.439 223.882 79.792 223.793C100.138 223.71 116.631 223.725 116.631 223.83Z" fill="#FAFAFA"/>
<path d="M117.007 230.344C117.007 230.449 100.424 230.539 79.981 230.539C59.5232 230.539 42.9475 230.449 42.9475 230.344C42.9475 230.239 59.5232 230.15 79.981 230.15C100.424 230.15 117.007 230.232 117.007 230.344Z" fill="#FAFAFA"/>
<path d="M106.849 238.258C106.864 238.266 106.79 238.468 106.64 238.864C106.475 239.283 106.251 239.851 105.967 240.569C105.817 240.943 105.653 241.355 105.473 241.796C105.279 242.237 105.047 242.716 104.807 243.225C104.314 244.242 103.805 245.431 103.094 246.666C102.75 247.294 102.399 247.945 102.025 248.633C101.651 249.314 101.202 249.987 100.768 250.705C99.9155 252.148 98.8683 253.6 97.7912 255.148C95.5472 258.177 92.8768 261.364 89.7876 264.423C86.6609 267.46 83.4296 270.063 80.3553 272.247C78.7845 273.294 77.3184 274.319 75.8523 275.135C75.1268 275.553 74.4461 275.987 73.7579 276.354C73.0698 276.713 72.4041 277.057 71.7757 277.386C70.5266 278.074 69.3298 278.56 68.305 279.032C67.7889 279.263 67.3102 279.488 66.8614 279.667C66.4126 279.839 66.0012 279.997 65.6197 280.139C64.9016 280.408 64.3257 280.617 63.8993 280.774C63.5029 280.917 63.2934 280.984 63.2934 280.969C63.2859 280.954 63.4879 280.864 63.8769 280.7C64.2957 280.528 64.8567 280.288 65.5673 279.997C65.9413 279.847 66.3453 279.675 66.7941 279.495C67.2354 279.301 67.7066 279.069 68.2227 278.83C69.24 278.343 70.4219 277.835 71.6561 277.139C72.2844 276.803 72.9351 276.451 73.6233 276.092C74.304 275.725 74.9772 275.284 75.7027 274.858C77.1539 274.027 78.6125 273.003 80.1683 271.948C83.2127 269.756 86.4291 267.161 89.5333 264.139C92.6075 261.095 95.2704 257.931 97.5219 254.931C98.599 253.398 99.6612 251.961 100.514 250.525C100.955 249.815 101.404 249.149 101.785 248.476C102.167 247.803 102.526 247.152 102.878 246.531C103.603 245.304 104.127 244.137 104.635 243.128C104.882 242.619 105.129 242.155 105.324 241.714C105.511 241.273 105.69 240.869 105.847 240.502C106.154 239.799 106.401 239.238 106.588 238.827C106.745 238.453 106.842 238.258 106.849 238.258Z" fill="#263238"/>
<g opacity="0.3">
<g opacity="0.3">
<g opacity="0.3">
<path opacity="0.3" d="M103.811 244.766C98.7844 250.884 93.5184 255.32 86.1357 258.177C82.5976 259.546 78.895 260.474 75.4692 262.097C72.0434 263.72 68.8195 266.166 67.2786 269.629C66.0893 272.307 66.6652 276.339 69.5301 276.945C70.6147 277.177 71.7367 276.825 72.7839 276.443C87.4073 271.14 97.0191 257.773 103.811 244.766Z" fill="black"/>
</g>
</g>
</g>
<path d="M51.5044 111.652C48.3478 114.128 48.1384 118.758 48.2955 122.767C48.4526 126.776 48.4974 131.339 45.5952 134.107C43.2016 136.388 39.0128 137.233 38.3246 140.472C38.003 141.983 38.7211 143.659 40.0376 144.467C41.354 145.274 43.1717 145.155 44.3685 144.182C43.3512 146.711 43.815 149.964 45.9692 151.632C48.1309 153.3 51.9158 152.523 52.7311 149.919C52.2225 151.64 53.4118 153.667 55.1621 154.078C56.9124 154.482 58.8647 153.188 59.1714 151.415" fill="#263238"/>
<path d="M97.3113 140.681C97.9695 142.709 100.453 143.92 102.458 143.195C104.462 142.469 105.592 139.948 104.799 137.966C104.178 136.418 102.585 135.244 102.51 133.568C102.42 131.548 104.537 130.209 106.399 129.424C108.262 128.631 110.446 127.599 110.745 125.594C111.03 123.664 109.369 122.064 107.97 120.695C106.579 119.326 105.24 117.247 106.22 115.556C106.721 114.688 107.701 114.225 108.359 113.469C109.81 111.801 109.227 108.996 107.551 107.553C105.876 106.109 103.475 105.802 101.283 106.086C99.0915 106.371 96.9971 107.179 94.8504 107.702C87.7668 109.445 79.9652 108.039 73.9363 103.932" fill="#263238"/>
<path d="M53.6495 127.082L61.3539 171.693C62.7078 179.54 70.1878 184.783 78.0268 183.384C85.3497 182.075 90.4586 175.381 89.8003 167.975C89.4488 164.019 89.1421 160.742 89.1421 160.742C89.1421 160.742 100.317 157.87 99.3523 146.515C98.8885 141.025 97.0036 129.798 95.1859 119.662C93.2336 108.771 83.2329 101.224 72.2223 102.294L71.1302 102.398C59.3866 104.238 51.4803 115.399 53.6495 127.082Z" fill="#FFBE9D"/>
<path d="M92.7955 127.01C92.9077 127.863 92.2794 128.663 91.3893 128.798C90.4992 128.932 89.6913 128.349 89.5791 127.496C89.4669 126.644 90.0952 125.843 90.9779 125.709C91.8755 125.581 92.6833 126.157 92.7955 127.01Z" fill="#263238"/>
<path d="M93.2884 125.456C93.1089 125.688 91.7924 124.895 90.0495 125.074C88.3067 125.224 87.1174 126.249 86.9079 126.047C86.8032 125.965 86.9753 125.561 87.4914 125.097C88 124.641 88.8976 124.154 89.9822 124.057C91.0668 123.96 92.0243 124.267 92.5853 124.626C93.1612 124.985 93.3781 125.351 93.2884 125.456Z" fill="#263238"/>
<path d="M75.7391 129.004C75.8513 129.857 75.223 130.657 74.3329 130.792C73.4428 130.926 72.6349 130.343 72.5227 129.49C72.4105 128.637 73.0389 127.837 73.9215 127.702C74.8116 127.568 75.6269 128.151 75.7391 129.004Z" fill="#263238"/>
<path d="M76.1803 127.451C76.0008 127.683 74.6843 126.89 72.9414 127.07C71.1986 127.219 70.0093 128.244 69.7924 128.042C69.6876 127.96 69.8522 127.556 70.3758 127.092C70.8844 126.636 71.782 126.15 72.8666 126.052C73.9512 125.955 74.9087 126.262 75.4697 126.621C76.0531 126.987 76.27 127.354 76.1803 127.451Z" fill="#263238"/>
<path d="M83.7725 139.774C83.7575 139.677 84.8197 139.385 86.555 138.988C86.9964 138.899 87.4078 138.772 87.4526 138.457C87.5274 138.128 87.2956 137.665 87.0263 137.163C86.5027 136.124 85.9566 135.039 85.3807 133.902C83.0843 129.257 81.3714 125.412 81.5584 125.323C81.7454 125.233 83.765 128.928 86.0614 133.573C86.6149 134.717 87.146 135.817 87.6546 136.857C87.8715 137.343 88.2156 137.889 88.0585 138.585C87.9688 138.929 87.6696 139.205 87.3928 139.31C87.116 139.422 86.8692 139.452 86.6448 139.49C84.8795 139.751 83.7874 139.871 83.7725 139.774Z" fill="#263238"/>
<path d="M75.9659 120.578C75.8387 121.072 74.0809 121.012 72.0538 121.461C70.0268 121.865 68.4335 122.628 68.1194 122.224C67.9772 122.029 68.2241 121.558 68.8449 121.035C69.4583 120.511 70.4756 119.972 71.6873 119.718C72.8991 119.464 74.0435 119.546 74.8214 119.778C75.6068 120.01 76.0182 120.346 75.9659 120.578Z" fill="#263238"/>
<path d="M92.1609 120.474C91.8916 120.9 90.6499 120.609 89.2063 120.728C87.7552 120.796 86.5658 121.252 86.2442 120.871C86.1021 120.684 86.2517 120.265 86.7529 119.838C87.2391 119.412 88.0918 119.023 89.0866 118.956C90.0815 118.888 90.9791 119.165 91.5176 119.524C92.0637 119.876 92.2731 120.272 92.1609 120.474Z" fill="#263238"/>
<path d="M64.7495 113.432C64.727 113.447 64.7121 113.469 64.6896 113.484C63.0216 115.085 62.0268 117.269 61.937 119.58C61.937 119.662 61.9295 119.737 61.9295 119.812C61.8024 123.088 62.1988 126.372 62.0417 129.656C61.8846 132.932 61.0843 136.328 58.9076 138.789C58.0175 139.799 56.3345 140.599 55.4219 139.604C55.0704 139.223 54.9656 138.677 54.8759 138.16C53.507 130.404 50.702 123.679 49.9166 115.511C49.7072 113.289 50.545 111.098 52.228 109.624C53.8212 108.233 55.781 106.759 57.7706 107.47C59.7678 108.188 62.5728 111.502 64.1885 112.871" fill="#263238"/>
<path d="M57.9731 131.837C57.7712 131.77 49.9546 130.289 50.9569 138.023C51.9592 145.757 59.514 143.154 59.499 142.93C59.4841 142.706 57.9731 131.837 57.9731 131.837Z" fill="#FFBE9D"/>
<path d="M56.7564 140.318C56.719 140.295 56.6368 140.43 56.4199 140.564C56.2104 140.692 55.8364 140.811 55.4175 140.714C54.5648 140.519 53.7046 139.315 53.4877 137.924C53.3755 137.221 53.4353 136.533 53.6148 135.949C53.7794 135.351 54.0936 134.909 54.4975 134.782C54.8939 134.633 55.2156 134.842 55.3427 135.052C55.4774 135.254 55.4475 135.418 55.4849 135.426C55.5073 135.441 55.6344 135.276 55.5297 134.962C55.4774 134.812 55.3652 134.64 55.1632 134.513C54.9612 134.386 54.677 134.348 54.3928 134.416C53.8019 134.535 53.3381 135.156 53.1436 135.8C52.9192 136.45 52.8295 137.228 52.9566 138.014C53.2109 139.562 54.1983 140.923 55.3577 141.095C55.9187 141.17 56.3525 140.946 56.562 140.729C56.7714 140.505 56.7864 140.325 56.7564 140.318Z" fill="#7C5142"/>
<path d="M57.6289 108.705C55.4148 105.787 60.2169 100.821 63.927 99.2424C67.6371 97.6641 72.8581 99.0405 76.7926 99.9306C79.276 100.492 81.7743 101.374 84.2951 101.023C85.9855 100.791 87.5414 100.013 89.0897 99.2873C90.6381 98.5617 92.2538 97.8736 93.9592 97.8212C95.6647 97.7689 97.4973 98.5019 98.2901 100.013C99.083 101.524 98.3724 103.768 96.7193 104.164C98.7539 102.773 102.008 104.022 102.591 106.416C103.175 108.809 100.863 111.412 98.4248 111.128C99.4495 110.186 101.275 111.397 101.267 112.789C101.267 114.18 100.115 115.302 98.9035 115.983C95.8068 117.718 91.992 117.636 88.5362 116.835C85.0805 116.035 81.8042 114.584 78.3634 113.694C74.9301 112.811 69.1555 111.181 65.9391 112.677C63.568 113.784 62.1543 116.903 60.7031 116.387C59.3044 115.885 58.317 114.569 57.9056 113.14C57.5017 111.704 57.5615 110.186 57.6289 108.705Z" fill="#263238"/>
<path d="M58.0713 133.157C58.2957 137.256 58.5201 141.377 59.4775 145.371C60.435 149.366 62.1703 153.255 65.0501 156.18C68.82 160.017 73.697 163.69 79.0078 164.565C84.8048 165.523 91.8958 164.311 96.6157 160.81C98.8522 159.15 100.483 155.567 99.7872 152.866C101.695 151.991 103.041 150.017 103.153 147.922C103.265 145.828 101.994 143.21 100.333 142.933C101.582 142.731 101.934 140.756 101.463 139.634C100.977 138.467 99.3534 138.183 98.1117 138.422C96.87 138.662 95.7854 139.395 94.7682 140.143C93.7509 140.891 92.7261 141.684 91.5293 142.073C87.52 143.374 83.4584 139.844 79.2472 140.001C75.4399 140.15 72.0514 143.307 68.274 142.776C66.1646 142.477 64.347 141.018 63.1876 139.238C62.0207 137.45 62.5294 130.845 62.0731 128.766" fill="#263238"/>
<g opacity="0.6">
<g opacity="0.6">
<path opacity="0.6" d="M88.6276 150.965C88.5977 151.018 88.2686 150.846 87.7001 150.689C87.1391 150.531 86.3238 150.419 85.4486 150.576C84.5734 150.733 83.8479 151.13 83.3766 151.474C82.8979 151.818 82.6511 152.095 82.6062 152.057C82.5688 152.035 82.7558 151.691 83.2196 151.272C83.6759 150.853 84.4388 150.389 85.3888 150.217C86.3387 150.045 87.2139 150.217 87.7899 150.442C88.3583 150.666 88.65 150.928 88.6276 150.965Z" fill="#455A64"/>
</g>
</g>
<path d="M80.4351 142.371C80.7194 142.326 80.9064 144.219 82.6567 145.4C84.407 146.59 86.4042 146.178 86.4416 146.448C86.479 146.567 86.0302 146.859 85.1775 146.964C84.3472 147.076 83.098 146.926 82.0284 146.201C80.9587 145.475 80.4277 144.413 80.2855 143.643C80.1434 142.857 80.308 142.371 80.4351 142.371Z" fill="white"/>
<path d="M74.8118 163.31C74.8193 163.295 74.9838 163.362 75.298 163.489C75.6196 163.609 76.0909 163.774 76.7117 163.946C77.9534 164.297 79.7935 164.671 82.0973 164.791C83.2492 164.858 84.5133 164.851 85.8597 164.716C87.2061 164.604 88.6348 164.335 90.0859 163.893C91.5445 163.475 93.0031 162.809 94.3944 161.926C95.7857 161.051 97.1171 159.944 98.1269 158.53C99.3163 156.862 99.9296 154.768 99.608 152.928L99.5781 152.771L99.7202 152.711C100.678 152.299 101.456 151.574 102.054 150.781C102.353 150.385 102.615 149.958 102.809 149.524C103.004 149.098 103.101 148.627 103.146 148.17C103.318 146.323 102.495 144.61 101.343 143.645L101.239 143.555L101.328 143.443C102.091 142.501 102.136 141.251 101.785 140.369C101.441 139.456 100.693 138.925 100.064 138.686C99.421 138.431 98.8675 138.431 98.5084 138.469C98.1419 138.514 97.9624 138.581 97.9549 138.559C97.9549 138.559 98.1269 138.461 98.5009 138.387C98.8675 138.327 99.4434 138.297 100.124 138.536C100.79 138.768 101.605 139.307 102.002 140.286C102.398 141.229 102.376 142.568 101.553 143.63L101.53 143.428C102.765 144.438 103.655 146.233 103.49 148.208C103.445 148.694 103.341 149.195 103.139 149.666C102.937 150.138 102.66 150.579 102.353 150.998C101.725 151.828 100.917 152.599 99.8698 153.055L99.982 152.838C100.341 154.858 99.6903 157.004 98.4561 158.755C97.4089 160.221 96.0325 161.358 94.6113 162.248C93.1901 163.145 91.6867 163.811 90.2056 164.23C88.7246 164.671 87.2735 164.933 85.9046 165.03C84.5358 165.158 83.2567 165.143 82.0973 165.06C79.771 164.903 77.9235 164.484 76.6893 164.088C76.0684 163.893 75.5972 163.699 75.2905 163.557C74.9614 163.407 74.8043 163.317 74.8118 163.31Z" fill="#455A64"/>
<path d="M40.9056 143.567C40.9056 143.567 40.7485 143.537 40.5091 143.372C40.2698 143.215 39.9481 142.901 39.7237 142.385C39.5143 141.876 39.3946 141.173 39.5667 140.395C39.7312 139.61 40.2847 138.825 41.0552 138.211C41.8331 137.59 42.8205 137.127 43.8976 136.738C44.9672 136.341 46.1341 135.99 47.2037 135.331C48.2734 134.688 49.1411 133.641 49.6946 132.399C50.2631 131.158 50.5323 129.736 50.5772 128.285C50.6371 125.361 49.9639 122.586 49.8891 120.005C49.7694 117.432 50.2631 115.016 51.4374 113.4C52.5968 111.777 54.1377 111.029 55.2073 110.834C55.7459 110.722 56.1797 110.752 56.464 110.767C56.7482 110.812 56.8978 110.842 56.8903 110.857C56.8903 110.909 56.2845 110.737 55.2373 110.984C54.2125 111.216 52.7464 111.979 51.6618 113.557C50.5697 115.128 50.106 117.462 50.2406 119.99C50.3304 122.526 51.0185 125.293 50.9587 128.3C50.9138 129.796 50.6371 131.27 50.0387 132.564C49.4552 133.865 48.5202 134.965 47.3833 135.646C46.2538 136.326 45.0645 136.663 44.0023 137.052C42.9327 137.426 41.9752 137.86 41.2197 138.443C40.4717 139.019 39.9481 139.737 39.7761 140.463C39.5891 141.188 39.6789 141.854 39.8584 142.348C40.2623 143.335 40.9505 143.522 40.9056 143.567Z" fill="#455A64"/>
<path d="M96.9817 104.006C96.9742 103.999 97.0939 103.946 97.3258 103.849C97.438 103.797 97.5876 103.744 97.7596 103.699C97.9391 103.647 98.1411 103.595 98.3805 103.572C99.3155 103.43 100.871 103.655 102.188 104.941L102.195 104.949C103.078 106.056 103.601 107.746 103.355 109.586C103.145 111.426 102.046 113.334 100.288 114.65C98.545 115.997 96.2262 116.775 93.7877 116.909C91.3343 117.059 88.7836 116.685 86.2329 116.079C82.074 115.077 78.3341 113.281 75.2747 111.224C73.7264 110.222 72.2678 109.272 70.7792 108.606C69.3057 107.926 67.8172 107.589 66.4408 107.499C63.6732 107.32 61.4666 108.038 60.0754 108.681C58.6691 109.347 58.0034 109.908 57.981 109.87C57.981 109.87 58.6093 109.257 60.008 108.547C61.3918 107.851 63.6284 107.073 66.4558 107.223C67.862 107.297 69.3954 107.634 70.9064 108.307C72.4248 108.973 73.9134 109.923 75.4617 110.918C78.5211 112.945 82.2012 114.703 86.3227 115.697C88.8434 116.303 91.3717 116.67 93.7578 116.528C96.1439 116.401 98.3879 115.66 100.078 114.373C101.784 113.109 102.846 111.299 103.063 109.541C103.325 107.784 102.839 106.153 102.016 105.083L102.023 105.091C100.804 103.857 99.3005 103.587 98.3879 103.692C97.4604 103.797 96.9892 104.051 96.9817 104.006Z" fill="#455A64"/>
<path d="M93.0188 97.4196C93.0188 97.4196 93.0712 98.0629 92.6672 99.1325C92.2558 100.18 91.2535 101.608 89.4733 102.626C88.5981 103.134 87.5434 103.553 86.3541 103.748C85.1723 103.942 83.8782 103.935 82.5543 103.763C79.8839 103.434 77.1238 102.379 74.2216 101.474C71.3268 100.569 68.3946 100.03 65.829 100.584C63.2634 101.115 61.2438 102.558 59.9273 104.024C58.5958 105.498 57.8852 106.987 57.5337 108.034C57.1896 109.096 57.1223 109.717 57.0774 109.709C57.0624 109.709 57.0774 109.552 57.1223 109.26C57.1522 108.961 57.2494 108.535 57.3916 107.989C57.7057 106.912 58.3789 105.371 59.7178 103.837C61.0418 102.319 63.0913 100.801 65.7467 100.232C68.4096 99.6412 71.4166 100.187 74.3263 101.1C77.251 102.012 79.9812 103.06 82.5992 103.404C83.9007 103.583 85.1573 103.598 86.3018 103.426C87.4462 103.254 88.4784 102.865 89.3386 102.386C91.0815 101.429 92.0913 100.083 92.5326 99.0802C92.959 98.0554 92.9664 97.4121 93.0188 97.4196Z" fill="#455A64"/>
</svg>
