<svg width="1147" height="997" viewBox="0 0 1147 997" fill="none" xmlns="http://www.w3.org/2000/svg">
<path d="M784.253 618.821C787.91 632.885 783.034 648.801 772.158 658.435C765.009 664.764 755.703 668.42 749.187 675.382C740.795 684.36 738.381 698.072 742.061 709.792C745.718 721.512 754.953 731.075 766.04 736.373C781.135 743.592 799.747 742.96 814.327 734.732C832.446 724.489 843.017 703.955 845.689 683.305C848.361 662.654 844.166 641.746 838.704 621.657" fill="#263238"/>
<path d="M1012.77 982.965C1031.52 979.894 1049.1 985.614 1067.67 989.739C1072.66 990.841 1077.91 991.802 1082.88 990.559C1090.92 988.52 1096.64 980.668 1097.88 972.464C1098.96 965.361 1097.11 957.907 1093.15 951.907C1091.46 949.375 1089.37 947.031 1086.72 945.531C1084 943.984 1080.86 943.398 1077.75 943.093C1066.45 941.992 1054.96 944.523 1044.67 949.328C1034.38 954.134 1025.26 961.189 1017.25 969.206C1013.33 973.143 1014.51 977.667 1012.77 982.965Z" fill="#263238"/>
<path d="M632.501 680.3C629.501 662.509 629.876 644.155 633.58 626.482C635.385 617.879 638.033 609.324 642.838 601.987C644.596 599.315 646.753 596.713 649.706 595.541C653.808 593.9 658.684 595.424 661.919 598.424C666.138 602.339 667.896 608.41 667.708 614.152C667.521 619.919 665.646 625.474 663.536 630.842C656.316 649.359 644.878 664.736 632.501 680.3Z" fill="#263238"/>
<path d="M995.87 748.052C1000.14 751.076 1094.43 954.066 1094.43 954.066C1086.86 950.808 1078.47 949.987 1070.41 951.698L1065.3 953.058C1056.16 955.496 1047.46 959.457 1039.61 964.778L1012.75 982.967C1010.59 981.749 1009.16 979.522 1008.93 977.037L1008.86 976.264L935.793 850.86L995.87 748.052Z" fill="#27AE60"/>
<path d="M642.182 425.013L667.309 567.833C675.396 587.054 769.719 703.504 769.719 703.504L738.52 803.686L614.663 634.332C603.154 622.026 596.896 605.736 597.224 588.906L602.052 436.311L642.182 425.013Z" fill="#FFBE9D"/>
<path d="M775.908 681.131L840.579 686.03L896.975 694.773C896.975 694.773 995.892 720.768 995.892 731.597C995.892 735.207 968.866 821.209 953.817 872.73C947.324 894.974 944.722 910.773 944.722 910.773L995.892 1024.41H752.538V920.196C752.538 920.196 736.2 783.47 739.013 764.812C741.826 746.154 775.908 681.131 775.908 681.131Z" fill="#27AE60"/>
<path d="M611.57 367.307C611.945 352.751 613.422 338.241 616 323.919C616.376 321.88 617.196 319.419 619.235 319.161C621.767 318.833 623.056 322.091 623.384 324.599C625.634 341.828 624.908 359.431 621.251 376.425" fill="#EB996E"/>
<path d="M640.335 669.717C668.088 644.917 669.025 601.952 666.658 567.753C666.494 565.221 666.306 562.479 667.736 560.416C670.385 556.642 676.831 558.025 679.409 561.869C681.987 565.69 681.847 570.659 681.612 575.277C683.042 571.363 689.137 571.386 691.996 574.41C694.856 577.434 695.348 581.911 695.676 586.059C695.981 589.88 696.286 593.701 696.591 597.522L777.646 674.78C777.646 674.78 779.873 667.842 785.827 671.803C791.78 675.764 795.625 684.39 795.625 684.39L738.501 809.091L632.482 680.101C632.506 680.077 635.834 673.749 640.335 669.717Z" fill="#27AE60"/>
<path d="M750.361 756.014C742.157 766.961 735.312 779.102 731.749 792.323C728.187 805.543 728.093 819.888 732.945 832.686C739.813 850.712 756.83 864.447 775.887 867.377" fill="#27AE60"/>
<path d="M1012.77 982.955L1009.7 1024.44H1069.78L1083.86 951.194C1065.56 950.162 1047.51 955.835 1033.07 967.109L1012.77 982.955Z" fill="#FFBE9D"/>
<path d="M668.579 660.555C668.508 660.508 668.977 659.336 669.891 657.274C670.829 655.211 672.095 652.164 673.525 648.366C674.978 644.569 676.478 639.975 677.908 634.818C679.267 629.638 680.533 623.872 681.447 617.754C682.315 611.636 682.76 605.729 682.924 600.385C683.041 595.017 682.901 590.188 682.596 586.133C682.315 582.078 681.963 578.82 681.658 576.57C681.377 574.319 681.26 573.054 681.33 573.03C681.424 573.007 681.682 574.249 682.127 576.476C682.596 578.703 683.065 581.984 683.463 586.063C683.885 590.118 684.096 594.993 684.049 600.408C683.932 605.823 683.533 611.753 682.666 617.941C681.752 624.106 680.439 629.919 679.009 635.123C677.509 640.326 675.915 644.921 674.345 648.695C672.798 652.468 671.415 655.469 670.337 657.485C669.258 659.477 668.649 660.579 668.579 660.555Z" fill="#263238"/>
<path d="M686.228 638.777C686.064 638.683 687.189 636.48 688.736 632.823C690.283 629.167 692.158 624.01 693.518 618.127C694.877 612.243 695.463 606.782 695.651 602.82C695.862 598.859 695.815 596.398 696.002 596.374C696.143 596.374 696.494 598.835 696.518 602.844C696.518 606.852 696.073 612.431 694.69 618.408C693.307 624.385 691.267 629.589 689.486 633.198C687.751 636.808 686.368 638.871 686.228 638.777Z" fill="#263238"/>
<path d="M781.442 703.633C781.254 703.516 782.239 701.992 782.801 699.25C783.411 696.508 783.364 692.546 782.192 688.397C781.02 684.248 779.262 680.662 778.113 678.037C776.941 675.412 776.332 673.7 776.496 673.654C776.66 673.583 777.527 675.13 778.887 677.662C780.223 680.217 782.121 683.756 783.364 688.069C784.583 692.406 784.489 696.625 783.645 699.461C782.825 702.297 781.535 703.704 781.442 703.633Z" fill="#263238"/>
<path d="M767.351 868.721C767.327 868.744 766.976 868.557 766.343 868.158C765.593 867.666 764.679 867.056 763.553 866.33C761.163 864.712 757.717 862.321 753.638 859.134C749.583 855.922 744.872 851.867 740.489 846.546C736.129 841.249 732.214 834.498 730.316 826.74C728.347 819.004 728.206 811.293 728.98 804.472C729.753 797.627 731.37 791.626 732.988 786.704C734.629 781.782 736.269 777.938 737.465 775.289C738.074 773.976 738.543 772.968 738.895 772.288C739.246 771.609 739.434 771.257 739.481 771.281C739.574 771.327 738.965 772.804 737.91 775.476C736.855 778.172 735.355 782.063 733.832 786.962C732.331 791.884 730.808 797.838 730.128 804.589C729.425 811.316 729.612 818.864 731.535 826.435C733.386 834.029 737.16 840.593 741.403 845.843C745.669 851.117 750.263 855.196 754.224 858.454C758.209 861.712 761.561 864.197 763.858 865.955C764.913 866.752 765.78 867.431 766.507 867.97C767.069 868.416 767.374 868.674 767.351 868.721Z" fill="#263238"/>
<path d="M900.136 891.919C900.136 891.966 899.784 892.084 899.105 892.294C898.401 892.482 897.393 892.834 896.057 893.091C893.385 893.701 889.471 894.334 884.572 894.474C874.868 894.826 860.874 892.599 848.099 884.512C835.324 876.426 827.308 864.752 823.464 855.822C821.495 851.345 820.37 847.524 819.784 844.852C819.455 843.539 819.315 842.461 819.198 841.758C819.08 841.055 819.057 840.68 819.08 840.656C819.174 840.633 819.502 842.109 820.229 844.711C820.956 847.337 822.198 851.064 824.237 855.447C828.222 864.166 836.215 875.535 848.732 883.481C861.249 891.38 874.938 893.724 884.548 893.607C889.377 893.584 893.291 893.091 895.964 892.623C898.636 892.154 900.112 891.826 900.136 891.919Z" fill="#263238"/>
<path d="M937.437 937.47C937.109 937.376 940.203 924.437 944.352 908.545C948.501 892.652 952.134 879.831 952.462 879.924C952.791 880.018 949.697 892.957 945.548 908.873C941.399 924.718 937.766 937.54 937.437 937.47Z" fill="#263238"/>
<path d="M970.231 909.968C969.949 910.132 960.526 894.732 949.181 875.558C937.836 856.384 928.906 840.703 929.187 840.539C929.468 840.375 938.891 855.775 950.236 874.949C961.581 894.099 970.535 909.781 970.231 909.968Z" fill="#263238"/>
<path d="M1060.11 947.899C1060.14 948.134 1056.69 948.415 1051.35 949.775C1048.68 950.431 1045.56 951.462 1042.18 952.822C1038.83 954.228 1035.25 956.033 1031.68 958.236C1028.14 960.51 1025 962.971 1022.28 965.386C1019.61 967.847 1017.34 970.238 1015.6 972.371C1012.09 976.613 1010.35 979.59 1010.16 979.473C1010.09 979.426 1010.47 978.653 1011.24 977.293C1011.99 975.91 1013.23 974.035 1014.92 971.808C1016.61 969.581 1018.84 967.097 1021.51 964.542C1024.23 962.034 1027.42 959.479 1031.03 957.182C1034.66 954.908 1038.32 953.126 1041.76 951.743C1045.21 950.407 1048.42 949.47 1051.16 948.907C1053.9 948.321 1056.13 948.017 1057.7 947.923C1059.25 947.829 1060.09 947.806 1060.11 947.899Z" fill="#263238"/>
<path d="M1071.61 933.8C1071.59 934.058 1067.83 933.59 1061.83 934.105C1058.83 934.34 1055.29 934.949 1051.43 935.934C1047.61 936.988 1043.46 938.465 1039.36 940.504C1035.25 942.59 1031.6 945.005 1028.46 947.443C1025.36 949.951 1022.76 952.412 1020.77 954.686C1016.76 959.186 1014.86 962.468 1014.67 962.327C1014.6 962.28 1015.05 961.46 1015.92 959.983C1016.34 959.233 1016.88 958.342 1017.63 957.381C1018.35 956.397 1019.1 955.248 1020.13 954.1C1022.06 951.732 1024.66 949.13 1027.78 946.552C1030.94 944.02 1034.64 941.512 1038.82 939.403C1043.01 937.34 1047.23 935.863 1051.17 934.832C1055.11 933.894 1058.74 933.355 1061.79 933.238C1063.31 933.097 1064.69 933.168 1065.91 933.191C1067.13 933.191 1068.16 933.285 1069.01 933.379C1070.67 933.566 1071.61 933.707 1071.61 933.8Z" fill="#263238"/>
<g opacity="0.3">
<g opacity="0.3">
<g opacity="0.3">
<path opacity="0.3" d="M821.593 845.642C816.061 856.096 820.679 868.847 825.719 879.559C829.633 887.857 833.993 896.295 841.095 902.062C848.08 907.734 857.503 910.359 866.41 909.094C875.341 907.828 883.639 902.718 888.796 895.334C859.003 895.452 830.242 875.106 820.445 846.978" fill="black"/>
</g>
</g>
</g>
<g opacity="0.3">
<g opacity="0.3">
<g opacity="0.3">
<path opacity="0.3" d="M929.209 840.537C925.013 850.593 928.178 864.376 932.584 874.338C937.015 884.3 941.679 895.434 938.116 905.771C937.46 907.693 936.499 909.638 936.733 911.678C936.991 913.693 939.171 915.639 940.976 914.701C942.031 914.162 942.5 912.92 942.851 911.795C946.18 901.762 949.532 891.73 952.86 881.721" fill="black"/>
</g>
</g>
</g>
<path d="M707.465 708.111C707.137 708.064 708.215 699.696 709.856 689.453C711.52 679.209 713.137 670.935 713.465 670.982C713.794 671.029 712.715 679.397 711.075 689.64C709.41 699.883 707.816 708.158 707.465 708.111Z" fill="#FAFAFA"/>
<path d="M682.783 702.935C682.479 703.146 678.447 697.497 672.892 691.027C667.336 684.534 662.391 679.706 662.625 679.448C662.836 679.214 668.204 683.691 673.806 690.254C679.408 696.77 683.041 702.747 682.783 702.935Z" fill="#FAFAFA"/>
<path d="M703.976 642.563C704.117 642.657 703.109 644.274 701.328 646.782C699.546 649.29 696.968 652.642 693.921 656.205C690.897 659.768 687.99 662.862 685.81 665.042C683.63 667.198 682.2 668.441 682.083 668.324C681.825 668.066 686.959 662.534 692.983 655.408C699.03 648.329 703.695 642.352 703.976 642.563Z" fill="#FAFAFA"/>
<path d="M695.695 613.06C695.366 613.201 694.03 610.2 691.429 607.247C688.874 604.247 686.108 602.512 686.295 602.184C686.412 601.903 689.624 603.262 692.366 606.45C695.109 609.614 695.999 612.99 695.695 613.06Z" fill="#FAFAFA"/>
<path d="M674.316 631.235C674.363 631.563 671.644 632.267 668.222 632.829C664.8 633.368 661.987 633.532 661.94 633.204C661.893 632.876 664.612 632.173 668.034 631.61C671.457 631.071 674.269 630.907 674.316 631.235Z" fill="#FAFAFA"/>
<path d="M728.253 657.266C727.878 657.22 728.792 652.274 727.479 646.367C726.237 640.437 723.354 636.311 723.659 636.124C723.846 635.889 727.339 639.897 728.651 646.109C730.034 652.321 728.511 657.384 728.253 657.266Z" fill="#FAFAFA"/>
<path d="M757.059 688.271C756.731 688.459 754.269 683.49 749.511 678.755C744.8 673.973 739.854 671.465 740.041 671.137C740.135 670.856 745.479 672.918 750.378 677.888C755.301 682.81 757.34 688.178 757.059 688.271Z" fill="#FAFAFA"/>
<path d="M710.815 742.024C710.932 742.306 706.151 744.04 699.986 743.806C693.821 743.618 689.18 741.556 689.321 741.298C689.438 740.946 694.102 742.423 700.033 742.587C705.963 742.821 710.721 741.673 710.815 742.024Z" fill="#FAFAFA"/>
<path d="M732.519 753.168C732.191 753.051 734.019 747.636 735.543 740.792C737.09 733.947 737.746 728.298 738.098 728.322C738.403 728.345 738.285 734.135 736.715 741.073C735.191 747.988 732.824 753.285 732.519 753.168Z" fill="#FAFAFA"/>
<path d="M779.945 754.981C779.687 755.215 775.116 750.574 769.701 744.644C764.287 738.713 760.115 733.721 760.372 733.486C760.63 733.252 765.201 737.893 770.616 743.823C776.007 749.777 780.179 754.77 779.945 754.981Z" fill="#FAFAFA"/>
<path d="M802.037 809.754C801.802 809.989 798.38 806.848 794.395 802.722C790.41 798.597 787.387 795.081 787.621 794.846C787.856 794.612 791.278 797.753 795.263 801.879C799.247 805.981 802.271 809.52 802.037 809.754Z" fill="#FAFAFA"/>
<path d="M760.98 815C761.19 815.234 757.276 818.868 751.627 822.126C745.978 825.431 740.891 827.025 740.798 826.72C740.657 826.392 745.462 824.306 751.017 821.071C756.573 817.86 760.745 814.719 760.98 815Z" fill="#FAFAFA"/>
<path d="M779.874 867.094C779.522 867 780.928 860.858 781.632 853.123C782.358 845.411 782.124 839.106 782.499 839.083C782.804 839.036 783.601 845.412 782.851 853.24C782.124 861.093 780.178 867.187 779.874 867.094Z" fill="#FAFAFA"/>
<path d="M850.918 824.74C850.73 824.998 845.714 821.482 840.768 815.809C835.799 810.16 833.009 804.722 833.267 804.581C833.572 804.394 836.807 809.48 841.682 815.012C846.534 820.568 851.152 824.435 850.918 824.74Z" fill="#FAFAFA"/>
<path d="M876.866 846.855C876.585 846.644 880.148 841.768 884.109 835.51C888.118 829.251 891.024 824.001 891.352 824.141C891.634 824.282 889.196 829.837 885.141 836.166C881.133 842.495 877.124 847.066 876.866 846.855Z" fill="#FAFAFA"/>
<path d="M873.07 792.728C872.977 793.056 867.656 791.907 861.163 790.173C854.67 788.438 849.466 786.751 849.56 786.422C849.654 786.094 854.975 787.243 861.468 788.977C867.961 790.712 873.164 792.4 873.07 792.728Z" fill="#FAFAFA"/>
<path d="M854.151 887.946C853.823 887.923 853.823 882.953 854.198 876.836C854.549 870.718 855.112 865.772 855.464 865.795C855.792 865.819 855.792 870.788 855.417 876.906C855.042 883.024 854.479 887.97 854.151 887.946Z" fill="#FAFAFA"/>
<path d="M870.515 920.554C870.163 920.389 872.624 915.537 873.468 908.998C874.382 902.481 873.281 897.137 873.656 897.067C873.937 896.949 875.601 902.364 874.663 909.162C873.796 915.959 870.749 920.741 870.515 920.554Z" fill="#FAFAFA"/>
<path d="M828.109 913.371C827.804 913.418 827.077 907.909 828.367 901.252C829.632 894.595 832.351 889.743 832.609 889.907C832.937 890.048 830.781 895.017 829.562 901.487C828.296 907.956 828.46 913.347 828.109 913.371Z" fill="#FAFAFA"/>
<path d="M789.432 929.894C789.198 930.151 784.439 926.096 778.415 921.338C772.391 916.556 767.375 912.876 767.562 912.595C767.75 912.313 773.118 915.572 779.165 920.377C785.236 925.182 789.643 929.659 789.432 929.894Z" fill="#FAFAFA"/>
<path d="M815.615 883.885C815.779 884.19 809.614 887.753 801.879 891.878C794.121 896.004 787.721 899.074 787.557 898.793C787.393 898.488 793.558 894.926 801.293 890.8C809.052 886.675 815.474 883.58 815.615 883.885Z" fill="#FAFAFA"/>
<path d="M896.983 987.12C896.983 987.167 896.467 987.284 895.459 987.518C894.451 987.706 892.974 988.081 891.052 988.339C887.208 988.971 881.559 989.511 874.574 989.393C867.589 989.3 859.268 988.339 850.313 985.971C841.383 983.627 831.866 979.736 822.771 974.11C813.724 968.415 806.059 961.57 800.011 954.561C793.964 947.553 789.44 940.497 786.299 934.262C783.134 928.027 781.142 922.73 780.017 919.003C779.384 917.151 779.079 915.674 778.821 914.69C778.564 913.705 778.47 913.166 778.493 913.166C778.54 913.166 778.728 913.659 779.056 914.643C779.407 915.604 779.782 917.057 780.462 918.886C781.728 922.566 783.814 927.77 787.049 933.911C790.284 940.029 794.831 946.967 800.855 953.858C806.879 960.75 814.474 967.477 823.404 973.103C832.382 978.658 841.758 982.525 850.595 984.916C859.432 987.307 867.659 988.362 874.574 988.573C881.489 988.807 887.114 988.385 890.958 987.917C892.904 987.753 894.381 987.448 895.389 987.331C896.443 987.12 896.983 987.073 896.983 987.12Z" fill="#263238"/>
<path d="M826.931 974.966C826.65 975.059 825.759 969.832 828.033 963.878C830.236 957.925 834.338 954.549 834.479 954.807C834.76 955.065 831.244 958.651 829.158 964.3C827.025 969.949 827.33 974.966 826.931 974.966Z" fill="#FAFAFA"/>
<path d="M807.65 966.893C807.814 967.221 804.298 968.932 801.556 972.683C798.743 976.386 798.087 980.254 797.712 980.184C797.407 980.23 797.524 975.964 800.571 971.956C803.572 967.924 807.603 966.588 807.65 966.893Z" fill="#FAFAFA"/>
<path d="M893.367 946.117C893.671 946.117 892.992 950.992 889.171 955.47C885.397 959.97 880.662 961.423 880.639 961.119C880.475 960.79 884.694 958.915 888.257 954.673C891.843 950.477 893.015 946 893.367 946.117Z" fill="#FAFAFA"/>
<path d="M926.162 994.546C925.881 994.311 928.975 990.397 931.834 985.006C934.718 979.614 936.218 974.856 936.569 974.973C936.874 975.044 935.866 980.06 932.913 985.592C929.983 991.123 926.373 994.78 926.162 994.546Z" fill="#FAFAFA"/>
<path d="M936.444 945.398C936.093 945.515 934.03 938.647 929.717 931.053C925.451 923.435 920.646 918.137 920.927 917.879C921.044 917.785 922.38 918.957 924.279 921.161C926.177 923.341 928.568 926.599 930.772 930.467C932.952 934.334 934.475 938.061 935.366 940.827C936.257 943.593 936.585 945.374 936.444 945.398Z" fill="#FAFAFA"/>
<path d="M942.92 875.608C942.99 875.936 938.021 877.366 931.81 878.796C925.598 880.225 920.488 881.116 920.418 880.788C920.347 880.46 925.317 879.03 931.528 877.6C937.763 876.17 942.85 875.28 942.92 875.608Z" fill="#FAFAFA"/>
<path d="M922.973 854.762C922.715 854.973 919.504 851.27 915.801 846.535C912.097 841.777 909.331 837.745 909.589 837.558C909.847 837.347 913.058 841.027 916.762 845.785C920.465 850.52 923.255 854.552 922.973 854.762Z" fill="#FAFAFA"/>
<path d="M972.387 842.254C972.363 842.582 967.253 842.254 961.159 840.801C955.041 839.371 950.353 837.355 950.47 837.05C950.587 836.722 955.416 838.176 961.44 839.605C967.464 841.035 972.434 841.903 972.387 842.254Z" fill="#FAFAFA"/>
<path d="M1007.52 841.609C1007.21 841.445 1009.13 837.203 1011.1 831.835C1013.07 826.467 1014.34 821.99 1014.69 822.061C1014.99 822.131 1014.27 826.796 1012.25 832.257C1010.26 837.742 1007.8 841.774 1007.52 841.609Z" fill="#FAFAFA"/>
<path d="M999.618 889.213C999.547 889.518 994.672 888.299 989.398 885.135C984.101 882.017 980.702 878.314 980.936 878.103C981.171 877.845 984.874 881.056 990.031 884.08C995.141 887.15 999.735 888.862 999.618 889.213Z" fill="#FAFAFA"/>
<path d="M1022.45 887.782C1022.13 887.712 1023.27 881.477 1025.03 873.859C1026.79 866.241 1028.48 860.123 1028.81 860.217C1029.13 860.287 1027.99 866.522 1026.23 874.14C1024.47 881.758 1022.78 887.852 1022.45 887.782Z" fill="#FAFAFA"/>
<path d="M1003.4 941.047C1003.12 941.235 999.413 936.617 995.101 930.734C990.788 924.827 987.529 919.904 987.787 919.693C988.069 919.506 991.772 924.1 996.085 930.007C1000.4 935.89 1003.66 940.836 1003.4 941.047Z" fill="#FAFAFA"/>
<path d="M1035.93 920.686C1035.6 920.826 1033.47 916.607 1030.09 911.872C1026.74 907.114 1023.46 903.692 1023.72 903.434C1023.93 903.2 1027.66 906.294 1031.1 911.169C1034.55 916.021 1036.24 920.569 1035.93 920.686Z" fill="#FAFAFA"/>
<path d="M1066.45 916.106C1066.14 916.293 1063.07 911.699 1058.95 906.308C1054.82 900.893 1051.19 896.744 1051.45 896.486C1051.68 896.252 1055.74 900.096 1059.91 905.558C1064.1 911.019 1066.73 915.942 1066.45 916.106Z" fill="#FAFAFA"/>
<path d="M1059.28 936.332C1058.9 936.356 1059.16 932.277 1056.49 928.339C1053.91 924.331 1050.09 922.948 1050.23 922.62C1050.28 922.479 1051.31 922.597 1052.78 923.347C1054.26 924.073 1056.11 925.527 1057.52 927.66C1058.93 929.793 1059.54 932.066 1059.63 933.707C1059.72 935.348 1059.42 936.332 1059.28 936.332Z" fill="#FAFAFA"/>
<path d="M1035.48 964.071C1035.3 964.024 1035.37 963.438 1035.18 962.617C1035.02 961.797 1034.52 960.695 1033.56 959.922C1032.6 959.172 1031.41 958.984 1030.56 959.008C1029.72 959.031 1029.16 959.219 1029.09 959.054C1028.99 958.937 1029.44 958.422 1030.45 958.14C1031.41 957.859 1033 957.929 1034.34 958.937C1035.65 959.969 1036.09 961.492 1036.05 962.5C1036 963.578 1035.63 964.118 1035.48 964.071Z" fill="#FAFAFA"/>
<path d="M791.615 1008.39C791.544 1008.67 785.45 1006.37 779.918 1000.77C774.316 995.216 772.019 989.121 772.3 989.074C772.628 988.887 775.371 994.559 780.786 999.927C786.13 1005.32 791.802 1008.04 791.615 1008.39Z" fill="#FAFAFA"/>
<path d="M642.418 426.607C638.667 390.955 631.846 357.436 629.995 322.463C629.901 320.705 629.713 318.736 628.33 317.635C626.455 316.134 623.478 317.33 622.259 319.393C621.04 321.455 621.064 323.987 621.064 326.378C621.134 344.919 617.97 363.46 611.782 380.946C607.75 392.291 602.453 403.214 599.405 414.864C596.358 426.513 602.054 430.475 607.281 441.304" fill="#FFBE9D"/>
<path d="M522.712 285.391C522.501 285.649 509.304 274.914 493.271 261.436C477.215 247.934 464.393 236.8 464.604 236.542C464.815 236.284 478.012 246.997 494.045 260.498C510.101 273.999 522.947 285.133 522.712 285.391Z" fill="#263238"/>
<path d="M589.559 269.345C589.23 269.368 587.894 248.53 586.605 222.817C585.316 197.103 584.519 176.241 584.871 176.218C585.199 176.194 586.535 197.033 587.824 222.746C589.113 248.483 589.887 269.345 589.559 269.345Z" fill="#263238"/>
<path d="M546.995 254.456C546.666 254.55 542.564 242.666 537.806 227.899C533.048 213.131 529.461 201.083 529.79 200.966C530.118 200.872 534.22 212.756 538.978 227.524C543.713 242.291 547.299 254.362 546.995 254.456Z" fill="#263238"/>
<path d="M509.038 307.389C508.897 307.694 500.81 304.272 490.942 299.771C481.097 295.248 473.221 291.356 473.362 291.052C473.503 290.747 481.589 294.146 491.458 298.67C501.302 303.17 509.178 307.085 509.038 307.389Z" fill="#263238"/>
<path d="M447.371 280.479C447.325 280.807 445.379 280.854 443.012 280.549C440.644 280.244 438.769 279.752 438.816 279.4C438.863 279.072 440.808 279.025 443.176 279.33C445.52 279.635 447.418 280.151 447.371 280.479Z" fill="#263238"/>
<path d="M531.314 185.861C530.985 185.861 530.704 183.938 530.704 181.571C530.704 179.204 530.985 177.282 531.314 177.282C531.642 177.282 531.923 179.204 531.923 181.571C531.923 183.962 531.642 185.861 531.314 185.861Z" fill="#263238"/>
<path d="M672.471 218.96C672.728 219.194 661.899 231.594 648.327 246.666C634.732 261.738 623.528 273.786 623.27 273.552C623.012 273.317 633.818 260.917 647.413 245.846C661.008 230.774 672.213 218.749 672.471 218.96Z" fill="#263238"/>
<path d="M689.673 201.917C689.908 202.152 688.665 203.793 686.884 205.551C685.102 207.332 683.485 208.574 683.251 208.34C683.016 208.105 684.258 206.465 686.04 204.707C687.798 202.925 689.439 201.683 689.673 201.917Z" fill="#263238"/>
<path d="M731.447 261.899C731.494 261.97 730.345 262.649 728.259 263.798C726.173 264.947 723.125 266.564 719.305 268.463C711.687 272.307 701.045 277.323 689.02 282.292C676.996 287.261 665.932 291.27 657.822 293.942C653.766 295.278 650.485 296.309 648.188 296.966C645.891 297.622 644.625 297.95 644.601 297.88C644.578 297.809 645.797 297.317 648.047 296.52C650.485 295.653 653.696 294.504 657.54 293.121C665.557 290.238 676.55 286.113 688.551 281.144C700.529 276.174 711.218 271.299 718.93 267.666C722.633 265.908 725.68 264.454 728.024 263.353C730.204 262.368 731.423 261.829 731.447 261.899Z" fill="#263238"/>
<path d="M697.173 319.627C697.219 319.791 694.852 320.611 690.961 321.689C687.07 322.768 681.608 324.033 675.537 325.065C669.443 326.096 663.888 326.706 659.856 326.987C655.824 327.268 653.316 327.268 653.316 327.104C653.293 326.917 655.778 326.635 659.786 326.12C663.771 325.627 669.302 324.877 675.35 323.846C681.397 322.815 686.836 321.689 690.773 320.822C694.665 319.978 697.102 319.439 697.173 319.627Z" fill="#263238"/>
<path d="M728.324 313.86C728.324 314.189 725.3 314.47 721.573 314.47C717.846 314.47 714.823 314.189 714.823 313.86C714.823 313.532 717.846 313.251 721.573 313.251C725.3 313.251 728.324 313.509 728.324 313.86Z" fill="#263238"/>
<path d="M607.283 441.308C597.93 434.346 592.961 421.947 594.907 410.461C596.079 403.429 599.571 397.03 602.337 390.467C605.126 383.903 607.236 376.637 605.548 369.699C604.892 367.05 603.697 364.495 603.697 361.753C603.673 359.034 605.431 355.986 608.15 355.846C610.213 355.752 611.947 357.322 613.237 358.916C617.784 364.565 621.464 381.091 619.167 393.397" fill="#FFBE9D"/>
<path d="M619.171 393.415C619.054 393.391 619.405 391.516 619.546 388.094C619.663 384.672 619.522 379.703 618.35 373.702C617.764 370.702 616.897 367.467 615.538 364.162C614.858 362.521 614.061 360.833 612.912 359.403C611.787 357.974 610.287 356.544 608.506 356.427C606.724 356.286 605.177 357.856 604.591 359.708C603.935 361.56 604.357 363.67 604.966 365.732C605.599 367.795 606.373 370.022 606.607 372.366C606.841 374.71 606.748 377.101 606.349 379.445C604.708 388.938 599.645 396.65 597.067 404.244C595.754 408.042 594.957 411.792 594.981 415.355C594.957 418.918 595.543 422.223 596.434 425.106C598.239 430.919 601.216 435.021 603.466 437.529C605.763 440.061 607.334 441.162 607.24 441.256C607.216 441.279 606.818 441.022 606.091 440.482C605.341 439.943 604.31 439.076 603.114 437.857C600.7 435.396 597.559 431.294 595.59 425.364C594.629 422.41 593.973 419.011 593.949 415.331C593.879 411.651 594.676 407.737 595.989 403.846C598.567 396.064 603.56 388.375 605.107 379.21C605.505 376.937 605.576 374.663 605.365 372.46C605.154 370.233 604.45 368.17 603.794 366.037C603.161 363.927 602.669 361.513 603.443 359.286C603.818 358.208 604.404 357.177 605.294 356.403C606.162 355.606 607.357 355.161 608.529 355.255C610.92 355.466 612.514 357.177 613.709 358.7C614.952 360.294 615.725 362.052 616.428 363.74C617.788 367.139 618.585 370.467 619.147 373.491C620.226 379.585 620.249 384.625 619.968 388.071C619.804 389.782 619.64 391.118 619.452 392.009C619.335 392.946 619.218 393.415 619.171 393.415Z" fill="#EB996E"/>
<path d="M925.619 583.783C926.862 590.534 933.261 595.738 940.105 596.3C946.926 596.863 953.771 593.206 957.756 587.628C961.74 582.049 963.053 574.829 962.139 568.032C960.803 558.164 954.24 548.67 944.723 545.74C935.206 542.787 923.369 548.037 920.744 557.648L909.774 572.978L925.619 583.783Z" fill="#263238"/>
<path d="M912.631 553.707C917.085 518.149 891.371 485.661 855.273 482.215C821.239 478.981 791.001 504.319 785.914 538.096C781.437 567.725 777.593 597.634 777.734 608.487C778.156 641.232 797.306 653.984 805.088 657.828C806.87 658.695 811.745 659.703 813.714 659.984C813.831 660.008 813.925 660.125 813.902 660.242L806.635 697.84C803.33 722.475 817.09 744.439 841.678 748.025C866.361 751.611 885.652 732.695 889.402 708.036L912.631 553.707Z" fill="#FFBE9D"/>
<path d="M791.565 557.316C792.104 558.09 796.441 555.769 801.972 556.59C807.528 557.34 811.184 560.786 811.864 560.176C812.192 559.918 811.723 558.606 810.153 557.059C808.606 555.512 805.793 553.847 802.348 553.355C798.902 552.863 795.808 553.707 793.932 554.785C792.034 555.84 791.284 556.965 791.565 557.316Z" fill="#263238"/>
<path d="M840.889 567.952C841.428 568.725 845.765 566.405 851.297 567.225C856.852 567.975 860.509 571.421 861.188 570.812C861.516 570.554 861.048 569.241 859.477 567.694C857.93 566.147 855.117 564.483 851.672 563.99C848.226 563.498 845.132 564.366 843.257 565.42C841.382 566.475 840.631 567.6 840.889 567.952Z" fill="#263238"/>
<path d="M821.71 594.165C821.781 593.86 818.429 592.758 812.944 591.235C811.561 590.883 810.248 590.414 810.155 589.407C809.967 588.328 810.787 586.898 811.702 585.351C813.53 582.117 815.452 578.741 817.468 575.179C825.531 560.669 831.579 548.668 830.993 548.34C830.407 548.012 823.398 559.521 815.358 574.03C813.413 577.616 811.538 581.015 809.756 584.297C808.983 585.82 807.787 587.508 808.209 589.735C808.443 590.86 809.358 591.774 810.225 592.149C811.092 592.548 811.889 592.688 812.569 592.829C818.148 593.954 821.64 594.47 821.71 594.165Z" fill="#263238"/>
<path d="M813.927 660.028C813.927 660.028 835.07 664.903 864.206 652.715C864.206 652.715 851.642 679.788 811.982 670.154L813.927 660.028Z" fill="#EB996E"/>
<path d="M822.104 607.881C824.471 605.537 828.175 604.599 831.597 605.466C833.964 606.076 836.238 607.599 837.41 609.756C838.582 611.936 838.488 614.749 836.894 616.436C835.09 618.312 831.902 618.358 829.347 617.21C826.815 616.061 824.776 613.999 822.877 611.936C822.338 611.373 821.799 610.787 821.541 610.061C821.26 609.357 821.307 608.467 821.846 607.998" fill="#EB996E"/>
<path d="M837.456 600.37C836.565 600.182 835.675 606.206 829.908 609.722C824.142 613.262 817.813 611.645 817.649 612.488C817.509 612.863 818.915 613.871 821.611 614.34C824.259 614.809 828.268 614.528 831.784 612.371C835.3 610.215 837.175 606.91 837.737 604.472C838.323 601.987 837.878 600.393 837.456 600.37Z" fill="#263238"/>
<path d="M844.708 549.923C845.036 551.516 850.685 551.61 857.061 553.345C863.484 554.939 868.453 557.611 869.508 556.392C869.976 555.806 869.273 554.259 867.375 552.478C865.476 550.72 862.335 548.844 858.491 547.836C854.647 546.852 850.99 546.946 848.482 547.555C845.951 548.165 844.591 549.172 844.708 549.923Z" fill="#263238"/>
<path d="M797.175 540.178C797.972 541.584 801.98 540.834 806.574 541.443C811.192 541.889 814.942 543.53 816.021 542.334C816.513 541.748 816.068 540.412 814.544 538.959C813.044 537.529 810.395 536.146 807.207 535.771C804.043 535.419 801.136 536.146 799.355 537.201C797.55 538.279 796.823 539.498 797.175 540.178Z" fill="#263238"/>
<path d="M779.489 530.798C786.263 541.135 807.781 534.759 820.767 527.657C834.456 536.728 853.466 532.79 862.935 518.914C870.366 528.384 885.461 525.243 890.97 514.578C896.478 503.912 893.384 489.215 885.813 479.886C878.242 470.557 867.178 465.846 856.255 463.83C830.354 459.048 802.156 469.081 786.662 492.497C779.536 503.303 775.246 517.859 779.489 530.798Z" fill="#263238"/>
<path d="M851.081 467.486C851.058 467.932 844.963 466.76 835.376 468.377C825.953 469.948 812.71 474.87 802.818 485.887C793.161 497.068 788.778 510.311 787.184 519.781C785.566 529.391 786.809 535.439 786.387 535.486C786.27 535.509 785.871 534.033 785.496 531.29C785.168 528.548 785.074 524.492 785.684 519.57C786.949 509.819 791.168 496.154 801.224 484.48C811.561 472.948 825.414 468.119 835.142 466.9C840.064 466.244 844.119 466.385 846.862 466.713C849.604 466.971 851.081 467.369 851.081 467.486Z" fill="#455A64"/>
<path d="M816.055 515.654C815.937 515.678 815.656 514.365 815.539 511.974C815.422 509.583 815.609 506.067 816.594 501.872C818.446 493.574 824.446 482.088 836.049 475.197C847.699 468.399 860.661 468.704 868.818 471.118C872.967 472.29 876.131 473.837 878.171 475.103C880.21 476.369 881.218 477.236 881.148 477.353C880.937 477.752 876.6 474.517 868.443 472.595C860.473 470.626 848.144 470.626 837.127 477.072C826.157 483.588 820.204 494.371 818.047 502.293C815.773 510.31 816.5 515.678 816.055 515.654Z" fill="#455A64"/>
<path d="M878.2 504.437C876.02 513.672 873.84 523.001 873.84 532.471C873.84 541.964 876.207 551.739 882.255 559.052C891.303 569.975 906.398 573.28 920.321 575.929C927.775 557.458 930.049 536.901 926.814 517.235C925.244 507.625 922.15 497.874 915.375 490.865C905.601 480.786 888.584 478.747 876.723 486.247" fill="#263238"/>
<path d="M885.935 549.828C882.255 557.751 882.537 566.916 883.802 575.565C885.068 584.215 887.271 592.77 887.178 601.514C887.084 610.233 884.318 619.492 877.474 624.907C875.528 626.454 873.278 627.649 871.66 629.524C870.043 631.4 869.152 634.259 870.442 636.369C871.754 638.478 875.692 638.432 876.278 636.017L875.927 636.627C874.426 639.182 876.255 642.534 879.208 642.463C883.849 642.369 888.608 639.908 891.725 636.322C896.202 631.142 897.984 624.18 899.156 617.429C902.765 596.732 902.062 575.284 907.782 555.055" fill="#263238"/>
<path d="M806.447 685.742C809.658 699.782 819.198 712.276 831.949 719.027C844.677 725.801 860.359 726.715 873.813 721.535C885.955 716.847 895.73 707.705 905.199 698.774C908.575 719.027 902.949 740.615 890.151 756.671C877.353 772.728 857.546 782.994 837.036 784.237C821.519 785.174 804.806 780.416 795.055 768.321C788.234 759.883 785.468 748.678 785.585 737.825C785.702 726.973 788.468 716.331 791.703 705.97C794.492 697.11 798.852 687.172 807.83 684.757" fill="#27AE60"/>
<path d="M917.653 576.683C926.935 581.722 932.045 592.27 933.826 602.678C935.631 613.085 934.717 623.75 935.162 634.298C935.608 644.846 937.624 655.887 944.304 664.067C951.383 672.763 962.47 676.889 972.338 682.21C994.184 694 1012.16 713.948 1018.75 737.88C1025.34 761.812 1019.36 789.495 1001.43 806.676C985.113 822.311 961.345 827.796 938.772 827.725C922.645 827.678 904.972 824.256 894.916 811.669C884.977 799.222 885.446 781.431 889.056 765.937C892.689 750.444 899.018 735.348 899.252 719.432C896.861 729.254 892.642 738.63 886.876 746.951C885.235 749.318 882.399 751.897 879.844 750.537C877.008 749.037 878.086 744.795 879.399 741.865C898.83 698.665 892.056 611.585 903.565 563.885" fill="#263238"/>
<path d="M901.684 571.748C902.27 571.56 924.937 567.271 922.007 589.679C919.1 612.088 897.207 604.54 897.254 603.907C897.301 603.251 901.684 571.748 901.684 571.748Z" fill="#FFBE9D"/>
<path d="M905.175 596.314C905.292 596.244 905.526 596.642 906.159 597.017C906.769 597.392 907.847 597.744 909.066 597.463C911.551 596.9 914.035 593.407 914.668 589.376C914.996 587.336 914.809 585.344 914.293 583.656C913.824 581.922 912.91 580.656 911.738 580.281C910.589 579.859 909.652 580.445 909.3 581.055C908.925 581.641 908.996 582.109 908.878 582.133C908.808 582.18 908.456 581.687 908.738 580.797C908.878 580.375 909.23 579.859 909.793 579.507C910.379 579.132 911.199 579.015 912.019 579.226C913.73 579.578 915.09 581.359 915.653 583.234C916.309 585.133 916.567 587.383 916.192 589.657C915.465 594.157 912.605 598.072 909.253 598.588C907.613 598.799 906.37 598.142 905.761 597.533C905.151 596.853 905.105 596.337 905.175 596.314Z" fill="#EB996E"/>
<path d="M783.289 734.027C783.124 733.934 784.671 731.308 787.109 727.089C789.5 722.87 792.875 717.01 795.196 710.001C797.516 702.993 797.915 696.219 797.212 691.46C796.555 686.678 795.196 683.913 795.407 683.842C795.477 683.819 795.876 684.452 796.415 685.717C796.977 686.983 797.61 688.882 798.056 691.32C798.993 696.172 798.735 703.204 796.344 710.376C793.954 717.549 790.438 723.409 787.836 727.534C786.523 729.597 785.421 731.238 784.625 732.34C783.828 733.488 783.359 734.074 783.289 734.027Z" fill="#263238"/>
<path d="M794.708 708.166C794.38 708.237 793.724 706.268 791.731 704.908C789.763 703.502 787.676 703.572 787.653 703.244C787.629 703.103 788.145 702.822 789.083 702.822C789.997 702.798 791.286 703.103 792.458 703.924C793.63 704.744 794.357 705.846 794.661 706.713C794.943 707.557 794.872 708.143 794.708 708.166Z" fill="#FAFAFA"/>
<path d="M809.191 708.147C808.863 708.335 807.105 705.1 803.424 702.732C799.791 700.295 796.135 699.943 796.182 699.568C796.111 699.263 800.143 699.076 804.104 701.701C808.066 704.326 809.495 708.1 809.191 708.147Z" fill="#FAFAFA"/>
<path d="M818.291 755.686C817.963 755.616 818.572 751.326 819.651 746.123C820.729 740.895 821.878 736.723 822.206 736.793C822.534 736.864 821.924 741.153 820.846 746.357C819.768 751.584 818.619 755.756 818.291 755.686Z" fill="#FAFAFA"/>
<path d="M854.854 762.864C854.526 762.864 854.385 758.316 854.549 752.737C854.713 747.159 855.135 742.635 855.463 742.658C855.791 742.658 855.932 747.206 855.768 752.784C855.604 758.363 855.205 762.887 854.854 762.864Z" fill="#FAFAFA"/>
<path d="M108.273 867.021L72.1284 1024.42L148.566 1024.66L183.867 886.242L108.273 867.021Z" fill="#FFBE9D"/>
<path d="M483.633 673.645C476.367 663.894 468.022 654.541 464.201 643.009C462.349 637.43 461.623 631.523 459.654 625.991C457.685 620.46 454.099 615.068 448.614 612.982C443.129 610.896 438.956 613.006 435.393 616.92L409.164 693.639L424.283 752.567C439.378 749.169 458.271 745.137 472.382 738.785C486.469 732.432 495.916 722.259 496.806 706.813C497.486 694.717 490.899 683.396 483.633 673.645Z" fill="#263238"/>
<path d="M244.946 660.09C244.946 660.09 153.764 699.797 142.372 717.682C130.981 735.59 93.5469 863.268 93.5469 863.268L189.534 891.513L187.963 1024.42H423.535L421.59 790.088L392.032 660.559C392.032 660.559 340.018 657.207 335.213 654.839C330.385 652.448 244.946 660.09 244.946 660.09Z" fill="#27AE60"/>
<path d="M568.985 335.166C569.735 329.798 565.985 323.891 568.68 319.18C570.18 316.578 573.181 315.312 575.993 314.234C577.447 313.671 578.923 313.109 580.47 313.156C582.017 313.202 583.658 314.046 584.151 315.5C584.737 317.211 583.635 319.062 582.346 320.328C581.056 321.617 579.486 322.719 578.806 324.407C577.892 326.657 578.736 333.712 579.674 335.939C581.267 339.783 586.94 356.895 587.432 361.02" fill="#FFBE9D"/>
<path d="M549.739 337.011C550.067 328.877 556.677 296.811 557.005 288.677C562.514 290.365 565.701 296.225 566.733 301.898C567.764 307.57 567.225 313.407 568.209 319.079C569.522 326.697 573.483 333.565 577.468 340.175C581.453 346.785 585.625 353.489 587.407 361.013C589.212 368.537 596.009 388.016 590.712 393.642" fill="#FFBE9D"/>
<path d="M548.217 391.874L515.636 546.766C514.487 553.751 392.036 660.544 392.036 660.544L416.226 757.14L575.736 601.193C587.245 588.887 593.503 572.597 593.175 555.767L590.479 410.439L548.217 391.874Z" fill="#FFBE9D"/>
<path d="M542.639 338.004L548.195 391.869L590.457 410.434C590.457 410.434 590.973 406.613 592.801 387.931C594.817 367.328 572.666 358.491 562.798 343.302C558.579 336.785 559.68 324.831 556.422 310.017C556.047 308.306 553.68 297.969 552.414 292.39C551.711 289.319 549.976 286.53 547.351 284.772C545.452 283.483 543.272 282.85 541.702 284.772C540.108 286.741 542.639 338.004 542.639 338.004Z" fill="#FFBE9D"/>
<path d="M568.983 400.919C573.789 396.864 574.82 389.598 573.038 383.574C571.257 377.55 567.202 372.487 563.076 367.728C558.951 362.97 554.615 358.258 552.083 352.492C550.302 348.437 549.481 344.007 547.512 340.046C545.543 336.084 541.957 332.451 537.55 332.264C541.09 354.555 540.996 367.377 548.239 391.871" fill="#FFBE9D"/>
<path d="M541.814 357.642C541.814 357.736 541.65 357.033 541.369 355.861C541.064 354.431 540.689 352.743 540.244 350.751C539.259 346.086 537.97 340.062 536.517 333.218L536.376 332.561L537.056 332.514C539.845 332.303 542.728 333.522 544.932 335.468C548.612 338.609 550.299 343.016 551.542 346.743C552.76 350.54 553.815 353.915 555.245 356.517C556.534 359.189 558.339 360.83 559.37 362.213C560.402 363.572 560.824 364.393 560.777 364.44C560.707 364.487 560.121 363.76 559.019 362.518C557.941 361.299 555.948 359.681 554.495 356.939C552.925 354.314 551.753 350.845 550.487 347.094C549.198 343.391 547.557 339.265 544.158 336.359C542.119 334.577 539.564 333.499 537.149 333.663L537.689 332.96C540.501 347.094 542.33 357.666 541.814 357.642Z" fill="#7C5142"/>
<path d="M560.78 343.949C560.452 343.996 558.694 334.151 556.889 321.962C555.085 309.774 553.866 299.835 554.217 299.788C554.545 299.741 556.303 309.586 558.108 321.775C559.913 333.987 561.109 343.902 560.78 343.949Z" fill="#7C5142"/>
<path d="M574.203 345.763C574.273 345.763 574.367 346.021 574.508 346.583L574.156 346.654C573.359 344.708 571.531 338.637 569.914 331.324C568.906 326.8 568.156 322.674 567.734 319.674C567.288 316.674 567.148 314.799 567.312 314.775C567.663 314.728 569.093 322.065 571.109 331.066C572.726 338.356 574.203 344.497 574.531 346.56L574.18 346.63C574.133 346.044 574.133 345.763 574.203 345.763Z" fill="#7C5142"/>
<path d="M582.532 375.467C582.368 375.561 581.5 374.248 579.813 372.443C578.125 370.639 575.476 368.412 572.077 366.771C568.679 365.13 565.28 364.45 562.819 364.239C560.357 364.029 558.787 364.193 558.763 363.982C558.74 363.841 560.287 363.372 562.865 363.372C565.444 363.349 569.03 363.935 572.617 365.669C576.179 367.404 578.898 369.842 580.469 371.881C582.039 373.897 582.649 375.397 582.532 375.467Z" fill="#7C5142"/>
<path d="M552.038 396.13C551.898 396.176 550.773 393.785 549.272 389.754C547.772 385.722 545.944 380.073 544.42 373.697C542.897 367.322 541.959 361.438 541.467 357.172C540.975 352.906 540.904 350.257 541.068 350.234C541.256 350.211 541.631 352.836 542.334 357.055C543.037 361.274 544.092 367.064 545.616 373.416C547.139 379.745 548.804 385.417 550.093 389.473C551.359 393.551 552.203 396.059 552.038 396.13Z" fill="#7C5142"/>
<path d="M363.413 663.314C367.327 656.774 376.961 654.523 383.383 658.649C400.588 644.655 418.192 630.943 435.397 616.949C429.771 645.007 426.091 684.316 438.608 710.029C438.608 710.029 454.477 739.54 479.745 735.016L457.219 757.167L421.591 790.1" fill="#27AE60"/>
<path d="M357.84 676.471C357.535 676.494 357.863 671.267 361.145 665.899C364.403 660.508 368.88 657.813 369.021 658.094C369.255 658.375 365.294 661.399 362.2 666.532C359.035 671.642 358.215 676.541 357.84 676.471Z" fill="#263238"/>
<path d="M376.421 693.696C376.304 693.743 375.296 691.891 374.452 688.563C373.632 685.257 373.186 680.476 374.101 675.319C375.015 670.162 377.078 665.802 379 662.989C380.922 660.153 382.516 658.77 382.609 658.841C382.774 658.981 381.414 660.575 379.75 663.435C378.062 666.295 376.21 670.537 375.32 675.506C374.452 680.476 374.734 685.117 375.32 688.375C375.882 691.657 376.609 693.626 376.421 693.696Z" fill="#263238"/>
<path d="M462.536 754.02C462.536 754.02 460.732 755.286 456.934 756.271C453.184 757.278 447.3 757.747 440.503 755.778C433.729 753.88 426.415 749.004 420.766 741.621C415.023 734.284 411.132 724.58 408.999 714.172C404.968 693.24 405.132 673.832 406.187 660.002C406.726 653.064 407.523 647.485 408.156 643.665C408.46 641.743 408.765 640.266 408.953 639.258C409.163 638.25 409.281 637.734 409.328 637.734C409.374 637.734 409.328 638.274 409.187 639.281C409.046 640.43 408.859 641.883 408.601 643.712C408.109 647.556 407.476 653.134 407.03 660.049C406.187 673.832 406.187 693.17 410.171 713.914C412.281 724.205 416.078 733.721 421.634 740.917C427.119 748.16 434.151 752.966 440.737 754.934C447.324 756.974 453.067 756.646 456.794 755.802C460.591 754.981 462.49 753.903 462.536 754.02Z" fill="#FAFAFA"/>
<path d="M190.022 930.973C189.694 930.973 189.412 897.665 189.412 856.551C189.412 815.437 189.694 782.129 190.022 782.129C190.35 782.129 190.631 815.437 190.631 856.551C190.631 897.641 190.373 930.973 190.022 930.973Z" fill="#263238"/>
<path d="M188.15 756.419C187.892 756.419 187.963 753.09 186.814 747.91C186.275 745.308 185.267 742.308 183.884 739.097C182.431 735.932 180.509 732.557 178.094 729.346C175.61 726.158 172.891 723.439 170.195 721.189C167.476 719.009 164.827 717.251 162.46 716.055C157.772 713.571 154.514 712.774 154.607 712.539C154.631 712.469 155.428 712.633 156.905 713.008C157.631 713.195 158.522 713.453 159.506 713.852C160.491 714.25 161.663 714.625 162.858 715.282C165.32 716.407 168.062 718.141 170.898 720.321C173.688 722.571 176.524 725.337 179.055 728.619C181.54 731.924 183.462 735.393 184.915 738.675C186.275 741.98 187.212 745.097 187.658 747.769C187.963 749.082 188.033 750.324 188.15 751.379C188.291 752.434 188.291 753.372 188.291 754.122C188.267 755.598 188.22 756.419 188.15 756.419Z" fill="#263238"/>
<path d="M348.694 659.081C348.741 659.081 348.858 659.761 349.092 661.05C349.35 662.339 349.538 664.285 349.702 666.793C349.96 671.786 349.514 679.169 346.772 687.772C343.959 696.28 338.685 706.055 329.778 714.071C320.988 722.158 308.33 727.714 294.571 728.768C280.812 729.753 267.474 726.167 257.559 719.463C247.55 712.853 240.893 703.969 236.838 695.976C232.853 687.889 231.306 680.646 230.814 675.677C230.603 673.169 230.486 671.223 230.556 669.91C230.58 668.598 230.603 667.895 230.65 667.895C230.697 667.895 230.744 668.598 230.814 669.91C230.838 671.223 231.002 673.145 231.306 675.63C231.939 680.552 233.604 687.678 237.612 695.601C241.69 703.43 248.324 712.103 258.169 718.525C267.896 725.041 280.976 728.511 294.477 727.55C307.955 726.495 320.355 721.103 329.004 713.228C337.771 705.399 343.045 695.835 345.928 687.49C348.717 679.052 349.303 671.762 349.21 666.793C349.139 664.308 349.022 662.363 348.835 661.074C348.717 659.784 348.67 659.105 348.694 659.081Z" fill="#263238"/>
<path d="M188.018 862.423C187.9 862.751 168.562 856.633 144.771 848.781C121.003 840.928 101.805 834.295 101.922 833.967C102.04 833.638 121.378 839.756 145.169 847.609C168.937 855.484 188.111 862.095 188.018 862.423Z" fill="#FAFAFA"/>
<path d="M419.289 829.896C419.289 830.224 367.604 830.716 303.847 830.998C240.067 831.256 188.381 831.209 188.381 830.881C188.381 830.552 240.067 830.06 303.847 829.779C367.604 829.521 419.289 829.568 419.289 829.896Z" fill="#FAFAFA"/>
<path d="M420.472 850.317C420.472 850.645 368.505 850.927 304.444 850.927C240.335 850.927 188.392 850.645 188.392 850.317C188.392 849.989 240.335 849.708 304.444 849.708C368.505 849.708 420.472 849.966 420.472 850.317Z" fill="#FAFAFA"/>
<path d="M388.64 875.095C388.687 875.119 388.453 875.751 387.984 876.994C387.468 878.306 386.765 880.088 385.874 882.338C385.406 883.51 384.89 884.799 384.327 886.182C383.718 887.565 382.991 889.065 382.241 890.659C380.694 893.847 379.1 897.574 376.873 901.442C375.795 903.411 374.693 905.45 373.521 907.606C372.349 909.739 370.943 911.849 369.583 914.099C366.911 918.623 363.63 923.171 360.254 928.023C353.222 937.516 344.854 947.501 335.174 957.088C325.376 966.605 315.25 974.762 305.616 981.606C300.693 984.888 296.099 988.099 291.505 990.654C289.231 991.967 287.098 993.326 284.942 994.475C282.785 995.6 280.699 996.678 278.73 997.71C274.816 999.866 271.065 1001.39 267.854 1002.87C266.237 1003.59 264.736 1004.3 263.33 1004.86C261.924 1005.4 260.634 1005.89 259.439 1006.34C257.189 1007.18 255.384 1007.84 254.048 1008.33C252.805 1008.77 252.149 1008.98 252.149 1008.94C252.126 1008.89 252.759 1008.61 253.977 1008.09C255.29 1007.55 257.048 1006.8 259.275 1005.89C260.447 1005.42 261.713 1004.88 263.119 1004.32C264.502 1003.71 265.979 1002.98 267.596 1002.23C270.784 1000.71 274.487 999.116 278.355 996.936C280.324 995.881 282.363 994.78 284.52 993.655C286.653 992.506 288.762 991.123 291.036 989.787C295.583 987.185 300.154 983.974 305.03 980.669C314.57 973.801 324.649 965.667 334.377 956.198C344.01 946.657 352.355 936.742 359.411 927.343C362.786 922.538 366.114 918.037 368.787 913.537C370.169 911.31 371.576 909.224 372.771 907.114C373.967 905.005 375.092 902.965 376.194 901.02C378.467 897.176 380.108 893.519 381.702 890.355C382.476 888.761 383.249 887.307 383.858 885.924C384.444 884.541 385.007 883.276 385.499 882.127C386.46 879.924 387.234 878.166 387.82 876.877C388.312 875.705 388.617 875.095 388.64 875.095Z" fill="#263238"/>
<g opacity="0.3">
<g opacity="0.3">
<g opacity="0.3">
<path opacity="0.3" d="M379.115 895.499C363.364 914.673 346.862 928.573 323.727 937.527C312.639 941.817 301.037 944.723 290.301 949.81C279.566 954.896 269.463 962.561 264.634 973.414C260.907 981.806 262.712 994.44 271.69 996.338C275.089 997.065 278.605 995.963 281.886 994.768C327.711 978.149 357.832 936.262 379.115 895.499Z" fill="black"/>
</g>
</g>
</g>
<path d="M215.204 478.382C205.312 486.14 204.656 500.65 205.148 513.214C205.64 525.778 205.781 540.076 196.686 548.749C189.185 555.898 176.059 558.547 173.902 568.696C172.894 573.431 175.145 578.682 179.27 581.213C183.396 583.745 189.091 583.37 192.842 580.322C189.654 588.245 191.107 598.442 197.858 603.669C204.632 608.896 216.493 606.458 219.048 598.301C217.454 603.692 221.181 610.044 226.666 611.333C232.151 612.599 238.269 608.544 239.23 602.989" fill="#263238"/>
<path d="M358.75 569.346C360.812 575.698 368.595 579.496 374.876 577.222C381.158 574.948 384.698 567.049 382.213 560.838C380.268 555.985 375.275 552.305 375.041 547.055C374.759 540.726 381.393 536.53 387.229 534.069C393.066 531.584 399.91 528.35 400.848 522.068C401.739 516.02 396.535 511.004 392.152 506.715C387.792 502.425 383.596 495.909 386.667 490.611C388.237 487.892 391.308 486.439 393.371 484.071C397.918 478.844 396.09 470.054 390.839 465.53C385.589 461.007 378.064 460.045 371.196 460.936C364.328 461.827 357.765 464.358 351.038 465.999C328.84 471.461 304.392 467.054 285.5 454.185" fill="#263238"/>
<path d="M221.927 526.744L246.07 666.541C250.313 691.129 273.753 707.561 298.318 703.177C321.266 699.075 337.275 678.096 335.213 654.891C334.111 642.491 333.15 632.224 333.15 632.224C333.15 632.224 368.169 623.223 365.145 587.642C363.692 570.437 357.785 535.253 352.089 503.492C345.972 469.363 314.632 445.712 280.129 449.064L276.706 449.392C239.905 455.159 215.129 490.131 221.927 526.744Z" fill="#FFBE9D"/>
<path d="M344.588 526.479C344.939 529.151 342.97 531.659 340.181 532.081C337.392 532.503 334.86 530.674 334.508 528.002C334.157 525.33 336.126 522.822 338.892 522.4C341.704 522.002 344.236 523.807 344.588 526.479Z" fill="#263238"/>
<path d="M346.152 521.609C345.59 522.336 341.464 519.851 336.003 520.414C330.541 520.882 326.814 524.094 326.158 523.461C325.83 523.203 326.369 521.937 327.986 520.484C329.58 519.054 332.393 517.53 335.792 517.226C339.191 516.921 342.191 517.882 343.949 519.007C345.754 520.132 346.434 521.281 346.152 521.609Z" fill="#263238"/>
<path d="M291.147 532.774C291.499 535.446 289.53 537.954 286.741 538.376C283.951 538.798 281.42 536.97 281.068 534.298C280.717 531.625 282.686 529.117 285.452 528.695C288.241 528.274 290.796 530.102 291.147 532.774Z" fill="#263238"/>
<path d="M292.529 527.904C291.966 528.63 287.841 526.146 282.379 526.708C276.918 527.177 273.191 530.388 272.511 529.755C272.183 529.498 272.699 528.232 274.34 526.779C275.933 525.349 278.746 523.825 282.145 523.52C285.544 523.216 288.544 524.177 290.302 525.302C292.13 526.45 292.81 527.599 292.529 527.904Z" fill="#263238"/>
<path d="M316.313 566.488C316.266 566.183 319.595 565.269 325.033 564.027C326.416 563.745 327.705 563.347 327.846 562.362C328.08 561.331 327.353 559.878 326.509 558.307C324.869 555.049 323.158 551.65 321.353 548.087C314.157 533.531 308.789 521.483 309.375 521.202C309.961 520.92 316.29 532.5 323.486 547.056C325.22 550.642 326.884 554.088 328.478 557.346C329.158 558.87 330.236 560.581 329.744 562.761C329.463 563.839 328.525 564.706 327.658 565.034C326.791 565.386 326.017 565.48 325.314 565.597C319.782 566.417 316.36 566.792 316.313 566.488Z" fill="#263238"/>
<path d="M291.864 506.362C291.465 507.909 285.957 507.721 279.605 509.128C273.253 510.394 268.26 512.784 267.275 511.519C266.83 510.909 267.604 509.432 269.549 507.792C271.471 506.151 274.659 504.463 278.456 503.666C282.254 502.869 285.84 503.127 288.278 503.854C290.739 504.58 292.028 505.635 291.864 506.362Z" fill="#263238"/>
<path d="M342.604 505.999C341.76 507.335 337.869 506.421 333.345 506.796C328.797 507.007 325.07 508.436 324.062 507.241C323.617 506.655 324.086 505.342 325.656 504.006C327.18 502.67 329.852 501.451 332.97 501.24C336.087 501.029 338.9 501.897 340.588 503.022C342.299 504.123 342.955 505.366 342.604 505.999Z" fill="#263238"/>
<path d="M256.706 483.948C256.635 483.995 256.588 484.065 256.518 484.112C251.291 489.128 248.173 495.973 247.892 503.216C247.892 503.474 247.869 503.708 247.869 503.942C247.47 514.209 248.713 524.499 248.22 534.789C247.728 545.056 245.22 555.698 238.399 563.41C235.61 566.574 230.336 569.082 227.476 565.965C226.374 564.769 226.046 563.058 225.765 561.441C221.475 537.133 212.685 516.061 210.224 490.464C209.568 483.503 212.193 476.635 217.467 472.017C222.46 467.657 228.601 463.04 234.836 465.266C241.095 467.517 249.885 477.901 254.948 482.19" fill="#263238"/>
<path d="M235.466 541.686C234.833 541.475 210.338 536.834 213.479 561.071C216.62 585.308 240.294 577.151 240.247 576.448C240.201 575.744 235.466 541.686 235.466 541.686Z" fill="#FFBE9D"/>
<path d="M231.652 568.195C231.535 568.125 231.277 568.546 230.598 568.968C229.941 569.367 228.769 569.742 227.457 569.437C224.784 568.828 222.089 565.054 221.409 560.694C221.057 558.491 221.245 556.334 221.808 554.506C222.323 552.631 223.308 551.248 224.573 550.849C225.816 550.38 226.824 551.037 227.222 551.693C227.644 552.326 227.55 552.842 227.668 552.865C227.738 552.912 228.136 552.396 227.808 551.412C227.644 550.943 227.292 550.404 226.66 550.005C226.027 549.607 225.136 549.49 224.245 549.701C222.394 550.076 220.94 552.021 220.331 554.037C219.628 556.076 219.346 558.514 219.745 560.975C220.542 565.827 223.636 570.093 227.269 570.633C229.027 570.867 230.387 570.164 231.043 569.484C231.699 568.781 231.746 568.218 231.652 568.195Z" fill="#7C5142"/>
<path d="M234.394 469.151C227.456 460.01 242.504 444.445 254.13 439.499C265.756 434.554 282.118 438.867 294.447 441.656C302.229 443.414 310.058 446.18 317.957 445.078C323.255 444.352 328.13 441.914 332.982 439.64C337.834 437.366 342.897 435.21 348.242 435.046C353.586 434.882 359.329 437.179 361.814 441.914C364.298 446.649 362.071 453.681 356.891 454.923C363.267 450.563 373.463 454.478 375.292 461.978C377.12 469.479 369.877 477.636 362.235 476.746C365.447 473.792 371.166 477.59 371.143 481.949C371.143 486.309 367.533 489.825 363.736 491.958C354.031 497.396 342.077 497.139 331.248 494.63C320.419 492.122 310.152 487.575 299.369 484.786C288.61 482.02 270.515 476.91 260.436 481.598C253.005 485.067 248.575 494.841 244.028 493.224C239.644 491.654 236.55 487.528 235.261 483.051C233.995 478.551 234.183 473.792 234.394 469.151Z" fill="#263238"/>
<path d="M235.787 545.752C236.49 558.597 237.194 571.513 240.194 584.03C243.194 596.547 248.632 608.735 257.657 617.9C269.47 629.925 284.753 641.434 301.396 644.177C319.562 647.177 341.783 643.38 356.573 632.41C363.582 627.206 368.692 615.978 366.512 607.517C372.489 604.774 376.708 598.586 377.06 592.023C377.412 585.46 373.427 577.255 368.223 576.388C372.138 575.755 373.239 569.567 371.763 566.051C370.239 562.395 365.152 561.504 361.261 562.254C357.37 563.004 353.972 565.301 350.784 567.645C347.596 569.989 344.385 572.474 340.634 573.693C328.07 577.771 315.342 566.707 302.146 567.2C290.215 567.669 279.596 577.56 267.759 575.896C261.149 574.958 255.453 570.388 251.82 564.809C248.163 559.207 249.757 538.509 248.328 531.993" fill="#263238"/>
<g opacity="0.6">
<g opacity="0.6">
<path opacity="0.6" d="M331.544 601.587C331.451 601.751 330.419 601.212 328.638 600.72C326.88 600.228 324.325 599.876 321.582 600.368C318.84 600.861 316.566 602.103 315.09 603.181C313.589 604.26 312.816 605.127 312.675 605.01C312.558 604.939 313.144 603.861 314.597 602.548C316.027 601.236 318.418 599.782 321.395 599.243C324.372 598.704 327.114 599.243 328.919 599.947C330.701 600.65 331.615 601.47 331.544 601.587Z" fill="#455A64"/>
</g>
</g>
<path d="M305.864 574.606C306.754 574.466 307.34 580.396 312.825 584.1C318.31 587.826 324.569 586.537 324.686 587.381C324.803 587.756 323.397 588.67 320.725 588.998C318.123 589.35 314.208 588.881 310.856 586.608C307.505 584.334 305.84 581.006 305.395 578.591C304.95 576.13 305.465 574.606 305.864 574.606Z" fill="white"/>
<path d="M288.246 640.252C288.27 640.205 288.786 640.416 289.77 640.815C290.778 641.19 292.255 641.705 294.2 642.244C298.091 643.346 303.857 644.518 311.077 644.893C314.687 645.104 318.648 645.081 322.867 644.659C327.086 644.307 331.564 643.463 336.111 642.08C340.682 640.768 345.253 638.682 349.612 635.916C353.972 633.173 358.144 629.704 361.309 625.274C365.036 620.047 366.958 613.484 365.95 607.717L365.856 607.225L366.302 607.038C369.302 605.748 371.74 603.475 373.615 600.99C374.552 599.748 375.373 598.412 375.982 597.052C376.592 595.716 376.896 594.239 377.037 592.809C377.576 587.02 374.998 581.652 371.388 578.628L371.06 578.347L371.341 577.995C373.732 575.042 373.873 571.127 372.771 568.362C371.693 565.502 369.349 563.838 367.38 563.088C365.364 562.291 363.629 562.291 362.504 562.408C361.356 562.548 360.793 562.759 360.77 562.689C360.77 562.689 361.309 562.384 362.481 562.15C363.629 561.962 365.434 561.869 367.567 562.619C369.654 563.345 372.208 565.033 373.451 568.104C374.693 571.057 374.623 575.253 372.044 578.581L371.974 577.948C375.842 581.113 378.631 586.738 378.115 592.927C377.975 594.45 377.647 596.021 377.014 597.497C376.381 598.974 375.514 600.357 374.553 601.67C372.584 604.272 370.052 606.686 366.77 608.116L367.122 607.436C368.247 613.765 366.208 620.492 362.34 625.977C359.059 630.571 354.746 634.134 350.292 636.924C345.838 639.736 341.127 641.822 336.486 643.135C331.845 644.518 327.297 645.338 323.008 645.643C318.718 646.042 314.71 645.995 311.077 645.737C303.787 645.245 297.997 643.932 294.13 642.69C292.184 642.08 290.708 641.471 289.747 641.026C288.715 640.557 288.223 640.275 288.246 640.252Z" fill="#455A64"/>
<path d="M181.988 578.378C181.988 578.378 181.495 578.284 180.745 577.768C179.995 577.276 178.987 576.292 178.284 574.674C177.628 573.08 177.253 570.877 177.792 568.439C178.307 565.978 180.042 563.517 182.456 561.595C184.894 559.649 187.988 558.196 191.364 556.977C194.715 555.735 198.372 554.633 201.724 552.57C205.076 550.555 207.795 547.273 209.53 543.382C211.311 539.491 212.155 535.037 212.295 530.49C212.483 521.325 210.373 512.629 210.139 504.542C209.764 496.478 211.311 488.907 214.991 483.844C218.624 478.758 223.453 476.414 226.805 475.804C228.492 475.453 229.852 475.547 230.743 475.593C231.633 475.734 232.102 475.828 232.079 475.875C232.079 476.039 230.18 475.5 226.899 476.273C223.687 477 219.093 479.391 215.694 484.337C212.272 489.259 210.819 496.572 211.241 504.495C211.522 512.441 213.678 521.114 213.491 530.537C213.35 535.225 212.483 539.842 210.608 543.898C208.779 547.976 205.849 551.422 202.287 553.555C198.747 555.688 195.02 556.743 191.692 557.962C188.34 559.134 185.339 560.493 182.972 562.321C180.628 564.126 178.987 566.377 178.448 568.65C177.862 570.924 178.143 573.01 178.706 574.557C179.972 577.651 182.128 578.237 181.988 578.378Z" fill="#455A64"/>
<path d="M357.718 454.407C357.694 454.384 358.069 454.22 358.796 453.915C359.148 453.751 359.616 453.587 360.155 453.446C360.718 453.282 361.351 453.118 362.101 453.048C365.031 452.602 369.906 453.305 374.032 457.337L374.055 457.361C376.821 460.83 378.462 466.127 377.689 471.893C377.032 477.66 373.587 483.637 368.078 487.762C362.617 491.981 355.35 494.419 347.709 494.841C340.02 495.31 332.027 494.138 324.034 492.239C311.002 489.098 299.282 483.473 289.695 477.027C284.843 473.886 280.272 470.909 275.607 468.823C270.99 466.69 266.325 465.635 262.012 465.354C253.339 464.791 246.425 467.041 242.065 469.057C237.658 471.143 235.572 472.901 235.501 472.784C235.501 472.784 237.47 470.862 241.854 468.635C246.19 466.455 253.199 464.018 262.059 464.486C266.466 464.721 271.271 465.776 276.006 467.885C280.764 469.971 285.429 472.948 290.281 476.066C299.868 482.418 311.4 487.926 324.316 491.044C332.215 492.942 340.138 494.091 347.615 493.646C355.092 493.247 362.124 490.927 367.422 486.895C372.766 482.934 376.095 477.261 376.774 471.753C377.595 466.244 376.071 461.134 373.493 457.782L373.516 457.806C369.696 453.938 364.984 453.094 362.124 453.423C359.218 453.751 357.741 454.548 357.718 454.407Z" fill="#455A64"/>
<path d="M345.295 433.771C345.295 433.771 345.459 435.787 344.193 439.139C342.904 442.421 339.763 446.898 334.184 450.085C331.442 451.679 328.137 452.992 324.41 453.601C320.706 454.211 316.651 454.187 312.502 453.648C304.134 452.617 295.485 449.312 286.39 446.476C277.319 443.639 268.131 441.952 260.091 443.686C252.051 445.351 245.722 449.875 241.596 454.469C237.424 459.086 235.197 463.751 234.096 467.033C233.017 470.361 232.806 472.307 232.666 472.283C232.619 472.283 232.666 471.791 232.806 470.877C232.9 469.939 233.205 468.603 233.65 466.892C234.635 463.517 236.744 458.688 240.94 453.883C245.089 449.124 251.512 444.366 259.833 442.585C268.177 440.733 277.6 442.444 286.718 445.304C295.883 448.163 304.439 451.445 312.643 452.523C316.722 453.086 320.66 453.133 324.246 452.594C327.832 452.054 331.067 450.836 333.763 449.335C339.224 446.335 342.388 442.116 343.771 438.975C345.107 435.764 345.131 433.748 345.295 433.771Z" fill="#455A64"/>
</svg>
