<svg width="346" height="556" viewBox="0 0 346 556" fill="none" xmlns="http://www.w3.org/2000/svg">
<path d="M55.2558 112.194C58.5391 108.586 54.0856 102.897 49.502 101.239C44.9185 99.5811 39.1646 98.8009 36.9866 94.4124C34.321 89.1137 39.0346 83.1648 39.8798 77.281C40.79 71.007 37.1492 65.0256 36.0764 58.7517C34.7111 50.7873 37.8318 42.2054 44.0082 36.9716C50.1847 31.7379 59.1568 30.08 66.796 32.7132C67.2836 20.4578 75.9306 8.95016 87.5358 5.08177C99.1735 1.18086 112.989 5.21179 120.759 14.704C126.805 10.0879 132.981 5.43935 140.036 2.57869C147.09 -0.281976 155.282 -1.12717 162.271 1.92853C169.227 5.01675 174.396 12.656 173.063 20.1653C178.329 13.8913 188.147 12.6885 195.526 16.1668C202.938 19.6776 207.944 27.0894 210.089 34.9887C213.112 46.0087 210.479 59.0443 201.67 66.3259C192.86 73.6401 177.809 72.9575 171.308 63.5628" fill="#263238"/>
<path d="M98.4202 299.038C122.606 299.07 142.533 280.314 143.736 256.388C144.743 236.461 145.556 217.282 145.556 217.282C145.556 217.282 182.55 214.583 185.963 178.435C189.376 142.254 189.831 58.6123 189.831 58.6123C149.002 37.1898 99.688 39.3353 60.939 64.2036L57.4282 66.4791L53.1372 253.69C52.8772 278.591 73.2269 299.005 98.4202 299.038Z" fill="#FFBE9D"/>
<path d="M117.359 114.197C120.155 115.107 121.65 118.098 120.74 120.861C119.829 123.624 116.806 125.12 114.011 124.21C111.215 123.299 109.72 120.309 110.63 117.546C111.54 114.782 114.563 113.287 117.359 114.197Z" fill="#263238"/>
<path d="M127.501 116.094C126.883 116.679 123.47 113.721 118.431 113.396C113.393 113.006 109.589 115.444 109.069 114.761C108.809 114.469 109.459 113.363 111.117 112.258C112.742 111.153 115.506 110.178 118.659 110.373C121.812 110.6 124.38 111.966 125.843 113.298C127.306 114.664 127.793 115.834 127.501 116.094Z" fill="#263238"/>
<path d="M172.59 114.212C175.386 115.122 176.881 118.113 175.971 120.876C175.061 123.639 172.037 125.134 169.242 124.224C166.446 123.314 164.951 120.323 165.861 117.56C166.771 114.797 169.794 113.302 172.59 114.212Z" fill="#263238"/>
<path d="M183.382 116.232C182.765 116.817 179.351 113.859 174.313 113.534C169.274 113.143 165.471 115.582 164.95 114.899C164.69 114.606 165.341 113.501 166.998 112.396C168.624 111.291 171.387 110.315 174.54 110.51C177.693 110.738 180.262 112.103 181.724 113.436C183.22 114.769 183.675 115.939 183.382 116.232Z" fill="#263238"/>
<path d="M145.371 155.325C145.371 154.935 148.524 154.545 153.66 154.285C154.993 154.253 156.033 154.025 156.196 153.342C156.488 152.562 156.098 151.132 155.545 149.539C154.505 146.126 153.497 142.68 152.392 139.072C148.069 124.183 145.208 111.96 145.956 111.733C146.703 111.505 150.832 123.403 155.155 138.291C156.163 141.932 157.138 145.378 158.081 148.824C158.439 150.384 159.219 152.205 158.341 154.318C157.886 155.358 156.781 156.073 155.903 156.203C155.025 156.398 154.278 156.333 153.628 156.301C148.556 156.04 145.371 155.715 145.371 155.325Z" fill="#263238"/>
<path d="M128.569 159.521C138.647 164.43 143.328 165.925 152.657 168.624C152.657 168.624 146.026 177.466 135.786 172.785C125.221 167.908 128.569 159.521 128.569 159.521Z" fill="white"/>
<path d="M143.364 216.729C143.364 216.729 120.121 216.729 96.8452 199.468C96.8452 199.468 105.98 226.449 142.681 226.124L143.364 216.729Z" fill="#EB996E"/>
<path d="M56.5435 119.575C56.5761 116.65 54.333 114.114 51.3749 113.984C44.5483 113.659 33.3332 116.13 31.9353 134.789C29.9199 161.413 55.9259 155.269 56.0234 154.521C56.0885 153.903 56.4135 129.913 56.5435 119.575Z" fill="#FFBE9D"/>
<path d="M50.3036 143.895C50.2061 143.797 49.816 144.187 49.0033 144.48C48.1907 144.773 46.8578 144.903 45.4925 144.285C42.7294 143.05 40.6814 138.401 40.909 133.59C41.039 131.152 41.7217 128.876 42.7294 127.056C43.7046 125.17 45.0699 123.903 46.5328 123.773C47.9956 123.545 48.9383 124.488 49.1984 125.235C49.4909 126.016 49.2959 126.536 49.4259 126.568C49.4909 126.633 50.0436 126.178 49.9136 125.04C49.8485 124.488 49.5885 123.838 48.9708 123.285C48.3532 122.732 47.443 122.375 46.4352 122.407C44.3548 122.407 42.3393 124.13 41.234 126.178C39.9988 128.194 39.1861 130.762 39.056 133.492C38.8285 138.856 41.2015 144.09 45.0049 145.52C46.8578 146.138 48.4832 145.715 49.3284 145.13C50.2061 144.545 50.3687 143.96 50.3036 143.895Z" fill="#EB996E"/>
<path d="M109.553 101.241C110.691 102.703 114.657 102.021 119.825 101.793C124.962 101.371 128.992 101.566 129.935 99.9728C131.008 98.3149 126.034 94.5115 119.37 95.0641C112.706 95.3567 108.253 99.7452 109.553 101.241Z" fill="#263238"/>
<path d="M167.68 100.327C168.071 102.18 171.386 103.058 175.157 103.416C178.928 103.708 182.374 103.448 183.057 101.693C183.772 100.002 180.586 97.1417 175.742 96.7191C170.899 96.264 167.29 98.5395 167.68 100.327Z" fill="#263238"/>
<path d="M195.007 70.0341C195.007 70.0341 173.065 80.664 144.491 66.3932C125.734 57.031 103.889 52.48 99.0776 56.2509C94.2665 60.0217 93.2588 79.3312 74.6645 84.9875C74.6645 84.9875 75.9323 121.851 61.2389 120.518C46.5455 119.218 55.7126 62.1347 55.7126 62.1347L91.6659 44.5807L130.902 37.1689L167.864 42.3702L196.47 50.2045L195.007 70.0341Z" fill="#263238"/>
<path d="M-51.0042 283.273C-12.5802 243.776 55.0029 248.067 55.0029 248.067L142.838 251.188C142.838 251.188 176.223 254.861 207.528 271.213L209.674 271.895L209.641 272.351C234.217 285.711 269.032 317.731 302.19 348.776L262.499 385.607L218.581 424.583C218.581 424.583 218.743 424.876 218.646 425.363C218.191 427.736 225.797 474.905 232.494 515.669C193.908 545.609 145.211 563.033 92.5816 562.025C59.0663 561.375 27.4365 553.281 -0.747509 539.4L-4.03078 501.724C-7.02147 467.558 -9.297 425.266 -9.297 425.266" fill="#27AE60"/>
<path d="M175.686 258.079C175.751 258.046 175.979 258.599 176.369 259.671C176.824 260.939 177.377 262.499 178.027 264.385C179.457 268.481 181.375 274.462 183.683 281.874C188.267 296.697 194.151 317.34 199.709 340.355C205.268 363.403 209.462 384.435 212.127 399.714C213.46 407.353 214.468 413.562 215.085 417.853C215.345 419.836 215.573 421.494 215.768 422.794C215.898 423.932 215.931 424.517 215.898 424.549C215.866 424.582 215.671 423.964 215.443 422.859C215.183 421.559 214.858 419.933 214.468 417.95C213.59 413.464 212.42 407.353 210.99 399.909C207.999 384.695 203.643 363.728 198.084 340.713C192.525 317.73 186.836 297.055 182.545 282.167C180.432 274.885 178.71 268.936 177.409 264.515C176.857 262.565 176.401 261.004 176.044 259.704C175.751 258.696 175.621 258.111 175.686 258.079Z" fill="#263238"/>
<path d="M211.774 399.299C211.482 398.941 228.288 384.768 249.288 367.636C270.32 350.505 287.582 336.917 287.874 337.274C288.167 337.632 271.361 351.805 250.328 368.937C229.361 386.068 212.067 399.656 211.774 399.299Z" fill="#263238"/>
<path opacity="0.2" d="M-0.291599 337.492L-34.6846 450.586L-21.8766 457.25L-9.26369 425.263C-9.26369 425.263 3.67432 358.069 -0.291599 337.492Z" fill="black"/>
<g opacity="0.2">
<path opacity="0.2" d="M171.946 258.151C190.476 267.936 144.022 291.439 123.055 290.789L138.301 250.609C138.301 250.609 165.737 254.868 171.946 258.151Z" fill="black"/>
</g>
<path d="M49.4751 250.606V220.667C49.4751 220.667 107.956 235.718 110.102 270.729C110.102 270.729 117.546 232.045 147.68 230.192L151.939 284.609L116.863 315.134H81.3L53.1484 290.851L49.4751 253.077" fill="#27AE60"/>
<path d="M120.977 438.594C120.912 438.594 120.879 438.008 120.879 436.936C120.879 435.635 120.912 434.075 120.944 432.157C121.042 428.029 121.139 422.015 121.172 414.636C121.269 399.845 120.814 379.397 118.961 356.902C117.076 334.407 114.15 314.155 111.614 299.591C110.347 292.31 109.274 286.426 108.494 282.362C108.169 280.477 107.876 278.949 107.648 277.681C107.486 276.609 107.421 276.023 107.453 276.023C107.518 276.023 107.681 276.544 107.974 277.616C108.299 278.852 108.656 280.379 109.144 282.232C110.119 286.263 111.387 292.115 112.817 299.396C115.645 313.96 118.766 334.212 120.651 356.772C122.504 379.332 122.764 399.845 122.374 414.636C122.179 422.047 121.919 428.029 121.594 432.157C121.432 434.075 121.334 435.635 121.204 436.903C121.139 438.041 121.042 438.594 120.977 438.594Z" fill="#263238"/>
<path d="M107.406 260.653C107.406 260.816 106.074 260.101 103.928 260.914C102.855 261.304 101.685 262.116 100.71 263.417C99.7022 264.717 98.8895 266.44 97.9793 268.39C94.3709 276.16 89.8849 287.375 86.7967 300.768L86.5366 301.873L85.5614 301.288C82.0831 299.175 78.4748 296.899 74.8664 294.461C67.8773 289.715 61.4733 284.872 55.9145 280.06C53.1189 277.655 50.8109 274.762 49.478 271.674C48.1777 268.585 47.6576 265.497 47.4951 262.701C47.2675 257.078 48.1453 252.657 48.7304 249.633C49.3805 246.61 49.8356 244.952 49.9331 244.985C50.0632 245.017 49.8031 246.708 49.3805 249.731C48.9904 252.754 48.3078 257.208 48.6979 262.604C48.9254 265.302 49.4781 268.228 50.7784 271.088C52.0787 273.949 54.1916 276.582 56.9548 278.89C62.4811 283.539 68.9175 288.35 75.8417 293.063C79.4175 295.502 82.9608 297.777 86.4391 299.89L85.2038 300.41C88.4221 286.92 93.1356 275.639 97.0365 267.968C98.0118 266.05 98.922 264.262 100.092 262.929C101.23 261.564 102.595 260.751 103.766 260.393C106.204 259.646 107.504 260.621 107.406 260.653Z" fill="#263238"/>
<path d="M145.388 230.152C145.518 230.152 145.68 231.81 145.876 234.833C146.103 238.149 146.396 242.44 146.753 247.576C147.176 252.94 147.826 259.344 148.899 266.366C149.321 269.844 150.524 273.615 149.581 277.808C148.379 281.937 145.258 285.025 141.942 287.528C137.261 291.006 132.352 293.607 129.037 297.345L127.736 298.808L127.606 296.858C126.794 284.44 122.633 274.265 118.894 267.633C115.156 260.969 112.035 257.556 112.263 257.394C112.328 257.329 113.14 258.141 114.538 259.734C115.904 261.36 117.789 263.798 119.804 267.113C123.835 273.68 128.289 284.017 129.264 296.728L127.834 296.24C131.377 292.209 136.448 289.511 140.934 286.163C144.12 283.79 146.981 280.832 147.988 277.353C148.834 273.842 147.793 270.104 147.371 266.561C146.363 259.474 145.843 253.038 145.55 247.609C145.29 242.213 145.225 237.824 145.193 234.801C145.225 231.843 145.29 230.185 145.388 230.152Z" fill="#263238"/>
<path d="M333.664 237.687C331.291 240.482 245.178 355.624 245.178 355.624L257.304 362.483L345.659 248.804L333.664 237.687Z" fill="#263238"/>
<path d="M-9.98861 328.708C-9.98861 328.708 80.6099 459.129 86.0712 461.664C96.8312 466.703 220.75 359.591 232.583 349.351C234.208 347.173 237.589 342.589 244.188 333.454C244.188 333.454 253.973 288.692 264.408 292.137C274.842 295.583 258.686 314.86 265.48 331.862C272.274 348.863 303.384 308.326 304.652 304.685L312.681 294.185C312.681 294.185 321.101 318.046 320.515 328.026C318.695 359.948 288.496 397.917 288.496 397.917C288.496 397.917 152.842 565.948 59.9351 571.15C33.1814 572.645 -14.3771 496.707 -46.1695 439.787C-65.3814 405.394 -55.7917 362.094 -23.9668 338.883L-9.98861 328.708Z" fill="#FFBE9D"/>
<path d="M302.945 333.755C302.685 333.593 305.644 328.489 308.829 321.987C312.048 315.486 314.323 310.057 314.616 310.155C314.876 310.252 312.99 315.876 309.739 322.442C306.521 328.976 303.173 333.885 302.945 333.755Z" fill="#EB996E"/>
<path d="M-25.331 265.059C-25.331 265.059 -122.561 299.614 -50.2643 463.159L61.9842 395.414L46.023 357.185L-25.331 265.059Z" fill="#27AE60"/>
<path d="M-32.7744 267.89C-32.7744 267.857 -32.5143 267.825 -31.9942 267.825C-31.3765 267.825 -30.6289 267.792 -29.7187 267.792C-27.7357 267.792 -24.7775 268.085 -21.0717 268.93C-17.3983 269.872 -12.9773 271.53 -8.36123 274.326C-3.71265 277.122 1.09845 281.023 5.77954 285.964C15.2067 295.814 23.9838 309.532 32.1431 325.428C40.3675 341.324 48.0393 359.431 55.9062 378.448C58.2792 384.136 60.5872 389.76 62.7978 395.091L63.0903 395.807L62.4402 396.164C29.9651 413.881 1.68361 430.46 -18.276 442.91C-28.2558 449.119 -36.2202 454.223 -41.6814 457.766C-44.3146 459.489 -46.4275 460.822 -47.9554 461.829C-49.3857 462.74 -50.1659 463.195 -50.1984 463.162C-50.2309 463.13 -49.5158 462.577 -48.1504 461.569C-46.7526 460.562 -44.7372 459.099 -42.039 457.246C-36.6753 453.54 -28.8085 448.274 -18.8937 441.935C0.935928 429.224 29.1525 412.45 61.6275 394.669L61.2699 395.742C59.0594 390.41 56.7514 384.819 54.3783 379.098C46.5115 360.081 38.9047 342.007 30.8103 326.143C22.781 310.279 14.134 296.626 4.96685 286.809C0.415794 281.9 -4.26527 277.999 -8.78382 275.171C-13.2699 272.343 -17.5934 270.653 -21.1692 269.612C-28.5159 267.727 -32.8069 268.15 -32.7744 267.89Z" fill="#263238"/>
</svg>
