<svg id="Layer_1" data-name="Layer 1" xmlns="http://www.w3.org/2000/svg" viewBox="0 0 2075.94 2076.16"><defs><style>.cls-1{fill:#eee;fill-opacity:0.3;}</style></defs><path class="cls-1" d="M569.36,1038.08c0,10.1-6,18.29-13.49,18.29s-13.49-8.19-13.49-18.29,6.07-18.29,13.49-18.29S569.36,1028,569.36,1038.08Zm-384.74,11.15c-8.36-2.06-12-6.24-12-11.15s3.63-9,12-11.15a23.78,23.78,0,0,1,10-20.3c.28,8.09,1,13,6.86,15.73,17.34.61,36.86,9.2,36.91,15.67s-19.57,15-36.91,15.66c-5.85,2.68-6.58,7.64-6.86,15.67a23.75,23.75,0,0,1-9.81-20.24Zm3.12-11.15c0,2.12,6.47,6,14.44,6s14.5-3.85,14.5-6-6.47-6-14.5-6-14.27,3.9-14.27,6Zm849.84-495.37c-10.09,0-18.23,6-18.23,13.5s8.14,13.49,18.23,13.49,18.29-6.08,18.29-13.49-8-13.5-18.12-13.5Zm0-303.89c-6.41,0-15-19.52-15.67-36.91-2.62-5.86-7.58-6.58-15.67-6.86a23.87,23.87,0,0,1,20.3-9.93c2.06-8.42,6.24-12,11.15-12s9,3.62,11.15,12a23.87,23.87,0,0,1,20.3,9.93c-8.08.28-13.05,1-15.67,6.86-.67,17.39-9.25,36.91-15.72,36.91Zm6-36.13c0-8-3.9-14.5-6-14.5s-6,6.52-6,14.5,3.91,14.44,6,14.44,6.19-6.47,6.19-14.44ZM2033.9,1064c8.25,15.67,5.57,41-18.07,61.84,5.13-20.86-1.78-44.61-24.09-51.8s-21.85-22.31-17-31a137.14,137.14,0,0,0-33.46,10.32,139.67,139.67,0,0,0-45,37.91c6,4,11.87,8.09,17.51,12.44a254.62,254.62,0,0,1,50.18,52c2.29-16.73,17.45-26.21,28.94-19.41-15.73,3.57-7.81,49.52,0,71.54a2.7,2.7,0,0,0-.34-.56,290,290,0,0,1,19.58,76.06,114.27,114.27,0,0,0,26.37-30.33c6-11.6,7.81-26.27-7.42-30.73-18.84-5.57-18.68-30-7.13-39.64a31.29,31.29,0,0,0,9.81-38.48c44.61,26.55,26.43,85,12.6,109.35v.44a123.59,123.59,0,0,1-33.06,37.7q1.56,16.72,1.61,33.9c0,125.91-74.27,224.15-185.84,258.62,57.71,12.43,51.35,94.79,7.64,99,26.82-39-2.57-74.78-38.14-75.11a501.46,501.46,0,0,1-79.41-9.76c-1.11,57.38,7.64,107.62,14.33,127.47,24.32-7.64,41.71-30.67,45.28-59.11,14.67,26.71,16,58-6.19,71.38,19.68,12.21,4,30,8.53,43.27-13.27-4.52-31.11,11.15-43.27-8.53-13.32,22.3-44.6,20.85-71.37,6.18,28.44-3.56,51.47-21,59-45.27-19.79-6.64-70-15.45-127.47-14.33a495.53,495.53,0,0,1,9.82,79.4c.33,35.57,36.13,65,75.11,38.14-4,43.71-86.54,50.18-99-7.64-34.51,111.52-132.71,185.85-258.61,185.85-11.6,0-22.86-.56-33.9-1.62a123.88,123.88,0,0,1-37.7,33.07,1.09,1.09,0,0,0-.44,0c-24.37,13.77-82.81,31.78-109.35-12.66a31.28,31.28,0,0,0,38.47-9.81c9.65-11.49,34.13-11.71,39.65,7.19,4.41,15.17,19.13,13.38,30.72,7.41a116.24,116.24,0,0,0,30.34-26.43,287.44,287.44,0,0,1-76.06-19.57l.56.34c-22.31-7.92-68-15.84-71.54,0-6.8-11.49,2.62-26.66,19.4-28.94a253.37,253.37,0,0,1-52-50.19c-4.34-5.57-8.47-11.48-12.43-17.5a140.8,140.8,0,0,0-38,45,134.61,134.61,0,0,0-10.26,33.46c8.47-4.86,23.64-5.08,30.94,17s31,29.22,51.75,24.09c-20.74,23.36-46.11,26.32-61.78,18.07-1.12,20.63-9.48,37.35-26,42.09-16.45-4.74-24.81-21.46-25.92-42.09-15.67,8.25-41,5.57-61.79-18.07,20.8,5.13,44.61-1.78,51.75-24.09s22.3-21.86,30.95-17a135.45,135.45,0,0,0-10.26-33.46,140.7,140.7,0,0,0-38-45c-4,6-8.08,11.93-12.43,17.5a253.37,253.37,0,0,1-52,50.19c16.73,2.28,26.21,17.45,19.4,28.94-3.56-15.73-49.51-7.81-71.53,0l.55-.34a289.51,289.51,0,0,1-76.05,19.57,116,116,0,0,0,30.33,26.43c11.6,6,26.32,7.76,30.72-7.41,5.58-18.85,30-18.68,39.65-7.19a31.28,31.28,0,0,0,38.47,9.81c-26.54,44.61-85,26.43-109.34,12.66a1.14,1.14,0,0,0-.45,0,123.72,123.72,0,0,1-37.69-33.07c-11.16,1.06-22.31,1.62-33.91,1.62-125.9,0-224.15-74.27-258.61-185.85-12.43,57.71-94.79,51.35-99,7.64,39,26.88,74.77-2.57,75.11-38.14a495.52,495.52,0,0,1,9.81-79.4c-57.43-1.12-107.67,7.64-127.47,14.33,7.59,24.31,30.61,41.71,59.05,45.27-26.65,14.67-58,16-71.37-6.18-12.16,19.68-30,4-43.27,8.53,4.52-13.22-11.15-31.06,8.53-43.27-22.3-13.33-20.85-44.61-6.19-71.38,3.57,28.44,21,51.47,45.28,59.11,6.69-19.85,15.44-70.09,14.33-127.47a501.48,501.48,0,0,1-79.4,9.76c-35.58.33-65,36.13-38.14,75.11-43.72-4-50.19-86.54,7.64-99-111.52-34.47-185.85-132.71-185.85-258.62q0-17.28,1.62-33.9a122.56,122.56,0,0,1-33-37.7,1.09,1.09,0,0,1,0-.44c-13.83-24.37-31.84-82.8,12.6-109.35a31.29,31.29,0,0,0,9.81,38.48c11.54,9.64,11.71,34.12-7.14,39.64-15.22,4.46-13.43,19.13-7.41,30.73a113.92,113.92,0,0,0,26.37,30.33,290.36,290.36,0,0,1,19.57-76.06,3.16,3.16,0,0,0-.33.56c7.92-22,15.83-68,0-71.54,11.49-6.8,26.65,2.62,28.94,19.41a254.62,254.62,0,0,1,50.18-52c5.58-4.35,11.49-8.48,17.51-12.44a139.67,139.67,0,0,0-45.05-37.91A137.14,137.14,0,0,0,101,1043.1c4.85,8.48,5.13,23.7-16.73,31S55,1105,60.17,1125.85c-23.37-20.8-26.32-46.17-18.07-61.84-20.63-1.11-37.36-9.48-42.1-25.93,4.74-16.73,21.47-24.87,42.1-26-8.25-15.67-5.58-41,18.07-61.78-5.13,20.8,1.78,44.6,24.08,51.8s21.86,22.3,16.73,30.89a134.74,134.74,0,0,0,33.46-10.26,140,140,0,0,0,45.05-38c-6-4-11.88-8.09-17.51-12.44a254.32,254.32,0,0,1-50.18-51.91c-2.29,16.73-17.45,26.15-28.94,19.35,15.72-3.57,7.81-49.52,0-71.49l.33.51a290.36,290.36,0,0,1-19.57-76.06,114.17,114.17,0,0,0-26.37,30.39c-6,11.54-7.81,26.26,7.41,30.67,18.85,5.57,18.68,30,7.14,39.7A31.18,31.18,0,0,0,42,931.92C-2.62,905.37,15.56,847,29.39,822.63a1.46,1.46,0,0,1,0-.51,122.64,122.64,0,0,1,33-37.69c-1.06-11.15-1.62-22.3-1.62-33.9,0-125.85,74.27-224.1,185.85-258.62-57.72-12.43-51.36-94.79-7.64-99-26.82,39,2.56,74.77,38.14,75.16a495.58,495.58,0,0,1,79.4,9.76c1.11-57.43-7.64-107.61-14.33-127.46C317.89,358,300.49,381,296.92,409.45c-14.66-26.66-16-58.05,6.19-71.38-19.68-12.15-4-30-8.53-43.27,13.27,4.52,31.11-11.15,43.27,8.53,13.33-22.3,44.61-20.85,71.37-6.13-28.44,3.51-51.46,20.91-59.05,45.28,19.8,6.63,70,15.39,127.47,14.27a494.78,494.78,0,0,1-9.81-79.34c-.34-35.63-36.14-65-75.11-38.14,4-43.72,86.54-50.19,99,7.58C526.15,135.33,624.4,61,750.3,61c11.6,0,22.87.56,33.91,1.62a122.64,122.64,0,0,1,37.69-33h.45c24.36-13.77,82.8-31.84,109.34,12.66A31.34,31.34,0,0,0,893.22,52c-9.65,11.55-34.13,11.71-39.65-7.13-4.4-15.17-19.12-13.44-30.72-7.42a115.66,115.66,0,0,0-30.33,26.38,289.51,289.51,0,0,1,76.05,19.57l-.55-.34c22,8,68,15.84,71.53,0,6.81,11.54-2.62,26.71-19.4,28.94a253.37,253.37,0,0,1,52,50.19c4.35,5.57,8.47,11.48,12.43,17.5a141.21,141.21,0,0,0,38-45,135.58,135.58,0,0,0,10.26-33.46c-8.48,4.8-23.65,5.07-30.95-17.06s-31-29.22-51.75-24C970.84,36.8,996.21,33.85,1011.88,42c1.11-20.63,9.47-37.3,25.92-42,16.73,4.74,24.87,21.41,26,42,15.67-8.19,41-5.24,61.78,18.12-20.8-5.18-44.61,1.79-51.75,24s-22.3,21.86-30.94,17.06a135.71,135.71,0,0,0,10.26,33.46,141.05,141.05,0,0,0,38,45c4-6,8.09-11.87,12.43-17.5a253.37,253.37,0,0,1,52-50.19c-16.73-2.23-26.2-17.4-19.4-28.94,3.57,15.73,49.51,7.86,71.54,0l-.56.34a289.48,289.48,0,0,1,76.06-19.57,115.87,115.87,0,0,0-30.34-26.38c-11.59-6-26.31-7.75-30.72,7.42-5.58,18.84-30,18.68-39.65,7.13A31.34,31.34,0,0,0,1144,42.27c26.54-44.61,85-26.43,109.35-12.66h.44A122.65,122.65,0,0,1,1291.4,62.9c11.15-1.06,22.3-1.62,33.9-1.62,125.91,0,224.1,74.27,258.62,185.85,12.43-57.71,94.79-51.3,99-7.59-39-26.87-74.77,2.51-75.11,38.14a495.86,495.86,0,0,1-9.7,79.07c57.43,1.12,107.67-7.64,127.47-14.27-7.59-24.37-30.62-41.77-59-45.28,26.65-14.72,58-16.06,71.37,6.13,12.15-19.68,30-4,43.27-8.53-4.52,13.27,11.15,31.12-8.53,43.27,22.3,13.33,20.85,44.61,6.19,71.38-3.57-28.44-21-51.47-45.28-59.05-6.69,19.85-15.45,70-14.33,127.46a495.44,495.44,0,0,1,79.4-9.76c35.58-.39,65-36.18,38.14-75.16,43.72,4,50.19,86.54-7.64,99,111.52,34.52,185.85,132.77,185.85,258.62,0,11.6-.56,22.86-1.62,33.9a122.64,122.64,0,0,1,33,37.69v.51c13.78,24.36,31.79,82.74-12.65,109.29a31.16,31.16,0,0,0-9.82-38.42c-11.54-9.7-11.71-34.18,7.14-39.7,15.22-4.41,13.44-19.13,7.41-30.67A114.17,114.17,0,0,0,2012,792.74a290,290,0,0,1-19.57,76.06,3.57,3.57,0,0,0,.33-.56c-7.91,22-15.83,68,0,71.54-11.48,6.8-26.65-2.62-28.94-19.35a254.32,254.32,0,0,1-50.18,51.91c-5.58,4.35-11.49,8.48-17.51,12.44a140,140,0,0,0,45.06,38,134.54,134.54,0,0,0,33.45,10.26c-4.85-8.48-5.13-23.64,17-30.89s29.22-31,24.09-51.8c23.36,20.74,26.32,46.11,18.06,61.78,20.63,1.11,37.31,9.48,42.1,26C2071.26,1054.53,2054.53,1062.9,2033.9,1064ZM79,1038.08v-.28s-10.26-13.66-20.52-13.66-16.73,13.66-16.73,13.66v.28s6.47,13.66,16.73,13.66S79,1038.08,79,1038.08ZM1719.3,486.34v5.13a449.7,449.7,0,0,0,4.52,45.89c5.57,16.34,15.67,26,25.76,24.76a17.93,17.93,0,0,0,13.72-12.44c-6.58,0-12-4.52-9.2-15,3.51-13-3.8-18.18-13.61-18.9,11.15-12.6,34.63-9.81,37.64,8.31,14.77-12,34.35-3.74,37.58,18-10.48-10.09-26-7-25.71,1.89a11.15,11.15,0,0,1-20.12,8.26A25,25,0,0,1,1750.47,569a26,26,0,0,1-22.69-10,291.91,291.91,0,0,0,18.62,57.82,195.23,195.23,0,0,0,28.66,45.89,15.07,15.07,0,0,1,18.85-2.56c5.57,4.46,5.57,13.77,0,21.41a157.44,157.44,0,0,0,50.46,28.71c28.66,8.81,80.63,4.24,94.4-22.75a36.3,36.3,0,0,0,2.62-26.32c-7.08-18.4-63.62-32.56-53.92,26.21-31.22,5.19-44.94-20.13-36-46.39-17,5.58-34.52,6.58-45-7.47,11.15-2.57,13.77-16.73,3.29-19.52-8.92-2.56-41.1-16.06-20.58-52,3.8,20.58,40.37,45.9,88.22,51.3,40.76,4.63,61.89,20.75,69.53,41.88a42.57,42.57,0,0,1,1.45,26.71c29.33-10.09,39,42.6,12.6,47.5,9.37-29.27-17.45-30.16-30.11-23a98.39,98.39,0,0,1-51.58,14.84c57,18.51,98.64,37.35,127.13,58,.73-9.36,1.23-18.9,1.23-28.88,0-98.69-46.89-179.94-122-225.44a25.19,25.19,0,0,1,3.07,27.38c21.13,8.59,24.76,43.05-2.79,46.34,7.87-22.58-27.88-18.57-23.36-46.95-12.66,11.88-36.19-13.16-26.26-31,15.55,13.66,25.53-7.31,3.51-17.74a296.19,296.19,0,0,0-101.82-17.5C1731.9,485.61,1725.66,485.84,1719.3,486.34ZM1595.24,370.08c-2.12,16.06-1.62,28.55,6,37.14a15.56,15.56,0,0,0,27.88-7.25c.5-8.54-5-11.55-9.53-8.54C1619,377.61,1649,384.19,1643,405c14.28,2.18-5,40.71-37.08,16.06a42.11,42.11,0,0,1-16.28-20.4,243.45,243.45,0,0,1-25,63.06,180.72,180.72,0,0,1-53.25,59.1,40.71,40.71,0,0,0,37.42,4.13,40.76,40.76,0,0,0,4.12,37.42A182.38,182.38,0,0,1,1612,511.09a243.72,243.72,0,0,1,63.12-24.75,42.35,42.35,0,0,1-20.46-16.23c-24.65-32.12,13.88-51.41,16-37.13,20.8-6,27.38,24,13.55,23.47,3-4.52,0-10-8.47-9.53a15.56,15.56,0,0,0-7.31,27.88c8.59,7.63,21.08,8.08,37.14,6l6.52-1.39V468.22c0-52.75,7.87-98.31,14.22-118.66-20.35,6.36-65.91,14.22-118.65,14.22h-11.16c-.44,2.23-.94,4.4-1.39,6.52Zm-77.12,623.51a167.19,167.19,0,0,1-15.78-19.35c-3.23-5-6.58-9.82-10-14.61-1.39,11.65-13.77,16.11-26.71,11.6-11.93-4.19-12.93-29.78,1.34-32.85a15.94,15.94,0,0,1-12.49-20.63,238.68,238.68,0,0,0-86.2-49.68,27.17,27.17,0,0,0-21,22.61,27.38,27.38,0,0,0,.62,10.85c-19-6.08-26.31-23.65-12.71-34.91-8.86.84-13.27-3-14.5-8-5.57-.45-11.15-.62-16.45-.62a112.27,112.27,0,0,0,2.79,42.72,62.14,62.14,0,0,0,4.18,10.7c15.23,29.22,38.26,40,54.65,40.32A33.45,33.45,0,0,0,1396.45,935a16.75,16.75,0,0,0,0-15.61c-8.14-13-32,1.89-24.09,21.13-11.43,0-23.14-21.86-13.77-37.25,7.42-12.27,46-12.6,46.89,21.64v2.9a26.67,26.67,0,0,1-2.56,10.48A40.43,40.43,0,0,1,1365.84,959c-20.69-.39-41.21-13.6-55.37-35v11.43a2.08,2.08,0,0,1,0,.61,94.39,94.39,0,0,1-20.58,55.76c-19.85,24.93-51.63,39.93-80.79,46.28,29.16,6.3,60.94,21.3,80.79,46.28a94.35,94.35,0,0,1,20.58,55.76,2.15,2.15,0,0,1,0,.62v11.43c14.16-21.41,34.68-34.57,55.37-35a40.37,40.37,0,0,1,37.08,20.63,26.63,26.63,0,0,1,2.56,10.48,5.89,5.89,0,0,0,0,.84v2.11c-.94,34.24-39.47,33.85-46.89,21.64-9.37-15.39,2.34-37.14,13.77-37.3-7.92,19.29,16,34.18,24.15,21.19a16.77,16.77,0,0,0,0-15.62,33.48,33.48,0,0,0-30.62-16.73c-16.39.34-39.42,11.16-54.64,40.37a57.45,57.45,0,0,0-4.18,10.71,112.23,112.23,0,0,0-2.79,42.71,145.79,145.79,0,0,0,16.45-.61c1.23-5,5.58-8.81,14.5-7.92-13.61-11.15-6.3-28.83,12.71-35a27.1,27.1,0,0,0,20.35,33.46,237.77,237.77,0,0,0,86.21-49.69,15.93,15.93,0,0,1,6.2-18.09,16,16,0,0,1,6.29-2.54c-14.28-3.06-13.27-28.6-1.34-32.78,12.94-4.52,25.31,0,26.71,11.54,3.46-4.74,6.8-9.59,10-14.61a167.9,167.9,0,0,1,15.79-19.41,140.57,140.57,0,0,0-35.8-23.08c-26.1-7.64-16.73,17.23-38.25,16,8,27.44-10.38,29.39-20.13,30.45-5-19.18,3.45-52.36,28.38-56.88a239.64,239.64,0,0,0-48.18-7c6.3,15.95,6.14,46.12-23.19,44-20.64-1.45-35.8,2.68-44.61,17.07-14.89-8.7-12.94-31.23,1.11-42.6-20.91,0-24.36-7.59-27.88-22.31,3.79-14.89,7.25-22.3,27.88-22.3-14-11.16-16-33.91-1.11-42.6,8.75,14.44,23.92,18.56,44.61,17.11,29.33-2.11,29.49,27.89,23.19,44a242.67,242.67,0,0,0,48.18-6.92c-24.93-4.51-33.46-37.74-28.38-56.93,9.75,1.12,27.88,3.07,20.13,30.45,21.3-1.17,12.15,23.64,38.25,16A140.54,140.54,0,0,0,1518.12,993.59Zm-83,44.6c36.3,5.91,65.91,19.19,88.15,39.31a153.07,153.07,0,0,1,71.27-38.41l3.79-.9-3.79-.94a153.09,153.09,0,0,1-71.27-38.42c-22.24,20-51.85,33.34-88.15,39.25Zm-68.64-11.59c-9.15,0-16.73,11.59-16.73,11.59s7.42,11.55,16.73,11.55,16.73-11.55,16.73-11.55-7.59-11.71-16.73-11.71Zm340.13,562.06,5.58.61v-3c-.45-78.06-65.91-144.08-178.1-182.78a108.78,108.78,0,0,0,0,49.41c1.17,5,2.57,9.7,4.13,14.33,16.39-20.41,52.25.72,52.25,24.53-9.93-1.67-23.59,3.79-33.46,14.16a170,170,0,0,0,38,39.82,14.72,14.72,0,0,1,5.57-18.07c-.5-17.56,21.19-26.43,27.88-11.76,9.87-11.83,22.31-12.44,31.06,10.7-26-2.56-45.33,29.5-17.84,42.77a197.19,197.19,0,0,0,59.94,18.62Zm-164.71-221A177,177,0,0,1,1470.05,1245a71.86,71.86,0,0,1-25.87,37.47,11.13,11.13,0,0,1,7.89,6.52,11,11,0,0,1,.86,5.19,11.17,11.17,0,0,1-1.61,5,38.25,38.25,0,0,1,10.48,15.27,52.16,52.16,0,0,1,3.35,15.39c8.19-6.46,23.25,1.34,24.25,20.52-6.8-9.09-22.8-3-30.22,12.33-1,2.12-2.06,4.23-3.23,6.3a50.18,50.18,0,0,0-2.34,4.63c7.8,2.39,15.83,4.68,24.47,6.69l7.36,1.78c3.18-8.36,10.32-13.55,16.73-11.76s10.21,9.81,8.81,18.62c6.25,1.84,12.44,3.74,18.46,5.58A108.35,108.35,0,0,1,1541.93,1367.68Zm-14.61,234.19a14.78,14.78,0,0,1,18.07-5.57,167.2,167.2,0,0,0-39.76-38c-10.37,9.59-15.84,23.31-14.16,33.18-23.81,0-45-35.85-24.54-52.25-4.68-1.5-9.42-2.9-14.33-4.07a108.16,108.16,0,0,0-49.46,0C1441.9,1647.37,1508,1712.83,1586,1713.34h3a45.36,45.36,0,0,0-.61-5.58,41.52,41.52,0,0,0-.56-4.63,198.76,198.76,0,0,0-18.62-59.94c-13.27-27.49-45.33-8.2-42.77,17.84-23.19-8.75-22.3-21.19-10.7-31.06-14.72-7.24-5.86-29,11.65-28.49Zm-132.21-92.56c1.84,6.36,3.74,12.6,5.58,18.74a114.08,114.08,0,0,1,27-3.24,111.13,111.13,0,0,1,26.32,3.07c4.34,1,8.53,2.23,12.71,3.57a22.33,22.33,0,0,1,.33-26.55,37.59,37.59,0,0,1-4.79-35.85c-17.57-12.49-53-27.49-82.86-17.73,2.51,8.08,4.85,16.45,7,25.43.56,2.51,1.17,5,1.78,7.41a13,13,0,0,1,14.43,4.23,13.07,13.07,0,0,1,2.7,10,13.19,13.19,0,0,1-1.83,5,13.07,13.07,0,0,1-8.55,5.91Zm-290.51-43.38c4.24-12,29.78-13,32.85,1.28a15.94,15.94,0,0,1,20.63-12.49,238.68,238.68,0,0,0,49.68-86.2,27.07,27.07,0,0,0-4.43-9.92,27.17,27.17,0,0,0-29-10.44c6.14-19,23.7-26.31,34.91-12.71-.84-8.87,3-13.27,8-14.5.45-5.57.62-11.15.62-16.45a111.09,111.09,0,0,0-42.72,2.85,57.35,57.35,0,0,0-10.7,4.18c-29.28,15.28-40,38.25-40.37,54.64a33.44,33.44,0,0,0,16.73,30.67,16.75,16.75,0,0,0,15.61,0c13.05-8.19-1.9-32.06-21.13-24.14,0-11.43,21.91-23.14,37.24-13.77,12.27,7.41,12.66,45.94-21.58,46.89a13.1,13.1,0,0,1-2.17,0H1148a27.82,27.82,0,0,1-10.49-2.62,40.39,40.39,0,0,1-20.68-37c.44-20.74,13.6-41.26,35-55.42q-5.71.29-11.43,0h-.61a94.49,94.49,0,0,1-55.76-20.63c-24.93-19.85-39.93-51.64-46.28-80.8-6.3,29.16-21.3,61-46.23,80.8a94.46,94.46,0,0,1-55.76,20.63h-.61q-5.71.29-11.43,0c21.41,14.16,34.57,34.68,35,55.42a40.43,40.43,0,0,1-20.69,37,27.82,27.82,0,0,1-10.48,2.62h-.73a13.1,13.1,0,0,1-2.17,0c-34.24-1-33.85-39.48-21.58-46.89,15.33-9.37,37.08,2.34,37.25,13.77-19.24-7.92-34.19,16-21.14,24.14a16.77,16.77,0,0,0,15.62,0,33.46,33.46,0,0,0,16.72-30.67c-.33-16.39-11.15-39.36-40.37-54.64a57.35,57.35,0,0,0-10.7-4.18,111.05,111.05,0,0,0-42.71-2.85,145.79,145.79,0,0,0,.61,16.45c5,1.23,8.81,5.58,8,14.5,11.15-13.6,28.77-6.3,34.91,12.71a27.15,27.15,0,0,0-33.46,20.36,238.68,238.68,0,0,0,49.68,86.2,15.93,15.93,0,0,1,20.63,12.49c3.07-14.27,28.61-13.27,32.85-1.28,4.51,12.88,0,25.26-11.6,26.65,4.74,3.46,9.59,6.86,14.61,10a155.7,155.7,0,0,1,19.35,15.78,141.74,141.74,0,0,0,23.08-35.85c7.64-26.1-17.17-16.73-16-38.26-27.43,8-29.33-10.37-30.45-20.13,19.19-5,52.36,3.46,56.93,28.39a243.4,243.4,0,0,0,6.92-48.18c-15.95,6.3-46.12,6.13-44-23.2,1.5-20.63-2.68-35.79-17.06-44.6,8.69-14.84,31.28-12.94,42.6,1.11,0-20.91,7.58-24.37,22.3-28.16,14.94,3.79,22.3,7.25,22.3,28.16,11.16-14,33.91-16,42.6-1.11-14.38,8.75-18.56,23.92-17.06,44.6,2.07,29.33-27.88,29.5-44.05,23.2a239.74,239.74,0,0,0,7,48.18c4.52-24.93,37.7-33.46,56.88-28.39-1.12,9.76-3,28.16-30.45,20.13,1.17,21.3-23.64,12.16-16,38.26a142,142,0,0,0,23.08,35.85,155.7,155.7,0,0,1,19.35-15.78c5-3.18,9.87-6.58,14.61-10C1104.55,1491.19,1100.09,1478.81,1104.6,1465.93Zm-105.94,57.65a153.3,153.3,0,0,1,38.42,71.32c.39,1.51.78,3.18.89,3.79a30.84,30.84,0,0,1,1-3.79,153.29,153.29,0,0,1,38.19-71.09c-20.13-22.31-33.45-51.86-39.36-88.1-5.86,36-19.18,65.79-39.31,88.1Zm50.91-156.74c0-9.14-11.6-16.72-11.6-16.72s-11.54,7.41-11.54,16.72,11.54,16.73,11.54,16.73,11.38-7.58,11.38-16.73ZM869.85,1469.05a226.63,226.63,0,0,1,33.85,4.24,20.34,20.34,0,0,1,3.23-10.09,21.33,21.33,0,0,1,4.41-5A244.72,244.72,0,0,1,860.82,1369c-12.66-11.15-35.91-22.31-57.82-9.76a30.78,30.78,0,0,1,36.19-23.75A15.61,15.61,0,0,1,851.68,1321c-.39-5.24-.62-10.48-.67-15.67a157.58,157.58,0,0,0-40.87,12.49,169.59,169.59,0,0,0-17.85,9.65,29.13,29.13,0,0,1-12.6,31.62,19.36,19.36,0,0,1-25.09-.39,240.1,240.1,0,0,0-49.68,88.21c2.06,1,4.07,2,6.07,3.12a57,57,0,0,0,48.29,5.58,31.38,31.38,0,0,0,12.44-8.42,15.6,15.6,0,0,1-2.34-14.56c-8.37,2.4-16.73-.39-18.52-7.75s3.91-13.82,12.33-15.83c-15.17-14.72,6-37.92,17.78-19.63,7-14.33,26.43-16.45,21.47,8.09,11.43-3.91,18.51,1.56,20.35,8.58s-1.67,15.22-13.55,17.45c13,15.06,4.24,23-6.52,21,10.82,12.55,30.61,22.75,59,24.37h7.53ZM670.74,1493.2a15,15,0,0,1,16.72-9c.62-2.45,1.23-4.9,1.79-7.41,2.12-9,4.46-17.35,7-25.43-29.89-9.76-65.3,5.24-82.86,17.73a37.56,37.56,0,0,1-4.8,35.85,22.31,22.31,0,0,1,.34,26.55c4.12-1.34,8.36-2.57,12.71-3.57a111.13,111.13,0,0,1,26.32-3.07,114.21,114.21,0,0,1,27,3.24c2.06-6.14,4-12.38,5.57-18.74a14.94,14.94,0,0,1-10-16.11ZM549.46,1660.48c2.56-26-29.5-45.34-42.77-17.85a198.73,198.73,0,0,0-18.85,59.61,34.5,34.5,0,0,1-.55,4.63c0,1.89-.45,3.79-.62,5.57h3c78.06-.5,144.08-66,182.84-178.15a108.16,108.16,0,0,0-49.46,0c-4.91,1.17-9.65,2.57-14.34,4.07,20.47,16.39-.72,52.25-24.53,52.25,1.67-9.87-3.79-23.59-14.16-33.46a168.58,168.58,0,0,0-39.76,38,14.78,14.78,0,0,1,18.07,5.58c17.56-.51,26.37,21.24,11.71,27.88,11.76,10.42,12.43,22.86-10.77,31.61ZM485,1492c0-23.81,35.85-44.94,52.25-24.54,1.56-4.62,3-9.36,4.12-14.33a108.46,108.46,0,0,0,0-49.4c-112.19,38.7-177.65,104.77-178.09,182.78v3l5.57-.62,4.63-.55a197.2,197.2,0,0,0,59.94-18.63c27.49-13.27,8.2-45.33-17.84-42.77,8.75-23.14,21.19-22.3,31.06-10.7,6.52-14.67,28.21-5.58,27.88,11.76a14.72,14.72,0,0,1,5.57,18.07,169.58,169.58,0,0,0,38-39.81c-9.76-10.65-23.42-15.84-33.34-14.45Zm61.34-97.36c6-2,12.21-3.9,18.45-5.57-1.39-8.81,2.23-16.73,8.81-18.63s13.78,3.4,16.73,11.77l7.31-1.79c8.64-2,16.72-4.29,24.47-6.69-.78-1.56-1.45-3.12-2.34-4.63a69.88,69.88,0,0,1-3.23-6.3c-7.42-15.33-23.42-21.41-30.22-12.32,1-19.18,16-27,24.25-20.52a52.09,52.09,0,0,1,3.35-15.39,38.35,38.35,0,0,1,10.48-15.28,11.16,11.16,0,0,1,7.14-16.73,71.85,71.85,0,0,1-25.88-37.47,177,177,0,0,1-71.87,122.68A108.47,108.47,0,0,1,546,1394.39Zm11.48-311.86a166.87,166.87,0,0,1,15.78,19.4c3.24,5,6.58,9.87,10,14.61,1.39-11.65,13.77-16.06,26.71-11.54,11.93,4.18,12.93,29.72-1.34,32.78a16,16,0,0,1,13.16,13.88,16.12,16.12,0,0,1-.67,6.76,237.89,237.89,0,0,0,86.21,49.68,27.11,27.11,0,0,0,20.35-33.46c19,6.14,26.32,23.7,12.71,35,8.87-.89,13.27,2.9,14.5,8,5.57.39,11.15.61,16.73.55a112.23,112.23,0,0,0-2.79-42.71,58.49,58.49,0,0,0-4.18-10.7c-15.28-29.28-38.25-40-54.65-40.37a33.42,33.42,0,0,0-30.61,16.72,16.77,16.77,0,0,0,0,15.62c8.14,13,32-1.9,24.09-21.19,11.15,0,23.14,21.91,13.77,37.3-7.42,12.21-46,12.6-46.89-21.63v-2.12a5.89,5.89,0,0,0,0-.84A26.63,26.63,0,0,1,673.3,1138a40.32,40.32,0,0,1,37.08-20.63c20.69.39,41.21,13.55,55.37,35v-11.43a2.15,2.15,0,0,1,0-.62,94.35,94.35,0,0,1,20.58-55.76c19.85-25,51.63-40,80.79-46.28-29.16-6.35-60.94-21.35-80.79-46.28a94.37,94.37,0,0,1-20.58-55.76,2.08,2.08,0,0,1,0-.61V924.11c-14.16,21.41-34.68,34.63-55.37,35a40.55,40.55,0,0,1-37.08-20.69A26.67,26.67,0,0,1,670.74,928a5.08,5.08,0,0,0,0-.78v-2.12c.94-34.24,39.47-33.91,46.89-21.64,9.37,15.39-2.34,37.08-13.77,37.25,7.92-19.24-16-34.12-24.15-21.13a16.75,16.75,0,0,0,0,15.61,33.48,33.48,0,0,0,30.62,16.73c16.39-.34,39.36-11.15,54.64-40.32a60.56,60.56,0,0,0,4.18-10.7,112.07,112.07,0,0,0,2.79-42.72,150.91,150.91,0,0,0-16.73.62c-1.22,5-5.57,8.81-14.49,8,13.6,11.15,6.3,28.83-12.72,34.91a27.16,27.16,0,0,0-20.35-33.46,238.72,238.72,0,0,0-86.21,49.68,16,16,0,0,1-6.19,18.1,16,16,0,0,1-6.3,2.53c14.28,3.07,13.27,28.67,1.34,32.85-12.93,4.51-25.31,0-26.71-11.6-3.45,4.8-6.8,9.59-10,14.61a168.24,168.24,0,0,1-15.78,19.35,140.52,140.52,0,0,0,35.79,23.08c26.1,7.64,16.73-17.17,38.26-16-8-27.38,10.37-29.33,20.13-30.45,5,19.18-3.46,52.42-28.39,56.93a242.67,242.67,0,0,0,48.18,6.92c-6.3-16-6.13-46.11,23.2-44.05,20.63,1.5,35.79-2.62,44.6-17.06,14.89,8.69,12.94,31.28-1.11,42.6,20.91,0,24.37,7.64,28.16,22.3-3.79,14.89-7.25,22.31-28.16,22.31,14.05,11.15,16,33.9,1.11,42.6-8.75-14.39-23.92-18.52-44.6-17.07-29.33,2.07-29.5-27.88-23.2-44a239.64,239.64,0,0,0-48.18,7c24.93,4.52,33.46,37.7,28.39,56.88-9.76-1.06-27.88-3-20.13-30.45-21.3,1.23-12.16-23.64-38.26-16a140.91,140.91,0,0,0-36.13,23.36Zm83-44.61c-36.3-5.91-65.9-19.24-88.15-39.37a153.1,153.1,0,0,1-71.26,38.42l-3.8,1,3.8.89a153.1,153.1,0,0,1,71.26,38.42c21.85-20.19,51.46-33.18,87.76-39.37ZM709,1049.85c9.15,0,16.73-11.54,16.73-11.54s-7.42-11.6-16.73-11.6-16.72,11.6-16.72,11.6S699.9,1049.85,709,1049.85Zm-340.13-562-5.58-.61v3c.45,78.06,65.91,144,178.1,182.78a109,109,0,0,0,0-49.46c-1.17-4.9-2.57-9.64-4.13-14.27-16.39,20.41-52.24-.78-52.24-24.54,9.86,1.62,23.58-3.84,33.45-14.16a168.79,168.79,0,0,0-38-39.81,14.77,14.77,0,0,1-5.57,18.06c.5,17.57-21.19,26.38-27.88,11.71C437.16,572.43,424.72,573,416,549.9c26,2.51,45.33-29.55,17.84-42.82a198.76,198.76,0,0,0-59.94-18.62ZM533.68,709a177,177,0,0,1,71.87,122.67,72.53,72.53,0,0,1,25.87-37.47,11.15,11.15,0,0,1-7.13-16.73,38.54,38.54,0,0,1-10.49-15.33,52.08,52.08,0,0,1-3.34-15.39c-8.2,6.46-23.31-1.29-24.26-20.47,6.81,9,22.81,3,30.23-12.38a64.63,64.63,0,0,1,3.23-6.24c.89-1.51,1.56-3.07,2.34-4.63-7.8-2.4-15.83-4.68-24.48-6.69l-7.36-1.78c-3.18,8.3-10.31,13.49-16.73,11.76s-10.2-9.87-8.8-18.68c-6.25-1.84-12.44-3.74-18.46-5.58a108.49,108.49,0,0,1-12.55,26.71ZM548.29,474.8a14.72,14.72,0,0,1-18.07,5.57,168.38,168.38,0,0,0,39.76,38c10.37-9.59,15.83-23.31,14.16-33.18,23.81,0,45,35.8,24.53,52.19,4.69,1.56,9.43,3,14.34,4.13a108.16,108.16,0,0,0,49.46,0C633.43,429.3,567.58,364,489.57,363.33h-2.95a44.31,44.31,0,0,0,.61,5.58,40.45,40.45,0,0,0,.56,4.57,199.69,199.69,0,0,0,18.62,60c13.27,27.49,45.33,8.14,42.77-17.85,23.2,8.7,22.3,21.14,10.71,31,14.72,6.58,5.85,28.49-11.66,28ZM680.49,567c-1.84-6.36-3.73-12.61-5.57-18.68a114.35,114.35,0,0,1-53.31,0c-4.35-1-8.59-2.23-12.71-3.57a22.3,22.3,0,0,1-.34,26.49,37.56,37.56,0,0,1,4.8,35.85c17.56,12.54,53,27.54,82.86,17.79-2.51-8.14-4.85-16.73-7-25.49-.56-2.51-1.17-4.9-1.79-7.36a12.88,12.88,0,0,1-5.13.42,13.06,13.06,0,0,1-11.41-14.72,13,13,0,0,1,5.14-8.7,13,13,0,0,1,4.66-2.2ZM971,610.4c-4.23,11.94-29.77,12.94-32.84-1.33a16,16,0,0,1-20.63,12.49,238.71,238.71,0,0,0-49.91,86,27.26,27.26,0,0,0,4.44,9.92,27.2,27.2,0,0,0,18.18,11.06,27.33,27.33,0,0,0,10.84-.62c-6.13,19.07-23.7,26.31-34.91,12.71.84,8.86-2.95,13.33-8,14.55-.44,5.58-.61,11.15-.61,16.73a113.25,113.25,0,0,0,42.71-2.84A63.2,63.2,0,0,0,911,765c29.27-15.28,40-38.25,40.37-54.7a33.45,33.45,0,0,0-16.73-30.61,16.69,16.69,0,0,0-15.62,0c-13,8.14,1.9,32,21.14,24.14,0,11.15-21.92,23.09-37.25,13.72-12.27-7.42-12.66-45.95,21.58-46.89h2.9a25.93,25.93,0,0,1,10.48,2.61,40.38,40.38,0,0,1,20.69,37c-.45,20.69-13.61,41.21-35,55.37q5.72-.28,11.43,0h.62a94.39,94.39,0,0,1,55.75,20.63c24.93,19.8,39.93,51.58,46.23,80.8,6.36-29.22,21.36-61,46.28-80.8a94.42,94.42,0,0,1,55.76-20.63h.61q5.71-.28,11.44,0c-21.42-14.16-34.58-34.68-35-55.37a40.39,40.39,0,0,1,20.68-37,26,26,0,0,1,10.49-2.61h2.9c34.23.94,33.84,39.47,21.58,46.89-15.34,9.37-37.08-2.34-37.25-13.77,19.24,7.91,34.18-16,21.13-24.09a16.67,16.67,0,0,0-15.61,0,33.45,33.45,0,0,0-16.73,30.61c.34,16.73,11.15,39.42,40.37,54.7a63.2,63.2,0,0,0,10.71,4.13,113.23,113.23,0,0,0,42.71,2.84,153.37,153.37,0,0,0-.61-16.73c-5-1.22-8.81-5.57-8-14.55-11.15,13.6-28.77,6.36-34.9-12.71a27.32,27.32,0,0,0,10.84.62,27.14,27.14,0,0,0,22.61-21,238.68,238.68,0,0,0-49.68-86.2,15.93,15.93,0,0,1-13.17-1.53,16,16,0,0,1-7.46-11c-3.07,14.27-28.61,13.27-32.84,1.34-4.52-12.94,0-25.32,11.59-26.71-4.74-3.46-9.59-6.81-14.6-10a166.54,166.54,0,0,1-19.35-15.78A140.55,140.55,0,0,0,1059,593.56c-7.64,26.1,17.18,16.73,16,38.26,27.43-8,29.32,10.37,30.44,20.18-19.18,5-52.36-3.51-56.93-28.44a244.13,244.13,0,0,0-6.91,48.18c15.94-6.3,46.11-6.08,44.05,23.2-1.51,20.68,2.67,35.79,17.06,44.6-8.7,14.89-31.28,13-42.6-1.11,0,21-7.59,24.37-22.31,28.16-14.88-3.79-22.3-7.2-22.3-28.16-11.15,14.11-33.9,16-42.6,1.11,14.38-8.75,18.57-23.86,17.06-44.6-2.06-29.28,27.88-29.5,44-23.2a244.13,244.13,0,0,0-6.91-48.18c-4.57,24.93-37.75,33.46-56.93,28.44,1.11-9.81,3-27.88,30.44-20.18-1.17-21.3,23.64-12.16,16-38.26a140.52,140.52,0,0,0-23.08-35.79,167.38,167.38,0,0,1-19.35,15.78c-5,3.17-9.87,6.52-14.61,10C971,584.92,975.46,597.3,971,610.24Zm66.92,30.45c5.91-36.3,19.23-65.91,39.36-88.16a152.75,152.75,0,0,1-38.58-71.59c-.39-1.57-.78-3.24-1-3.8a32.57,32.57,0,0,1-.89,3.8,152.88,152.88,0,0,1-38.42,71.26c20.13,22.41,33.45,52,39.31,88.32Zm0,52.08s-11.55,7.42-11.55,16.73,11.55,16.72,11.55,16.72,11.59-7.41,11.59-16.72S1037.75,693,1037.75,693Zm168.17-85.65a226.7,226.7,0,0,1-33.85-4.18,20.47,20.47,0,0,1-3.23,10.09,22.2,22.2,0,0,1-4.41,5,244,244,0,0,1,50.52,89.22c12.66,11.15,35.91,22.3,57.82,9.76a30.78,30.78,0,0,1-36.19,23.75,15.53,15.53,0,0,1-12.49,14.55q.57,7.88.67,15.73a161.16,161.16,0,0,0,40.88-12.49,166.8,166.8,0,0,0,17.84-9.65,29.15,29.15,0,0,1,12.6-31.67,19.33,19.33,0,0,1,25.09.45A240.69,240.69,0,0,0,1371,629.59c-2.06-1-4.07-2-6.07-3.18a57,57,0,0,0-48.29-5.58,31.91,31.91,0,0,0-12.44,8.42,15.69,15.69,0,0,1,2.35,14.55c8.36-2.34,16.72.45,18.51,7.81s-3.9,13.83-12.32,15.84c15.16,14.66-6,37.86-17.79,19.57-7,14.33-26.43,16.73-21.47-8-11.43,3.9-18.51-1.56-20.35-8.59s1.67-15.28,13.55-17.45c-13-15.11-4.24-23,6.52-21-10.82-12.49-30.61-22.7-59-24.37h-7.53Zm199.12-24.2a15,15,0,0,1-16.73,9.09c-.62,2.45-1.23,4.85-1.79,7.36-2.12,9-4.46,17.34-7,25.48,29.89,9.76,65.3-5.24,82.86-17.79a37.56,37.56,0,0,1,4.8-35.85,22.29,22.29,0,0,1-.34-26.48c-4.18,1.33-8.36,2.56-12.71,3.57a114.62,114.62,0,0,1-53.31,0c-2.06,6.07-4,12.32-5.57,18.67a15,15,0,0,1,9.59,15.78ZM1586.15,363.5c-78.07.45-144.09,66-182.84,178.1a108.16,108.16,0,0,0,49.46,0c4.91-1.18,9.65-2.57,14.33-4.13-20.46-16.39.72-52.19,24.53-52.19-1.67,9.87,3.8,23.58,14.17,33.18a168.73,168.73,0,0,0,39.75-38,14.73,14.73,0,0,1-18.06-5.58c-17.51.5-26.38-21.19-11.71-27.88-11.82-9.87-12.49-22.3,10.7-31-2.56,26,29.5,45.33,42.77,17.84a199.4,199.4,0,0,0,18.62-60,33.51,33.51,0,0,1,.56-4.57c0-1.89.45-3.84.62-5.57h-3Zm-61.34,284.38a114.27,114.27,0,0,1,3.07-26.32c1.06-4.35,2.28-8.53,3.57-12.72a22.3,22.3,0,0,1-26.49,0,37.48,37.48,0,0,1-35.85,4.74c-12.49,17.57-27.55,53-17.74,82.92,8.09-2.51,16.45-4.91,25.43-7l7.42-1.78a13,13,0,1,1,24.64-7c6.36-1.84,12.6-3.74,18.68-5.58a118.08,118.08,0,0,1-3.06-27.21Zm-92.23,121.5a15.82,15.82,0,0,1,14.56,2.34,31.38,31.38,0,0,0,8.42-12.44A57,57,0,0,0,1450,711a56.21,56.21,0,0,1-3.12-6,239.72,239.72,0,0,0-88.27,49.63,19.23,19.23,0,0,1,.45,25.09,29.17,29.17,0,0,1-31.68,12.6,189.44,189.44,0,0,0-9.64,17.85,158.72,158.72,0,0,0-12.44,40.92,123,123,0,0,1,15.67.67,15.62,15.62,0,0,1,14.56-12.54A30.78,30.78,0,0,1,1359.26,803c-12.44,21.91-1.45,45.22,9.76,57.82a245.46,245.46,0,0,1,89.21,50.52,21.11,21.11,0,0,1,15.06-7.64,226.66,226.66,0,0,1-4.24-33.84v-8.15c-1.62-28.38-11.88-48.12-24.37-59,2,10.76-5.91,19.57-21,6.58-2.17,11.82-10.43,15.33-17.45,13.49s-12.44-8.92-8.59-20.29c-24.48,4.9-22.3-14.5-8-21.53-18.29-11.76,4.91-33,19.57-17.78,2.07-8.42,8.48-14.22,15.84-12.33s9.65,10.21,7.25,18.57ZM1417.75,778a9.85,9.85,0,0,0-10.37,3.57,9.8,9.8,0,0,0-2,5.37,9.86,9.86,0,1,0,18.23-4.43,10.14,10.14,0,0,0-2.65-2.85,9.87,9.87,0,0,0-3.54-1.6Zm-138,129.7c-13.11-4.13-27,6.24-17.85,36a26,26,0,0,0,23,15.33c10.59-.33,17.62-9,18.84-23.19a122.69,122.69,0,0,0-3.18-33.46,108.42,108.42,0,0,1-3.84-29.83,138.45,138.45,0,0,1,.78-14.39,203.76,203.76,0,0,0-78.07,18.52c-21.19,17.17-33.45,56.87,6,73.55a36.52,36.52,0,0,1-55.76-4.69c-15.62,11.15-34.07,19.24-50.75,11.15-8-16.72,0-35.13,11.16-50.68a36.52,36.52,0,0,1-4.69-55.76c16.73,39.42,56.38,27.15,73.55,6a203.47,203.47,0,0,0,18.51-78.06,139.88,139.88,0,0,1-14.33.72,110.9,110.9,0,0,1-29.89-3.79,120.65,120.65,0,0,0-33.45-3.23c-14.16,1.28-22.86,8.25-23.14,18.85a25.8,25.8,0,0,0,15.28,23c29.77,9.15,40.14-4.79,36-17.89,12.21,6.07,13,24,2.34,29.16,7.47,13.55-.56,30.16-20.41,25.09,13.16-20.35-9.81-24.2-22.3-30.67a27.23,27.23,0,0,1-2.51-1.45,32.6,32.6,0,0,1-15.39-27.26,24.63,24.63,0,0,1,4.9-13.89,86.35,86.35,0,0,0-26.2,14.33,92,92,0,0,0-12.16,11.6c-11.82,18-8.19,34.63,9.48,37.8-21.58,6-28.88.62-29.33-7.58a158.85,158.85,0,0,0-14.89,56.88c11.16-4.41,19.52,3.84,24.48,10.76s19.91,19.91,26.15,4.24a14.92,14.92,0,0,1,2.82,6.91,15,15,0,0,1-5.19,13.48,14.91,14.91,0,0,1-6.72,3.25c8.54,6.91,0,22-12.76,13.49,7.63,10.82-2.51,29.67-18,16.73a14.61,14.61,0,0,1-29.16,0c-15.45,12.77-25.6-6.08-18-16.73-12.77,8.48-21.3-6.58-12.77-13.49a14.95,14.95,0,0,1-9-23.64c6.19,15.67,20.58,3.4,26.1-4.24s13.27-15.17,24.48-10.76a158.85,158.85,0,0,0-14.89-56.88c-.45,8.2-7.75,13.61-29.33,7.58,17.67-3.17,21.3-19.79,9.48-37.8a92,92,0,0,0-12.16-11.6,86.29,86.29,0,0,0-26.21-14.33,24.57,24.57,0,0,1,4.91,13.89,32.6,32.6,0,0,1-15.39,27.26,27.23,27.23,0,0,1-2.51,1.45c-12.65,6.47-35.63,10.32-22.3,30.67-19.85,5.07-27.88-11.54-20.41-25.09-10.7-5.13-9.87-23.09,2.34-29.16-4.12,13.1,6.25,27,36,17.89a25.8,25.8,0,0,0,15.28-23c0-10.6-9-17.57-23.14-18.85a120.65,120.65,0,0,0-33.45,3.23,110.9,110.9,0,0,1-29.89,3.79,141.05,141.05,0,0,1-14.39-.72,204.69,204.69,0,0,0,18.57,78.06c17.17,21.19,56.87,33.46,73.55-6A36.54,36.54,0,0,1,945.35,906c11.16,15.55,19.24,34,11.16,50.68-16.73,8-35.13,0-50.69-11.15a36.59,36.59,0,0,1-55.76,4.69c39.48-16.73,27.21-56.38,6-73.55A203.71,203.71,0,0,0,778,858.14c.5,4.78.76,9.59.78,14.39A110.81,110.81,0,0,1,775,902.36a120.77,120.77,0,0,0-3.24,33.46C773,950,780,958.68,790.62,959a26.1,26.1,0,0,0,23-15.33c9.14-29.78-4.8-40.15-17.9-36,6.08-12.21,24-13,29.16-2.34,13.55-7.47,30.11.56,25,20.46-20.3-13.21-24.15,9.76-30.61,22.31-.44.86-.93,1.7-1.45,2.51A32.74,32.74,0,0,1,790.56,966a23.78,23.78,0,0,1-13.82-4.91A87.15,87.15,0,0,0,791,987.29a105.38,105.38,0,0,0,11.6,12.21c18,11.76,34.62,8.14,37.86-9.54,6,21.58.61,28.94-7.58,29.33a158.38,158.38,0,0,0,57,15c-4.41-11.15,3.9-19.52,10.76-24.48s19.91-19.9,4.29-26.09a15,15,0,0,1,14.3-2,15,15,0,0,1,9.35,11c6.91-8.53,22,0,13.49,12.82,10.82-7.64,29.66,2.46,16.73,17.9a14.61,14.61,0,0,1,0,29.17c12.82,15.44-6,25.59-16.73,17.95,8.47,12.77-6.58,21.3-13.49,12.77a15,15,0,0,1-9.33,11,14.84,14.84,0,0,1-7.41.86,15.05,15.05,0,0,1-6.91-2.81c15.62-6.25,3.35-20.63-4.29-26.15s-15.17-13.22-10.76-24.48a157.42,157.42,0,0,0-56.82,14.94c8.2.39,13.6,7.75,7.58,29.28-3.23-17.68-19.85-21.25-37.86-9.48a104,104,0,0,0-11.6,12.32,89.36,89.36,0,0,0-14.33,26.21,24.92,24.92,0,0,1,13.89-4.91,32.68,32.68,0,0,1,27.32,15.39,23.05,23.05,0,0,1,1.45,2.56c6.47,12.72,10.32,35.64,30.61,22.31,5.08,19.85-11.49,27.88-25,20.41-5.13,10.7-23.09,9.92-29.17-2.35,13.11,4.13,27-6.24,17.9-36a25.92,25.92,0,0,0-23-15.27c-10.59.27-17.62,9-18.84,23.19a120,120,0,0,0,3.23,33.46,110.85,110.85,0,0,1,3.79,29.89,144,144,0,0,1-.78,14.38,205.82,205.82,0,0,0,78.06-18.51c21.19-17.23,33.46-56.88-6-73.6A36.52,36.52,0,0,1,906,1130.7c15.62-11.15,34.07-19.24,50.74-11.15,8,16.73,0,35.07-11.15,50.68a36.52,36.52,0,0,1,4.69,55.76c-16.73-39.47-56.38-27.15-73.55-6A205.1,205.1,0,0,0,858.2,1298a141.84,141.84,0,0,1,14.39-.78,110.43,110.43,0,0,1,29.88,3.84,122.69,122.69,0,0,0,33.46,3.18c14.16-1.23,22.86-8.2,23.14-18.85a25.82,25.82,0,0,0-15.61-23.69c-29.78-9.2-40.15,4.73-36,17.84-12.22-6.08-13.05-24-2.35-29.16-7.47-13.55.56-30.11,20.41-25-13.16,20.3,9.82,24.14,22.31,30.67l2.51,1.45a32.54,32.54,0,0,1,15.39,27.26,24.92,24.92,0,0,1-4.91,13.89A88.78,88.78,0,0,0,987,1284.32a100.17,100.17,0,0,0,12.15-11.6c11.82-18,8.2-34.63-9.48-37.86,21.58-6,28.89-.61,29.33,7.58a158.43,158.43,0,0,0,14.89-56.82c-11.15,4.41-19.52-3.9-24.48-10.76s-19.9-19.9-26.09-4.29a14.89,14.89,0,0,1,9-23.59c-8.53-7,0-22.3,12.77-13.49-7.64-10.88,2.51-29.72,18-16.73a14.61,14.61,0,0,1,29.17,0c15.44-12.83,25.59,6,18,16.73C1083,1125,1091.5,1140,1083,1147a14.89,14.89,0,0,1,9,23.59c-6.19-15.61-20.57-3.35-26.09,4.29s-13.27,15.17-24.48,10.76a158.43,158.43,0,0,0,14.89,56.82c.44-8.19,7.75-13.55,29.33-7.58-17.68,3.23-21.3,19.85-9.48,37.86a99.44,99.44,0,0,0,12.15,11.6,88.66,88.66,0,0,0,26.21,14.33,24.92,24.92,0,0,1-4.91-13.89A32.54,32.54,0,0,1,1125,1257.5l2.51-1.45c12.66-6.53,35.63-10.37,22.3-30.67,19.86-5.07,27.89,11.49,20.41,25,10.71,5.13,9.87,23.08-2.34,29.16,4.13-13.11-6.24-27-36-17.84a25.83,25.83,0,0,0-15.28,23c.28,10.65,9,17.62,23.14,18.84a122.26,122.26,0,0,0,33.46-3.17,110.86,110.86,0,0,1,29.89-3.85,143,143,0,0,1,14.33.78,204.08,204.08,0,0,0-18.52-78.06c-17.17-21.14-56.87-33.46-73.54,6a36.52,36.52,0,0,1,4.68-55.76c-11.15-15.61-19.24-34.07-11.15-50.69,16.73-8.08,35.13,0,50.74,11.15a36.52,36.52,0,0,1,55.76-4.68c-39.48,16.73-27.21,56.37-6,73.6a204.81,204.81,0,0,0,78.06,18.52,144,144,0,0,1-.78-14.39,108.57,108.57,0,0,1,3.85-29.89,122.62,122.62,0,0,0,3.18-33.45c-1.23-14.22-8.26-22.92-18.85-23.2a25.79,25.79,0,0,0-23,15.28c-9.2,29.77,4.74,40.15,17.84,36-6.08,12.27-24,13-29.16,2.34-13.55,7.47-30.11-.56-25-20.41,20.3,13.16,24.15-9.75,30.61-22.3a23.19,23.19,0,0,1,1.45-2.57,32.7,32.7,0,0,1,27.33-15.38,24.83,24.83,0,0,1,13.88,4.9,89.13,89.13,0,0,0-14.33-26.21,104,104,0,0,0-11.6-12.15c-18-11.77-34.63-8.2-37.86,9.48-6-21.52-.61-28.88,7.58-29.27a157.49,157.49,0,0,0-56.87-15c4.46,11.15-3.85,19.52-10.71,24.48s-19.9,19.91-4.29,26.15a15,15,0,0,1-23.64-9.09c-6.92,8.53-22,0-13.44-12.77-10.87,7.64-29.72-2.51-16.73-18a14.61,14.61,0,0,1,0-29.16c-12.77-15.45,6.08-25.54,16.73-17.9-8.48-12.83,6.58-21.36,13.49-12.83a15,15,0,0,1,16.75-11.85,14.85,14.85,0,0,1,6.89,2.82c-15.61,6.19-3.34,20.57,4.3,26.1s15.17,13.26,10.76,24.47a158.73,158.73,0,0,0,56.82-14.88c-8.2-.39-13.61-7.75-7.58-29.34,3.23,17.68,19.85,21.31,37.86,9.54a105.42,105.42,0,0,0,11.6-12.21,88.66,88.66,0,0,0,14.33-26.21,24.11,24.11,0,0,1-13.89,4.91,32.64,32.64,0,0,1-27.32-15.39,27.23,27.23,0,0,1-1.45-2.51c-6.47-12.66-10.32-35.63-30.61-22.3-5.08-19.91,11.48-27.88,25-20.47,4.8-10.2,22.75-9.37,28.83,2.85ZM1163.82,1038c4.63-2.68,4.07-10-2.84-13.72s-8.53-9.37-4.3-12c-11.71,1.78-15.11,13.16-11.48,17.73-11.43,0-7.87,8-15,8,7.13,0,3.57,8,15,8-3.63,4.63,0,16,11.48,17.79-4.23-2.68-2.67-8.37,4.3-12.1s7.08-11,2.51-13.61Zm171.91,198.78a15.56,15.56,0,0,1-14.55-12.49c-5.25.39-10.49.67-15.67.67a158.46,158.46,0,0,0,12.43,40.87,186.05,186.05,0,0,0,9.65,17.85,29.14,29.14,0,0,1,31.67,12.65,19.17,19.17,0,0,1-.45,25,240.65,240.65,0,0,0,88.27,49.68,57.1,57.1,0,0,1,3.12-6.08,57,57,0,0,0,5.58-48.29,31.41,31.41,0,0,0-8.42-12.43,15.65,15.65,0,0,1-14.55,2.34c2.39,8.37-.39,16.73-7.81,18.51s-13.77-3.9-15.84-12.32c-14.66,15.17-37.86-6-19.57-17.73-14.33-7.08-16.45-26.49,8-21.52-3.85-11.43,1.62-18.52,8.59-20.36s15.28,1.68,17.45,13.55c15.11-13,23-4.23,21,6.53,12.49-10.82,22.75-30.61,24.37-58.94v-8.2a226.66,226.66,0,0,1,4.24-33.84,20.5,20.5,0,0,1-10.15-3.24,22.35,22.35,0,0,1-4.91-4.4,243.9,243.9,0,0,1-89.21,50.52c-11.15,12.65-22.31,35.91-9.76,57.82a30.79,30.79,0,0,1-23.87-36.13Zm89.21,49.18a9.86,9.86,0,0,0-13.87-6.37,9.83,9.83,0,1,0,13.37,6.43Zm-108.67,30a22.3,22.3,0,0,1,8.64.72,5,5,0,0,0,3.79-.55,5.21,5.21,0,0,0,1.47-1.56,5.32,5.32,0,0,0,.71-2,5.6,5.6,0,0,0-.67-4,6.27,6.27,0,0,0-5.35-2.23,32.71,32.71,0,0,0-8.65,1,20.45,20.45,0,0,1-8.81,0l-1.34-.44a8.35,8.35,0,0,1,.45,1.39,21.15,21.15,0,0,1,0,8.75,35,35,0,0,0-1,8.65,6.27,6.27,0,0,0,.69,2.57,6.37,6.37,0,0,0,1.7,2,5.16,5.16,0,0,0,8.15-5.29,21,21,0,0,1-.28-8.92Zm10.26,37.58a246.74,246.74,0,0,1,51.41,90.83c27.88-9,58.88,1,79.35,12.61-11.6-20.47-21.7-51.64-12.61-79.35a246.85,246.85,0,0,1-90.83-51.36,29.82,29.82,0,0,1-21.47,5.58,29.57,29.57,0,0,1-6.35,21.75Zm-27.88-128.75A213.19,213.19,0,0,1,1193.37,1193a213.29,213.29,0,0,1,31.12,105.33,164.51,164.51,0,0,1,44,13.16q8.58,4,16.73,8.81c.28-.89.5-1.78.73-2.62,3-11.15,3-26.54-3.91-35.35,8.81,6.91,24.26,6.91,35.35,4l2.62-.73a183.63,183.63,0,0,1-8.81-16.72,162.73,162.73,0,0,1-13.16-43.94Zm-247-63.9c3.74-6.91,9.43-8.53,12-4.29-1.73-11.71-13.11-15.11-17.74-11.15,0-11.43-8-7.92-8-15,0,7.08-8,3.57-8,15-4.63-3.68-16-.28-17.73,11.15,2.62-4.24,8.31-2.62,12,4.29s11.16,7.47,13.67,2.85C1040.48,1168.39,1047.73,1167.84,1051.63,1160.92ZM793.69,1282.31c-6.92,8.81-6.92,24.26-3.91,35.35a9.66,9.66,0,0,0,.73,2.62,171.47,171.47,0,0,1,16.73-8.75,162.62,162.62,0,0,1,44-13.22A213.23,213.23,0,0,1,883.07,1193a213.23,213.23,0,0,1-105.28,31.84,162.23,162.23,0,0,1-13.15,44,183.8,183.8,0,0,1-8.81,16.73l2.62.73c11.15,3,26.54,3,35.35-4Zm-34.46,42.38a5.33,5.33,0,0,0,8.14,5.3,6.34,6.34,0,0,0,2.4-4.63,32.8,32.8,0,0,0-1-8.65,21.15,21.15,0,0,1,0-8.75,11.26,11.26,0,0,1,.45-1.39l-1.34.44a20.45,20.45,0,0,1-8.81,0,32.58,32.58,0,0,0-8.53-.67,6.36,6.36,0,0,0-2.57.67,6.3,6.3,0,0,0-2.06,1.67,5.74,5.74,0,0,0,1.51,7.59,5,5,0,0,0,3.79.56,22.11,22.11,0,0,1,8.64-.73,21.15,21.15,0,0,1-.78,8.59Zm-115.76-18a15.72,15.72,0,0,1-14.55-2.34,31.14,31.14,0,0,0-8.42,12.43,56.91,56.91,0,0,0,5.57,48.29,57.17,57.17,0,0,1,3.13,6.08,240.62,240.62,0,0,0,87.87-49.69,19.17,19.17,0,0,1-.44-25A29.17,29.17,0,0,1,748.3,1284a183.62,183.62,0,0,0,9.64-17.84,158,158,0,0,0,12.44-40.88c-5.19,0-10.43-.27-15.67-.67a15.56,15.56,0,0,1-14.55,12.5,30.77,30.77,0,0,1-23.76,36.18c12.44-21.91,1.45-45.16-9.75-57.82A243.86,243.86,0,0,1,617.43,1165a22.17,22.17,0,0,1-4.91,4.41,20.48,20.48,0,0,1-10.15,3.23,225.33,225.33,0,0,1,4.24,33.85v8.19c1.62,28.33,11.88,48.12,24.37,58.94-2-10.76,5.91-19.51,21-6.52,2.17-11.88,10.43-15.39,17.45-13.55s12.44,8.92,8.59,20.35c24.54-5,22.3,14.44,8,21.52,18.29,11.71-4.91,32.9-19.57,17.74-2.07,8.42-8.48,14.27-15.84,12.32s-9.76-10.43-7.36-18.79Zm14.83-8.59a9.9,9.9,0,0,0,10.38-3.56,9.87,9.87,0,1,0-17.4-8.48,9.81,9.81,0,0,0,6.85,12Zm-39.53,158.8c20.46-11.59,51.69-21.63,79.34-12.6a247.49,247.49,0,0,1,51.36-90.83,29.78,29.78,0,0,1-5.58-21.47,29.84,29.84,0,0,1-21.47-5.57,246.88,246.88,0,0,1-90.83,51.35C640.46,1405.43,630.42,1436.6,618.77,1456.89ZM914.91,1024.2c-6.92,3.73-7.42,11.15-2.84,13.71-4.58,2.63-4.08,9.93,2.84,13.67s8.53,9.42,4.29,12.1c11.71-1.79,15.11-13.16,11.49-17.79,11.43,0,7.86-8,15-8-7.14,0-3.57-8-15-8,3.62-4.58,0-16-11.49-17.74,4.18,2.85,2.68,8.48-4.29,12.22ZM740.16,839.08a15.6,15.6,0,0,1,14.55,12.54c5.24-.45,10.48-.67,15.67-.67A158.52,158.52,0,0,0,757.94,810a189.27,189.27,0,0,0-9.64-17.84,29.15,29.15,0,0,1-31.67-12.6,19.22,19.22,0,0,1,.44-25.09,239.72,239.72,0,0,0-88.27-49.63,54.44,54.44,0,0,1-3.12,6,56.91,56.91,0,0,0-5.57,48.29,31.17,31.17,0,0,0,8.42,12.44,15.84,15.84,0,0,1,14.55-2.35c-2.4-8.36.39-16.72,7.81-18.51s13.77,3.9,15.83,12.33c14.67-15.17,37.86,6,19.57,17.78,14.33,7,16.73,26.43-8,21.53,3.85,11.15-1.61,18.45-8.58,20.29S654.4,821,652.22,809.19c-15.11,13-23,4.18-21-6.58-12.49,10.87-22.75,30.61-24.36,59v8.14a226.63,226.63,0,0,1-4.24,33.85,21.11,21.11,0,0,1,15,7.64,245.27,245.27,0,0,1,89.22-50.52c11.15-12.6,22.3-35.91,9.76-57.82a30.78,30.78,0,0,1,23.53,36.35Zm-89.22-49.19A9.87,9.87,0,0,0,669,792.37a9.87,9.87,0,0,0-11-14.52,10,10,0,0,0-3.46,1.74,9.85,9.85,0,0,0-2.51,2.94,9.84,9.84,0,0,0-.89,7.53Zm108.84-30a21,21,0,0,1-8.64-.73,5.33,5.33,0,0,0-5.3,8.14,6.34,6.34,0,0,0,4.63,2.4,32.22,32.22,0,0,0,8.64-1,22.15,22.15,0,0,1,8.81,0,5.68,5.68,0,0,1,1.34.5,13.38,13.38,0,0,1-.44-1.4,21.44,21.44,0,0,1,0-8.81,32.26,32.26,0,0,0,1-8.64,6.09,6.09,0,0,0-.7-2.57,6.26,6.26,0,0,0-1.7-2.06,5.57,5.57,0,0,0-4-.67,5.17,5.17,0,0,0-2,.72,5.06,5.06,0,0,0-1.56,1.46,5.61,5.61,0,0,0-.56,3.79A20.92,20.92,0,0,1,759.78,759.9Zm-10.31-37.59a246.64,246.64,0,0,1-51.36-90.66c-27.88,9.09-58.88-.95-79.34-12.6,11.6,20.52,21.69,51.69,12.6,79.34A247,247,0,0,1,722.2,749.8a29.33,29.33,0,0,1,21.47-5.57,29.93,29.93,0,0,1,5.8-21.75Zm27.88,128.75A213.33,213.33,0,0,1,882.62,882.9,213.18,213.18,0,0,1,850.9,777.8a162.67,162.67,0,0,1-44-13.16,174.31,174.31,0,0,1-16.73-8.81c-.27.89-.5,1.78-.72,2.67-3,11.15-3,26.49,3.9,35.3-8.81-6.86-24.25-6.92-35.35-3.91l-2.62.73a166.61,166.61,0,0,1,8.81,16.73,162.1,162.1,0,0,1,13.33,43.88Zm246.57,64c-3.74,6.91-9.42,8.53-12,4.23,1.72,11.71,13.1,15.17,17.73,11.49,0,11.43,8,7.86,8,15,0-7.14,8-3.57,8-15,4.63,3.68,16,0,17.73-11.49-2.62,4.24-8.31,2.68-12-4.23s-11.15-7.48-13.72-2.85c-2.68-4.46-9.76-4-13.49,3Zm287.11-108a166.61,166.61,0,0,1,8.81-16.73l-2.62-.73c-11.16-2.95-26.55-2.95-35.36,3.91,6.92-8.81,6.92-24.2,3.91-35.3a9.57,9.57,0,0,0-.73-2.68,172,172,0,0,1-16.73,8.81,162.25,162.25,0,0,1-44,13.16,213.19,213.19,0,0,1-31.84,105.28A213.16,213.16,0,0,1,1297.76,851a162.07,162.07,0,0,1,13.43-43.72Zm5.29-55.77a5.61,5.61,0,0,0-.55-3.79,5.06,5.06,0,0,0-1.56-1.46,5.15,5.15,0,0,0-2-.71,5.6,5.6,0,0,0-4,.67,6.37,6.37,0,0,0-1.7,2,6.27,6.27,0,0,0-.69,2.58,34,34,0,0,0,1,8.64,21.44,21.44,0,0,1,0,8.81,11.26,11.26,0,0,1-.45,1.39,7.21,7.21,0,0,1,1.34-.5,22.15,22.15,0,0,1,8.81,0,32.26,32.26,0,0,0,8.64,1,6.27,6.27,0,0,0,2.58-.69,6.37,6.37,0,0,0,2-1.7,5,5,0,0,0,.74-1.94,5.21,5.21,0,0,0-.07-2.08,5.15,5.15,0,0,0-.71-2,5.29,5.29,0,0,0-1.46-1.56,5.55,5.55,0,0,0-3.79-.55,21.25,21.25,0,0,1-8.65.72,21.16,21.16,0,0,1,.67-8.81ZM1456.62,619c-20.47,11.66-51.69,21.69-79.35,12.6a245.78,245.78,0,0,1-51.41,90.83,29.65,29.65,0,0,1,5.85,21.53,29.38,29.38,0,0,1,21.47,5.57,247.1,247.1,0,0,1,91-51c-9.09-27.88,1-59,12.6-79.51Zm70.53-70.53c-15.39-1.68-41.37,6.63-41.32,41.31,34.85.11,43.16-25.87,41.49-41.26Zm-133.26-2.24A112.23,112.23,0,0,1,1367,533.9a177.15,177.15,0,0,1-122.67,71.82,72.08,72.08,0,0,1,37.47,25.87,11.24,11.24,0,0,1,6.52-7.89,11.29,11.29,0,0,1,5.2-.86,11.06,11.06,0,0,1,5,1.62A39,39,0,0,1,1313.81,614a54.19,54.19,0,0,1,15.39-3.34c-6.46-8.2,1.29-23.25,20.47-24.26-9,6.8-3,22.81,12.38,30.22a67,67,0,0,1,6.24,3.24c1.51.89,3.13,1.61,4.69,2.34,2.39-7.81,4.68-15.84,6.69-24.48.55-2.45,1.17-4.85,1.78-7.3-8.36-3.18-13.55-10.37-11.82-16.73s9.87-10.21,18.68-8.76c1.9-6.46,3.79-12.6,5.74-18.62Zm-96.25,112.19a2.13,2.13,0,1,0,.17.06ZM911,617.88a22.47,22.47,0,0,1-4.41-5,20.47,20.47,0,0,1-3.23-10.09A226.54,226.54,0,0,1,869.46,607h-8.14c-28.38,1.67-48.17,11.88-59,24.37,10.76-2,19.51,5.91,6.52,21,11.88,2.18,15.39,10.43,13.55,17.45s-8.92,12.49-20.35,8.59c5,24.53-14.44,22.3-21.47,8-11.76,18.29-33-4.91-17.78-19.57-8.42-2-14.22-8.48-12.33-15.84s10.15-10.15,18.51-7.8a15.71,15.71,0,0,1,2.35-14.56,31.91,31.91,0,0,0-12.44-8.42,57,57,0,0,0-48.29,5.58c-2,1.17-4,2.23-6.07,3.18a240.69,240.69,0,0,0,49.68,88.21,19.36,19.36,0,0,1,25.09-.45,29.17,29.17,0,0,1,12.6,31.67,166.8,166.8,0,0,0,17.84,9.65,160.36,160.36,0,0,0,40.88,12.49q0-7.86.67-15.72a15.53,15.53,0,0,1-12.49-14.55,30.79,30.79,0,0,1-36.19-23.76c21.91,12.44,45.16,1.45,57.82-9.76a244.17,244.17,0,0,1,50.69-88.88Zm-126.13,52.8a9.89,9.89,0,0,0,10.35-3.61,9.9,9.9,0,0,0,2-5.38,9.79,9.79,0,0,0-1.34-5.57,9.86,9.86,0,1,0-11,14.56Zm46.34-64.74a177.2,177.2,0,0,1-122.68-71.82,112.59,112.59,0,0,1-26.93,12.33c2,6,3.85,12.15,5.58,18.45,8.81-1.45,16.73,2.18,18.68,8.76s-3.46,13.77-11.82,16.73l1.84,7.3c1.95,8.64,4.24,16.73,6.63,24.48,1.57-.73,3.18-1.45,4.69-2.34a67,67,0,0,1,6.24-3.24c15.34-7.41,21.41-23.42,12.38-30.22,19.18,1,26.93,16.06,20.46,24.26a54.25,54.25,0,0,1,15.4,3.34A39,39,0,0,1,777,624.46a11.06,11.06,0,0,1,5-1.62,11.16,11.16,0,0,1,11.72,8.75,72.06,72.06,0,0,1,37.47-25.81ZM548.23,548.68c-1.67,15.39,6.64,41.37,41.32,41.32.05-34.85-25.93-43.16-41.32-41.49Zm-4,60.22c1.28,4.18,2.51,8.36,3.56,12.71a114.4,114.4,0,0,1,3.07,26.32,117.83,117.83,0,0,1-3.23,27c6.08,2,12.32,3.91,18.68,5.58a13.06,13.06,0,0,1,2.06-4.89A13.26,13.26,0,0,1,572.2,672a13.06,13.06,0,0,1,19.25,15.3l7.41,1.78c9,2.12,17.34,4.52,25.43,7,9.81-30-5.24-65.35-17.73-82.92a37.5,37.5,0,0,1-35.86-4.74,22.31,22.31,0,0,1-26.48.45Zm0,858.31a22.28,22.28,0,0,1,26.48.34,37.43,37.43,0,0,1,35.86-4.74c12.49-17.57,27.54-53,17.73-82.92-8.09,2.51-16.45,4.91-25.43,7l-7.41,1.79a13.17,13.17,0,0,1,1,5.41,12.92,12.92,0,0,1-1.29,5.36,13,13,0,0,1-8.27,6.92,12.94,12.94,0,0,1-5.5.32,13.07,13.07,0,0,1-10.91-11.1c-6.36,1.84-12.6,3.79-18.68,5.57a118,118,0,0,1,3.24,27A116,116,0,0,1,548,1454.5,121.11,121.11,0,0,1,544.22,1467.21Zm3.79,60.44c15.39,1.62,41.37-6.69,41.32-41.37-34.46,0-42.77,25.93-41.1,41.37Zm133.27,2.24a108.3,108.3,0,0,1,26.93,12.32,176.82,176.82,0,0,1,122.67-71.82,72.48,72.48,0,0,1-37.47-25.93,11.16,11.16,0,0,1-16.73,7.14,38.52,38.52,0,0,1-15.33,10.48,54.28,54.28,0,0,1-15.39,3.4c6.46,8.14-1.29,23.25-20.47,24.2,9-6.75,3-22.8-12.38-30.22a55,55,0,0,1-6.24-3.23,50.79,50.79,0,0,0-4.69-2.29c-2.39,7.75-4.68,15.78-6.69,24.42-.55,2.46-1.17,4.91-1.78,7.36,8.36,3.18,13.55,10.32,11.82,16.73s-9.87,10.2-18.68,8.81a185,185,0,0,1-5.35,18.63Zm96.46-112a9.86,9.86,0,1,0,7.08-12,9.71,9.71,0,0,0-3.47,1.67,10,10,0,0,0-2.57,2.88,9.94,9.94,0,0,0-1,7.49Zm386.69,40.54a21.28,21.28,0,0,1,4.41,5,20.27,20.27,0,0,1,3.23,10.1,225.49,225.49,0,0,1,33.85-4.24h8.2c28.32-1.62,48.12-11.82,58.93-24.37-10.76,2-19.51-5.91-6.52-21-11.88-2.24-15.39-10.43-13.55-17.46s8.92-12.49,20.35-8.58c-5-24.54,14.45-22.31,21.47-8.09,11.77-18.29,33,4.91,17.79,19.63,8.42,2,14.22,8.47,12.32,15.83s-10.15,10.15-18.51,7.75a15.66,15.66,0,0,1-2.34,14.56,31.34,31.34,0,0,0,12.43,8.42,56.68,56.68,0,0,0,48.29-5.58c2-1.17,4-2.17,6.08-3.12a240.38,240.38,0,0,0-49.68-88.21,19.37,19.37,0,0,1-25.1.39,29.13,29.13,0,0,1-12.6-31.62,169.44,169.44,0,0,0-17.84-9.65,156.82,156.82,0,0,0-40.87-12.49c0,5.19-.28,10.43-.67,15.67a15.64,15.64,0,0,1,12.49,14.56,30.79,30.79,0,0,1,36.19,23.75c-21.92-12.38-45.17-1.39-57.83,9.76a244.57,244.57,0,0,1-50.52,88.82Zm126.3-52.58a9.79,9.79,0,0,0-5.72.24,9.87,9.87,0,1,0,12.8,11.8,9.82,9.82,0,0,0,.28-3.89,9.67,9.67,0,0,0-1.25-3.7,9.83,9.83,0,0,0-2.59-2.93,10,10,0,0,0-3.52-1.69Zm-46.34,64.74a176.86,176.86,0,0,1,122.68,71.82,108.17,108.17,0,0,1,26.93-12.33c-2-6-3.85-12.21-5.58-18.45-8.81,1.39-16.73-2.24-18.68-8.81s3.46-13.72,11.82-16.73c-.61-2.46-1.22-4.91-1.78-7.36-2-8.65-4.29-16.73-6.69-24.43q-2.4,1-4.69,2.29a55.86,55.86,0,0,1-6.24,3.24c-15.34,7.41-21.41,23.47-12.38,30.22-19.18-1-26.93-16.06-20.46-24.2a54.47,54.47,0,0,1-15.39-3.4,38.57,38.57,0,0,1-15.34-10.49,11.17,11.17,0,0,1-16.73-7.13,72.43,72.43,0,0,1-37.47,25.59Zm282.93,57.26c1.67-15.44-6.64-41.43-41.32-41.37,0,34.51,25.93,42.93,41.32,41.2Zm3.79-60.44c-1.28-4.13-2.51-8.37-3.57-12.66a115.3,115.3,0,0,1-3.06-26.37,117.41,117.41,0,0,1,3.23-27c-6.08-2-12.32-4-18.68-5.58a13,13,0,0,1-10.88,10.38,13,13,0,0,1-13.43-6.77,13,13,0,0,1-.84-10.35l-7.41-1.79c-9-2.06-17.34-4.46-25.43-7-9.81,29.89,5.24,65.35,17.73,82.92a37.43,37.43,0,0,1,35.86,4.74,22.28,22.28,0,0,1,26.54-.73ZM1541.93,709a108.53,108.53,0,0,1-12.32-27c-6,2-12.22,3.85-18.46,5.58,1.39,8.81-2.23,16.73-8.81,18.68s-13.72-3.46-16.73-11.76l-7.36,1.78c-8.64,2-16.73,4.29-24.48,6.69.7,1.58,1.49,3.13,2.34,4.63a67,67,0,0,1,3.24,6.24c7.41,15.34,23.42,21.42,30.22,12.38-1,19.18-16.06,26.93-24.26,20.47a51.76,51.76,0,0,1-3.34,15.39,38.52,38.52,0,0,1-10.48,15.33,11.2,11.2,0,0,1,.75,10.21,11.13,11.13,0,0,1-7.89,6.52,72.47,72.47,0,0,1,25.87,37.47,177,177,0,0,1,71.71-122.9ZM1534.4,673c112.19-39,177.65-104.83,178.1-182.79v-3l-5.58.62-4.63.5a198.76,198.76,0,0,0-59.94,18.62c-27.49,13.27-8.19,45.34,17.85,42.83-8.76,23.14-21.19,22.3-31.06,10.65-6.53,14.66-28.22,5.85-27.88-11.71a14.78,14.78,0,0,1-5.58-18.07,168.79,168.79,0,0,0-38,39.81c9.65,10.32,23.31,15.78,33.46,14.17,0,23.75-35.85,44.94-52.25,24.53-1.56,4.63-2.95,9.37-4.12,14.28a109,109,0,0,0-.34,49.29Zm-238-603.6c20.63,28.49,39.48,70,58,127.13a98.18,98.18,0,0,1,14.83-51.58c7.25-12.66,6.3-39.53-23-30.17,4.9-26.71,57.6-16.72,47.56,12.61a43.29,43.29,0,0,1,26.71,1.45c21.19,7.58,37.3,28.71,41.88,69.53,5.57,47.78,30.72,84.36,51.29,88.15-35.91,20.52-49.4-11.65-52-20.52-3.07-10.53-16.73-7.75-19.52,3.24-14-10.48-13-27.88-7.47-45-26.26,9-51.58-4.68-46.34-35.91,58.77,9.65,44.61-46.84,26.15-54a36.26,36.26,0,0,0-26.32,2.62c-27,13.77-31.5,65.74-22.75,94.4a158.09,158.09,0,0,0,28.72,50.18c7.64-5.57,16.73-5.57,21.41,0s2.73,12.71-2.56,18.9A197,197,0,0,0,1459,329a284.29,284.29,0,0,0,57.82,18.62,26.17,26.17,0,0,1-10-22.69,24.93,24.93,0,0,1,16.73-19.41,11.15,11.15,0,0,1,8.2-20.13c8.92.28,12-15.22,1.89-25.7,21.75,3.23,30,22.81,18,37.64,18.17,2.95,21,26.43,8.3,37.58-.72-9.76-5.57-17.12-18.9-13.61-10.48,2.85-15-2.62-15-9.2a18,18,0,0,0-12.43,13.72c-1.29,10.09,8.47,20.24,24.81,25.76a417.61,417.61,0,0,0,45.89,4.52h5.13c.45-6.3.67-12.6.67-18.85a295,295,0,0,0-17.34-101.54c-10.43-22.3-31.39-12-17.68,3.52-17.9,9.92-42.88-13.61-31.06-26.27-28.38,4.3-24.36-31.22-47-23.36,3.29-27.55,37.81-23.92,46.34-2.79a25.19,25.19,0,0,1,27.38,3.07C1505.29,114.92,1424,68,1325.3,68,1315.32,68.08,1305.79,68.47,1296.42,69.37ZM1089.55,195.89a308,308,0,0,0-17.9,35.68c12.1-7.69,22.86,4.29,22.86,18.74,0,12.32-6.63,25.48-20,39.53,16.29-5,21.69,5.07,25.71,13.61,20,0,20.52,26.7,6.58,38.41-.73-15.66-43-29.05-59.55,6.25a76.55,76.55,0,0,0-5.58,24.09c0,4.07-.33,8.14-.33,12.15,22.86-.39,61.33-5.18,85-29.88,15.06-15.62,22.31-37,21.3-63.57-1.33-37.36-24.81-61.34-49.68-86.43C1095.18,201.68,1092.34,198.78,1089.55,195.89Zm-52-116.26h.28s13.66-10.21,13.66-20.52-13.66-16.73-13.66-16.73h-.28s-13.66,6.47-13.66,16.73S1037.52,79.63,1037.52,79.63Zm-46.28,111a362,362,0,0,1,46.51,140.9,363.7,363.7,0,0,1,46.56-140.9c-19.46-20.69-38.31-44.61-46.56-78.85-8.42,34-27,58-46.51,78.68Zm-13.66,14c-24.87,25.26-48.34,49.07-49.68,86.43-.89,26.59,6.25,47.95,21.3,63.56,23.87,24.71,62.12,29.5,85,29.89,0-4,0-8.09-.34-12.16a76.54,76.54,0,0,0-5.57-24.08c-16.73-35.36-58.83-21.92-59.55-6.25-13.94-11.71-13.38-38.42,6.58-38.42,4-8.53,9.42-18.57,25.7-13.6-13.38-14.05-20-27.21-20-39.54,0-14.44,10.77-26.43,22.87-18.73A315.49,315.49,0,0,0,986,196.05c-2.74,2.73-5.58,5.63-8.37,8.42ZM745,149.88a57.21,57.21,0,0,1,4.85-4.35,46,46,0,0,1,3.79-2.73,85.59,85.59,0,0,1,21-10.65,6.23,6.23,0,0,1-.19-2.61,6.13,6.13,0,0,1,.89-2.46,6.19,6.19,0,0,1,1.83-1.88,6.28,6.28,0,0,1,2.43-1,6.72,6.72,0,0,1,7.59,5.08c13.66-7,26.48-1.29,28.32,4.9-22.58-2.67-30.61,17.51-38,19.46s-13.83-.89-13.22-8.69c-11.54,5.29-23.25,15.22-33.07,42.43Q725,205.47,719,225.77c-.78,2.73-1.68,5.58-2.62,8a165.74,165.74,0,0,1-30.22,52.86,14.72,14.72,0,0,1,1.89,18c-4.29,5.24-13,5.29-20.46.55a202.77,202.77,0,0,1-48.4,30.34,307.67,307.67,0,0,1-79.63,22.91c-5.13.79-10.2,1.51-15.33,2.12A160.4,160.4,0,0,1,585,391.88c-7.41-20,11.15-39.48,29.17-31.39,19.73,8.86,34.18,6,41.7-14.05,14.39,25.37-4.07,57.71-26.48,54,22.3,21.3,26.76,49.52,24.2,79.07a448.69,448.69,0,0,1,25.59,60.33,103.4,103.4,0,0,0,25.2-11.54A178.38,178.38,0,0,1,677,454.11C667.45,384,697.28,347.33,728,328.31c14.72-13.88,28.66-31,34.18-46.89A13.66,13.66,0,0,1,745,282c-6.24-4.52-8.86-13.61-.55-23.37-26.16-4.62-16.73-23,.38-24.36-13.49-18.63,17.63-30.56,26.21-9.87,5.3-7.53,13.89-10.76,20.41-6s6.08,14,.5,21.3c22.31,1.89,20.41,35.12-1.45,27.88C794,282.93,781.7,296.7,770,279.69a105.08,105.08,0,0,1-22.7,38.64c3.46-1.45,6.81-2.67,10-3.73h.45c4.4-1.45,8.47-2.62,12-3.46,38.25-9.31,68-24.25,87.54-43.32a12.9,12.9,0,0,1,6.37-23,12.7,12.7,0,0,1,5,.37,12.89,12.89,0,0,1,4.5,2.26A76.54,76.54,0,0,0,883.79,214c1.45-21.36-3.51-38-14.38-48.07a45.9,45.9,0,0,0-38.64-10.15A29.17,29.17,0,0,0,810.36,167a27.51,27.51,0,0,0-4.52,10c-2.39,20.8,29.22,37.92,19.91,15.5,6.47-11.15,27.43-1.06,23.36-21.24,7.86,4.18,26.66,35.24,4,44.61,1.39,24-52.47,15.16-55-26.55a34.91,34.91,0,0,1,0-4.34A18.51,18.51,0,0,1,767,180.44c9.09,3.9,27.6-2.79,36.07-14.94.62-1,1.23-2,2-3a36.25,36.25,0,0,1,25.09-13.71,52.71,52.71,0,0,1,44.61,11.93A51.7,51.7,0,0,1,889.32,187c7.13-10.82,30.33-13.44,34.06,3.85a29.26,29.26,0,0,0-32.22,25.92,84.07,84.07,0,0,1-11.16,35c7.14,6.35,9.37,15.61,4.85,21.19s-13.82,5.57-21.46,0a172.86,172.86,0,0,1-64.74,37.63,100.39,100.39,0,0,1,54.81,20c26,19.69,40.32,51.25,40.32,88.83,0,39.42-19.24,70.48-46.45,78.4C835,501.28,825,508.36,831,522.75c-13.21-5.13-20.3-14.67-11.71-24.42a33.46,33.46,0,0,1-27.88-35A26.17,26.17,0,0,1,794.69,450c8.87-15.89,37.19-12.83,41.43-1.67s-9.53,21-19.68,17.56a10.32,10.32,0,0,0-6.64-18,14.16,14.16,0,0,0-11.15,15.5c0,13.38,6,29.39,34.79,29.39,30.34,0,53.2-31.56,53.2-73.38,0-35.36-13.33-64.91-37.53-83.2-1.5-1.17-3.23-2.17-4.85-3.23,26.43,25.26,32.51,49.74,21.58,58.88a10.76,10.76,0,0,1-9.54,18.57c-2.95,14.66-20.52,19.57-27.26,1.17,15.33-4.35,18.57-21,4.07-28.94,21.41-19.29,9.81-46.78-15-61.67a108,108,0,0,0-58,.78,126.9,126.9,0,0,0-22.3,9.81c17.06-1.72,33,18.63,10.15,36.25-3.29-30.78-38.59-14-56.49,16a140,140,0,0,0-6.41,69.7,171.83,171.83,0,0,0,26.27,71.15,98.46,98.46,0,0,0,9.2-7.75c21.13-20.85,22.69-38.7,8.75-45.78,20.3-13.88,11.93-28.66,3.23-31-10.65-2.9-18.84,6.8-17.17,20.24-18.18-8.7-17-32.51,2.34-33.46-20.74-12-3.4-37.3,16.73-20.52,1.5-25.42,45.89-25,26.82,9.2,26.43-5.57,26.26,31.12-3,25,14,31.23-12.16,64.46-37.19,85.48-1.86,1.57-3.72,3.07-5.58,4.52a165,165,0,0,0,33.18,34.29c-5.24-14,17.79-21.13,24.76-2.67-1.29-16.23,9.36-37.14,32.56-30.45a40.7,40.7,0,0,0,27.21,67.64A195.83,195.83,0,0,0,858.37,601h11.37a221.8,221.8,0,0,0,36.3-4.69A16.12,16.12,0,0,1,925,587.21c-12.22-6.69-2-30.84,14.27-30.06,10.71.51,20.24,9.37,18.12,20a161.76,161.76,0,0,0,32.18-23.64,130.59,130.59,0,0,0-44.11-28.61c-35.19-10-56.09-6.91-58.77,1.84a8.92,8.92,0,0,0,15.78,7.53c1.73,12.16-16,24.76-26.32,14.05,0,18.74-29.22,9.87-31.06,30.84-11.15-12.55-12.88-40.21,18.29-52.25-5.18-14.66,12.55-23.25,43.44-19.12,4.74.66,9.31,1.45,13.83,2.39-7.31-10.59-8-32.73,15.33-36.85-5,15.39.34,33,19.85,48.28a135.58,135.58,0,0,1,39,26.88,146.73,146.73,0,0,0,38.37-77.12c-12-14.77-38.31-9-46,14.78-27.88-9.53-36.52-36.63-8.14-43.88-4-15.34,13-30,31-21.86,4.35-10.43,17.12-14.39,29.05-12.6,12-1.79,24.76,2.17,29.11,12.6,18-8.14,35,6.58,31,21.86,28.38,7.19,20,34.35-8.14,43.88-7.64-23.75-34-29.55-45.95-14.78a146.73,146.73,0,0,0,38.37,77.12,135.58,135.58,0,0,1,39-26.88c19.51-15.27,24.81-32.89,19.85-48.28,23.31,4.12,22.64,26.26,15.33,36.85,4.52-.94,9.09-1.73,13.83-2.39,30.89-4.13,48.62,4.46,43.44,19.12,31.17,12,29.55,39.7,18.29,52.25-1.84-21-31.23-12.1-31.06-30.84-10.32,10.71-27.88-1.89-26.32-14.05a8.92,8.92,0,0,0,15.78-7.53c-2.68-8.75-23.59-11.87-58.77-1.84a130.59,130.59,0,0,0-44.11,28.61A161.47,161.47,0,0,0,1121,577.17c-2.12-10.65,7.41-19.51,18.12-20,16.23-.78,26.49,23.37,14.27,30.06a16.12,16.12,0,0,1,18.91,9.14,221.8,221.8,0,0,0,36.3,4.69H1220a195.83,195.83,0,0,0,25.15-1.62,40.71,40.71,0,0,0,25.65-68.14c23.19-6.69,33.84,14.22,32.56,30.44,7-18.45,30-11.15,24.76,2.68a165.45,165.45,0,0,0,33.18-34.29q-2.91-2.18-5.58-4.52c-25-21-51.19-54.25-37.19-85.48-29.28,6.14-29.44-30.44-3-25-19.07-34.18,25.31-34.62,26.82-9.2,20.18-16.73,37.52,8.48,16.73,20.52,19.35.95,20.52,24.76,2.34,33.46,1.67-13.44-6.53-23.14-17.18-20.24-8.69,2.34-17.06,17.11,3.24,31.05-13.94,7-12.44,24.87,8.75,45.73a97.18,97.18,0,0,0,9.2,7.75,172,172,0,0,0,26.38-71,139.92,139.92,0,0,0-6.42-69.7c-17.89-30-53.19-46.79-56.48-16-22.86-17.62-6.91-38,10.15-36.24a125.94,125.94,0,0,0-22.31-9.81,107.94,107.94,0,0,0-58-.79c-24.75,14.89-36.35,42.38-14.94,61.68-14.5,8-11.15,24.59,4.07,28.93-6.75,18.41-24.31,13.5-27.27-1.17a10.76,10.76,0,0,1-9.53-18.56c-11.15-9.15-4.85-33.46,21.58-58.89-1.62,1.06-3.35,2.07-4.85,3.24-24.2,18.29-37.53,47.84-37.53,83.19,0,41.82,22.86,73.38,53.2,73.38,28.77,0,34.79-16,34.79-29.38a14.15,14.15,0,0,0-11.15-15.5,10.26,10.26,0,0,0-5.76,1.91,10.31,10.31,0,0,0-.88,16.09c-10.15,3.41-24-6.35-19.68-17.56s32.56-14.22,41.43,1.67a26.24,26.24,0,0,1,3.29,13.33,33.46,33.46,0,0,1-27.88,35c8.59,9.76,1.5,19.29-11.71,24.42,6-14.38-4-21.46-16.34-25-27.21-7.91-46.45-39-46.45-78.39,0-37.64,14.33-69.15,40.32-88.83a100.39,100.39,0,0,1,54.81-20,172.89,172.89,0,0,1-64.9-37.86c-7.64,5.57-17,5.57-21.47,0s-2.29-14.84,4.85-21.19a84,84,0,0,1-11.43-34.91,29.28,29.28,0,0,0-32.23-25.93c3.74-17.28,26.93-14.66,34.07-3.84a51.52,51.52,0,0,1,14.61-26.32,52.69,52.69,0,0,1,44.61-11.93A36.2,36.2,0,0,1,1271.44,162c.72,1,1.34,2,2,3,8.47,12.16,27,18.85,36.08,14.95a18.5,18.5,0,0,1-31.17,4.51,37.09,37.09,0,0,1-.28,4.35c-2.51,41.71-56.38,50.58-55,26.54-22.64-9.53-3.85-40.59,4-44.6-4.07,20.18,16.73,9.81,23.37,21.24-9.32,22.3,22.3,5.58,19.9-15.5a27.54,27.54,0,0,0-4.51-10,29.26,29.26,0,0,0-20.41-11.15,45.79,45.79,0,0,0-38.64,10.15c-11.16,10-15.84,26.71-14.39,48.07A76.8,76.8,0,0,0,1203,247a12.77,12.77,0,0,1,15.78,20c19.58,19.07,49.3,34.07,87.55,43.32,3.51.84,7.58,2,12,3.46h.44c3.24,1.06,6.58,2.29,10,3.74a105,105,0,0,1-22.7-38.65c-11.71,17-24,3.24-20.46-12.15-21.86,7.19-23.75-26-1.45-27.88-5.58-7.3-6-16.73.5-21.3s15.11-1.51,20.41,6c8.59-20.69,39.7-8.75,26.21,9.87,16.73,1.39,26.54,19.74.44,24.37,8.26,9.76,5.58,18.85-.61,23.36a13.65,13.65,0,0,1-17.17-.56c5.57,15.89,19.51,33,34.18,46.9,30.67,19,60.5,55.76,50.91,125.79a178.54,178.54,0,0,1-27.38,74.16,103,103,0,0,0,25.2,11.54,449.29,449.29,0,0,1,25.6-60.33c-2.57-29.55,1.72-57.71,24.2-79.06-22.31,3.73-40.88-28.61-26.49-54,7.53,20.07,22,22.92,41.71,14,18-8.08,36.58,11.15,29.16,31.39A160.32,160.32,0,0,1,1552.08,360c-5.13-.62-10.21-1.34-15.34-2.18a308.19,308.19,0,0,1-80-22.8,202.57,202.57,0,0,1-48.4-30.34c-7.47,4.74-16.17,4.69-20.47-.56a14.71,14.71,0,0,1,1.9-18,165.34,165.34,0,0,1-30.22-52.86c-1-2.62-1.84-5.24-2.62-8q-6-20.36-12.16-38.36c-9.81-27.21-21.52-37.14-33.06-42.44.61,7.81-6,10.54-13.22,8.7s-15.44-22.3-38-19.46c1.84-6.19,14.67-11.93,28.33-4.9a6.7,6.7,0,0,1,7.58-5.08,6.38,6.38,0,0,1,2.44,1,6.22,6.22,0,0,1,2.52,7,85.41,85.41,0,0,1,21,10.65,42.3,42.3,0,0,1,3.79,2.73,57.21,57.21,0,0,1,4.85,4.35,339.56,339.56,0,0,0-42.21-79.9,292.22,292.22,0,0,0-55.48,11.15c21.92,3.23,22.31,30.16,12.16,39.87-11.15,10.76-37.92,11.15-43.89-3.18,0,21.69-27.49,27.88-46.16,27.88-20.25,0-36.42,9.7-51.08,28.21-2.34,3.29-4.68,6.64-6.91,10a137.26,137.26,0,0,0,29.32,17.23,50.73,50.73,0,0,1,29.39,66.63c30.84,13.66,36.86,80.35-9.76,80.35,14.33,14.28,25.71,78.07-4,93.07,6.69-18.8,6.63-41.21-6.75-43.16-11.15-1.67-21.91,0-14.83-20.63-13.89,14.55-32.51,16.72-53,11.65a200,200,0,0,1-58.83,0c-20.46,5.24-39,2.9-53-11.65,7.08,20.63-3.52,19-14.83,20.63-13.39,1.95-13.44,24.36-6.81,43.16-29.66-15.12-18.29-78.79-3.9-93.07-46.67,0-40.65-66.91-9.81-80.35A50.73,50.73,0,0,1,950,200.68a137.33,137.33,0,0,0,29.33-17.23c-2.23-3.4-4.57-6.75-6.91-10-14.67-18.51-30.84-28.21-51.08-28.21-18.68,0-46.17-6.25-46.17-27.88-6,14.44-32.51,13.94-43.88,3.18-10.2-9.71-9.76-36.64,12.15-39.87a292.06,292.06,0,0,0-55.48-11.15A340,340,0,0,0,745,149.88ZM1313.7,259a4.51,4.51,0,1,0,.28,0Zm-537.8-2.29a9.92,9.92,0,1,0-6.68,4.32,10.46,10.46,0,0,0,7-4.32Zm-290.9,81c0,6.25.28,12.55.73,18.85h5.12A417.61,417.61,0,0,0,536.74,352c16.34-5.57,26.1-15.67,24.82-25.76a18,18,0,0,0-12.44-13.72c0,6.58-4.51,12.05-15,9.2-13-3.51-18.17,3.85-18.9,13.61-12.66-11.15-9.87-34.63,8.31-37.58-12-14.83-3.74-34.41,18-37.64-10.15,10.48-7,26,1.9,25.71A11.15,11.15,0,0,1,551.63,306a24.89,24.89,0,0,1,16.73,19.4,26.1,26.1,0,0,1-10,22.69,283.84,283.84,0,0,0,58.39-18.84,196.91,196.91,0,0,0,45.88-28.61c-5.57-6.19-6.57-14-2.56-18.9s13.77-5.58,21.41,0a157.9,157.9,0,0,0,28.72-50.18c8.75-28.67,4.24-80.63-22.75-94.41a36.35,36.35,0,0,0-26.32-2.62c-18.46,7.14-32.62,63.62,26.15,54,5.24,31.22-20.07,44.61-46.34,35.91,5.58,16.73,6.58,34.51-7.47,45-2.56-11.16-16.45-13.78-19.51-3.24-2.57,8.87-16.06,41-52,20.52,20.57-3.79,45.83-40.37,51.3-88.15,4.57-40.82,20.68-61.95,41.87-69.54a43.43,43.43,0,0,1,26.71-1.45c-10-29.33,42.66-39,47.57-12.6-29.28-9.37-30.23,17.51-23,30.17a98.08,98.08,0,0,1,14.83,51.57c18.52-57.09,37.36-98.63,58-127.13-9.36-.78-18.9-1.28-28.88-1.28-98.69,0-180,47-225.44,122a25.19,25.19,0,0,1,27.38-3.07c8.53-21.13,43.05-24.76,46.34,2.79-22.58-7.86-18.57,27.88-46.95,23.36,11.82,12.66-13.16,36.19-31.06,26.26C534.35,224,513.38,214,503,236a294.81,294.81,0,0,0-17.67,101.65ZM363.22,468.22v11.15l6.52,1.39c16.06,2.12,28.55,1.67,37.14-6a15.56,15.56,0,0,0-7.3-27.88c-8.54-.51-11.49,5-8.54,9.53-13.77.5-7.19-29.5,13.61-23.47,2.17-14.28,40.7,5,16.06,37.13a42.42,42.42,0,0,1-20.47,16.23,243.72,243.72,0,0,1,63.12,24.75,182.28,182.28,0,0,1,59.11,53.26,40.72,40.72,0,0,0,4.13-37.42A40.69,40.69,0,0,0,564,522.8a180.94,180.94,0,0,1-53.25-59.1A243.49,243.49,0,0,1,486,400.64,42.05,42.05,0,0,1,469.72,421c-32.06,24.65-51.35-13.88-37.08-16.06-6-20.79,24-27.37,23.48-13.55-4.52-3-10,0-9.54,8.54a15.56,15.56,0,0,0,27.88,7.25c7.58-8.59,8.09-21.08,6-37.14-.45-2.12-.95-4.3-1.4-6.53H467.88c-52.75,0-98.3-7.86-118.66-14.21,6.42,20.57,14.28,66.13,14.28,118.88ZM69,779.41c28.49-20.63,70.09-39.48,127.13-58a98.35,98.35,0,0,1-51.57-14.83c-12.66-7.19-39.48-6.3-30.12,23-26.7-4.9-16.72-57.6,12.61-47.51a42.47,42.47,0,0,1,1.45-26.7c7.64-21.14,28.77-37.25,69.59-41.88,47.78-5.57,84.36-30.72,88.15-51.3,20.52,35.91-11.65,49.41-20.57,52-10.49,3.07-7.7,16.73,3.29,19.52-10.49,14.05-27.88,13-45,7.47,9,26.26-4.74,51.57-36,46.39,9.71-58.77-46.78-44.61-53.92-26.21a36.3,36.3,0,0,0,2.62,26.32c13.78,27,65.74,31.56,94.41,22.75a157.65,157.65,0,0,0,50.46-28.71c-5.58-7.64-5.58-16.73,0-21.42a15,15,0,0,1,18.84,2.57,195.27,195.27,0,0,0,28.67-45.89,289.07,289.07,0,0,0,18.4-57.77,25.93,25.93,0,0,1-22.64,10,24.89,24.89,0,0,1-19.41-16.73,11.15,11.15,0,0,1-20.13-8.25c.28-8.93-15.22-12-25.7-1.9,3.23-21.74,22.8-30,37.58-18,3-18.12,26.49-20.91,37.64-8.31-9.82.73-17.12,5.91-13.61,18.91,2.85,10.48-2.62,15.05-9.2,15a17.93,17.93,0,0,0,13.72,12.44c10.09,1.28,20.18-8.42,25.76-24.76A449.7,449.7,0,0,0,356,491.69v-5.13c-6.36-.5-12.61-.72-18.85-.72A295.87,295.87,0,0,0,235.59,503.4c-22,10.43-12.05,31.39,3.51,17.73,9.92,17.84-13.61,42.88-26.26,31,4.29,28.38-31.23,24.36-23.37,47-27.54-3.3-23.92-37.75-2.79-46.34a25.24,25.24,0,0,1,3.07-27.38C114.7,570.87,67.8,652.11,67.8,750.81,67.8,760.51,68.31,770.05,69,779.41Zm121.11,305.18A363.94,363.94,0,0,1,331,1038.08a363.08,363.08,0,0,1-140.85-46.56c-20.69,19.46-44.61,38.31-78.84,46.56C145.37,1046.28,169.45,1065.18,190.14,1084.59Zm41.15-12.66a308,308,0,0,0-35.68,17.9l8.58,8.42c25.21,24.87,49,48.34,86.43,49.68,26.54,1,47.95-6.25,63.57-21.3,24.7-23.87,29.44-62.12,29.88-85l-12.21.34a76.51,76.51,0,0,0-24,5.57c-35.35,16.73-21.91,58.83-6.25,59.55-11.76,13.94-38.41,13.44-38.41-6.52-8.53-4.07-18.57-9.48-13.61-25.76-14.05,13.44-27.26,20-39.59,20-14.38-.06-26.43-10.82-18.68-22.7Zm152.78-37.47c-.44-22.86-5.18-61.34-29.88-84.92-15.62-15.11-37-22.31-63.57-21.3-37.41,1.28-61.33,24.75-86.43,49.62l-8.58,8.48a307.6,307.6,0,0,0,35.68,17.84c-7.75-12,4.3-22.86,18.68-22.86,12.33,0,25.54,6.63,39.59,20-5-16.29,5.08-21.69,13.61-25.71,0-20,26.65-20.52,38.41-6.52-15.66.72-29.1,43,6.25,59.55a77.08,77.08,0,0,0,24,5.58C375.93,1034.29,380.06,1034.46,384.07,1034.46Zm-27.88,555.37v-5.13a435.42,435.42,0,0,0-4.51-45.89c-5.58-16.34-15.67-26.1-25.76-24.82a18.06,18.06,0,0,0-13.72,12.44c6.58,0,12,4.57,9.2,15-3.51,13,3.79,18.18,13.61,18.9-11.16,12.66-34.63,9.87-37.64-8.31-14.78,12-34.35,3.74-37.58-18,10.48,10.15,26,7,25.7-1.84a11.15,11.15,0,0,1,20.13-8.25,24.85,24.85,0,0,1,19.4-16.73,26.32,26.32,0,0,1,22.7,10.09,291.15,291.15,0,0,0-18.62-57.88,195.47,195.47,0,0,0-28.67-45.89,14.87,14.87,0,0,1-18.84,2.57c-5.58-4.41-5.3-13.72,0-21.36A157.71,157.71,0,0,0,231.13,1366c-28.67-8.75-80.63-4.18-94.41,22.81A36.19,36.19,0,0,0,134.1,1415c7.08,18.46,63.63,32.62,53.92-26.15,31.23-5.19,44.94,20.07,36,46.33,17-5.57,34.51-6.52,45,7.53-11.16,2.57-13.78,16.4-3.29,19.46,8.92,2.57,41.09,16.12,20.57,52-3.79-20.58-40.37-45.83-88.21-51.24-40.76-4.63-61.89-20.75-69.53-41.93a42.57,42.57,0,0,1-1.45-26.71c-29.33,10.09-39-42.66-12.61-47.57-9.36,29.33,17.46,30.22,30.12,23a97.73,97.73,0,0,1,51.57-14.78c-57-18.51-98.64-37.42-127.13-58.05-.72,9.37-1.23,18.91-1.23,28.89,0,98.75,46.9,180,122,225.43a25.09,25.09,0,0,1-3.07-27.32c-21.13-8.58-24.75-43.1,2.79-46.33-7.86,22.58,27.88,18.51,23.37,46.89,12.65-11.82,36.18,13.16,26.26,31.06-15.56-13.66-25.54,7.25-3.51,17.67a294.74,294.74,0,0,0,101.81,17.57c6.08,0,12.49-.45,18.85-.89Zm1.9-53.53c.78,5.13,1.56,10.2,2.18,15.33a160.46,160.46,0,0,1,31.05-61.06c-20,7.48-39.47-11.15-31.39-29.16,8.87-19.68,6-34.12-14.05-41.71,25.37-14.38,57.71,4.07,53.92,26.49,21.35-22.3,49.57-26.77,79.12-24.2a446.13,446.13,0,0,1,60.33-25.59,103.46,103.46,0,0,0-11.54-25.21,177.94,177.94,0,0,1-74.16,27.38c-70.2,9.59-106.84-20.24-125.79-50.91-13.89-14.66-31.06-28.66-46.9-34.18a13.77,13.77,0,0,1,.56,17.23c-4.52,6.19-13.66,8.81-23.36.56-4.69,26.09-23,16.45-24.37-.45-18.68,13.5-30.56-17.62-9.87-26.2-7.53-5.25-10.76-13.89-6-20.41s13.94-6.08,21.24-.5c1.9-22.31,35.19-20.41,27.88,1.44,15.34-3.51,29.16,8.76,12.16,20.47a104.89,104.89,0,0,1,38.64,22.75c-1.45-3.51-2.68-6.86-3.79-10.09a1.46,1.46,0,0,1,0-.51c-1.45-4.34-2.62-8.42-3.46-12-9.31-38.26-24.25-68-43.32-87.49a12.77,12.77,0,0,1-20-15.84,77.51,77.51,0,0,0-33.74-10.59c-21.41-1.45-38,3.51-48.12,14.38a45.9,45.9,0,0,0-10.09,38.65,29.37,29.37,0,0,0,11.15,20.4,28.1,28.1,0,0,0,10.09,4.52c20.8,2.4,37.92-29.22,15.51-19.91-11.44-6.46-1.06-27.37-21.25-23.3,4.18-7.87,35.24-26.71,44.61-4.07,24-1.4,15.17,52.47-26.54,55a33.44,33.44,0,0,1-4.35.28,18.51,18.51,0,0,1-4.52,31.17c3.91-9.08-2.79-27.6-14.94-36-1-.61-2-1.22-3-2a36,36,0,0,1-13.78-25,53.13,53.13,0,0,1,11.94-44.61,52,52,0,0,1,26.37-14.56c-10.82-7.19-13.44-30.39,3.85-34.12A29.2,29.2,0,0,0,216.24,1185a84.26,84.26,0,0,1,35,11.43c6.35-7.08,15.61-9.31,21.19-4.85s5.29,13.83,0,21.47a173,173,0,0,1,37.3,65.46,101.56,101.56,0,0,1,20-54.81c19.69-26,51.25-40.26,88.88-40.26,39.43,0,70.48,19.18,78.4,46.39,3.52,12.38,10.54,22.31,24.93,16.34-5.08,13.22-14.67,20.3-24.37,11.77a33.46,33.46,0,0,1-35,27.88,26.19,26.19,0,0,1-13.33-3.29c-15.89-8.87-12.82-37.19-1.67-41.43s21,9.59,17.56,19.68a10.32,10.32,0,0,0-18,6.69,14.1,14.1,0,0,0,15.5,11.15c13.39,0,29.39-6,29.39-34.79,0-30.33-31.56-53.19-73.38-53.19-35.35,0-64.91,13.32-83.25,37.52-1.17,1.56-2.12,3.24-3.18,4.85,25.26-26.43,49.74-32.5,58.88-21.58,6.19-8.25,20-2.73,18.52,9.54,14.72,2.95,19.57,20.57,1.22,27.27-4.4-15.34-21-18.52-28.94-4.07-19.29-21.36-46.78-9.82-61.67,14.94a108,108,0,0,0,.78,58,128.78,128.78,0,0,0,9.82,22.3c-1.73-17.11,18.62-33.06,36.24-10.2-30.78,3.29-14,38.59,16,56.48a138.64,138.64,0,0,0,69.69,6.42,171.78,171.78,0,0,0,71.15-26.27,95,95,0,0,0-7.8-9.2c-20.8-21.13-38.64-22.69-45.73-8.75-13.88-20.3-28.66-11.93-31-3.23-2.9,10.64,6.81,18.84,20.24,17.22-8.75,18.13-32.5,16.73-33.45-2.39-12.05,20.74-37.36,3.4-20.52-16.73-25.43-1.51-25-45.89,9.2-26.82-5.58-26.38,31.11-26.27,25,3,31.17-14,64.46,12.15,85.42,37.19,1.56,1.84,3.07,3.74,4.46,5.58A164,164,0,0,0,564,1328.54c-14,5.18-21.19-17.85-2.67-24.82-16.23,1.29-37.2-9.37-30.45-32.56A40.71,40.71,0,0,0,598.53,1244a197.6,197.6,0,0,0,1.61-25.14v-11.43a220.7,220.7,0,0,0-4.68-36.3,16,16,0,0,1-9.14-18.91c-6.7,12.21-30.84,2-30.06-14.27.5-10.71,9.37-20.24,20-18.12a161.47,161.47,0,0,0-23.64-32.18A131.5,131.5,0,0,0,524,1131.76c-10.09,35.18-6.91,56.09,1.79,58.77a8.92,8.92,0,0,0,7.58-15.78c12.15-1.73,24.76,16.06,14,26.32,18.79,0,9.92,29.22,30.89,31.06-12.55,11.15-40.21,12.88-52.25-18.24-14.67,5.19-23.25-12.6-19.13-43.49.62-4.74,1.45-9.31,2.35-13.77-10.54,7.3-32.74,7.92-36.81-15.39,15.39,5,33-.34,48.29-19.85a137.13,137.13,0,0,1,26.88-39,147.37,147.37,0,0,0-77.56-38.09c-14.78,12-9,38.31,14.72,46-9.54,27.88-36.64,36.52-43.83,8.19-15.34,3.91-30-13.1-21.86-31-10.48-4.4-14.39-17.17-12.6-29.1-1.79-12,2.12-24.76,12.6-29.11-8.14-18,6.52-35,21.86-31,7.19-28.39,34.29-20,43.83,8.14-23.7,7.64-29.5,33.95-14.72,45.94a146.79,146.79,0,0,0,77.11-38.36,135.35,135.35,0,0,1-26.87-39C505,935.43,487.4,930.07,472,935c4.07-23.31,26.26-22.64,36.8-15.34-.89-4.51-1.73-9.08-2.34-13.82-4.13-30.9,4.46-48.63,19.12-43.44,12-31.17,39.7-29.5,52.25-18.29-21,1.84-12.1,31.23-30.89,31.06,10.76,10.31-1.84,27.88-14,26.32a8.87,8.87,0,0,0-7.58-15.73c-8.7,2.62-11.88,23.59-1.78,58.72a130.38,130.38,0,0,0,28.6,44.1,157.38,157.38,0,0,0,23.59-32.17c-10.6,2.12-19.46-7.42-20-18.12-.79-16.23,23.36-26.43,30-14.28a16,16,0,0,1,9.14-18.9,220.71,220.71,0,0,0,4.69-36.3V857.48a195.83,195.83,0,0,0-1.62-25.15,40.76,40.76,0,0,0-67.64-27.21c-6.74-23.2,14.22-33.85,30.45-32.57-18.51-7-11.15-30,2.68-24.75a163,163,0,0,0-34.35-33.13c-1.4,2-2.9,3.8-4.46,5.58-21,25.09-54.26,51.19-85.43,37.19,6.14,29.28-30.44,29.44-25,3-34.18,19.07-34.62-25.31-9.2-26.82-16.73-20.18,8.48-37.52,20.52-16.73.95-19.29,24.7-20.51,33.46-2.34-13.44-1.67-23.14,6.53-20.24,17.18,2.34,8.7,17.12,17.06,31-3.24,7.08,13.94,24.92,12.44,45.72-8.7a93.93,93.93,0,0,0,7.81-9.2,171.24,171.24,0,0,0-71.15-26.31,139.8,139.8,0,0,0-69.7,6.41c-30,17.9-46.78,53.19-16,56.48-17.62,22.92-38,6.92-36.25-10.14a130.27,130.27,0,0,0-9.81,22.3,108,108,0,0,0-.78,58c14.88,24.76,42.38,36.35,61.67,15,7.92,14.44,24.53,11.15,28.94-4.13,18.34,6.75,13.49,24.31-1.23,27.27,1.51,12.32-12.32,17.79-18.51,9.59-9.15,11.15-33.46,4.85-58.88-21.58,1,1.62,2,3.29,3.17,4.85,18.35,24.15,47.9,37.47,83.25,37.47,41.82,0,73.38-22.86,73.38-53.19,0-28.78-16-34.8-29.38-34.8A14.16,14.16,0,0,0,446.64,809a10.32,10.32,0,0,0,18,6.7c3.4,10.09-6.42,23.92-17.57,19.68s-14.22-32.62,1.68-41.43a26.17,26.17,0,0,1,13.32-3.29,33.46,33.46,0,0,1,35,27.88c9.71-8.53,19.3-1.51,24.37,11.71-14.39-6-21.41,4-24.92,16.34-7.92,27.26-39,46.44-78.4,46.44-37.64,0-69.2-14.32-88.88-40.31a101.39,101.39,0,0,1-20-54.81,172.77,172.77,0,0,1-37.58,64.74c5.58,7.63,5.58,17,0,21.46s-14.83,2.29-21.19-4.85a83.87,83.87,0,0,1-35,11.15,29.25,29.25,0,0,0-25.93,32.29c-17.28-3.74-14.66-27-3.84-34.13a51.74,51.74,0,0,1-26.38-14.61,53.05,53.05,0,0,1-11.93-44.6,36.16,36.16,0,0,1,13.77-25.09,28.7,28.7,0,0,1,3-1.9c12.16-8.48,18.85-27,14.95-36.08a18.5,18.5,0,0,1,4.51,31.17,35.08,35.08,0,0,1,4.35,0c41.71,2.51,50.52,56.38,26.54,55C205,875,174,856.25,170,848.39c20.18,4.07,9.81-16.73,21.24-23.37,22.31,9.32,5.3-22.3-15.5-19.9a28.18,28.18,0,0,0-10.09,4.51A29.57,29.57,0,0,0,154.46,830a45.78,45.78,0,0,0,10.09,38.64c10.09,10.88,26.71,15.84,48.12,14.39a76.83,76.83,0,0,0,33.73-10.59,12.77,12.77,0,0,1,20-15.78c19.07-19.52,34-49.24,43.33-87.49.83-3.57,2-7.64,3.45-12.05a1.62,1.62,0,0,1,0-.44c1.12-3.18,2.35-6.58,3.79-10a104.64,104.64,0,0,1-38.64,22.7c16.73,11.7,3.18,24-12.15,20.46,7.19,21.91-26.1,23.75-27.88,1.45-7.36,5.57-16.73,6-21.3-.5s-1.51-15.11,6-20.41c-20.69-8.59-8.81-39.65,9.87-26.21,1.39-16.73,19.68-26.54,24.37-.39,9.7-8.31,18.84-5.57,23.36.56a13.77,13.77,0,0,1-.56,17.23c15.84-5.58,33-19.52,46.9-34.24,18.95-30.61,55.76-60.44,125.79-50.91a178.54,178.54,0,0,1,74.16,27.38,103.4,103.4,0,0,0,11.54-25.2A445.47,445.47,0,0,1,479,654c-29.56,2.62-57.77-1.67-79.13-24.14,3.8,22.3-28.55,40.87-53.92,26.48,20.08-7.58,22.92-22,14.06-41.7-8.09-18.07,11.15-36.64,31.39-29.17a160.11,160.11,0,0,1-31.06-61.33c-.61,5.13-1.39,10.2-2.17,15.33a308,308,0,0,1-22.81,80A201.9,201.9,0,0,1,305,667.84c4.74,7.47,4.68,16.17-.56,20.46a14.67,14.67,0,0,1-18-1.9,165.47,165.47,0,0,1-52.86,30.23h-.28c-2.62.89-5.3,1.78-8,2.56-13.55,4.07-26.32,8.09-38.37,12.16-27.21,9.81-37.13,21.52-42.43,33.06,7.75-.61,10.54,6,8.64,13.22s-22.3,15.44-19.4,38c-6.19-1.84-11.94-14.67-4.91-28.33a6.68,6.68,0,0,1-5.07-7.58,6.21,6.21,0,0,1,1-2.44,6.31,6.31,0,0,1,1.88-1.83,6.29,6.29,0,0,1,5.08-.7,85.49,85.49,0,0,1,10.64-21c.84-1.28,1.73-2.51,2.74-3.79a47.1,47.1,0,0,1,4.35-4.8A337.06,337.06,0,0,0,69.7,787.78a293.49,293.49,0,0,0,11.15,55.76c3.18-22,30.17-22.31,39.87-12.16,10.76,11.15,11.15,37.86-3.18,43.83,21.69,0,27.88,27.49,27.88,46.17,0,20.24,9.7,36.41,28.16,51.07,3.35,2.34,6.69,4.69,10.09,6.92A134.6,134.6,0,0,0,200.85,950a50.79,50.79,0,0,1,66.63-29.39c13.66-30.83,80.41-36.85,80.35,9.82,14.33-14.39,78.06-25.71,93.12,4-18.79-6.7-41.21-6.64-43.16,6.74-1.67,11.15,0,22-20.63,14.83,14.55,13.89,16.73,32.51,11.65,53a200.33,200.33,0,0,1,0,58.88c5.24,20.41,2.9,39-11.65,53,20.63-7.14,19,3.46,20.63,14.78,1.95,13.38,24.37,13.43,43.16,6.8-15.17,29.66-78.79,18.29-93.06,4,0,46.61-66.92,40.59-80.41,9.76a50.79,50.79,0,0,1-66.63-29.39,136.06,136.06,0,0,0-17.18-29.33c-3.4,2.23-6.74,4.57-10.09,7-18.46,14.61-28.16,30.78-28.16,51,0,18.68-6.24,46.17-27.88,46.17,14.44,6,13.94,32.51,3.18,43.88-9.7,10.21-36.69,9.82-39.87-12.15a293.34,293.34,0,0,0-11.15,55.76,341,341,0,0,0,79.9,42.15,55.43,55.43,0,0,1-4.34-4.85c-1-1.28-1.9-2.56-2.74-3.79a87.68,87.68,0,0,1-10.93-21.8,6.39,6.39,0,0,1-2.61.17,6.29,6.29,0,0,1-5.3-5.19,6.68,6.68,0,0,1,5.07-7.58c-7-13.67-1.28-26.49,4.91-28.33-2.74,22.58,17.5,30.61,19.4,38.08s-.89,13.78-8.64,13.22c5.29,11.49,15.22,23.2,42.43,33q18.08,6.07,38.36,12.15c2.68.84,5.58,1.68,8,2.63h.28a163.36,163.36,0,0,1,52.86,30.22,14.67,14.67,0,0,1,18-1.9c5.24,4.24,5.3,13,.55,20.41a202.77,202.77,0,0,1,30.34,48.4,308.39,308.39,0,0,1,22.92,80.24ZM258.73,761.85a10.44,10.44,0,1,0,.48,11.61,10.37,10.37,0,0,0,1.41-3.83,10.57,10.57,0,0,0-.17-4.08A10.35,10.35,0,0,0,258.73,761.85Zm-2.29,537.8a10.48,10.48,0,1,0,2.29,14.61,10.35,10.35,0,0,0,1.72-3.7,10.57,10.57,0,0,0,.17-4.08,10.3,10.3,0,0,0-1.41-3.83A10.57,10.57,0,0,0,256.44,1299.65ZM480.32,1706c2.11-16.06,1.61-28.55-6-37.08a15.56,15.56,0,0,0-27.88,7.25c-.5,8.53,5,11.54,9.54,8.53.5,13.77-29.5,7.19-23.48-13.6-14.27-2.12,5-40.71,37.08-16.06a42.14,42.14,0,0,1,16.28,20.46,243.9,243.9,0,0,1,24.87-63.12A181.07,181.07,0,0,1,564,1553.3a40.89,40.89,0,0,0-37.41-4.12,40.71,40.71,0,0,0-4.13-37.42,181.68,181.68,0,0,1-59.11,53.31,243.59,243.59,0,0,1-63.12,24.7,42.54,42.54,0,0,1,20.47,16.28c24.64,32.06-13.89,51.36-16.06,37.14-20.8,6-27.38-24-13.61-23.53-3,4.51,0,10,8.54,9.53a15.56,15.56,0,0,0,7.3-27.88c-8.59-7.58-21.08-8.08-37.14-6l-6.52,1.39v11.15c0,52.75-7.86,98.25-14.22,118.6,20.35-6.35,65.91-14.21,118.66-14.21h11.15c.45-2.18.95-4.35,1.39-6.53ZM779.13,2006.8c-20.63-28.49-39.47-70.09-58-127.13a98.26,98.26,0,0,1-14.83,51.57c-7.25,12.66-6.3,39.54,23,30.17-4.9,26.71-57.6,16.73-47.56-12.6a43.43,43.43,0,0,1-26.71-1.45c-21.19-7.64-37.3-28.77-41.87-69.53-5.58-47.79-30.73-84.42-51.3-88.22,35.91-20.46,49.4,11.66,52,20.58,3.07,10.48,16.73,7.7,19.52-3.29,14,10.48,13,27.88,7.47,45,26.27-8.92,51.58,4.74,46.34,36-58.77-9.64-44.61,46.84-26.15,53.92a36.29,36.29,0,0,0,26.32-2.56c27-13.83,31.5-65.8,22.75-94.46a158.65,158.65,0,0,0-28.72-50.46c-7.64,5.57-17,5.57-21.41,0a15,15,0,0,1,2.56-18.9,195.14,195.14,0,0,0-45.77-28.55,287.78,287.78,0,0,0-57.83-18.57,26.16,26.16,0,0,1,10,22.64,24.89,24.89,0,0,1-16.73,19.4,11.16,11.16,0,0,1-8.2,20.19c-8.92,0-12,15.16-1.89,25.65-21.75-3.24-30-22.75-18-37.59-18.18-3-21-26.43-8.31-37.58.72,9.76,5.57,17.12,18.9,13.55,10.48-2.84,15.06,2.62,15,9.2A18,18,0,0,0,562.12,1750c1.28-10.1-8.48-20.19-24.82-25.77a449.4,449.4,0,0,0-45.89-4.51h-5.13c-.44,6.3-.72,12.6-.72,18.79a294.51,294.51,0,0,0,17.56,101.82c10.43,22,31.39,12,17.68-3.52,17.9-9.92,42.88,13.61,31.06,26.32,28.38-4.35,24.36,31.17,46.95,23.31-3.29,27.55-37.81,23.92-46.34,2.79a25.09,25.09,0,0,1-27.38-3.07c45.44,75,126.74,122,225.44,122C760.23,2008.08,769.77,2007.52,779.13,2006.8ZM986,1880.28a309.65,309.65,0,0,0,17.9-35.74c-12.1,7.75-22.86-4.3-22.86-18.68,0-12.32,6.63-25.54,20-39.53-16.28,4.9-21.69-5.08-25.71-13.61-20,0-20.52-26.71-6.58-38.48.73,15.67,43.05,29.11,59.55-6.18a76.61,76.61,0,0,0,5.58-24.09c0-4.07.33-8.14.33-12.21-22.86.44-61.33,5.18-85,29.88-15.06,15.62-22.31,37-21.3,63.57,1.33,37.42,24.81,61.34,49.68,86.43C980.37,1874.48,983.22,1877.33,986,1880.28Zm52,116.43h-.28s-13.66,10.2-13.66,20.46,13.66,16.73,13.66,16.73h.28s13.66-6.47,13.66-16.73S1038,1996.71,1038,1996.71Zm46.28-111a363.26,363.26,0,0,1-46.56-140.9,362.3,362.3,0,0,1-46.51,140.9c19.46,20.64,38.31,44.61,46.51,78.79C1046.06,1930.46,1064.85,1906.38,1084.31,1885.74Zm13.66-14.1c24.87-25.21,48.34-49,49.68-86.43.89-26.54-6.24-48-21.3-63.57-23.87-24.7-62.12-29.44-85-29.88,0,4.07,0,8.14.34,12.21a76.6,76.6,0,0,0,5.57,24.09c16.73,35.29,58.83,21.85,59.55,6.18,13.94,11.77,13.39,38.48-6.58,38.48-4,8.53-9.42,18.51-25.7,13.61,13.38,14,20,27.21,20,39.53,0,14.38-10.76,26.43-22.86,18.68a311.19,311.19,0,0,0,17.89,35.74Zm232.46,54.59a57.21,57.21,0,0,1-4.85,4.35,44.39,44.39,0,0,1-3.79,2.73,85.59,85.59,0,0,1-21,10.65,6.19,6.19,0,0,1-5,7.92,6.71,6.71,0,0,1-4.79-1.05,6.64,6.64,0,0,1-2.79-4c-13.66,7-26.49,1.28-28.33-4.9,22.58,2.73,30.61-17.51,38-19.41s13.83.89,13.21,8.64c11.55-5.29,23.26-15.22,33.07-42.43q6.13-18.06,12.16-38.36c.78-2.68,1.67-5.3,2.62-7.92v-.33a164.44,164.44,0,0,1,30.22-52.81,14.84,14.84,0,0,1-1.9-18.07c4.3-5.24,13-5.29,20.47-.5a201.23,201.23,0,0,1,48.4-30.39,310.28,310.28,0,0,1,80-22.75c5.13-.78,10.21-1.56,15.34-2.17a159.49,159.49,0,0,1-61.06-31.06c7.41,20-11.15,39.53-29.16,31.39-19.74-8.81-34.19-6-41.71,14-14.39-25.37,4.07-57.71,26.48-53.92-22.3-21.35-26.76-49.57-24.2-79.12a448.06,448.06,0,0,1-25.59-60.28,101.08,101.08,0,0,0-25.2,11.49,178.9,178.9,0,0,1,27.37,74.16c9.59,70.2-20.24,106.84-50.9,125.85-14.73,13.89-28.67,31-34.19,46.84a13.73,13.73,0,0,1,17.18-.56c6.24,4.52,8.86,13.66.61,23.37,26.1,4.68,16.45,23-.44,24.36,13.49,18.68-17.62,30.56-26.21,9.87-5.24,7.59-13.89,10.76-20.41,6s-6.08-13.94-.5-21.24c-22.31-1.9-20.41-35.13,1.45-27.88-3.57-15.33,8.75-29.16,20.46-12.1a106,106,0,0,1,22.7-38.7c-3.46,1.45-6.81,2.73-10,3.79h-.45c-4.4,1.45-8.47,2.57-12,3.46-38.26,9.26-68,24.2-87.55,43.27a12.77,12.77,0,0,1-15.78,20.07,76.52,76.52,0,0,0-10.59,33.74c-1.45,21.36,3.51,38,14.38,48.07a45.9,45.9,0,0,0,38.65,10.09,29.12,29.12,0,0,0,20.4-11.15,27.88,27.88,0,0,0,4.52-10c2.4-20.8-29.22-38-19.91-15.5-6.46,11.15-27.43,1-23.36,21.24-7.86-4.18-26.65-35.29-4-44.61-1.4-24,52.47-15.11,55,26.55a36,36,0,0,1,.27,4.4,18.51,18.51,0,0,1,31.17,4.46c-9.09-3.9-27.6,2.79-36.07,14.94a35.34,35.34,0,0,1-2,3,36.21,36.21,0,0,1-25.1,13.77,52.88,52.88,0,0,1-44.6-11.93,51.78,51.78,0,0,1-14.61-26.32c-7.14,10.76-30.34,13.38-34.07-3.85a29.29,29.29,0,0,0,32.23-26,83.65,83.65,0,0,1,11.82-34.52c-7.14-6.41-9.37-15.67-4.85-21.24s13.83-5.25,21.46,0A172.07,172.07,0,0,1,1278,1766a101.37,101.37,0,0,1-54.81-20c-26-19.69-40.32-51.25-40.32-88.89,0-39.42,19.24-70.48,46.45-78.39,12.38-3.52,22.31-10.54,16.34-24.93,13.22,5.13,20.3,14.67,11.71,24.37a33.46,33.46,0,0,1,27.88,35,26,26,0,0,1-3.29,13.33c-8.87,15.89-37.19,12.82-41.43,1.67s9.54-20.91,19.68-17.56a10.32,10.32,0,0,0,6.64,18,14.17,14.17,0,0,0,11.15-15.51c0-13.38-6-29.33-34.79-29.33-30.34,0-53.2,31.51-53.2,73.33,0,35.35,13.33,64.9,37.53,83.25,1.5,1.17,3.23,2.12,4.85,3.18-26.43-25.26-32.51-49.74-21.58-58.89-8.25-6.19-2.73-20,9.54-18.51,3-14.72,20.52-19.57,27.26-1.17-15.33,4.35-18.57,21-4.07,28.89-21.41,19.29-9.81,46.78,15,61.66a108,108,0,0,0,58-.72,135.4,135.4,0,0,0,22.3-9.81c-17.06,1.67-33-18.63-10.15-36.25,3.29,30.73,38.59,14,56.49-16.06a140,140,0,0,0,6.41-69.7,171.71,171.71,0,0,0-26.26-71.09,80.09,80.09,0,0,0-9.2,7.75c-21.19,20.8-22.7,38.7-8.76,45.72-20.3,13.89-11.93,28.67-3.23,31.06,10.65,2.9,18.84-6.86,17.17-20.29,18.18,8.75,17,32.56-2.34,33.45,20.74,12,3.4,37.31-16.73,20.47-1.5,25.42-45.89,25-26.82-9.21-26.43,5.58-26.26-31.11,3-25-14-31.17,12.16-64.45,37.19-85.42,1.84-1.56,3.74-3.07,5.58-4.46a164,164,0,0,0-33.18-34.35c5.24,14-17.79,21.19-24.76,2.68,1.29,16.22-9.36,37.19-32.56,30.5a40.76,40.76,0,0,0-27.21-67.69,194.9,194.9,0,0,0-25.09-1.62h-11.43a216.34,216.34,0,0,0-36.3,4.68,16,16,0,0,1-18.9,9.09c12.21,6.69,1.95,30.84-14.28,30.11-10.71-.56-20.24-9.42-18.12-20A159.06,159.06,0,0,0,1087.1,1523a130.46,130.46,0,0,0,44.1,28.61c35.19,10.09,56.1,7,58.77-1.79a8.92,8.92,0,0,0-15.67-7c-1.72-12.16,16-24.71,26.32-14,0-18.79,29.22-9.87,31.06-30.84,11.15,12.55,12.88,40.15-18.29,52.2,5.19,14.66-12.54,23.3-43.44,19.12-4.74-.61-9.31-1.39-13.82-2.34,7.3,10.54,8,32.73-15.34,36.8,5-15.39-.33-33-19.85-48.29a135.13,135.13,0,0,1-39-26.82,146.53,146.53,0,0,0-38.36,77.06c12,14.78,38.3,9,45.94-14.72,27.88,9.54,36.53,36.64,8.14,43.83,4,15.33-13,30-31,21.91-4.35,10.43-17.12,14.39-29.11,12.55-11.93,1.84-24.7-2.12-29-12.55-18,8.09-35-6.58-31-21.91-28.38-7.19-20-34.29,8.14-43.83,7.64,23.76,34,29.5,45.95,14.72a146.61,146.61,0,0,0-38.36-77.06,136.24,136.24,0,0,1-39,26.82c-19.51,15.34-24.81,32.9-19.85,48.29-23.3-4.07-22.64-26.26-15.33-36.8-4.52.95-9.09,1.73-13.83,2.34-30.89,4.18-48.62-4.46-43.44-19.12-31.17-12.05-29.55-39.65-18.29-52.25,1.85,21,31.23,12.1,31.06,30.89,10.32-10.71,27.88,1.84,26.32,14a8.92,8.92,0,0,0-15.78,7.58c2.68,8.75,23.59,11.88,58.77,1.78a130.42,130.42,0,0,0,44.11-28.6,158.85,158.85,0,0,0-32.18-23.59c2.12,10.6-7.41,19.46-18.12,20-16.22.72-26.48-23.42-14.27-30.11a16,16,0,0,1-18.9-9.09,215.45,215.45,0,0,0-36.3-4.68H856.75a195.82,195.82,0,0,0-25.15,1.61,40.77,40.77,0,0,0-27.21,67.7c-23.19,6.69-33.84-14.28-32.56-30.5-7,18.51-30,11.15-24.76-2.68a164.42,164.42,0,0,0-32.79,33.9,63.38,63.38,0,0,1,5.58,4.46c25,21,51.19,54.26,37.19,85.43,29.28-6.14,29.44,30.44,3,25,19.07,34.18-25.31,34.62-26.82,9.2-20.18,16.73-37.52-8.48-16.72-20.47-19.35-.94-20.53-24.76-2.35-33.45-1.67,13.44,6.53,23.19,17.18,20.29,8.69-2.39,17.06-17.17-3.24-31.06,13.94-7,12.38-24.92-8.75-45.72a83.08,83.08,0,0,0-9.2-7.75,171.61,171.61,0,0,0-26.26,71.1,139.81,139.81,0,0,0,6.41,69.7c17.9,30,53.19,46.78,56.48,16,22.86,17.62,6.92,37.92-10.15,36.25a135.5,135.5,0,0,0,22.31,9.81,108.53,108.53,0,0,0,58,.73c24.76-14.89,36.35-42.38,14.94-61.67,14.5-7.92,11.15-24.54-4.07-28.89,6.75-18.4,24.31-13.55,27.27,1.17,12.26-1.5,17.79,12.33,9.53,18.52,11.16,9.14,4.85,33.45-21.58,58.88,1.62-1.06,3.35-2,4.86-3.18,24.2-18.34,37.52-47.9,37.52-83.25,0-41.82-22.86-73.32-53.19-73.32-28.78,0-34.8,15.94-34.8,29.33a14.16,14.16,0,0,0,11.15,15.5,10.32,10.32,0,0,0,6.7-18c10.14-3.35,24,6.41,19.68,17.56s-32.56,14.22-41.43-1.67a26,26,0,0,1-3.29-13.33,33.46,33.46,0,0,1,27.88-35c-8.59-9.7-1.51-19.24,11.71-24.37-6,14.39,4,21.42,16.34,24.93,27.21,7.92,46.44,39,46.44,78.4,0,37.63-14.33,69.19-40.31,88.88a101.37,101.37,0,0,1-54.81,20,172.33,172.33,0,0,1,64.74,37.64c7.63-5.58,17-5.58,21.46,0s2.29,14.83-4.85,21.19a83.61,83.61,0,0,1,11.15,34.9,29.29,29.29,0,0,0,32.23,26c-3.73,17.23-26.93,14.61-34.07,3.84A52.08,52.08,0,0,1,873.53,1916a52.84,52.84,0,0,1-44.6,11.94,36.13,36.13,0,0,1-25.09-13.78,33,33,0,0,1-2-3c-8.47-12.21-27-18.9-36.07-15a18.52,18.52,0,0,1,31.17-4.46,35.89,35.89,0,0,1,0-4.4c2.51-41.66,56.37-50.52,55-26.55,22.63,9.54,3.84,40.65-4,44.61,4.07-20.24-16.73-9.87-23.36-21.24,9.31-22.31-22.31-5.3-19.91,15.44a27.83,27.83,0,0,0,4.52,10.1,29.11,29.11,0,0,0,20.41,11.15,45.85,45.85,0,0,0,38.64-10.1c10.87-10.09,15.83-26.7,14.38-48.06A76.39,76.39,0,0,0,872,1828.92a12.77,12.77,0,0,1-15.78-20.07c-19.57-19.07-49.29-34-87.54-43.27-3.52-.89-7.59-2-12-3.45h-.45c-3.23-1.06-6.58-2.35-10-3.8a106,106,0,0,1,22.7,38.7c11.71-17.06,24-3.23,20.46,12.1,21.86-7.14,23.76,26.1,1.45,27.88,5.58,7.31,6,16.73-.5,21.25s-15.11,1.56-20.41-6c-8.58,20.69-39.7,8.81-26.2-9.87-16.73-1.39-26.55-19.68-.45-24.31-8.25-9.76-5.58-18.9.61-23.42a13.73,13.73,0,0,1,17.18.56c-5.58-15.84-19.46-33-34.18-46.84-30.67-19-60.5-55.76-50.91-125.85a178.92,178.92,0,0,1,27.38-74.16,101.28,101.28,0,0,0-25.21-11.48,448.48,448.48,0,0,1-25.59,60.27c2.56,29.55-1.73,57.77-24.2,79.13,22.3-3.8,40.87,28.54,26.48,53.91-7.52-20.07-22-22.86-41.7-14.05-18,8.14-36.58-11.15-29.17-31.39a159.52,159.52,0,0,1-61.05,31.06c5.13.61,10.2,1.39,15.33,2.17a310.47,310.47,0,0,1,80,22.75,201.36,201.36,0,0,1,48.39,30.39c7.48-4.79,16.18-4.74,20.47.5a14.84,14.84,0,0,1-1.9,18.07,164.71,164.71,0,0,1,30.23,52.8v.34c.94,2.62,1.83,5.24,2.62,7.92q6,20.36,12.15,38.36c9.81,27.21,21.53,37.14,33.07,42.43-.62-7.75,6-10.54,13.21-8.64s15.45,22.3,38,19.4c-1.84,6.19-14.66,11.94-28.32,4.91a6.72,6.72,0,0,1-7.59,5.08,6.24,6.24,0,0,1-2.45-1,6.34,6.34,0,0,1-1.84-1.88,6.44,6.44,0,0,1-.89-2.47,6.28,6.28,0,0,1,.22-2.62,85.59,85.59,0,0,1-21-10.65c-.76-.92-1.49-1.87-2.17-2.85a55.43,55.43,0,0,1-4.85-4.34,338.26,338.26,0,0,0,42.21,79.9,293,293,0,0,0,55.48-11.15c-21.91-3.18-22.3-30.17-12.16-39.81,11.15-10.82,37.92-11.16,43.89,3.12,0-21.69,27.49-27.88,46.17-27.88,20.24,0,36.41-9.71,51.07-28.16,2.34-3.35,4.69-6.69,6.92-10.09a137,137,0,0,0-29.33-17.18A50.75,50.75,0,0,1,920,1808.18c-30.84-13.66-36.86-80.35,9.76-80.35-14.33-14.33-25.71-78.06,4-93.12-6.64,18.8-6.58,41.21,6.8,43.16,11.15,1.67,21.91,0,14.83,20.63,13.88-14.55,32.51-16.72,53-11.59a194.68,194.68,0,0,1,58.83,0c20.46-5.25,39-3,53,11.59-7.08-20.63,3.51-19,14.83-20.63,13.39-1.95,13.44-24.36,6.75-43.16,29.72,15.17,18.34,78.79,4,93.12,46.62,0,40.6,66.91,9.76,80.35a50.71,50.71,0,0,1-29.38,66.91,137.37,137.37,0,0,0-29.33,16.73c2.23,3.4,4.57,6.75,6.91,10.09,14.67,18.46,30.84,28.16,51.08,28.16,18.68,0,46.17,6.25,46.17,27.88,6-14.44,32.5-13.94,43.88-3.12,10.2,9.65,9.76,36.64-12.16,39.81a292.19,292.19,0,0,0,55.49,11.16A339.22,339.22,0,0,0,1330.43,1926.23ZM761.68,1817.1a10.44,10.44,0,1,0,11.61-.48,10.42,10.42,0,0,0-7.91-1.24A10.61,10.61,0,0,0,761.68,1817.1Zm537.8,2.29a10.29,10.29,0,1,0,10.9-4.06,10.41,10.41,0,0,0-8,1.21,10.25,10.25,0,0,0-3,2.8Zm290.85-81a177.14,177.14,0,0,0-.67-18.79h-5.13a446.86,446.86,0,0,0-45.89,4.51c-16.34,5.58-26.1,15.67-24.81,25.76a18,18,0,0,0,4.28,8.53,18.17,18.17,0,0,0,8,5.14c0-6.59,4.52-12,15-9.21,13,3.57,18.18-3.79,18.9-13.54,12.66,11.15,9.87,34.57-8.31,37.58,12,14.83,3.74,34.35-18,37.58,10.15-10.48,7-25.93-1.89-25.65a11.15,11.15,0,0,1-8.2-20.19,24.85,24.85,0,0,1-16.73-19.4,26.16,26.16,0,0,1,10-22.64,288,288,0,0,0-58.27,18.74,194.9,194.9,0,0,0-45.89,28.66,15,15,0,0,1,2.56,18.9c-4.46,5.58-13.77,5.24-21.41,0a158.43,158.43,0,0,0-28.71,50.46c-8.76,28.66-4.24,80.63,22.75,94.46a36.32,36.32,0,0,0,26.31,2.57c18.46-7.09,32.62-63.57-26.15-53.93-5.24-31.22,20.08-44.88,46.34-36-5.58-16.73-6.58-34.52,7.47-45,2.57,11.15,16.45,13.77,19.52,3.29,2.56-8.92,16.06-41,52-20.57-20.58,3.79-45.84,40.42-51.3,88.21-4.58,40.76-20.69,61.89-41.88,69.53a43.36,43.36,0,0,1-26.71,1.45c10,29.28-42.65,39.31-47.56,12.6,29.27,9.37,30.22-17.51,23-30.16a98.41,98.41,0,0,1-14.83-51.58c-18.51,57-37.36,98.64-58,127.13,9.37.73,18.9,1.28,28.88,1.28,98.7,0,180-47,225.44-122a25.09,25.09,0,0,1-27.38,3.07c-8.53,21.13-43,24.76-46.33-2.79,22.3,7.86,18.56-27.88,47-23.31-11.83-12.71,13.15-36.24,31-26.32-13.71,15.56,7.25,25.54,17.68,3.52a294.52,294.52,0,0,0,17.79-101.93ZM1712.16,1608V1596.8l-6.52-1.4c-16.06-2.12-28.55-1.61-37.14,6a15.56,15.56,0,0,0,7.31,27.88c8.47.5,11.48-5,8.47-9.54,13.83-.5,7.25,29.56-13.55,23.53-2.17,14.22-40.7-5.07-16-37.13a42.51,42.51,0,0,1,20.46-16.28,244.09,244.09,0,0,1-63.12-24.7,181.79,181.79,0,0,1-59.11-53.31,40.73,40.73,0,0,0-4.12,37.41,40.87,40.87,0,0,0-37.42,4.13,180.92,180.92,0,0,1,53.25,59.1,243.46,243.46,0,0,1,24.76,63.13,42.22,42.22,0,0,1,16.28-20.47c32.06-24.64,51.36,13.94,37.08,16.06,6,20.8-24,27.38-23.47,13.61,4.51,3,10,0,9.53-8.53a15.56,15.56,0,0,0-27.88-7.25c-7.58,8.53-8.08,21-6,37.08.44,2.17.94,4.34,1.39,6.52h11.15c52.75,0,98.31,7.86,118.66,14.22-6.25-20.63-14.11-66.13-14.11-118.88Zm294.47-311.25c-28.49,20.63-70.09,39.53-127.13,58a97.79,97.79,0,0,1,51.58,14.78c12.65,7.25,39.48,6.36,30.11-23,26.71,4.9,16.73,57.65-12.6,47.56a42.71,42.71,0,0,1-1.45,26.71c-7.64,21.19-28.78,37.3-69.54,41.93-47.84,5.58-84.42,30.67-88.21,51.24-20.52-35.85,11.65-49.4,20.58-52,10.48-3.06,7.69-16.72-3.29-19.45,10.48-14.06,27.88-13.11,45-7.53-9-26.27,4.74-51.53,36-46.34-9.7,58.77,46.78,44.61,53.92,26.15a36.19,36.19,0,0,0-2.62-26.26c-13.77-27-65.74-31.56-94.4-22.81a157.44,157.44,0,0,0-50.46,28.78c5.57,7.64,5.57,16.72,0,21.35a14.9,14.9,0,0,1-18.85-2.56,194.7,194.7,0,0,0-28.66,45.89,287.39,287.39,0,0,0-18.57,57.88,26.18,26.18,0,0,1,22.64-10.1,24.93,24.93,0,0,1,19.4,16.73,11.15,11.15,0,0,1,20.13,8.25c-.28,8.87,15.22,12,25.71,1.84-3.24,21.75-22.81,30-37.59,18-3,18.18-26.43,21-37.63,8.31,9.81-.72,17.12-5.85,13.6-18.9-2.84-10.43,2.62-15,9.2-14.94a18.06,18.06,0,0,0-13.71-12.49c-10.1-1.29-20.19,8.47-25.76,24.81a449.7,449.7,0,0,0-4.52,45.89v5.13c6.36.45,12.6.73,18.85.73a295,295,0,0,0,101.81-17.57c22.31-10.43,12-31.34-3.51-17.68-9.93-17.9,13.61-42.87,26.26-31.05-4.29-28.39,31.23-24.32,23.37-46.9,27.54,3.24,23.92,37.75,2.78,46.34a25.06,25.06,0,0,1-3.06,27.32c75-45.44,121.94-126.69,121.94-225.44-.16-9.81-.66-19.07-1.39-28.71Zm-114.81-199.62a135.61,135.61,0,0,0-17.17,29.33,50.8,50.8,0,0,1-66.91,29.38c-13.66,30.84-80.41,36.86-80.35-9.76-14.33,14.33-78.07,25.71-93.12-4,18.79,6.64,41.2,6.58,43.16-6.8,1.67-11.15,0-21.91,20.63-14.77-14.56-13.94-16.73-32.57-11.66-53a200.33,200.33,0,0,1,0-58.88c-5.24-20.46-2.9-39,11.66-53-20.63,7.14-19-3.51-20.63-14.83-2-13.38-24.37-13.44-43.16-6.75,15.16-29.66,78.79-18.35,93.06-4,0-46.67,66.91-40.65,80.41-9.81a50.8,50.8,0,0,1,66.91,29.38A134.33,134.33,0,0,0,1891.82,979c3.4-2.23,6.75-4.51,10.09-6.91,18.46-14.67,27.88-30.84,27.88-51.08,0-18.68,6.25-46.11,27.88-46.17-14.44-6-13.94-32.51-3.17-43.82,9.7-10.26,36.69-9.82,39.86,12.15a292.58,292.58,0,0,0,11.16-55.76,336.63,336.63,0,0,0-79.91-42.15,48.08,48.08,0,0,1,4.35,4.79c1,1.28,1.9,2.51,2.73,3.79a85.24,85.24,0,0,1,10.65,21,6.11,6.11,0,0,1,2.62-.19,6.21,6.21,0,0,1,4.34,2.72,6.11,6.11,0,0,1,1,2.43,6.7,6.7,0,0,1-5.07,7.59c7,13.66,1.28,26.48-4.91,28.38,2.68-22.64-17.51-30.67-19.4-38.09s.89-13.82,8.64-13.21c-5.58-11.54-15.22-23.25-42.43-33.07-12-4.07-24.82-8.08-38.37-12.15-2.67-.78-5.57-1.68-7.91-2.57h-.34a165.45,165.45,0,0,1-52.86-30.22,14.67,14.67,0,0,1-18,1.9c-5.24-4.3-5.3-13-.56-20.47a201.71,201.71,0,0,1-30.33-48.4,307.82,307.82,0,0,1-22.81-80c-.78-5.13-1.56-10.21-2.17-15.34a160.23,160.23,0,0,1-31.06,61.34c20-7.47,39.48,11.15,31.39,29.16-8.86,19.69-6,34.13,14,41.71-25.37,14.39-57.71-4.13-53.91-26.49-21.36,22.31-49.58,26.77-79.13,24.15a445.59,445.59,0,0,1-60.33,25.59,103,103,0,0,0,12.16,25.09,178.38,178.38,0,0,1,74.16-27.37c70.2-9.54,106.83,20.29,125.79,50.91,13.88,14.72,31.06,28.66,46.89,34.23a13.79,13.79,0,0,1-.55-17.23c4.51-6.19,13.66-8.86,23.36-.56,4.68-26.15,23-16.72,24.37.39,18.62-13.43,30.55,17.62,9.87,26.21,7.52,5.58,10.76,13.88,6,20.41s-13.94,6.08-21.25.5c-1.89,22.3-35.18,20.46-27.88-1.45-15.33,3.57-29.16-8.75-12.15-20.46a104.64,104.64,0,0,1-38.64-22.7c1.45,3.46,2.67,6.86,3.79,10a1.69,1.69,0,0,1,0,.45c1.45,4.4,2.62,8.47,3.46,12,9.31,38.25,24.25,68,43.32,87.49a12.77,12.77,0,0,1,20,15.78A76.65,76.65,0,0,0,1862.21,884c21.42,1.45,38-3.51,48.12-14.38a46,46,0,0,0,10.1-38.65,29.62,29.62,0,0,0-11.15-20.4,28.15,28.15,0,0,0-10.1-4.52c-20.8-2.4-37.91,29.22-15.5,19.91,11.15,6.46,1.06,27.43,21.25,23.36-4.19,7.86-35.24,26.65-44.61,4-24,1.4-15.17-52.47,26.54-55a35.08,35.08,0,0,1,4.35,0,18.57,18.57,0,0,1,4.52-31.18c-3.91,9.09,2.78,27.61,14.94,36.08a30.45,30.45,0,0,1,3,1.9,36.07,36.07,0,0,1,13.77,25.09,52.83,52.83,0,0,1-12,44.61,51.31,51.31,0,0,1-26.31,14.61c10.81,7.13,13.43,30.39-3.85,34.12a29.2,29.2,0,0,0-25.93-32.28,84.07,84.07,0,0,1-35-11.16c-6.36,7.14-15.61,9.37-21.19,4.86s-5.3-13.83,0-21.47a172.35,172.35,0,0,1-37.58-64.74,101.37,101.37,0,0,1-20,54.81c-19.69,26-51.25,40.32-88.89,40.32-39.42,0-70.48-19.18-78.39-46.45-3.52-12.38-10.54-22.3-24.93-16.34,5.08-13.21,14.67-20.24,24.37-11.71a33.46,33.46,0,0,1,35-27.88,26.19,26.19,0,0,1,13.33,3.29c15.89,8.81,12.82,37.14,1.67,41.43s-21-9.59-17.57-19.68a10.31,10.31,0,0,0,18-6.69,14.17,14.17,0,0,0-15.5-11.16c-13.38,0-29.38,6-29.38,34.8,0,30.33,31.56,53.19,73.38,53.19,35.35,0,64.9-13.32,83.25-37.47,1.17-1.56,2.12-3.23,3.18-4.85-25.26,26.43-49.74,32.51-58.89,21.58-6.19,8.2-20,2.73-18.51-9.59-14.72-3-19.57-20.52-1.23-27.27,4.41,15.39,21,18.57,28.94,4.13,19.3,21.36,46.79,9.76,61.67-15a107.85,107.85,0,0,0-.78-58,127.65,127.65,0,0,0-9.81-22.3c1.73,17.06-18.62,33.06-36.24,10.15,30.78-3.29,14-38.59-16-56.49a139.92,139.92,0,0,0-69.7-6.41,171.26,171.26,0,0,0-71.15,26.32,96.56,96.56,0,0,0,7.81,9.2c20.8,21.13,38.64,22.63,45.72,8.69,13.89,20.3,28.66,11.94,31,3.24,2.9-10.65-6.81-18.85-20.25-17.17,8.76-18.18,32.51-16.73,33.46,2.34,12-20.75,37.36-3.4,20.52,16.72,25.43,1.51,25,45.9-9.2,26.83,5.58,26.43-31.11,26.26-25-3-31.17,14-64.46-12.1-85.42-37.19-1.57-1.84-3.07-3.68-4.52-5.57a163.43,163.43,0,0,0-34.29,33.12c14-5.24,21.19,17.79,2.67,24.76,16.23-1.29,37.19,9.36,30.45,32.56a40.76,40.76,0,0,0-67.36,26.37,195.83,195.83,0,0,0-1.62,25.15v11.38a215.37,215.37,0,0,0,4.63,36.3,16.07,16.07,0,0,1,9.15,18.9c6.69-12.16,30.83-2,30,14.27-.5,10.71-9.37,20.25-20,18.13a159,159,0,0,0,23.58,32.17,130.44,130.44,0,0,0,28.61-44.11c10.09-35.13,6.91-56.09-1.78-58.71a8.84,8.84,0,0,0-10.38,4.68,8.87,8.87,0,0,0,2.79,11c-12.15,1.79-24.76-16-14-26.32-18.8,0-9.93-29.21-30.89-31.06,12.54-11.15,40.2-12.87,52.24,18.29,14.67-5.18,23.25,12.55,19.13,43.44-.62,4.74-1.45,9.31-2.34,13.83,10.53-7.3,32.73-8,36.8,15.33-15.39-5-33,.39-48.29,19.85a135.63,135.63,0,0,1-26.88,39,147,147,0,0,0,77.12,38.36c14.78-12,9-38.31-14.72-45.95,9.53-27.88,36.63-36.52,43.83-8.14,15.33-4,30,13,21.85,31,10.49,4.34,14.39,17.11,12.61,29.1,1.78,11.93-2.12,24.7-12.61,29.11,8.14,17.9-6.52,34.9-21.85,31-7.2,28.33-34.3,20-43.83-8.2,23.7-7.64,29.5-34,14.72-45.94a147.37,147.37,0,0,0-77.12,38.36,137.13,137.13,0,0,1,26.88,39c15.33,19.52,32.9,24.82,48.29,19.85-4.07,23.31-26.27,22.7-36.8,15.39.89,4.46,1.72,9,2.34,13.78,4.12,30.89-4.46,48.67-19.13,43.49-12,31.11-39.7,29.49-52.24,18.23,21-1.84,12.09-31.22,30.89-31.06-10.77-10.26,1.84-27.88,14-26.32a8.92,8.92,0,0,0,7.59,15.78c8.69-2.67,11.87-23.58,1.78-58.77a131.45,131.45,0,0,0-28.61-44.1,159,159,0,0,0-23.58,32.17c10.59-2.12,19.46,7.42,20,18.12.78,16.28-23.36,26.49-30,14.28a16,16,0,0,1-9.15,18.9,221.78,221.78,0,0,0-4.68,36.3v11.43a197.63,197.63,0,0,0,1.61,25.15,40.7,40.7,0,0,0,67.64,27.15c6.75,23.2-14.22,33.85-30.44,32.62,18.51,6.92,11.15,30-2.68,24.76a165.16,165.16,0,0,0,34.29,33.12q2.18-2.9,4.52-5.57c21-25,54.25-51.19,85.42-37.2-6.13-29.27,30.45-29.38,25-3,34.18-19.07,34.63,25.32,9.2,26.82,16.73,20.19-8.47,37.53-20.52,16.73-.94,19.35-24.7,20.52-33.45,2.4,13.44,1.62,23.14-6.58,20.24-17.23-2.34-8.7-17.12-17.06-31,3.23-7.08-13.94-24.93-12.37-45.73,8.76a95,95,0,0,0-7.8,9.2,171.91,171.91,0,0,0,71.15,26.26,138.68,138.68,0,0,0,69.7-6.41c30-17.9,46.78-53.2,16-56.49,17.62-22.86,38-6.91,36.24,10.21a128.87,128.87,0,0,0,9.82-22.31,108,108,0,0,0,.78-58c-14.89-24.75-42.38-36.3-61.67-14.94-7.92-14.44-24.54-11.15-28.94,4.07-18.35-6.75-13.5-24.31,1.22-27.27-1.5-12.26,12.33-17.78,18.52-9.53,9.14-11.15,33.45-4.85,58.88,21.58-1.06-1.62-2-3.29-3.18-4.85-18.34-24.2-47.9-37.53-83.25-37.53-41.82,0-73.38,22.86-73.38,53.2,0,28.77,16,34.79,29.39,34.79a14.1,14.1,0,0,0,15.5-11.15,10.31,10.31,0,0,0-18-6.69c-3.4-10.1,6.41-24,17.56-19.69s14.22,32.57-1.67,41.43a26.19,26.19,0,0,1-13.33,3.29,33.46,33.46,0,0,1-35-27.88c-9.7,8.53-19.29,1.45-24.37-11.76,14.39,6.08,21.42-4,24.93-16.34,7.92-27.21,39-46.39,78.4-46.39,37.64,0,69.2,14.27,88.88,40.26a101.53,101.53,0,0,1,20,54.81,173,173,0,0,1,37.58-64.74c-5.57-7.64-5.57-16.73,0-21.47s14.83-2.23,21.19,4.85a84.26,84.26,0,0,1,35-11.43,29.2,29.2,0,0,0,25.93-32.28c17.29,3.73,14.67,26.93,3.85,34.12a51.7,51.7,0,0,1,26.32,14.56,53,53,0,0,1,12,44.6,36,36,0,0,1-13.78,25c-1,.73-2,1.34-3,2-12.15,8.42-18.84,26.93-14.94,36a18.57,18.57,0,0,1-4.52-31.17,33.44,33.44,0,0,1-4.35-.28c-41.71-2.5-50.52-56.37-26.54-55,9.54-22.64,40.59-3.8,44.61,4.07-20.19-4.07-9.81,16.72-21.25,23.3-22.3-9.31-5.57,22.31,15.51,19.91a28,28,0,0,0,10.09-4.52,29.37,29.37,0,0,0,11.15-20.4,46,46,0,0,0-10.32-39.43c-10.09-11.15-26.7-15.83-48.12-14.38a77.47,77.47,0,0,0-33.73,10.59,12.77,12.77,0,0,1-20,15.84c-19.07,19.51-34,49.23-43.32,87.49-.84,3.56-2,7.63-3.46,12a2.09,2.09,0,0,1,0,.5c-1.12,3.24-2.34,6.58-3.79,10.1a104.89,104.89,0,0,1,38.64-22.75c-16.73-11.71-3.18-24,12.15-20.47-7.19-21.85,26.1-23.75,27.88-1.45,7.36-5.57,16.73-6,21.3.51s1.51,15.16-6,20.4c20.69,8.59,8.76,39.71-9.87,26.21-1.39,16.73-19.68,26.54-24.36.45-9.71,8.25-18.85,5.57-23.37-.56a13.77,13.77,0,0,1,.56-17.23c-15.84,5.58-33,19.51-46.89,34.18-19,30.67-55.76,60.5-125.8,50.91a177.94,177.94,0,0,1-74.16-27.38,103.46,103.46,0,0,0-11.54,25.21,444.86,444.86,0,0,1,60.33,25.59c29.55-2.57,57.77,1.73,79.12,24.2-3.79-22.31,28.55-40.87,53.92-26.49-20.07,7.59-22.91,22-14,41.71,8.09,18.07-11.15,36.64-31.39,29.16a160.31,160.31,0,0,1,30.83,60.84c.62-5.13,1.4-10.21,2.18-15.34a308.32,308.32,0,0,1,22.81-80,202.22,202.22,0,0,1,30.33-48.4c-4.74-7.42-4.69-16.17.56-20.41a14.67,14.67,0,0,1,18,1.9,163.46,163.46,0,0,1,52.86-30.23c2.62-.94,5.57-1.78,8-2.62,13.55-4,26.32-8.08,38.36-12.1,27.21-9.81,37.14-21.52,42.44-33-7.75.56-10.54-6-8.65-13.21s22.31-15.5,19.41-38.09c6.19,1.84,11.93,14.67,4.91,28.33a6.78,6.78,0,0,1,4,2.79,6.7,6.7,0,0,1,1,4.79,6.37,6.37,0,0,1-2.84,4.28,6.43,6.43,0,0,1-2.46.91,6.26,6.26,0,0,1-2.62-.17,87.38,87.38,0,0,1-10.65,21c-.83,1.22-1.73,2.51-2.73,3.79a57.21,57.21,0,0,1-4.35,4.85,340.66,340.66,0,0,0,79.9-42.15,292.56,292.56,0,0,0-11.15-55.76c-3.18,22-30.16,22.3-39.87,12.15-10.76-11.15-11.15-37.92,3.18-43.88-21.69,0-27.88-27.49-27.88-46.17,0-20.24-9.7-36.41-27.88-51-3.62-2.23-7-4.57-10.37-6.8Zm-74.88,217.18a10.32,10.32,0,1,0-.52-11.63,10.36,10.36,0,0,0-1.44,3.83,10.57,10.57,0,0,0,.14,4.08,10.42,10.42,0,0,0,1.71,3.72Zm2.28-537.8a10.58,10.58,0,0,0,5.75,2,10.49,10.49,0,1,0-8-16.63,10.43,10.43,0,0,0,2.17,14.77Zm25.15,227.72a308.54,308.54,0,0,0,35.69-17.84l-8.76-8.48c-25.2-24.87-49-48.34-86.43-49.62-26.54-1-47.95,6.19-63.56,21.3-24.7,23.81-29.44,62.06-29.89,84.92,4,0,8.14,0,12.21-.34a78,78,0,0,0,24.09-5.57c35.3-16.73,21.86-58.83,6.19-59.55,11.77-14,38.42-13.44,38.47,6.52,8.48,4,18.52,9.42,13.55,25.71,14.06-13.39,27.27-20,39.59-20,14.45.11,26.49,10.93,18.74,23Zm-110.29,102.88c15.67-.73,29.1-43-6.25-59.55a76.46,76.46,0,0,0-24-5.58l-12.21-.33c.44,22.86,5.18,61.33,29.89,85,15.61,15.06,37,22.31,63.56,21.3,37.42-1.33,61.34-24.81,86.43-49.68l8.59-8.42a309,309,0,0,0-35.69-17.9c7.75,12.1-4.29,22.86-18.68,22.86-12.32,0-25.54-6.63-39.59-20,5,16.28-5.07,21.69-13.6,25.76-.12,20-26.77,20.52-38.53,6.58Zm230.29-69c-34.07-8.25-58.16-27.1-78.85-46.56a363,363,0,0,1-140.85,46.56,363.89,363.89,0,0,1,140.85,46.51c20.58-19.41,44.66-38.31,78.73-46.51Zm69.31,0v-.28s-6.47-13.66-16.73-13.66-20.52,13.66-20.52,13.66v.28s10.26,13.66,20.52,13.66S2033.68,1038.08,2033.68,1038.08Zm-514.22,18.07c7.41,0,13.49-8.2,13.49-18.29s-6.08-18.29-13.49-18.29-13.5,8.2-13.5,18.29,6.25,18.51,13.72,18.51Zm371.08-29.39c8.36,2.12,12,6.25,12,11.15s-3.63,9-12,11.16a23.74,23.74,0,0,1-10,20.29c-.28-8-1-13-6.86-15.67-17.34-.66-36.91-9.25-36.91-15.66s19.57-15.06,36.91-15.67c5.58-2.68,6.58-7.64,6.86-15.73a23.75,23.75,0,0,1,10.2,20.36Zm-3.12,11.15c0-2.11-6.47-6-14.44-6s-14.5,3.91-14.5,6,6.47,6,14.5,6,14.66-3.74,14.66-5.86Zm-849.67,495.54c10.15,0,18.29-6,18.29-13.49s-8.14-13.49-18.29-13.49-18.24,6-18.24,13.49S1027.66,1533.45,1037.75,1533.45Zm0,303.89c6.47,0,15,19.52,15.72,36.86,2.62,5.86,7.59,6.64,15.67,6.92a23.82,23.82,0,0,1-20.3,9.92c-2.06,8.37-6.24,12-11.15,12s-9-3.62-11.15-12a23.82,23.82,0,0,1-20.3-9.92c8.09-.28,13-1.06,15.67-6.92C1022.75,1856.86,1031.34,1837.34,1037.75,1837.34Zm-6,36.14c0,8,3.9,14.44,6,14.44s6-6.47,6-14.44-3.9-14.44-6-14.44S1031.78,1865.5,1031.78,1873.48ZM457,472.9c-4.52-7.36-4.13-12.88-.73-16.34s8.92-3.73,16.34.73A23.84,23.84,0,0,1,494,449.93c-5.58,5.91-8.48,10-6.19,15.94,11.82,12.77,19.51,32.62,15,37.2s-24.43-3.18-37.19-15c-6-2.23-10,.72-16,6.24A23.71,23.71,0,0,1,457,472.9ZM473,481.77c5.57,5.57,13,7.47,14.49,6s-.33-8.81-6-14.5-13-7.41-14.5-6S467.32,476.13,473,481.77ZM1618.54,1603.21c4.52,7.42,4.13,12.94.73,16.34s-8.92,3.79-16.34-.67a23.66,23.66,0,0,1-21.36,7.3c5.58-5.85,8.48-9.92,6.19-16-11.82-12.71-19.51-32.62-15-37.19s24.43,3.24,37.2,15.06c6,2.23,10-.78,15.94-6.25a23.61,23.61,0,0,1-7.36,21.36Zm-15.94-8.81c-5.58-5.58-13-7.47-14.5-6s.33,8.86,6,14.5,13,7.47,14.5,6S1608.23,1600,1602.6,1594.4ZM697.72,663.21c-11.15-6.53-25.87,2.12-21.35,13.16-11.15-4.52-19.69,10.2-13.16,21.35,12.27-6.58,39.76,5.24,47.67,13.22-7.91-7.7-19.74-35.13-13.16-47.45ZM1378,1412.34c11.16,6.53,25.88-2.12,21.36-13.16,11.15,4.52,19.68-10.2,13.16-21.3-12.27,6.53-39.76-5.29-47.67-13.21,7.75,8.2,19.57,35.68,13,47.95ZM828.26,828.59c7.52-7.52,10.59-16.73,6.8-20.46s-12.94-.78-20.46,6.75-10.54,16.72-6.75,20.46S820.79,836.06,828.26,828.59Zm419,419c-7.52,7.53-10.59,16.73-6.8,20.47s12.94.72,20.46-6.81,10.54-16.72,6.81-20.4S1254.77,1240,1247.29,1247.57ZM449.93,1582.13c5.91,5.58,9.92,8.48,15.94,6.25,12.77-11.82,32.62-19.58,37.2-15s-3.18,24.42-15,37.13c-2.29,6,.72,10.1,6.19,16a23.66,23.66,0,0,1-21.36-7.3c-7.42,4.46-12.88,4.07-16.34.67s-3.79-8.93.73-16.34a23.7,23.7,0,0,1-7.87-21.64Zm17.34,27c1.5,1.51,8.81-.33,14.5-6s7.41-13,6-14.49-8.86.33-14.5,6-7.75,12.77-6.24,14.16ZM1626,494.31c-5.91-5.57-9.93-8.47-16-6.24-12.77,11.82-32.62,19.57-37.19,15s3.18-24.43,15-37.2c2.29-6-.73-10-6.19-15.94a23.86,23.86,0,0,1,21.36,7.36c7.41-4.46,12.88-4.13,16.33-.73s3.8,9-.72,16.34a23.78,23.78,0,0,1,7.36,21.41Zm-17.34-27c-1.51-1.45-8.81.33-14.5,6s-7.42,13-6,14.5,8.87-.33,14.5-6,7.42-13,5.91-14.5ZM676.37,1399.46c-4.52,11.16,10.2,19.69,21.35,13.16-6.58-12.27,5.25-39.75,13.16-47.67-7.91,7.92-35.4,19.74-47.67,13.21C656.68,1389.26,665.33,1404,676.37,1399.46Zm722.81-722.81c4.52-11.16-10.2-19.69-21.35-13.16,6.58,12.32-5.24,39.75-13.16,47.73,7.92-8,35.41-19.8,47.67-13.22C1418.87,686.85,1410.22,672.13,1399.18,676.65ZM835.06,1268c3.79-3.8.72-12.94-6.8-20.47s-16.73-10.54-20.41-6.74-.78,12.93,6.75,20.4S831.27,1271.83,835.06,1268Zm405.43-459.91c-3.79,3.79-.72,12.94,6.8,20.46s16.73,10.54,20.47,6.75.72-12.94-6.81-20.46S1244.28,804.5,1240.49,808.13Z"/></svg>