<svg width="1147" height="768" viewBox="0 0 1147 768" fill="none" xmlns="http://www.w3.org/2000/svg">
<path d="M470.307 111.578C453.396 102.398 427.167 102.398 408.715 128.029C389.825 154.28 396.774 174.757 401.49 196.247C404.021 207.82 409.451 220.06 404.804 230.965C399.811 242.676 385.707 247.025 376.389 255.699C365.184 266.121 361.526 283.883 367.738 297.872C374.41 312.896 390.654 322.789 394.703 338.711C398.154 352.285 391.551 366.596 382.348 377.134C373.122 387.671 361.365 395.655 351.495 405.571C341.624 415.488 333.387 428.487 334.193 442.453C335.274 460.905 351.195 474.572 366.058 485.523C375.031 492.127 384.235 498.684 394.749 502.365C419.391 511.016 484.595 521.807 508.408 511.085C544.001 495.072 565.375 461.664 588.705 430.374C616.774 392.733 634.306 315.266 590.614 268.215" fill="#263238"/>
<path d="M347.557 466.725C347.557 466.725 346.844 465.62 345.786 463.32C344.82 461.042 343.163 457.522 343.209 452.621C343.209 447.674 346.269 442.106 351.078 437.298C355.84 432.374 362.443 428.003 370.197 424.367C377.951 420.64 386.878 417.741 396.127 413.945C405.284 410.126 415.154 405.294 422.494 396.781C426.129 392.594 429.143 387.601 430.57 381.987C432.042 376.373 431.582 370.276 429.626 364.57C427.694 358.818 424.565 353.411 421.297 348.005C418.03 342.621 414.441 337.122 412.071 330.956C409.678 324.859 408.229 318.21 409.241 311.698C409.748 308.477 410.967 305.348 412.831 302.702C414.671 300.01 417.133 297.917 419.641 296.099C424.726 292.51 430.293 290.002 434.711 286.252C439.243 282.616 441.935 277.325 442.764 271.872C443.661 266.396 442.902 260.92 441.245 255.904C439.612 250.889 437.15 246.31 434.55 242.054C429.304 233.541 423.437 226.247 418.398 219.345C407.976 205.678 402.5 192.702 399.417 183.683C397.898 179.127 397.116 175.492 396.771 172.984C396.403 170.499 396.472 169.165 396.472 169.165C396.564 169.165 396.61 170.476 397.07 172.938C397.507 175.4 398.382 179.012 399.969 183.499C403.19 192.426 408.781 205.241 419.227 218.724C424.311 225.58 430.224 232.851 435.585 241.409C438.231 245.689 440.762 250.337 442.465 255.49C444.19 260.621 445.018 266.327 444.098 272.056C443.27 277.739 440.371 283.445 435.631 287.264C431.007 291.198 425.416 293.706 420.469 297.226C418.03 298.975 415.707 300.977 414.004 303.484C412.278 305.946 411.151 308.868 410.668 311.905C409.701 318.025 411.082 324.445 413.429 330.404C415.73 336.432 419.25 341.793 422.54 347.245C425.83 352.675 429.005 358.174 430.984 364.11C433.008 370 433.492 376.442 431.927 382.309C430.432 388.176 427.279 393.353 423.506 397.655C415.914 406.375 405.836 411.253 396.587 415.049C387.246 418.823 378.342 421.676 370.634 425.288C362.927 428.831 356.392 433.087 351.653 437.873C346.844 442.567 343.853 447.881 343.761 452.644C343.623 457.384 345.165 460.904 346.039 463.205C347.005 465.505 347.603 466.679 347.557 466.725Z" fill="#455A64"/>
<path d="M396.334 171.876C396.288 171.876 396.173 171.508 395.989 170.795C395.851 170.059 395.506 169 395.345 167.574C394.885 164.767 394.678 160.603 395.345 155.518C395.989 150.456 397.738 144.497 401.028 138.561C404.295 132.625 409.287 126.804 415.845 122.456C422.471 118.199 429.81 115.99 436.552 115.369C443.316 114.748 449.459 115.53 454.36 116.98C459.26 118.406 463.011 120.27 465.403 121.811C466.646 122.525 467.474 123.261 468.095 123.675C468.694 124.135 468.993 124.388 468.947 124.434C468.763 124.779 463.839 120.523 454.107 117.946C449.275 116.658 443.27 115.99 436.69 116.681C430.133 117.348 423.046 119.534 416.627 123.652C410.3 127.863 405.422 133.476 402.178 139.205C398.911 144.957 397.116 150.709 396.357 155.656C394.793 165.618 396.725 171.853 396.334 171.876Z" fill="#455A64"/>
<path d="M593.926 149.25L708.367 347.807L625.47 410.25L575.267 338.259C575.267 338.259 532.335 359.449 504.656 321.072C491.979 303.517 469.937 268.016 453.395 233.895C429.95 185.51 443.801 145.407 484.386 121.433C524.213 97.9193 570.136 109.584 593.926 149.25Z" fill="#FCCBB9"/>
<path d="M574.148 337.751C574.148 337.751 600.009 322.543 614.527 287.962C614.527 287.962 622.165 324.2 581.119 347.852L574.148 337.751Z" fill="#C1502D"/>
<path d="M553.751 188.129C552.578 187.83 550.277 193.766 544.111 197.631C538.014 201.589 531.502 201.266 531.318 202.44C531.203 202.969 532.768 203.866 535.644 204.05C538.474 204.257 542.638 203.544 546.458 201.128C550.277 198.69 552.601 195.238 553.544 192.639C554.51 189.993 554.303 188.244 553.751 188.129Z" fill="#263238"/>
<path d="M492.75 223.17C491.576 222.871 489.252 228.807 483.109 232.672C477.012 236.63 470.501 236.308 470.317 237.481C470.202 238.01 471.766 238.907 474.642 239.091C477.472 239.299 481.637 238.585 485.456 236.169C489.275 233.731 491.599 230.279 492.542 227.68C493.509 225.057 493.302 223.285 492.75 223.17Z" fill="#263238"/>
<path d="M548.188 271.892C546.485 270.787 545.542 268.74 545.312 266.715C545.082 264.69 545.427 262.643 545.772 260.641C546.232 258.064 546.761 255.349 548.51 253.394C550.051 251.691 552.306 250.84 554.538 250.38C556.954 249.873 559.577 249.735 561.808 250.771C565.306 252.358 567.169 256.592 566.548 260.365C565.95 264.161 563.212 267.382 559.853 269.223C556.494 271.064 552.559 271.662 548.717 271.593" fill="#F3B09B"/>
<path d="M552.65 246.039C551.637 246.66 556.17 253.126 553.869 261.592C551.591 270.059 544.183 274.178 544.781 275.121C544.965 275.581 547.197 275.305 550.165 273.326C553.087 271.417 556.607 267.574 558.01 262.398C559.414 257.221 558.217 252.458 556.584 249.651C554.904 246.798 553.064 245.694 552.65 246.039Z" fill="#263238"/>
<path d="M549.43 172.211C548.073 170.6 541.585 173.959 533.21 175.892C524.881 178.009 517.565 177.986 517.105 180.033C516.92 181 518.669 182.334 521.936 183.185C525.18 184.037 529.92 184.244 534.936 183.047C539.951 181.828 544.07 179.481 546.554 177.226C549.085 174.995 550.029 172.993 549.43 172.211Z" fill="#263238"/>
<path d="M472.164 201.486C470.07 201.348 468.045 206.226 464.111 210.804C460.338 215.498 455.92 218.397 456.427 220.422C456.703 221.365 458.474 221.848 461.12 221.227C463.743 220.606 467.125 218.719 469.771 215.521C472.417 212.346 473.659 208.665 473.797 205.973C473.935 203.258 473.13 201.601 472.164 201.486Z" fill="#263238"/>
<path d="M532.826 255.67C532.665 255.302 528.455 256.659 521.806 259.121C520.126 259.789 518.469 260.249 517.641 259.305C516.675 258.362 516.445 256.291 516.238 254.06C515.731 249.435 515.179 244.603 514.627 239.542C512.165 218.95 509.496 202.361 508.668 202.476C507.84 202.591 509.174 219.364 511.636 239.933C512.28 244.995 512.902 249.803 513.5 254.428C513.845 256.544 513.868 259.121 515.939 261.077C516.974 262.043 518.607 262.296 519.758 262.043C520.931 261.813 521.829 261.376 522.634 261.008C529.076 258.063 532.987 256.038 532.826 255.67Z" fill="#263238"/>
<path d="M625.527 237.244C623.549 248.816 625.78 261.747 626.148 273.481C626.54 285.215 630.934 297.685 640.873 303.943C650.698 310.132 665.538 310.454 670.231 321.107C672.21 325.639 671.612 330.885 672.969 335.625C674.948 342.527 680.93 347.727 687.556 350.511C689.167 351.201 690.823 351.753 692.503 352.213C695.494 357.367 698.508 362.498 701.499 367.652C712.612 386.725 724.944 406.926 745.007 416.152C755.935 421.168 768.866 422.364 780.025 417.901C791.183 413.437 800.087 402.9 801.169 390.936C801.997 381.848 798.5 372.92 798.362 363.786C798.086 344.805 812.189 326.583 807.496 308.177C801.79 285.698 772.501 278.082 760.997 257.951C756.212 249.576 754.877 239.567 750.207 231.123C741.441 215.271 723.103 207.932 706.607 200.454C701.131 197.969 695.54 195.093 690.386 191.734C691.215 190.952 691.997 190.124 692.71 189.226C699.612 180.621 699.934 167.737 694.597 158.097C689.259 148.433 678.997 142.037 668.161 140.036C661.097 138.724 653.413 139.023 647.293 135.227C640.482 130.994 636.939 122.366 629.531 119.26C624.055 116.959 617.82 118.362 611.884 118.592C598.769 119.098 584.665 109.711 569.043 98.8746C557.884 89.7635 545.345 81.6418 531.103 80.8825C514.169 79.9852 498.685 89.6025 484.489 98.8516C471.605 107.249 457.156 118.546 458.03 133.915C475.148 162.882 501.285 190.008 548.106 166.518C558.897 161.111 574.404 160.789 582.457 169.785C591.039 179.356 586.253 198.13 597.711 203.951C600.012 205.125 602.657 205.516 605.349 205.7C608.087 206.16 611.562 207.678 614.875 210.209C614.921 210.232 626.31 224.152 625.527 237.244Z" fill="#263238"/>
<path d="M647.47 197.234C647.401 197.188 647.838 196.543 648.137 195.117C648.414 193.736 648.368 191.482 647.056 189.066C645.837 186.604 643.191 184.303 639.533 183.015C635.874 181.611 631.388 181.243 626.464 180.254C624.002 179.725 621.425 178.965 618.987 177.539C616.571 176.066 614.477 173.927 612.936 171.35C609.76 166.219 608.449 159.938 606.125 153.864C601.524 141.762 589.79 131.086 575.134 127.75C571.498 126.945 567.794 126.554 564.159 126.715C560.547 126.922 556.981 127.543 553.575 128.555C546.765 130.534 540.484 133.479 534.295 135.78C528.106 138.15 521.871 139.576 515.981 140.036C510.091 140.45 504.546 140.013 499.622 139.07C489.729 137.206 482.366 133.41 477.696 130.396C475.349 128.878 473.623 127.566 472.519 126.6C471.392 125.656 470.816 125.127 470.862 125.104C470.885 125.058 471.53 125.518 472.703 126.393C473.853 127.29 475.648 128.509 477.995 129.959C482.711 132.812 490.051 136.401 499.806 138.104C504.661 138.955 510.091 139.346 515.889 138.886C521.664 138.38 527.738 136.953 533.835 134.583C539.955 132.283 546.236 129.315 553.207 127.267C556.681 126.209 560.34 125.564 564.113 125.334C567.886 125.15 571.706 125.564 575.479 126.393C590.595 129.844 602.697 140.888 607.368 153.427C609.714 159.639 610.98 165.851 613.971 170.752C615.42 173.213 617.353 175.215 619.585 176.619C621.84 177.999 624.301 178.758 626.694 179.288C631.503 180.323 636.081 180.783 639.832 182.302C643.605 183.705 646.389 186.259 647.562 188.859C648.851 191.436 648.828 193.806 648.437 195.232C648.022 196.635 647.47 197.234 647.47 197.234Z" fill="#455A64"/>
<path d="M582.197 107.691C582.151 107.714 581.944 107.3 581.599 106.541C581.277 105.759 580.794 104.608 579.989 103.251C579.229 101.847 578.056 100.283 576.468 98.7412C574.789 97.2917 572.511 96.0263 569.773 95.6581C564.182 94.8299 557.556 97.6368 551.62 102.146C545.408 106.656 538.252 110.958 530.729 115.537C515.268 124.487 498.656 126.489 487.175 125.752C481.4 125.407 476.776 124.51 473.646 123.705C472.082 123.337 470.886 122.899 470.08 122.646C469.275 122.37 468.861 122.209 468.861 122.163C468.884 122.048 470.632 122.485 473.762 123.129C476.914 123.774 481.492 124.487 487.221 124.717C498.564 125.2 514.83 123.06 529.993 114.271C537.447 109.716 544.672 105.413 550.838 101.042C556.935 96.5095 563.929 93.5875 569.934 94.6228C572.902 95.083 575.318 96.5325 577.044 98.12C578.677 99.8226 579.828 101.479 580.518 102.952C581.277 104.401 581.668 105.598 581.921 106.403C582.128 107.254 582.243 107.668 582.197 107.691Z" fill="#455A64"/>
<path d="M822.243 485.728C796.774 497.278 785.868 502.57 760.398 505.607L760.491 505.929L726.623 424.62C730.235 421.26 734.377 417.188 739.024 412.195C743.028 407.893 746.203 402.923 748.526 397.539C751.356 391.005 754.739 382.17 755.084 376.763C755.521 370.068 763.873 367.399 767.14 372.53C770.407 377.661 769.648 396.159 759.34 415.14C749.033 434.122 780.461 421.191 792.011 416.682L822.243 485.728Z" fill="#FFBE9D"/>
<path d="M616.761 376.397C616.761 376.397 633.258 351.939 668.253 347.867C686.521 345.727 701.752 343.725 719.56 351.663C759.318 369.356 765.53 391.375 786.766 429.36C803.285 458.902 813.685 511.337 808.462 564.255C803.147 617.978 793.737 686.219 793.737 686.219L845.574 767.92H577.326V612.894L488.24 555.374L616.761 376.397Z" fill="#455A64"/>
<path d="M797.427 435.016C792.987 443.368 788.546 451.72 784.129 460.072C781.966 464.144 778.883 468.792 774.258 468.7C770.048 468.608 766.988 464.213 766.804 460.003C766.62 455.792 768.529 451.835 770.416 448.062C775.455 437.892 780.493 427.746 785.509 417.577L786.36 414.747C786.36 414.747 791.215 406.441 796.944 409.317C802.144 411.917 804.237 422.201 797.427 435.016Z" fill="#FFBE9D"/>
<path d="M806.903 455.653C802.463 464.005 798.022 472.357 793.605 480.709C791.442 484.781 788.359 489.429 783.734 489.337C779.524 489.245 776.464 484.85 776.28 480.64C776.096 476.429 778.006 472.472 779.892 468.699C784.931 458.529 789.97 448.383 794.985 438.213L795.837 435.383C795.837 435.383 800.691 427.078 806.42 429.953C811.643 432.553 813.714 442.838 806.903 455.653Z" fill="#FFBE9D"/>
<path d="M815.853 476.871C811.643 484.785 807.433 492.7 803.245 500.615C801.198 504.48 798.276 508.874 793.904 508.805C789.924 508.736 787.002 504.549 786.841 500.569C786.68 496.588 788.474 492.815 790.246 489.249C795.008 479.608 799.794 469.968 804.557 460.351L805.362 457.682C805.362 457.682 809.963 449.813 815.393 452.528C820.34 454.99 822.296 464.722 815.853 476.871Z" fill="#FFBE9D"/>
<path d="M824 487.287C820.871 493.177 817.742 499.09 814.59 504.98C813.071 507.856 810.885 511.146 807.618 511.077C804.65 511.008 802.465 507.902 802.35 504.934C802.212 501.966 803.569 499.159 804.903 496.49C808.47 489.311 812.013 482.133 815.579 474.955L816.177 472.953C816.177 472.953 819.605 467.086 823.655 469.111C827.359 470.974 828.808 478.222 824 487.287Z" fill="#FFBE9D"/>
<path d="M799.167 430.206C799.259 430.252 798.615 431.655 797.395 434.163C796.038 436.878 794.243 440.421 792.081 444.701C789.757 449.187 787.042 454.433 784.051 460.231C782.509 463.084 780.899 466.489 777.425 468.468C775.722 469.411 773.49 469.664 771.581 468.951C769.671 468.284 768.038 466.903 766.956 465.155C764.816 461.543 765.185 457.286 766.312 453.835C767.462 450.315 769.257 447.324 770.729 444.379C773.743 438.604 776.504 433.381 778.851 428.895C781.106 424.684 782.993 421.187 784.442 418.518C785.8 416.079 786.582 414.745 786.674 414.791C786.766 414.837 786.145 416.24 784.948 418.771C783.614 421.509 781.865 425.075 779.772 429.355C777.494 433.887 774.848 439.156 771.926 444.977C770.476 447.922 768.728 450.936 767.669 454.249C766.611 457.493 766.381 461.359 768.199 464.396C769.97 467.41 773.905 468.928 776.781 467.226C779.679 465.615 781.359 462.44 782.878 459.61C785.961 453.881 788.768 448.681 791.183 444.218C793.507 440.03 795.417 436.556 796.889 433.91C798.293 431.471 799.075 430.16 799.167 430.206Z" fill="#EB996E"/>
<path d="M808.464 452.322C808.556 452.368 807.912 453.772 806.692 456.279C805.335 458.994 803.54 462.538 801.378 466.817C799.054 471.304 796.339 476.549 793.348 482.347C791.806 485.2 790.196 488.605 786.722 490.584C785.019 491.527 782.787 491.78 780.878 491.067C778.968 490.4 777.334 489.02 776.253 487.271C774.113 483.659 774.481 479.402 775.609 475.951C776.759 472.431 778.554 469.44 780.026 466.495C783.04 460.72 785.801 455.497 788.148 451.011C790.403 446.8 792.289 443.303 793.739 440.634C795.073 438.195 795.879 436.861 795.971 436.907C796.063 436.953 795.442 438.356 794.245 440.887C792.911 443.625 791.162 447.191 789.068 451.471C786.791 456.003 784.145 461.272 781.223 467.093C779.773 470.038 778.025 473.052 776.966 476.365C775.908 479.609 775.678 483.475 777.496 486.512C779.267 489.526 783.201 491.044 786.077 489.342C788.976 487.731 790.656 484.556 792.174 481.726C795.257 475.997 798.064 470.797 800.48 466.334C802.804 462.146 804.714 458.672 806.186 456.026C807.59 453.588 808.395 452.276 808.464 452.322Z" fill="#EB996E"/>
<path d="M819.094 468.704C819.186 468.75 818.542 470.154 817.369 472.707C816.126 475.514 814.493 479.173 812.537 483.59C810.512 488.192 808.166 493.714 805.152 499.673C803.61 502.572 802.092 506 798.824 508.254C797.214 509.336 795.028 509.842 793.003 509.313C791.002 508.807 789.253 507.518 788.057 505.816C785.641 502.295 785.871 497.947 786.929 494.427C788.034 490.838 789.828 487.801 791.324 484.833C794.384 479.012 797.145 473.72 799.515 469.187C801.792 464.931 803.702 461.388 805.152 458.696C806.509 456.234 807.314 454.899 807.383 454.945C807.475 454.992 806.854 456.418 805.635 458.949C804.277 461.71 802.529 465.299 800.412 469.647C798.111 474.226 795.442 479.541 792.497 485.431C791.025 488.422 789.276 491.459 788.287 494.818C787.297 498.108 787.205 502.042 789.253 504.987C790.265 506.414 791.761 507.495 793.395 507.909C795.028 508.323 796.731 507.955 798.111 507.058C800.918 505.171 802.506 501.927 804.047 499.051C807.107 493.184 809.546 487.709 811.686 483.176C813.802 478.62 815.597 474.962 816.932 472.477C818.174 469.993 819.002 468.658 819.094 468.704Z" fill="#EB996E"/>
<path d="M662.762 100.888L653.95 101.74L604.92 199.224L587.411 234.011C583.247 240.592 578.415 247.264 572.916 253.269C552.531 275.586 493.401 307.291 493.401 307.291L607.175 369.757L667.708 327.952L667.869 328.09C667.869 328.09 711.86 346.98 737.468 307.199C763.076 267.419 813.785 171.016 813.785 171.016C779.871 121.963 722.076 95.1594 662.762 100.888Z" fill="#FFBE9D"/>
<path d="M668.288 327.528C668.288 327.528 630.302 314.161 621.306 270.952C621.306 270.952 614.749 313.862 657.014 335.328L668.288 327.528Z" fill="#EB996E"/>
<path d="M632.869 146.353C632.363 145.64 610.436 120.953 594.147 148.907C577.857 176.862 611.403 188.32 611.932 187.56C612.438 186.778 632.869 146.353 632.869 146.353Z" fill="#FFBE9D"/>
<path d="M607.416 171.121C607.347 170.959 606.726 171.167 605.69 171.075C604.678 170.983 603.136 170.43 602.009 169.027C599.685 166.22 599.938 160.077 602.745 154.969C604.149 152.392 606.104 150.276 608.175 148.78C610.223 147.238 612.386 146.571 614.019 147.169C615.699 147.699 616.228 149.194 616.113 150.183C616.021 151.173 615.538 151.633 615.653 151.771C615.699 151.886 616.527 151.656 616.964 150.368C617.171 149.746 617.24 148.895 616.895 147.975C616.55 147.031 615.722 146.18 614.617 145.697C612.386 144.593 609.28 145.444 607.002 147.077C604.609 148.642 602.354 150.989 600.767 153.888C597.661 159.617 597.476 166.565 600.836 170.108C602.515 171.765 604.494 172.133 605.713 171.972C606.979 171.765 607.485 171.236 607.416 171.121Z" fill="#EB996E"/>
<path d="M746.138 208.433C747.289 208.042 750.096 213.748 756.561 217.061C762.98 220.466 769.422 219.592 769.721 220.742C769.882 221.272 768.387 222.284 765.557 222.721C762.75 223.181 758.539 222.836 754.513 220.742C750.51 218.649 747.887 215.428 746.713 212.897C745.54 210.366 745.586 208.594 746.138 208.433Z" fill="#263238"/>
<path d="M685.552 172.979C686.725 172.657 689.187 178.524 695.422 182.228C701.611 186.024 708.122 185.541 708.329 186.715C708.467 187.244 706.926 188.187 704.05 188.44C701.22 188.716 697.032 188.118 693.167 185.794C689.302 183.448 686.863 180.065 685.874 177.489C684.838 174.866 684.999 173.117 685.552 172.979Z" fill="#263238"/>
<path d="M703.297 245.551C703.481 245.183 707.737 246.932 714.433 250.015C716.112 250.843 717.792 251.464 718.735 250.544C719.816 249.647 720.231 247.53 720.599 245.229C721.496 240.489 722.462 235.543 723.452 230.343C727.685 209.245 731.78 192.288 732.632 192.472C733.483 192.656 730.745 209.889 726.512 230.987C725.43 236.164 724.418 241.111 723.429 245.827C722.899 247.99 722.669 250.659 720.369 252.522C719.218 253.443 717.516 253.558 716.342 253.213C715.146 252.891 714.249 252.361 713.443 251.901C707.001 248.312 703.113 245.919 703.297 245.551Z" fill="#263238"/>
<path d="M682.491 238.427C683.526 239.002 679.362 245.697 682.1 254.026C684.838 262.378 692.43 266.082 691.901 267.049C691.74 267.532 689.508 267.348 686.448 265.553C683.434 263.804 679.707 260.169 678.027 255.062C676.348 249.954 677.291 245.145 678.787 242.246C680.282 239.301 682.054 238.105 682.491 238.427Z" fill="#263238"/>
<path d="M726.29 162.69C724.634 163.978 718.974 159.331 711.197 155.673C703.489 151.853 696.334 150.335 696.334 148.218C696.357 147.229 698.359 146.285 701.741 146.147C705.1 145.986 709.77 146.792 714.418 149.023C719.043 151.278 722.586 154.453 724.565 157.168C726.52 159.906 727.049 162.069 726.29 162.69Z" fill="#263238"/>
<path d="M779.75 203.403C777.794 204.116 774.458 200.02 769.396 196.753C764.45 193.302 759.388 191.784 759.296 189.713C759.296 188.724 760.86 187.757 763.575 187.619C766.267 187.458 770.041 188.332 773.492 190.633C776.92 192.934 779.175 196.109 780.049 198.663C780.969 201.194 780.67 203.011 779.75 203.403Z" fill="#263238"/>
<path d="M849.14 157.92C852.683 153.226 854.179 146.738 851.947 141.285C849.738 135.832 843.342 132.082 837.705 133.785C843.779 128.263 843.135 117.127 836.486 112.341C830.205 107.832 821.531 109.281 814.145 107.05C806.921 104.887 801.215 99.2729 796.774 93.1528C792.334 87.0558 788.86 80.2685 784.235 74.3325C774.572 61.9083 759.893 53.5104 744.294 51.4857C728.694 49.461 712.336 53.8325 699.82 63.3578C692.779 55.121 680.01 53.3263 669.955 57.3757C659.901 61.4251 652.401 70.3061 647.753 80.0844C644.624 86.7107 642.668 93.774 641.058 100.952C640.736 101.459 640.367 101.942 640.045 102.471C626.655 124.766 612.919 152.214 622.237 158.265C638.481 168.779 653.919 135.464 653.919 135.464C678.905 140.296 690.294 105.462 698.186 104.036C706.078 102.609 723.264 98.5827 751.886 146.485C762.999 165.098 784.902 178.443 798.477 183.182C798.868 183.32 799.259 183.504 799.65 183.619C799.742 183.643 799.834 183.688 799.926 183.712C800.087 183.758 800.203 183.758 800.364 183.781C804.758 185.161 809.337 185.989 814.03 185.966C819.345 185.943 824.867 184.839 829.123 181.641C833.38 178.443 836.072 172.806 834.691 167.652C840.282 165.719 845.597 162.636 849.14 157.92Z" fill="#263238"/>
<path d="M816.193 147.447C816.193 147.447 815.364 147.056 814.26 145.744C813.225 144.433 812.051 141.994 812.189 138.704C812.258 137.07 812.695 135.276 813.662 133.527C814.605 131.779 816.216 130.122 818.378 129.179C822.635 127.223 828.801 128.005 833.08 132.17C837.383 136.403 838.326 143.973 835.151 150.162C832.022 156.466 824.59 160.469 816.883 160.492C809.083 160.538 801.26 156.742 795.393 150.921C789.365 145.146 784.925 137.577 781.658 129.501C778.345 121.402 775.929 113.257 773.168 105.573C770.453 97.8882 767.278 90.6407 763.022 84.5437C762.492 83.7844 761.94 83.0251 761.411 82.2889C760.859 81.5526 760.215 80.9084 759.639 80.2182L757.868 78.1935C757.224 77.5723 756.602 76.9511 755.935 76.3759C753.312 74.0521 750.482 72.0734 747.583 70.5089C741.762 67.3798 735.688 65.7463 730.074 65.3092C718.755 64.4809 709.828 68.1161 704.444 71.2682C701.706 72.8557 699.727 74.3512 698.439 75.4096C697.15 76.4679 696.483 77.0431 696.437 77.0201C696.437 77.0201 698.692 74.2132 704.145 70.808C709.505 67.4719 718.524 63.6066 730.143 64.3198C735.895 64.7109 742.13 66.3215 748.136 69.4736C751.127 71.0611 754.049 73.0628 756.763 75.4556C757.454 76.0538 758.098 76.698 758.765 77.3192C759.386 78.0095 759.985 78.6997 760.606 79.3899C761.204 80.1032 761.871 80.7704 762.446 81.5066C762.998 82.2659 763.551 83.0481 764.103 83.8074C768.52 90.0425 771.742 97.405 774.502 105.136C777.286 112.866 779.725 120.988 782.992 128.995C786.213 136.978 790.562 144.364 796.36 149.955C802.02 155.615 809.52 159.25 816.883 159.227C824.176 159.25 831.171 155.477 834.093 149.679C837.107 143.927 836.255 136.84 832.367 132.952C828.456 129.064 822.658 128.212 818.7 129.984C814.559 131.71 812.948 135.828 812.741 138.819C812.511 141.948 813.547 144.318 814.49 145.629C815.479 146.918 816.262 147.378 816.193 147.447Z" fill="#FAFAFA"/>
<path d="M577.333 606.039L650.084 384.796L632.874 351.964L527.774 283.792C523.955 286.345 401.254 333.925 364.488 445.927C338.098 526.294 322.407 691.72 322.407 691.72L308.602 767.853H577.333V606.039Z" fill="#27AE60"/>
<g opacity="0.2">
<g opacity="0.2">
<path opacity="0.2" d="M367.728 687.168C387.055 700.719 406.657 714.409 428.768 722.692C450.878 730.975 476.118 733.413 497.883 724.233C507.638 720.115 517.325 713.627 527.816 715.007C540.355 716.641 548.523 728.651 559.176 735.438C564.882 739.073 571.37 743.767 576.524 739.372L576.938 720.529C576.662 696.647 577.352 644.534 577.352 644.534C577.168 641.934 577.352 643.936 576.455 643.315C571.784 640.048 565.687 642.648 561.408 646.398C541.506 663.746 524.779 685.603 501.012 697.107C480.489 707.046 456.561 708.128 434.059 704.377C411.558 700.604 390.115 692.275 368.855 683.993" fill="black"/>
</g>
</g>
<path d="M554.643 369.841C554.643 369.841 491.533 415.764 529.725 508.117C567.941 600.471 602.637 648.143 602.637 648.143L724.809 548.358L702.79 507.22C693.127 489.159 685.948 469.855 681.945 449.77C676.722 423.587 663.953 383.185 633.376 360.085C614.716 346.004 587.475 349.755 554.643 369.841Z" fill="#27AE60"/>
<path d="M456.4 325.412C456.4 325.412 460.243 325.228 467.076 326.47C470.435 327.184 474.669 328.196 478.925 330.819C481.042 332.107 483.158 333.81 484.953 335.996C486.771 338.181 488.174 340.896 489.187 343.841C491.234 349.754 491.832 356.841 490.222 364.042C488.657 371.197 484.815 378.56 478.465 383.967C472.23 389.466 464.407 393.262 456.93 397.91C453.202 400.256 449.521 402.856 446.438 406.123C443.355 409.367 440.893 413.302 439.651 417.742C437.005 426.646 437.925 435.987 437.327 444.868C437.051 449.332 436.407 453.749 435.003 457.868C433.646 461.986 431.713 465.805 429.389 469.211C424.742 476.067 418.553 481.267 412.041 484.672C405.484 488.031 398.605 489.504 392.37 489.48C386.112 489.55 380.544 488.261 375.919 486.582C371.272 484.879 367.567 482.693 364.783 480.646C361.953 478.621 360.044 476.711 358.801 475.377C358.249 474.732 357.812 474.226 357.444 473.812C357.145 473.444 357.007 473.26 357.03 473.237C357.191 473.076 359.446 476.274 365.106 480.185C367.913 482.141 371.594 484.212 376.195 485.822C380.774 487.41 386.273 488.606 392.37 488.468C398.467 488.422 405.139 486.927 411.489 483.614C417.793 480.254 423.775 475.147 428.285 468.474C432.84 461.825 435.578 453.588 435.924 444.776C436.522 436.033 435.532 426.623 438.27 417.305C439.582 412.658 442.182 408.493 445.403 405.111C448.624 401.706 452.397 399.06 456.193 396.69C463.763 391.997 471.54 388.269 477.614 382.954C483.78 377.755 487.507 370.691 489.095 363.743C490.705 356.772 490.199 349.892 488.266 344.14C487.323 341.264 485.988 338.664 484.286 336.548C482.583 334.431 480.582 332.751 478.534 331.463C474.439 328.863 470.297 327.759 466.984 326.976C463.625 326.24 460.956 325.941 459.161 325.734C458.333 325.642 457.666 325.573 457.114 325.504C456.631 325.481 456.4 325.435 456.4 325.412Z" fill="#FAFAFA"/>
<path d="M514.955 305.81C514.932 305.764 515.3 305.58 516.037 305.235C516.773 304.913 517.9 304.522 519.396 304.176C522.341 303.532 526.988 303.049 532.28 304.913C534.903 305.833 537.595 307.397 539.873 309.813C542.082 312.252 543.83 315.473 544.474 319.132C545.142 322.744 544.819 326.885 542.795 330.497C540.77 334.087 537.204 336.778 533.154 338.159C524.987 340.989 515.991 338.573 510.791 333.281C505.476 327.966 504.165 320.535 505.706 315.197C507.271 309.744 510.952 306.546 513.598 305.074C514.955 304.314 516.106 303.946 516.865 303.739C517.647 303.555 518.061 303.509 518.084 303.555C518.13 303.693 516.428 303.969 513.874 305.557C511.412 307.121 508.03 310.296 506.673 315.45C505.338 320.466 506.696 327.437 511.711 332.338C516.589 337.216 525.079 339.447 532.694 336.801C536.468 335.513 539.735 333.028 541.575 329.807C543.416 326.563 543.761 322.767 543.163 319.385C542.588 315.956 541 312.942 538.975 310.642C536.905 308.364 534.374 306.822 531.912 305.902C526.919 304.015 522.41 304.314 519.511 304.775C516.543 305.258 515.001 305.948 514.955 305.81Z" fill="#FAFAFA"/>
<path d="M568.34 589.703C568.432 589.634 569.168 591.176 571.653 593.039C574.069 594.834 578.625 596.767 584.446 595.846C590.243 594.949 596.709 591.13 602.461 585.148C605.337 582.134 608.005 578.545 610.375 574.472C612.63 570.331 614.517 565.66 615.782 560.598C618.359 550.498 618.267 538.442 613.665 527.03C611.388 521.324 607.798 516.009 603.703 510.856C599.654 505.656 595.121 500.502 591.325 494.566C587.46 488.699 584.676 481.659 584.353 474.204C583.916 466.773 585.32 459.295 586.654 451.841C587.966 444.386 589.369 436.724 588.564 429.017C587.874 421.309 585.366 413.648 581.316 406.814C579.246 403.409 576.876 400.234 574.138 397.427C571.354 394.643 568.294 392.227 564.981 390.249C561.645 388.293 558.056 386.867 554.397 385.923C550.716 385.003 546.92 384.796 543.193 384.934C539.442 385.118 535.807 385.9 532.31 386.982C528.813 388.132 525.546 389.766 522.486 391.652C519.518 393.677 516.78 395.978 514.525 398.67C512.362 401.408 510.36 404.307 509.21 407.528C506.633 413.901 506.242 420.78 505.782 427.337C505.368 433.918 504.954 440.452 502.975 446.48C500.95 452.485 497.545 457.593 494.163 462.263C490.781 466.957 487.353 471.282 484.638 475.769C481.877 480.232 480.036 484.903 479.415 489.573C478.771 494.221 479.231 498.708 480.358 502.688C481.578 506.668 483.487 510.073 485.581 512.926C486.754 514.261 487.744 515.664 489.009 516.7C489.607 517.252 490.183 517.781 490.758 518.31C491.379 518.77 492 519.207 492.575 519.645C497.384 523.05 501.871 524.292 504.862 525.028C506.38 525.328 507.554 525.443 508.336 525.581C509.118 525.696 509.532 525.788 509.532 525.811C509.532 525.834 509.118 525.811 508.336 525.742C507.554 525.65 506.357 525.581 504.816 525.328C501.779 524.683 497.2 523.51 492.276 520.105C491.678 519.668 491.034 519.23 490.39 518.77C489.814 518.241 489.193 517.712 488.595 517.16C487.307 516.101 486.271 514.698 485.052 513.363C482.889 510.464 480.91 506.99 479.599 502.918C478.403 498.846 477.896 494.244 478.518 489.435C479.116 484.65 481.003 479.772 483.786 475.24C486.524 470.661 489.93 466.267 493.289 461.596C496.602 456.925 499.938 451.887 501.871 446.089C503.757 440.245 504.148 433.826 504.539 427.245C504.977 420.665 505.322 413.671 507.991 407.021C509.187 403.639 511.258 400.625 513.513 397.772C515.859 394.988 518.689 392.596 521.749 390.479C524.901 388.5 528.284 386.821 531.873 385.624C535.485 384.52 539.258 383.692 543.124 383.507C546.966 383.369 550.9 383.576 554.742 384.52C558.562 385.486 562.266 386.959 565.717 388.983C569.145 391.031 572.32 393.539 575.173 396.392C578.003 399.291 580.442 402.558 582.582 406.032C586.746 413.049 589.323 420.895 590.036 428.833C590.865 436.817 589.415 444.593 588.081 452.048C586.723 459.502 585.366 466.865 585.78 474.089C586.079 481.314 588.702 488.055 592.498 493.83C599.976 505.403 610.283 514.606 614.839 526.57C619.486 538.304 619.509 550.567 616.84 560.829C615.506 565.982 613.55 570.699 611.25 574.909C608.811 579.051 606.073 582.663 603.105 585.7C597.215 591.728 590.566 595.57 584.607 596.399C578.602 597.273 573.977 595.179 571.561 593.27C570.319 592.303 569.536 591.383 569.053 590.739C568.524 590.071 568.34 589.703 568.34 589.703Z" fill="#FAFAFA"/>
<path d="M667.862 418.068C667.908 418.091 667.678 418.505 667.218 419.241C666.758 419.977 665.976 421.036 664.825 422.232C662.57 424.671 658.613 427.754 652.884 429.618C647.224 431.504 639.609 431.941 632.154 428.996C624.723 426.166 617.544 420.345 612.966 412.339C608.364 404.332 606.776 395.428 606.984 387.559C607.214 379.691 608.87 372.466 612.367 367.451C615.819 362.366 620.742 360.272 624.032 359.835C625.712 359.628 627.023 359.72 627.898 359.904C628.772 360.088 629.186 360.249 629.186 360.295C629.163 360.479 627.345 359.812 624.124 360.387C620.995 360.962 616.371 363.102 613.219 368.026C609.998 372.857 608.479 379.898 608.318 387.605C608.203 395.29 609.79 403.941 614.208 411.649C618.602 419.356 625.505 424.993 632.637 427.777C639.793 430.676 647.063 430.377 652.585 428.674C658.176 426.995 662.11 424.119 664.434 421.864C666.758 419.54 667.747 417.976 667.862 418.068Z" fill="#FAFAFA"/>
<path d="M692.275 486.536C692.137 486.651 691.147 484.649 687.949 482.694C684.843 480.807 679.091 479.312 672.81 481.612C666.575 483.936 660.961 490.424 658.154 498.776C655.232 507.174 655.094 517.09 653.875 527.398C652.655 537.705 650.999 547.415 650.24 556.296C649.411 565.177 649.549 573.252 650.47 579.925C651.367 586.597 653.069 591.82 654.473 595.317C655.899 598.814 656.958 600.632 656.82 600.701C656.774 600.724 656.475 600.287 655.968 599.435C655.439 598.584 654.749 597.273 653.944 595.547C652.356 592.096 650.493 586.827 649.457 580.086C648.376 573.344 648.146 565.177 648.905 556.204C649.595 547.231 651.206 537.475 652.425 527.237C653.622 517.044 653.783 506.99 656.866 498.339C659.834 489.757 665.77 482.993 672.419 480.669C679.114 478.368 685.073 480.14 688.202 482.234C689.836 483.292 690.802 484.442 691.446 485.225C692.068 486.053 692.321 486.513 692.275 486.536Z" fill="#FAFAFA"/>
<path d="M317.598 725.795C317.69 725.772 318.081 727.084 319.254 729.408C320.405 731.731 322.337 735.091 325.627 738.795C327.307 740.589 329.309 742.499 331.77 744.179C334.232 745.835 337.246 747.262 340.697 747.584C344.172 747.998 347.715 746.687 351.304 744.984C354.893 743.281 358.552 741.165 362.325 738.864C369.825 734.285 378.246 728.74 388.669 726.578C398.884 724.162 410.319 724.024 421.018 719.399C431.67 714.775 440.758 705.71 446.809 694.643C452.906 683.507 455.966 670.439 457.117 657.048C458.336 643.635 457.761 630.267 454.149 618.096C452.308 612.045 449.639 606.362 446.073 601.461C442.53 596.561 437.997 592.557 432.959 589.681C427.943 586.759 422.628 584.551 417.797 581.652C412.919 578.845 408.801 574.979 405.648 570.769C399.275 562.279 395.87 552.984 392.097 545C388.416 536.97 384.343 529.976 379.351 525.029C374.427 520.037 368.698 517.46 363.935 516.425C359.104 515.366 355.192 515.987 352.731 516.701C350.246 517.506 349.095 518.265 349.049 518.173C349.049 518.173 350.177 517.322 352.639 516.425C355.123 515.619 359.104 514.86 364.05 515.872C368.951 516.839 374.818 519.392 379.926 524.454C385.08 529.424 389.267 536.51 393.017 544.563C396.859 552.57 400.334 561.773 406.592 570.033C409.721 574.151 413.655 577.809 418.441 580.547C423.18 583.377 428.495 585.563 433.626 588.531C438.803 591.43 443.519 595.594 447.178 600.633C450.882 605.672 453.597 611.493 455.506 617.659C459.211 630.06 459.786 643.612 458.566 657.14C457.393 670.669 454.287 683.921 448.052 695.287C441.863 706.561 432.545 715.833 421.547 720.573C416.071 722.988 410.342 724.093 404.843 725.013C399.344 725.91 393.984 726.578 388.922 727.705C378.706 729.776 370.424 735.16 362.831 739.692C359.012 741.97 355.33 744.11 351.672 745.789C349.809 746.594 348.06 747.423 346.173 747.906C345.713 748.021 345.253 748.182 344.77 748.251L343.366 748.389C342.423 748.55 341.503 748.389 340.605 748.366C336.993 747.998 333.887 746.456 331.379 744.731C328.848 742.982 326.87 741.027 325.19 739.163C321.923 735.367 320.06 731.916 318.978 729.523C317.897 727.153 317.598 725.795 317.598 725.795Z" fill="#FAFAFA"/>
<path d="M724.837 548.365C724.86 548.388 724.653 548.549 724.285 548.871C723.87 549.239 723.318 549.699 722.605 550.32C721.063 551.609 718.855 553.472 716.002 555.842C710.158 560.674 701.668 567.691 690.992 576.503C669.434 594.196 638.972 619.206 603.103 648.633L602.55 649.093L602.136 648.517C597.512 641.914 593.347 634.805 589.114 627.488C584.926 620.172 580.716 612.648 576.483 604.941C568.085 589.503 559.756 573.259 551.542 556.463C543.558 540.151 536.104 524.091 529.271 508.377C525.888 500.508 522.598 492.778 519.722 485.024C518.273 481.159 516.938 477.294 515.811 473.405C515.328 471.427 514.868 469.471 514.384 467.538C514.039 465.56 513.671 463.604 513.326 461.671C510.933 446.003 512.59 430.634 517.076 417.335C521.609 404.014 528.465 392.579 536.334 383.606C544.226 374.61 553.061 368.076 561.389 363.589C569.718 359.01 577.61 356.572 584.121 355.237C590.655 353.834 595.878 353.834 599.375 353.742C601.078 353.834 602.389 353.903 603.356 353.972C604.253 354.018 604.713 354.087 604.713 354.087C604.713 354.087 604.253 354.11 603.356 354.11C602.389 354.087 601.078 354.064 599.375 354.041C595.901 354.225 590.701 354.317 584.236 355.789C577.771 357.216 569.971 359.701 561.758 364.302C553.521 368.812 544.847 375.346 537.07 384.273C529.34 393.177 522.575 404.543 518.158 417.726C513.763 430.887 512.176 446.049 514.569 461.487C514.914 463.397 515.282 465.329 515.627 467.285C516.087 469.195 516.57 471.127 517.053 473.083C518.158 476.925 519.492 480.745 520.942 484.587C523.818 492.272 527.108 500.002 530.49 507.848C537.323 523.516 544.801 539.576 552.761 555.865C560.975 572.638 569.281 588.881 577.656 604.32C581.866 612.027 586.054 619.551 590.241 626.867C594.429 634.161 598.57 641.27 603.149 647.804L602.182 647.666C638.189 618.377 668.767 593.529 690.417 575.928C701.208 567.231 709.744 560.306 715.657 555.543C718.556 553.219 720.81 551.425 722.398 550.182C723.134 549.607 723.709 549.17 724.146 548.825C724.607 548.48 724.814 548.342 724.837 548.365Z" fill="#263238"/>
<path d="M829.335 646.487C823.261 616.945 803.474 609.927 803.474 609.927L798.941 646.165L746.116 624.514L704.84 565.522L617.87 636.617C617.87 636.617 687.193 707.895 716.297 710.955C745.402 713.992 814.173 710.771 814.173 710.771C814.173 710.771 835.409 676.029 829.335 646.487Z" fill="#FFBE9D"/>
<path d="M502.002 564.235L448.256 628.45L333.447 611.815L333.654 610.32L337.198 573.945C302.962 578.96 297.624 605.373 296.083 623.779C294.38 644.141 319.459 663.192 324.681 666.942L324.589 667.862C324.589 667.862 440.71 730.696 493.351 713.441C517.786 705.434 577.284 642.968 577.284 642.968V612.851L502.002 564.235Z" fill="#FCCBB9"/>
<path d="M486.952 554.941L577.327 623.712L582.204 615.544C566.444 586.784 547.923 551.283 530.161 509.133L486.952 554.941Z" fill="#455A64"/>
<path d="M372.311 411.002C376.752 419.354 381.192 427.705 385.61 436.057C387.772 440.13 390.855 444.777 395.48 444.685C399.69 444.593 402.751 440.199 402.935 435.988C403.119 431.778 401.209 427.82 399.322 424.047C394.284 413.878 389.245 403.731 384.229 393.562L383.378 390.732C383.378 390.732 378.523 382.426 372.794 385.302C367.595 387.902 365.501 398.186 372.311 411.002Z" fill="#FCCBB9"/>
<path d="M362.833 431.641C367.273 439.992 371.714 448.344 376.131 456.696C378.294 460.768 381.101 466.773 385.726 466.681C389.936 466.589 394.1 462.057 394.285 457.846C394.469 453.636 391.731 448.459 389.867 444.686C384.828 434.516 379.79 424.37 374.774 414.201L373.923 411.371C373.923 411.371 369.068 403.065 363.339 405.941C358.093 408.541 356.023 418.825 362.833 431.641Z" fill="#FCCBB9"/>
<path d="M353.883 452.853C358.093 460.768 362.304 468.682 366.491 476.597C368.539 480.462 371.461 484.857 375.832 484.788C379.813 484.719 382.735 480.531 382.896 476.551C383.057 472.571 381.262 468.797 379.491 465.231C374.728 455.591 369.942 445.951 365.18 436.333L364.374 433.664C364.374 433.664 359.773 425.796 354.343 428.511C349.396 430.95 347.441 440.705 353.883 452.853Z" fill="#FCCBB9"/>
<path d="M345.74 463.274C348.869 469.164 351.998 475.077 355.15 480.967C356.669 483.843 358.855 487.133 362.122 487.064C365.09 486.995 367.276 483.889 367.391 480.921C367.529 477.953 366.171 475.146 364.837 472.477C361.293 465.299 357.727 458.12 354.161 450.942L353.563 448.94C353.563 448.94 350.135 443.073 346.085 445.098C342.381 446.961 340.932 454.209 345.74 463.274Z" fill="#FCCBB9"/>
<path d="M370.562 406.17C370.654 406.124 371.459 407.435 372.817 409.851C374.289 412.52 376.199 415.971 378.523 420.159C380.915 424.622 383.722 429.799 386.828 435.551C388.37 438.381 390.026 441.579 392.925 443.166C395.801 444.869 399.736 443.35 401.507 440.336C403.325 437.299 403.095 433.434 402.037 430.19C400.978 426.877 399.23 423.863 397.78 420.918C394.858 415.097 392.212 409.828 389.934 405.296C387.841 400.993 386.092 397.427 384.758 394.712C383.561 392.204 382.94 390.778 383.032 390.732C383.124 390.686 383.906 392.02 385.241 394.459C386.69 397.128 388.554 400.625 390.832 404.835C393.179 409.322 395.916 414.545 398.953 420.32C400.426 423.242 402.198 426.233 403.371 429.776C404.498 433.227 404.843 437.483 402.727 441.096C401.645 442.844 400.012 444.225 398.102 444.892C396.193 445.605 393.961 445.352 392.258 444.409C388.784 442.43 387.197 439.025 385.632 436.172C382.641 430.397 379.926 425.151 377.602 420.642C375.463 416.362 373.668 412.819 372.31 410.104C371.114 407.619 370.47 406.216 370.562 406.17Z" fill="#C55734"/>
<path d="M361.269 428.279C361.361 428.233 362.166 429.545 363.547 431.96C365.019 434.629 366.929 438.081 369.253 442.268C371.646 446.731 374.453 451.908 377.559 457.66C379.1 460.49 380.757 463.688 383.656 465.276C386.532 466.978 390.466 465.46 392.238 462.446C394.055 459.409 393.825 455.543 392.767 452.299C391.708 448.986 389.96 445.972 388.51 443.027C385.588 437.206 382.943 431.937 380.665 427.405C378.571 423.103 376.822 419.536 375.488 416.821C374.292 414.314 373.67 412.887 373.762 412.841C373.854 412.795 374.637 414.129 375.994 416.568C377.444 419.237 379.307 422.734 381.585 426.945C383.932 431.431 386.67 436.654 389.707 442.429C391.179 445.351 392.951 448.342 394.124 451.885C395.252 455.336 395.597 459.593 393.48 463.205C392.399 464.954 390.765 466.334 388.856 467.001C386.946 467.715 384.714 467.462 383.012 466.518C379.537 464.54 377.95 461.111 376.385 458.281C373.394 452.506 370.679 447.261 368.356 442.751C366.216 438.472 364.421 434.928 363.041 432.214C361.798 429.729 361.177 428.325 361.269 428.279Z" fill="#C1502D"/>
<path d="M350.631 444.687C350.723 444.641 351.529 445.975 352.863 448.46C354.198 450.945 355.992 454.603 358.109 459.158C360.249 463.714 362.688 469.167 365.748 475.034C367.289 477.91 368.877 481.154 371.684 483.041C373.064 483.938 374.767 484.329 376.4 483.892C378.034 483.478 379.529 482.396 380.542 480.97C382.566 478.025 382.474 474.09 381.508 470.8C380.519 467.441 378.747 464.404 377.298 461.413C374.353 455.523 371.661 450.185 369.383 445.63C367.266 441.281 365.495 437.692 364.16 434.931C362.964 432.4 362.319 430.974 362.411 430.928C362.504 430.882 363.286 432.216 364.643 434.678C366.093 437.37 368.002 440.913 370.28 445.17C372.65 449.702 375.411 454.994 378.471 460.815C379.966 463.76 381.761 466.82 382.865 470.409C383.924 473.929 384.131 478.278 381.738 481.798C380.542 483.478 378.793 484.766 376.768 485.295C374.744 485.824 372.558 485.318 370.947 484.237C367.68 481.982 366.162 478.554 364.62 475.655C361.606 469.696 359.259 464.174 357.235 459.573C355.279 455.155 353.645 451.497 352.403 448.69C351.207 446.136 350.539 444.733 350.631 444.687Z" fill="#C1502D"/>
</svg>
