<svg width="748" height="530" viewBox="0 0 748 530" fill="none" xmlns="http://www.w3.org/2000/svg">
<path d="M253.315 369.148C249.069 367.098 241.961 362.818 237.555 361.145C233.149 359.473 228.228 358.669 223.773 360.194C221.168 361.08 218.579 363.195 218.563 365.983L235.85 378.905L253.299 374.215V369.148H253.315Z" fill="#FF9A6C"/>
<path d="M234.404 368.962C234.404 368.962 203.334 362.091 198.22 359.386C193.106 356.664 165.977 342.823 161.49 342.823C156.987 342.823 153.112 344.07 152.292 348.661L158.193 353.351L158.949 355.745L169.048 361.108L170.898 364.568L196.596 378.572C196.596 378.572 223.581 392.543 228.084 393.379C232.587 394.216 255.069 396.085 264.685 404.432L303.281 388.279C303.281 388.279 292.136 372.127 283.549 368.159C275.894 364.617 263.045 364.617 254.055 368.355L234.404 368.962Z" fill="#FFBF9D"/>
<path d="M260.234 395.428C260.234 395.428 309.363 504.673 317.276 526.548C317.276 526.548 372.194 517.349 374.075 486.258L303.285 387.885L260.234 395.428Z" fill="#FFBF9D"/>
<path d="M214.609 371.444C214.609 371.477 214.432 371.46 214.078 371.428C213.724 371.411 213.242 371.296 212.599 371.132C211.344 370.772 209.575 370.067 207.485 369.033C205.394 368 202.966 366.639 200.296 365.114C198.962 364.36 197.563 363.556 196.099 362.769C194.652 361.982 193.044 361.343 191.436 360.621C188.203 359.194 185.083 357.948 182.14 357.178C179.23 356.44 176.431 355.882 174.325 356.604C172.202 357.342 171.253 359.194 170.722 360.326C170.176 361.507 169.983 362.212 169.902 362.195C169.87 362.195 169.902 361.999 169.983 361.671C170.047 361.326 170.192 360.834 170.433 360.211C170.674 359.588 171.012 358.834 171.575 358.047C172.138 357.276 172.99 356.489 174.148 356.046C175.29 355.587 176.641 355.538 178.024 355.652C179.407 355.784 180.854 356.046 182.349 356.423C185.357 357.178 188.541 358.424 191.789 359.85C193.397 360.572 195.022 361.228 196.501 362.048C197.981 362.851 199.38 363.671 200.698 364.442C203.352 366 205.732 367.41 207.774 368.509C209.817 369.607 211.521 370.394 212.727 370.837C213.901 371.264 214.609 371.362 214.609 371.444Z" fill="#FF9A6C"/>
<path d="M184.984 355.726C184.952 355.824 183.247 355.333 180.642 354.185C178.053 352.988 174.515 351.315 170.43 350.036C168.42 349.413 166.362 349.38 164.561 349.528C162.743 349.675 161.232 350.413 160.412 351.495C159.591 352.578 159.35 353.726 159.189 354.496C159.077 355.283 159.013 355.726 158.964 355.726C158.916 355.726 158.868 355.283 158.868 354.463C158.932 353.66 159.077 352.414 159.945 351.135C160.396 350.528 161.023 349.938 161.811 349.528C162.599 349.118 163.515 348.872 164.48 348.757C166.378 348.544 168.533 348.576 170.672 349.232C174.853 350.561 178.391 352.348 180.899 353.66C183.408 354.923 185.016 355.595 184.984 355.726Z" fill="#FF9A6C"/>
<path d="M262.419 365.883C262.435 365.932 261.985 366.129 261.164 366.441C260.344 366.752 259.122 367.146 257.594 367.556C254.539 368.376 250.213 369.196 245.389 369.409C240.564 369.622 236.174 369.196 233.07 368.638C231.51 368.359 230.256 368.081 229.42 367.851C228.567 367.621 228.101 367.457 228.117 367.408C228.149 367.277 230.063 367.654 233.167 368.048C236.27 368.441 240.596 368.769 245.356 368.556C250.116 368.343 254.394 367.638 257.466 366.965C260.505 366.31 262.387 365.752 262.419 365.883Z" fill="#FF9A6C"/>
<path d="M719.927 300.991L648.381 285.905L630.788 272.376L536.373 290.939C534.861 293.76 519.568 315.471 519.568 315.471L482.403 328.343C466.499 332.705 452.331 341.823 442.071 354.613C434.223 364.387 425.491 377.866 417.997 395.773C401.272 435.801 377.134 482.044 377.134 482.044L362.001 457.201L298.238 487.816C298.238 487.816 335.595 564.626 347.962 575.58C361.711 587.763 393.312 589.174 415.166 566.446C428.337 552.737 466.402 498.557 474.346 484.996L486.054 541.717L496.877 606.457L479.38 650.995H734.755L724.189 608.901C724.189 608.901 734.594 499.131 737.472 478.715C744.227 430.537 719.927 300.991 719.927 300.991Z" fill="#27AE60"/>
<path d="M719.925 300.998C719.925 300.998 771.064 315.625 782.321 367.443C789.14 398.846 812.297 488.364 820.451 562.057C825.291 605.873 825.147 646.361 825.291 651.001H746.813L713.541 315.625L719.925 300.998Z" fill="#27AE60"/>
<path d="M588.766 345.494C588.782 345.511 588.718 345.691 588.557 346.035C588.364 346.445 588.123 346.937 587.833 347.544C587.206 348.872 586.273 350.807 585.18 353.283C582.928 358.219 580.243 365.516 575.949 373.65L575.724 374.06L575.37 373.748C570.063 369.14 564.306 363.598 558.356 357.613C547.838 346.954 538.592 337.033 531.773 329.998C528.396 326.538 525.646 323.717 523.668 321.684C522.751 320.766 522.011 320.011 521.449 319.437C520.95 318.913 520.693 318.634 520.709 318.618C520.725 318.601 521.014 318.831 521.561 319.323C522.156 319.864 522.928 320.569 523.893 321.454C525.887 323.34 528.734 326.095 532.191 329.572C539.138 336.508 548.433 346.363 558.951 357.006C564.885 362.991 570.626 368.534 575.868 373.174L575.29 373.273C579.615 365.238 582.398 357.973 584.778 353.087C585.935 350.627 586.917 348.708 587.624 347.429C587.962 346.839 588.235 346.363 588.46 345.97C588.637 345.658 588.75 345.494 588.766 345.494Z" fill="black"/>
<path d="M649.454 287.758C649.486 287.758 649.422 288.151 649.31 288.906C649.165 289.742 648.956 290.824 648.715 292.169C648.136 294.989 647.171 299.056 645.788 304.008C643.022 313.929 638.519 327.425 632.987 342.118C630.06 349.891 627.165 357.237 624.464 363.747L624.255 364.239L623.853 363.878C616.568 357.319 610.038 352.154 605.616 348.316C603.397 346.414 601.66 344.873 600.486 343.79C599.955 343.282 599.521 342.872 599.167 342.544C598.878 342.249 598.733 342.101 598.749 342.085C598.765 342.069 598.942 342.2 599.248 342.446C599.618 342.757 600.084 343.135 600.647 343.61C601.933 344.676 603.702 346.135 605.906 347.972C610.408 351.711 617.002 356.778 624.367 363.321L623.756 363.452C626.41 356.925 629.272 349.579 632.215 341.823C637.731 327.146 642.314 313.7 645.225 303.844C646.672 298.908 647.718 294.891 648.409 292.087C648.715 290.759 648.972 289.676 649.165 288.856C649.326 288.135 649.438 287.741 649.454 287.758Z" fill="black"/>
<path d="M484.026 534.481C484.01 534.481 483.962 534.366 483.882 534.104C483.785 533.809 483.689 533.432 483.544 532.989C483.254 531.939 482.836 530.496 482.338 528.676C481.791 526.807 481.26 524.495 480.617 521.789C479.942 519.1 479.282 516.033 478.591 512.606C475.728 498.979 472.882 479.908 471.097 458.721C469.28 437.518 468.877 418.25 468.974 404.328C469.022 397.359 469.167 391.718 469.344 387.832C469.44 385.946 469.505 384.454 469.553 383.355C469.585 382.88 469.617 382.502 469.633 382.191C469.649 381.928 469.682 381.797 469.682 381.797C469.698 381.797 469.714 381.928 469.714 382.191C469.714 382.502 469.714 382.896 469.714 383.355C469.698 384.454 469.682 385.946 469.649 387.832C469.569 391.718 469.521 397.359 469.537 404.312C469.601 418.234 470.1 437.469 471.901 458.639C473.67 479.793 476.436 498.848 479.137 512.491C479.797 515.902 480.408 518.985 481.035 521.674C481.63 524.363 482.129 526.692 482.627 528.578C483.077 530.414 483.431 531.874 483.689 532.923C483.785 533.382 483.882 533.76 483.946 534.055C484.026 534.35 484.042 534.481 484.026 534.481Z" fill="black"/>
<path d="M724.169 358.493C724.185 358.493 724.249 358.641 724.394 358.936C724.538 359.28 724.731 359.723 724.957 360.28C725.455 361.527 726.163 363.281 727.063 365.495C727.514 366.627 728.044 367.889 728.559 369.283C729.025 370.693 729.54 372.235 730.087 373.875C730.633 375.531 731.212 377.285 731.839 379.155C732.354 381.057 732.885 383.074 733.464 385.189C738.256 402.063 740.684 426.48 739.301 453.193C737.886 479.922 734.831 503.945 732.933 521.344C731.952 530.002 731.148 537.021 730.585 541.956C730.296 544.334 730.071 546.22 729.926 547.548C729.845 548.155 729.781 548.631 729.733 549.008C729.685 549.336 729.652 549.5 729.636 549.5C729.62 549.5 729.62 549.336 729.652 548.991C729.685 548.614 729.717 548.139 729.765 547.532C729.894 546.187 730.054 544.301 730.28 541.907C730.73 537.037 731.437 529.986 732.354 521.278C734.107 503.863 737.066 479.824 738.465 453.144C739.848 426.48 737.516 402.194 732.885 385.337C732.338 383.222 731.823 381.205 731.325 379.302C730.73 377.433 730.167 375.662 729.636 374.006C729.106 372.35 728.623 370.825 728.173 369.398C727.69 368.004 727.176 366.741 726.758 365.593C725.921 363.347 725.262 361.576 724.796 360.33C724.587 359.756 724.426 359.313 724.297 358.952C724.201 358.673 724.152 358.509 724.169 358.493Z" fill="black"/>
<path d="M377.491 537.918C377.266 537.918 376.993 525.422 376.896 509.992C376.8 494.561 376.896 482.065 377.138 482.049C377.363 482.049 377.636 494.545 377.733 509.975C377.829 525.422 377.733 537.918 377.491 537.918Z" fill="black"/>
<path d="M609.544 613.593C609.528 613.593 609.544 613.363 609.592 612.904C609.64 612.412 609.721 611.756 609.817 610.903C610.042 609.099 610.348 606.525 610.75 603.213C610.959 601.54 611.184 599.687 611.442 597.653C611.651 595.62 611.892 593.406 612.133 591.029C612.599 586.273 613.243 580.878 613.677 574.876C613.918 571.875 614.175 568.743 614.433 565.48C614.69 562.217 614.835 558.806 615.06 555.28C615.542 548.229 615.735 540.686 616.025 532.733C616.379 516.843 616.33 499.362 615.51 481.046C614.626 462.729 613.082 445.314 611.249 429.522C610.235 421.635 609.351 414.141 608.209 407.172C607.662 403.679 607.212 400.301 606.649 397.07C606.086 393.84 605.54 390.741 605.025 387.789C604.06 381.853 602.918 376.54 602.002 371.866C601.535 369.521 601.101 367.357 600.699 365.34C600.265 363.356 599.863 361.519 599.493 359.879C598.785 356.632 598.239 354.091 597.853 352.32C597.676 351.483 597.547 350.827 597.451 350.352C597.37 349.909 597.322 349.679 597.338 349.679C597.354 349.679 597.418 349.893 597.531 350.335C597.644 350.811 597.804 351.467 598.013 352.287C598.432 354.058 599.027 356.583 599.799 359.814C600.184 361.453 600.603 363.274 601.069 365.258C601.487 367.258 601.937 369.439 602.436 371.768C603.385 376.441 604.559 381.754 605.572 387.691C606.102 390.642 606.665 393.758 607.244 396.972C607.823 400.202 608.29 403.58 608.852 407.073C610.01 414.059 610.927 421.553 611.956 429.44C613.822 445.232 615.398 462.663 616.282 481.013C617.086 499.363 617.118 516.859 616.716 532.766C616.411 540.719 616.186 548.278 615.671 555.33C615.43 558.855 615.269 562.266 614.996 565.546C614.706 568.809 614.449 571.957 614.175 574.958C613.709 580.96 613.034 586.355 612.519 591.111C612.246 593.488 611.988 595.686 611.763 597.719C611.49 599.736 611.233 601.589 610.991 603.262C610.525 606.558 610.155 609.132 609.898 610.936C609.769 611.772 609.673 612.445 609.592 612.92C609.608 613.363 609.56 613.593 609.544 613.593Z" fill="black"/>
<path d="M643.541 436.592C643.541 436.592 643.637 436.56 643.862 436.543C644.12 436.51 644.441 436.478 644.859 436.412C645.792 436.314 647.111 436.15 648.816 435.969C652.337 435.592 657.435 435.035 663.868 434.33C676.926 432.952 695.452 431.001 717.5 428.672L717.902 428.623L717.918 429.033C718.336 445.595 718.802 464.305 719.301 484.164V484.344L719.188 484.475C717.13 486.722 714.927 489.132 712.723 491.559C704.634 500.414 696.771 509.023 689.309 517.19L689.1 517.419L688.826 517.288C674.449 510.007 661.118 503.268 649.314 497.282L649.137 497.2L649.121 497.004C647.4 478.72 645.985 463.584 644.988 452.991C644.522 447.776 644.136 443.677 643.878 440.823C643.766 439.462 643.669 438.413 643.605 437.658C643.557 436.937 643.541 436.592 643.541 436.592C643.541 436.592 643.605 436.986 643.685 437.724C643.766 438.495 643.895 439.577 644.039 440.954C644.345 443.808 644.779 447.94 645.326 453.171C646.403 463.715 647.931 478.752 649.796 496.922L649.603 496.643C661.423 502.579 674.771 509.286 689.18 516.534L688.698 516.616C696.16 508.433 704.007 499.824 712.096 490.969C714.316 488.542 716.519 486.132 718.577 483.885L718.465 484.18C717.998 464.322 717.564 445.595 717.178 429.049L717.58 429.41C695.613 431.575 677.151 433.395 664.141 434.674C657.66 435.297 652.53 435.789 648.976 436.117C647.24 436.281 645.905 436.396 644.94 436.478C644.506 436.51 644.168 436.543 643.895 436.56C643.669 436.592 643.557 436.592 643.541 436.592Z" fill="black"/>
<path d="M718.017 448.125C718.017 448.191 717.036 448.371 715.235 448.666C713.434 448.962 710.828 449.339 707.596 449.765C701.131 450.618 692.174 451.585 682.284 452.536C672.458 453.52 663.565 454.406 656.955 455.062C653.819 455.39 651.23 455.668 649.284 455.882C647.467 456.078 646.47 456.144 646.454 456.095C646.454 456.029 647.435 455.849 649.236 455.554C651.037 455.258 653.643 454.881 656.875 454.455C663.34 453.602 672.297 452.635 682.187 451.684C692.013 450.7 700.906 449.814 707.516 449.158C710.652 448.83 713.241 448.552 715.187 448.338C717.004 448.142 718.017 448.06 718.017 448.125Z" fill="black"/>
<g opacity="0.3">
<g opacity="0.3">
<path opacity="0.3" d="M733.548 512.645C734.448 523.813 735.349 534.98 736.249 546.147C742.216 517.45 751.591 486.605 750.128 457.301C748.68 428.195 745.963 400.006 729.785 373.49C729.785 373.49 740.752 401.515 739.273 435.787C737.809 470.076 733.548 512.645 733.548 512.645Z" fill="black"/>
</g>
</g>
<path d="M366.842 450.274C365.765 448.388 364.526 446.355 362.5 445.633C360.249 444.846 357.804 445.945 355.665 447.043C336.207 456.915 316.764 466.787 297.306 476.675C293.478 478.626 289.313 480.939 287.866 485.038C286.016 490.286 289.394 495.828 292.61 500.338C297.981 507.881 304.414 516.064 313.5 517.129L363.674 482.037C369.817 481.119 373.629 474.15 373.387 467.836C373.162 461.507 369.962 455.751 366.842 450.274Z" fill="#27AE60"/>
<path d="M373.18 471.707C373.196 471.724 373.019 471.92 372.665 472.281C372.231 472.691 371.716 473.199 371.089 473.806C369.706 475.118 367.664 476.971 365.107 479.201C359.977 483.678 352.692 489.63 344.265 495.698C335.838 501.765 327.91 506.767 322.056 510.21C319.13 511.932 316.733 513.277 315.061 514.162C314.289 514.556 313.662 514.9 313.131 515.162C312.681 515.392 312.44 515.49 312.424 515.458C312.408 515.425 312.617 515.277 313.051 515.015C313.565 514.703 314.176 514.326 314.916 513.867C316.653 512.817 318.969 511.407 321.767 509.685C327.54 506.127 335.404 501.044 343.799 495.009C352.193 488.958 359.526 483.104 364.737 478.758C367.262 476.627 369.336 474.888 370.88 473.577C371.539 473.019 372.102 472.56 372.569 472.166C372.954 471.838 373.164 471.674 373.18 471.707Z" fill="black"/>
<g opacity="0.3">
<g opacity="0.3">
<path opacity="0.3" d="M648.702 291.51C641.835 314.779 632.219 341.065 624.098 363.597C617.166 357.611 607.501 349.691 600.57 343.689C606.52 355.742 613.709 367.171 621.943 377.748C622.891 378.978 624.194 380.306 625.69 380.011C627.121 379.732 627.845 378.142 628.359 376.764C632.589 365.384 636.802 354.004 641.031 342.607C646.949 326.684 652.658 308.056 648.702 291.51Z" fill="black"/>
</g>
</g>
<path d="M540.152 38.5238C560.994 32.3908 580.613 38.573 599.895 48.7235C619.177 58.874 634.727 75.7477 644.794 95.36C655.408 116.005 660.088 140.078 656.261 163.052C652.417 186.026 639.697 207.672 620.608 220.495C594.54 238.008 558.63 237.09 531.774 220.872C504.917 204.654 487.276 174.744 482.58 143.292C479.348 121.614 481.969 98.7545 491.907 79.3061C501.814 59.8251 519.359 44.132 540.152 38.5238Z" fill="#263238"/>
<path d="M608.782 105.238C604.746 97.3008 604.923 87.9046 602.719 79.2627C597.863 60.2244 580.849 46.4663 562.323 40.9565C545.083 35.8402 525.158 39.6938 506.069 48.516C492.979 54.567 481.063 63.8484 473.247 76.1471C462.891 92.4797 460.993 114.06 468.342 131.999L563.85 106.369C573.789 112.994 583.968 119.717 595.467 122.718C598.844 123.604 602.43 124.145 605.791 123.194C609.152 122.242 612.208 119.488 612.642 115.962C613.124 112.125 610.535 108.698 608.782 105.238Z" fill="#263238"/>
<path d="M631.562 277.947L606.909 101.141C605.816 92.778 602.101 84.2673 593.851 84.6609L507.043 76.1338C479.849 77.4129 467.08 113.801 469.477 141.448C472.146 172.178 476.617 209.583 483.548 231.737C497.491 276.291 532.693 276.766 532.693 276.766C532.677 276.602 534.832 285.621 537.501 302.183L593.787 340.342L631.562 277.947Z" fill="#FFBF9D"/>
<path d="M490.428 175.1C490.781 178.216 493.66 180.463 496.844 180.151C500.028 179.839 502.328 177.052 501.974 173.952C501.62 170.837 498.742 168.59 495.558 168.902C492.374 169.213 490.074 171.985 490.428 175.1Z" fill="#263238"/>
<path d="M480.281 159.509C481.101 160.165 484.96 156.197 491.152 155.262C497.311 154.229 502.329 156.771 502.891 155.885C503.165 155.492 502.232 154.229 500.045 153.065C497.874 151.901 494.352 150.999 490.509 151.622C486.665 152.245 483.642 154.196 482.001 155.967C480.313 157.738 479.879 159.231 480.281 159.509Z" fill="#263238"/>
<path d="M547.556 165.65C547.909 168.766 550.788 171.012 553.972 170.701C557.156 170.389 559.456 167.602 559.102 164.502C558.748 161.387 555.87 159.14 552.686 159.452C549.501 159.763 547.202 162.551 547.556 165.65Z" fill="#263238"/>
<path d="M539.057 151.246C539.893 151.902 543.752 147.934 549.928 146.999C556.087 145.966 561.104 148.491 561.667 147.622C561.941 147.229 561.024 145.966 558.821 144.802C556.65 143.638 553.128 142.736 549.284 143.359C545.441 143.982 542.418 145.933 540.777 147.704C539.089 149.475 538.655 150.968 539.057 151.246Z" fill="#263238"/>
<path d="M525.777 201.425C525.745 201.064 521.805 200.982 515.468 201.146C513.86 201.228 512.316 201.146 511.898 200.08C511.352 198.981 511.754 197.145 512.236 195.144C513.137 191.012 514.085 186.699 515.066 182.157C518.926 163.709 521.483 148.622 520.743 148.475C520.019 148.327 516.289 163.151 512.413 181.616C511.496 186.158 510.612 190.487 509.792 194.636C509.47 196.554 508.746 198.785 509.92 201.08C510.531 202.212 511.818 202.9 512.863 203.032C513.925 203.196 514.809 203.064 515.597 202.999C521.917 202.359 525.809 201.785 525.777 201.425Z" fill="#263238"/>
<path d="M532.67 276.739C532.67 276.739 563.096 274.034 590.194 251.093C590.194 251.093 576.154 286.923 535.468 290.53L532.67 276.739Z" fill="#FF9A6C"/>
<path d="M530.647 216.379C532.416 213.033 536.067 210.787 540.007 210.606C542.741 210.492 545.635 211.377 547.597 213.361C549.559 215.329 550.379 218.445 549.205 220.79C547.903 223.446 544.493 224.529 541.422 224.135C538.35 223.741 535.504 222.151 532.802 220.56C532.046 220.117 531.29 219.658 530.76 218.97C530.229 218.281 530.004 217.33 530.422 216.625" fill="#FF9A6C"/>
<path d="M544.633 202.981C543.62 203.08 544.633 209.918 539.615 215.673C534.614 221.429 527.345 221.79 527.442 222.741C527.409 223.184 529.227 223.823 532.266 223.43C535.241 223.069 539.422 221.429 542.494 217.92C545.549 214.394 546.466 210.196 546.273 207.343C546.08 204.457 545.083 202.883 544.633 202.981Z" fill="#263238"/>
<path d="M537.318 132.448C538.186 134.071 544.233 132.3 551.614 132.054C558.996 131.66 565.171 132.923 565.895 131.234C566.217 130.431 564.946 128.971 562.341 127.692C559.752 126.397 555.78 125.413 551.341 125.593C546.919 125.79 543.043 127.118 540.566 128.61C538.074 130.119 536.932 131.677 537.318 132.448Z" fill="#263238"/>
<path d="M477.977 131.742C479.279 133.005 483.316 130.857 488.43 129.988C493.512 128.938 498.03 129.479 498.802 127.823C499.124 127.036 498.239 125.708 496.133 124.642C494.058 123.576 490.778 122.969 487.272 123.625C483.766 124.281 480.92 126.052 479.36 127.807C477.768 129.545 477.398 131.119 477.977 131.742Z" fill="#263238"/>
<path d="M622.839 90.1189C611.132 64.8164 568.773 33.3646 541.885 38.9892L502.018 71.3921C506.618 86.1013 519.724 97.662 534.664 100.155C542.64 101.483 551.952 100.892 557.387 106.993C562.935 113.224 561.52 123.588 566.779 130.065C574.064 139.051 590.402 136.362 596.304 146.348C598.877 150.71 598.572 156.401 601.225 160.713C604.763 166.469 620.99 172.176 627.004 169.273C633.035 166.387 631.619 155.466 632.922 149.464C635.157 139.199 633.051 134.328 631.169 129.032C626.747 116.471 628.435 102.188 622.839 90.1189Z" fill="#263238"/>
<path d="M609.132 177.168C608.633 173.774 611.287 165.148 614.503 164.115C623.091 161.344 639.044 159.606 642.614 182.35C647.47 213.457 615.854 212.014 615.661 211.129C615.5 210.44 610.869 188.909 609.132 177.168Z" fill="#FFBF9D"/>
<path d="M623.132 197.913C623.245 197.798 623.727 198.208 624.692 198.487C625.625 198.749 627.185 198.798 628.681 197.929C631.72 196.207 633.618 190.533 632.878 184.909C632.508 182.072 631.511 179.465 630.176 177.398C628.89 175.267 627.201 173.922 625.529 173.889C623.856 173.774 622.859 174.955 622.618 175.89C622.344 176.824 622.634 177.415 622.489 177.497C622.425 177.595 621.749 177.087 621.798 175.759C621.83 175.119 622.071 174.332 622.698 173.61C623.341 172.889 624.371 172.397 625.512 172.348C627.893 172.135 630.353 173.988 631.816 176.267C633.408 178.53 634.599 181.449 635.017 184.63C635.805 190.927 633.569 197.306 629.372 199.323C627.314 200.241 625.416 199.88 624.387 199.29C623.309 198.651 623.036 197.978 623.132 197.913Z" fill="#FF9A6C"/>
<path d="M509.862 60.9287C508.446 73.9817 491.287 92.4953 484.067 103.367C470.269 124.111 467.841 130.752 472.681 172.994C463.563 159.269 456.23 145.626 454.975 129.08C453.721 112.534 457.838 95.3486 467.76 82.1972C477.682 69.0622 493.603 60.404 509.862 60.9287Z" fill="#263238"/>
<path d="M582.734 16.4282C589.215 9.1802 598.462 4.47391 608.111 2.03057C621.86 -1.47865 636.961 -0.527547 649.472 5.5726C662 11.6727 671.665 23.0859 674.238 36.2209C676.811 49.3723 671.842 63.9503 660.922 72.6906C667.87 79.6434 676.698 84.9072 686.347 87.8753C683.742 91.8601 678.918 94.1887 674.077 95.025C669.22 95.8613 664.267 95.3857 659.379 94.9266C662.514 99.8624 667.596 103.634 673.434 105.372C665.586 107.422 657.208 106.782 649.488 104.585C641.769 102.388 634.645 98.6982 627.827 94.6642C604.299 80.7257 591.322 68.5418 575.433 47.0273C573.31 37.8935 576.253 23.6762 582.734 16.4282Z" fill="#263238"/>
<path d="M633.45 82.1664C616.194 56.454 594.211 42.6795 574.302 38.3995L633.45 82.1664Z" fill="#263238"/>
<path d="M574.302 38.3912C574.286 38.4568 575.299 38.7684 577.116 39.2604C578.934 39.7851 581.555 40.5886 584.707 41.8185C591.011 44.229 599.421 48.5254 607.623 54.8715C615.825 61.2176 622.306 68.1376 626.631 73.4179C628.754 76.0908 630.475 78.2554 631.601 79.8132C632.742 81.3546 633.402 82.1745 633.45 82.1417C633.498 82.1089 632.935 81.207 631.874 79.6C630.845 77.9766 629.204 75.73 627.13 72.9915C622.917 67.5637 616.468 60.5125 608.186 54.1172C599.904 47.7218 591.365 43.4583 584.948 41.1953C581.748 40.0475 579.078 39.326 577.229 38.8996C575.347 38.5224 574.318 38.3257 574.302 38.3912Z" fill="#455A64"/>
<path d="M654.039 104.086C654.039 104.07 653.895 104.119 653.653 104.217C653.348 104.348 652.978 104.496 652.544 104.676C651.579 105.103 650.115 105.66 648.234 106.349C644.455 107.661 638.81 109.186 631.67 109.793C624.546 110.416 615.958 110.055 606.679 108.186C597.384 106.349 587.446 103.036 577.314 98.8549C567.183 94.6406 557.631 90.3115 549.123 86.0643C540.632 81.7844 533.235 77.4061 527.365 73.2081C521.479 69.043 517.089 65.1402 514.21 62.3197C512.747 60.9258 511.686 59.7616 510.93 59.0072C510.592 58.6629 510.303 58.3677 510.077 58.1381C509.884 57.9414 509.772 57.8594 509.756 57.8594C509.74 57.8758 509.82 57.9906 509.997 58.2037C510.206 58.4497 510.463 58.7613 510.785 59.1384C511.477 59.9419 512.506 61.1554 513.937 62.5821C516.751 65.5009 521.109 69.5021 526.963 73.7493C532.817 78.0292 540.214 82.4895 548.721 86.835C557.245 91.1478 566.781 95.4933 576.944 99.7241C587.108 103.922 597.111 107.234 606.486 109.022C615.846 110.858 624.514 111.154 631.686 110.432C638.874 109.727 644.535 108.087 648.314 106.677C650.196 105.939 651.643 105.332 652.592 104.84C653.026 104.627 653.38 104.447 653.669 104.299C653.927 104.168 654.055 104.102 654.039 104.086Z" fill="#455A64"/>
<path d="M224.677 226.341C222.698 225.62 185.594 204.217 185.594 204.217L156.159 171.139L114.761 125.936L90.2023 143.411C83.8593 167.752 63.682 195.785 41.243 204.145C41.243 204.145 33.3453 213.027 32.9919 220.954C32.8682 224.035 47.8687 234.178 62.4805 244.393C77.8344 255.149 116.776 281.093 116.776 281.093C116.776 281.093 132.96 320.909 138.437 331.503C138.437 331.503 195.718 247.222 231.832 236.268C231.85 236.286 236.108 230.539 224.677 226.341Z" fill="#27AE60"/>
<path d="M23.1171 263.172L33.1175 220.149L76.0165 249.588L73.9846 274.937C73.9846 274.973 43.0648 284.99 23.1171 263.172Z" fill="#27AE60"/>
<path d="M114.746 125.957L152.733 110.607C152.733 110.607 177.275 153.396 176.002 162.476L156.885 170.403L164.006 184.402L122.078 142.045L114.746 125.957Z" fill="#27AE60"/>
<path d="M73.1027 269.024C73.1204 269.114 72.4313 269.348 71.1592 269.745C69.8871 270.141 67.9965 270.555 65.6113 270.934C60.8938 271.672 54.1622 271.907 46.9711 270.303C43.4021 269.474 40.0804 268.285 37.1828 266.916C34.3205 265.511 31.8469 263.997 29.9564 262.502C28.0482 261.025 26.5818 259.709 25.6807 258.719C24.7442 257.728 24.2849 257.151 24.3379 257.097C24.5145 256.917 26.5818 259.061 30.4865 261.745C32.4123 263.097 34.8682 264.484 37.6952 265.817C40.5398 267.06 43.7731 268.195 47.2538 269.006C54.2682 270.573 60.8232 270.483 65.4876 270.015C70.1874 269.51 73.0497 268.79 73.1027 269.024Z" fill="#E0E0E0"/>
<path d="M67.4102 248.048C67.4278 248.138 66.8978 248.318 65.9083 248.57C64.9012 248.733 63.4348 248.859 61.5972 248.859C57.9575 248.823 52.9927 248.264 47.5861 247.255C42.1796 246.246 37.3384 244.985 33.8931 243.85C30.4477 242.751 28.4512 241.616 28.5395 241.454C28.6279 241.292 30.6774 242.085 34.1581 242.931C37.6211 243.832 42.4623 244.913 47.8158 245.94C53.1694 246.931 58.0812 247.616 61.6326 247.886C63.4171 248.012 64.8482 248.03 65.8377 248.03C66.8094 247.976 67.3572 247.958 67.4102 248.048Z" fill="#E0E0E0"/>
<path d="M114.127 131.558C114.215 131.612 113.332 133.054 111.759 135.666C110.204 138.296 108.031 142.134 105.504 146.98C102.978 151.899 100.01 157.664 96.7409 164.06C93.3662 170.456 89.4791 177.446 84.4613 184.148C74.4786 197.715 61.7044 206.525 52.0221 211.281C47.1456 213.659 43.0288 215.226 40.1312 216.091C38.7 216.578 37.5516 216.812 36.7742 217.028C35.9968 217.208 35.5904 217.298 35.5727 217.244C35.5374 217.136 37.1275 216.632 39.9545 215.587C42.7814 214.578 46.8275 212.902 51.5803 210.434C61.0683 205.516 73.5599 196.706 83.4012 183.355C88.3484 176.725 92.2354 169.807 95.6631 163.465C99.0731 157.106 102.041 151.304 104.692 146.512C107.342 141.72 109.621 137.918 111.335 135.378C112.165 134.099 112.89 133.144 113.349 132.495C113.809 131.847 114.091 131.522 114.127 131.558Z" fill="#E0E0E0"/>
<path d="M141.142 153.375C141.178 153.411 140.966 153.771 140.489 154.438C139.923 155.23 139.269 156.185 138.457 157.338C136.672 159.842 133.987 163.374 130.559 167.662C123.721 176.255 113.738 187.696 102.042 199.659C90.3455 211.622 79.3027 221.945 71.2635 229.386C67.3411 232.953 64.0901 235.908 61.6696 238.088C60.6271 239.007 59.7437 239.763 59.0193 240.394C58.4009 240.916 58.0475 241.169 58.0475 241.133C58.0122 241.097 58.2949 240.772 58.8603 240.196C59.5317 239.511 60.3621 238.7 61.3515 237.691C63.6838 235.421 66.8464 232.377 70.6628 228.665C78.5429 221.062 89.4797 210.631 101.141 198.704C112.802 186.777 122.873 175.463 129.87 167.031C133.368 162.815 136.177 159.374 138.068 156.978C138.951 155.897 139.693 154.996 140.294 154.239C140.807 153.645 141.107 153.339 141.142 153.375Z" fill="#E0E0E0"/>
<path d="M156.144 171.157C156.214 171.193 155.49 172.653 154.094 175.193C153.423 176.49 152.486 178.021 151.373 179.769C150.278 181.535 149.006 183.516 147.486 185.642C141.549 194.218 132.503 205.424 121.69 216.991C110.93 228.612 100.488 238.466 92.7316 245.331C88.8445 248.754 85.5935 251.42 83.332 253.222C81.0174 254.97 79.7276 255.888 79.6746 255.834C79.6039 255.762 80.823 254.699 83.0139 252.826C85.1695 250.916 88.3321 248.159 92.1308 244.646C99.7106 237.602 109.994 227.693 120.736 216.09C131.514 204.56 140.631 193.498 146.726 185.12C148.299 183.048 149.624 181.12 150.755 179.391C151.921 177.697 152.91 176.22 153.652 174.959C155.207 172.472 156.073 171.121 156.144 171.157Z" fill="#E0E0E0"/>
<path d="M175.93 195.979C176.001 196.052 175.135 197.259 173.475 199.349C171.831 201.456 169.375 204.465 166.301 208.141C160.153 215.491 151.424 225.436 141.336 236.012C131.247 246.588 121.6 255.632 114.321 261.829C110.663 264.91 107.66 267.324 105.486 268.892C103.348 270.495 102.147 271.324 102.076 271.252C102.023 271.162 103.119 270.189 105.168 268.496C107.236 266.82 110.151 264.28 113.702 261.127C120.805 254.785 130.328 245.651 140.399 235.093C150.453 224.553 159.287 214.717 165.594 207.528C168.633 204.069 171.142 201.186 173.068 199.006C174.853 197.006 175.86 195.907 175.93 195.979Z" fill="#E0E0E0"/>
<path d="M201.994 213.736C202.064 213.808 200.88 214.907 198.725 216.817C196.393 218.871 193.301 221.627 189.555 224.942C181.851 231.824 171.339 241.535 160.296 252.796C149.236 264.074 139.73 274.776 132.963 282.649C129.712 286.468 127.009 289.621 124.995 291.999C123.104 294.215 122.044 295.404 121.973 295.332C121.903 295.26 122.839 293.981 124.588 291.657C126.337 289.333 128.952 286.054 132.256 282.036C138.847 274.019 148.281 263.173 159.36 251.877C170.438 240.58 181.056 230.942 188.937 224.24C192.877 220.87 196.11 218.222 198.371 216.42C200.668 214.619 201.958 213.664 201.994 213.736Z" fill="#E0E0E0"/>
<path d="M132.895 126.195C133.213 126.051 135.492 130.933 136.976 137.419C138.478 143.887 138.531 149.31 138.195 149.328C137.807 149.364 137.188 144.085 135.722 137.725C134.255 131.365 132.541 126.339 132.895 126.195Z" fill="#E0E0E0"/>
<path d="M47.3417 233.634C47.3947 233.544 48.4018 234.175 50.1686 235.364C52.1651 236.679 54.6741 238.336 57.6777 240.354C64.2327 244.732 72.8726 250.48 82.4312 256.839C92.0782 263.325 100.771 269.235 106.973 273.649C110.082 275.847 112.556 277.684 114.252 278.981C115.931 280.297 116.849 281.053 116.779 281.125C116.726 281.215 115.719 280.585 113.952 279.396C111.955 278.081 109.446 276.423 106.443 274.405C99.8876 270.027 91.2478 264.28 81.6891 257.92C72.0598 251.452 63.3493 245.525 57.1476 241.111C54.038 238.913 51.5644 237.075 49.8682 235.778C48.1897 234.463 47.2887 233.688 47.3417 233.634Z" fill="#263238"/>
<path d="M143.617 154.847C143.688 154.775 144.324 155.424 145.455 156.613C146.585 157.802 148.176 159.568 150.119 161.766C154.006 166.162 159.307 172.287 165.102 179.097C170.897 185.908 176.092 192.141 179.802 196.681C181.657 198.969 183.141 200.807 184.148 202.122C185.156 203.438 185.668 204.176 185.615 204.23C185.544 204.302 184.908 203.654 183.777 202.465C182.647 201.276 181.057 199.51 179.113 197.312C175.226 192.916 169.925 186.79 164.13 179.98C158.335 173.17 153.14 166.936 149.43 162.396C147.575 160.108 146.091 158.27 145.084 156.955C144.059 155.658 143.529 154.901 143.617 154.847Z" fill="#263238"/>
<path d="M142.964 115.169C143.159 115.115 144.219 118.069 146.074 122.772C147.929 127.474 150.668 133.906 154.131 140.752C157.612 147.616 161.163 153.616 163.849 157.868C166.516 162.137 168.283 164.732 168.107 164.84C168.018 164.894 167.524 164.317 166.64 163.2C165.739 162.101 164.538 160.444 163.089 158.39C160.209 154.228 156.481 148.265 152.982 141.347C149.484 134.428 146.852 127.888 145.208 123.078C144.378 120.682 143.777 118.7 143.388 117.331C143.053 115.979 142.894 115.205 142.964 115.169Z" fill="#E0E0E0"/>
<path d="M225.651 227.512C225.669 227.566 225.28 227.818 224.502 228.323C223.601 228.881 222.488 229.584 221.128 230.43C219.644 231.331 217.841 232.412 215.827 233.818C213.795 235.205 211.41 236.664 208.936 238.538C206.428 240.339 203.671 242.321 200.862 244.645C197.964 246.843 195.067 249.438 191.957 252.104C185.897 257.599 179.483 263.959 173.282 271.148C167.133 278.354 161.797 285.669 157.274 292.551C155.083 296.046 152.963 299.325 151.196 302.532C149.341 305.685 147.768 308.73 146.355 311.504C144.871 314.243 143.758 316.855 142.698 319.089C141.602 321.323 140.772 323.287 140.1 324.908C139.446 326.404 138.916 327.629 138.492 328.602C138.121 329.449 137.892 329.863 137.856 329.863C137.803 329.845 137.945 329.377 138.263 328.512C138.616 327.503 139.075 326.242 139.659 324.71C140.259 323.053 141.019 321.053 142.044 318.783C143.051 316.495 144.111 313.864 145.56 311.09C146.938 308.279 148.457 305.181 150.313 301.992C152.026 298.731 154.147 295.416 156.32 291.866C160.825 284.93 166.179 277.525 172.363 270.247C178.6 263.022 185.066 256.644 191.215 251.167C194.36 248.501 197.311 245.925 200.261 243.745C203.124 241.474 205.915 239.493 208.477 237.745C210.986 235.907 213.424 234.502 215.509 233.169C217.576 231.818 219.432 230.791 220.951 229.962C222.365 229.205 223.531 228.557 224.467 228.07C225.191 227.656 225.633 227.458 225.651 227.512Z" fill="#E0E0E0"/>
<path d="M328.017 125.366L291.07 102.17C291.07 102.17 305.765 51.46 297.133 46.2141L243.714 122.796L267.517 134.443L301.272 162.278L328.017 125.366Z" fill="#27AE60"/>
<path d="M242.746 121.311L249.849 124.784L298.589 51.071C298.589 51.071 298.434 47.5912 296.212 46.186L242.746 121.311Z" fill="#263238"/>
<path d="M290.955 99.5205C290.589 99.3131 289.138 101.036 286.725 102.12C284.342 103.254 282.144 103.188 282.056 103.613C281.894 103.992 284.376 104.824 287.285 103.473C290.204 102.139 291.344 99.6442 290.955 99.5205Z" fill="#263238"/>
<path d="M293.087 89.2951C292.806 88.9847 291.062 90.2055 288.684 90.4784C286.3 90.8246 284.449 90.0892 284.212 90.4722C283.906 90.7818 285.82 92.4078 288.778 92.0004C291.728 91.6212 293.419 89.5267 293.087 89.2951Z" fill="#263238"/>
<path d="M286.777 78.5616C286.46 78.8565 287.881 80.5556 290.514 80.8537C293.149 81.1972 295.151 79.9277 294.968 79.5755C294.828 79.1722 292.979 79.6187 290.816 79.3268C288.666 79.0974 287.065 78.2156 286.777 78.5616Z" fill="#263238"/>
<path d="M299.35 106.251C298.926 106.194 298.223 108.215 296.615 110.23C295.044 112.266 293.239 113.454 293.405 113.859C293.506 114.236 295.946 113.504 297.792 111.108C299.665 108.718 299.743 106.257 299.35 106.251Z" fill="#263238"/>
<path d="M297.372 109.394C297.388 109.337 298.045 109.411 299.076 109.951C300.078 110.485 301.475 111.564 302.38 113.47C302.588 113.946 302.798 114.468 302.918 115.047C303.047 115.597 303.164 116.294 302.87 117.042C302.601 117.751 301.727 118.515 300.764 118.213C299.872 117.866 299.613 117.095 299.335 116.5C298.787 115.28 298.226 113.998 297.645 112.682L297.2 111.678L296.972 111.168C296.907 110.975 296.744 110.657 296.933 110.187C297.195 109.716 297.551 109.655 297.712 109.553L298.29 109.327L299.438 108.903C301.004 108.355 302.548 107.937 304.054 107.661C304.801 107.514 305.551 107.413 306.283 107.323C306.998 107.245 307.783 107.121 308.579 107.388C308.972 107.513 309.392 107.809 309.561 108.263C309.749 108.705 309.639 109.266 309.408 109.623C308.938 110.365 308.285 110.756 307.664 111.033C306.456 111.564 305.253 111.812 304.179 111.862C301.993 111.984 300.352 111.364 299.349 110.83C298.345 110.251 297.934 109.763 297.959 109.723C298.011 109.644 298.526 110.019 299.542 110.451C300.548 110.866 302.145 111.327 304.161 111.125C305.159 111.03 306.251 110.759 307.321 110.244C307.843 110.007 308.341 109.644 308.577 109.214C308.788 108.823 308.669 108.454 308.164 108.306C307.65 108.141 307.009 108.22 306.287 108.327C305.583 108.422 304.861 108.529 304.141 108.681C302.673 108.98 301.182 109.364 299.68 109.895L298.568 110.296L298.018 110.528C297.918 110.568 297.865 110.602 297.829 110.624C297.841 110.687 297.675 110.488 297.705 110.539C297.669 110.562 297.926 110.539 297.863 110.556C297.855 110.585 297.885 110.636 297.907 110.715L298.125 111.209L298.553 112.224C299.116 113.551 299.658 114.844 300.189 116.075C300.421 116.677 300.725 117.232 301.08 117.335C301.391 117.488 301.845 117.177 302.018 116.763C302.362 115.891 301.953 114.7 301.633 113.826C300.891 112.028 299.658 110.938 298.781 110.325C297.939 109.689 297.331 109.49 297.372 109.394Z" fill="#263238"/>
<path d="M288.565 151.333C289.092 148.892 291.649 147.414 293.882 146.21C296.116 145.007 298.632 143.253 298.738 140.8C298.784 139.891 298.485 139.015 298.641 138.128C298.932 136.439 300.632 135.363 302.013 134.282C304.237 132.528 306.038 130.184 307.106 127.587C307.326 127.054 307.496 126.436 307.191 126.004C306.839 125.532 306.065 125.581 305.486 125.878C303.175 126.991 302.555 130.14 300.416 131.585C298.71 132.733 296.256 132.617 294.983 134.21C293.685 135.842 294.385 138.341 293.05 139.95C292.214 140.965 290.861 141.311 289.693 141.887C287.321 143.063 285.428 145.951 285.117 148.51L288.565 151.333Z" fill="white"/>
<path d="M295.617 104.705C295.341 106.565 293.869 108.271 292.064 108.831C290.884 109.203 289.351 109.309 288.874 110.454C288.389 111.628 289.563 112.828 289.255 114.053C289.031 114.921 288.138 115.487 287.699 116.281C286.557 118.339 288.797 120.76 287.899 122.898C287.331 124.264 285.672 124.988 285.028 126.31C284.637 127.143 284.674 128.08 284.635 128.97C284.597 129.861 284.425 130.86 283.71 131.477C283.022 132.1 281.689 131.962 281.562 131.083C281.494 130.634 281.73 130.203 281.921 129.778C282.617 128.213 282.712 126.42 282.147 124.881C281.615 123.439 280.521 122.002 281.061 120.464C281.498 119.251 282.892 118.368 282.93 117.102C282.979 115.854 281.614 114.915 281.838 113.673C282.088 112.391 283.776 111.883 284.419 110.726C284.918 109.824 284.706 108.718 285.129 107.771C285.544 106.852 286.528 106.275 287.479 105.93C288.429 105.585 289.442 105.388 290.329 104.895C291.217 104.403 291.98 103.451 291.895 102.475" fill="white"/>
<path d="M260.195 129.245C260.845 129.973 262.243 129.366 262.671 128.398C263.109 127.447 262.901 126.394 262.768 125.385C262.646 124.394 262.653 123.251 263.383 122.463C263.853 121.98 264.527 121.716 264.922 121.187C265.546 120.304 265.173 119.053 265.759 118.147C266.387 117.145 267.873 117.018 268.662 116.124C269.563 115.089 269.193 113.556 269.727 112.312C270.521 110.438 272.989 109.783 274.121 108.067C275.236 106.362 274.778 103.979 276.169 102.494C276.899 101.707 277.973 101.376 278.87 100.831C279.786 100.275 280.611 99.1945 280.253 98.2591C279.925 97.3744 278.671 97.1923 277.778 97.6641C276.886 98.1359 276.307 99.0136 275.829 99.8971C275.351 100.781 274.893 101.698 274.139 102.362C273.278 103.092 272.104 103.417 271.263 104.182C270.196 105.183 269.801 106.827 268.546 107.552C267.514 108.158 266.017 108.06 265.409 109.096C264.988 109.827 265.308 110.74 264.99 111.523C264.492 112.744 262.739 113.04 262.111 114.205C261.776 114.835 261.839 115.562 261.719 116.266C261.572 117.172 261.081 117.994 260.637 118.81C258.984 121.668 257.317 124.583 254.942 126.923" fill="white"/>
<path d="M297.203 66.0954C297.449 66.8014 296.773 67.6021 296.043 67.855C295.312 68.108 294.518 68.0052 293.757 67.9985C292.995 67.9917 292.133 68.188 291.641 68.8026C290.909 69.7556 291.439 71.1902 290.772 72.1715C290.106 73.1528 288.648 73.1675 287.674 73.8774C286.939 74.4126 286.56 75.2588 286.188 76.0768C285.528 77.5662 284.86 79.0838 284.201 80.5731C283.813 81.4475 283.392 82.3897 282.644 83.0265C281.896 83.6633 280.715 83.8986 280.043 83.2992C279.314 82.6433 279.516 81.3735 280.059 80.4711C280.601 79.5686 281.435 78.8304 281.902 77.8827C282.563 76.6022 282.568 75.0385 283.465 73.9108C284.287 72.9015 285.633 72.4914 286.492 71.5047C287.412 70.4561 287.614 68.9774 288.41 67.8439C288.941 67.0882 289.73 66.5192 290.233 65.7579C290.795 64.8893 290.963 63.8509 291.218 62.8747C292.358 58.5183 295.393 54.8026 298.318 51.273C299.111 56.3378 298.68 61.6888 297.042 66.7331" fill="white"/>
<path d="M318.986 120.302C317.18 120.559 315.751 122.655 316.221 124.363C316.412 125.059 316.867 125.704 316.728 126.422C316.576 127.242 315.757 127.761 314.994 128.127C314.232 128.494 313.386 128.843 312.963 129.578C312.21 130.871 313.243 132.62 312.311 133.817C311.836 134.422 311.001 134.624 310.506 135.194C309.487 136.329 310.217 138.061 309.708 139.479C309.427 140.287 308.76 140.897 308.281 141.62C307.793 142.326 307.483 143.293 307.947 143.955C308.312 144.447 309.053 144.584 309.668 144.381C310.282 144.179 310.81 143.705 311.244 143.196C313.011 141.05 313.469 137.89 315.772 136.361C316.67 135.769 317.838 135.426 318.343 134.499C318.873 133.533 318.429 132.368 318.801 131.339C319.394 129.61 321.871 128.997 322.483 127.256C322.717 126.618 322.715 125.826 323.274 125.448C323.621 125.205 324.082 125.24 324.478 125.082C324.874 124.925 325.215 124.382 324.917 124.127" fill="white"/>
<path d="M342.274 218.975L309.837 251.327C309.837 251.327 264.343 229.369 256.933 236.954L317.324 300.43L335.009 279.088L371.116 250.539L342.274 218.975Z" fill="#27AE60"/>
<path d="M317.737 300.985L323.156 294.455L262.453 234.301C262.453 234.301 258.919 233.908 256.905 235.9L317.737 300.985Z" fill="#263238"/>
<path d="M307.287 250.22C306.976 250.555 308.337 252.295 308.783 254.898C309.289 257.48 308.621 259.68 309.03 259.837C309.373 260.063 310.9 257.701 310.317 254.555C309.78 251.414 307.52 249.85 307.287 250.22Z" fill="#263238"/>
<path d="M298.045 245.982C297.658 246.213 298.405 248.139 298.031 250.547C297.729 252.971 296.49 254.697 296.808 254.993C297.035 255.345 299.183 253.697 299.58 250.692C299.997 247.679 298.361 245.668 298.045 245.982Z" fill="#263238"/>
<path d="M286.025 249.916C286.23 250.273 288.288 249.138 289.292 246.597C290.34 244.06 289.628 241.898 289.232 242.024C288.796 242.1 288.738 243.985 287.868 246.065C287.069 248.162 285.761 249.581 286.025 249.916Z" fill="#263238"/>
<path d="M315.349 243.418C315.176 243.832 317.022 244.856 318.613 246.783C320.238 248.676 320.943 250.668 321.397 250.566C321.804 250.525 321.731 247.97 319.82 245.746C317.928 243.514 315.463 243.026 315.349 243.418Z" fill="#263238"/>
<path d="M317.59 245.898C317.538 245.874 317.783 245.219 318.601 244.306C319.4 243.401 320.844 242.19 322.973 241.593C323.501 241.462 324.073 241.335 324.678 241.305C325.256 241.264 325.978 241.255 326.638 241.661C327.266 242.035 327.786 243.013 327.227 243.916C326.644 244.741 325.811 244.877 325.147 245.06C323.793 245.412 322.374 245.767 320.916 246.136L319.803 246.42L319.236 246.566C319.028 246.6 318.67 246.712 318.256 246.454C317.862 246.123 317.897 245.763 317.839 245.589L317.772 244.984L317.663 243.788C317.543 242.161 317.547 240.575 317.681 239.049C317.738 238.29 317.84 237.535 317.949 236.8C318.065 236.084 318.154 235.291 318.634 234.548C318.863 234.181 319.269 233.813 319.763 233.715C320.251 233.599 320.777 233.794 321.067 234.076C321.674 234.653 321.884 235.357 321.99 236.012C322.19 237.283 322.11 238.507 321.869 239.573C321.4 241.745 320.343 243.267 319.545 244.172C318.7 245.073 318.107 245.402 318.075 245.371C318.01 245.308 318.52 244.858 319.221 243.923C319.903 242.997 320.79 241.494 321.135 239.477C321.311 238.479 321.338 237.362 321.118 236.228C321.024 235.677 320.8 235.131 320.438 234.831C320.109 234.563 319.712 234.624 319.429 235.099C319.127 235.58 319.032 236.223 318.943 236.951C318.847 237.66 318.758 238.387 318.714 239.12C318.613 240.612 318.59 242.14 318.709 243.702L318.806 244.86L318.886 245.437C318.899 245.541 318.918 245.599 318.931 245.638C318.996 245.635 318.754 245.769 318.813 245.747C318.826 245.786 318.873 245.529 318.872 245.595C318.898 245.607 318.957 245.585 319.041 245.575L319.588 245.436L320.708 245.172C322.172 244.822 323.597 244.486 324.958 244.153C325.615 244.017 326.247 243.803 326.444 243.47C326.68 243.186 326.495 242.691 326.132 242.457C325.362 241.984 324.074 242.203 323.124 242.383C321.145 242.838 319.735 243.884 318.892 244.654C318.035 245.385 317.674 245.954 317.59 245.898Z" fill="#263238"/>
<path d="M356.525 262.852C354.202 261.941 353.411 259.15 352.808 256.727C352.206 254.304 351.126 251.511 348.675 251.02C347.768 250.831 346.8 250.993 345.947 250.696C344.319 250.14 343.7 248.27 342.987 246.719C341.825 244.219 339.952 242.048 337.619 240.572C337.141 240.268 336.564 240.001 336.043 240.238C335.469 240.516 335.306 241.298 335.446 241.924C335.936 244.411 338.949 245.526 339.821 247.892C340.513 249.779 339.72 252.216 340.98 253.74C342.272 255.295 344.991 254.987 346.251 256.576C347.047 257.572 347.024 258.98 347.286 260.239C347.822 262.796 350.22 265.144 352.722 265.857L356.525 262.852Z" fill="white"/>
<path d="M313.268 247.437C315.03 247.995 316.318 249.707 316.383 251.57C316.434 252.787 316.125 254.312 317.127 254.958C318.155 255.617 319.655 254.646 320.781 255.138C321.577 255.492 321.896 256.458 322.561 257.013C324.285 258.453 327.276 256.623 329.145 257.836C330.341 258.606 330.608 260.35 331.739 261.187C332.456 261.701 333.391 261.808 334.259 261.984C335.128 262.159 336.067 262.482 336.484 263.281C336.914 264.053 336.419 265.344 335.516 265.333C335.055 265.331 334.694 265.032 334.325 264.779C332.968 263.853 331.224 263.483 329.554 263.801C327.987 264.102 326.274 264.957 324.903 264.188C323.823 263.571 323.326 262.064 322.088 261.831C320.869 261.591 319.556 262.795 318.41 262.376C317.212 261.933 317.164 260.194 316.196 259.383C315.44 258.753 314.291 258.791 313.47 258.229C312.675 257.679 312.371 256.621 312.286 255.633C312.202 254.645 312.28 253.618 312.033 252.669C311.786 251.72 311.052 250.822 310.065 250.755" fill="white"/>
<path d="M329.384 286.298C330.292 285.764 330.066 284.277 329.212 283.7C328.377 283.115 327.263 283.157 326.215 283.132C325.187 283.099 324.042 282.913 323.451 282.063C323.095 281.519 323.014 280.807 322.591 280.331C321.876 279.571 320.519 279.748 319.77 279.022C318.937 278.24 319.215 276.74 318.533 275.815C317.741 274.756 316.103 274.884 315 274.158C313.337 273.074 313.354 270.514 311.942 269.118C310.536 267.742 308.02 267.825 306.91 266.207C306.32 265.357 306.281 264.237 305.98 263.257C305.672 262.259 304.814 261.268 303.777 261.478C302.8 261.667 302.275 262.887 302.504 263.85C302.734 264.812 303.456 265.526 304.212 266.14C304.968 266.754 305.763 267.353 306.222 268.208C306.72 269.18 306.726 270.4 307.263 271.357C307.976 272.577 309.517 273.227 309.901 274.59C310.228 275.712 309.721 277.188 310.593 277.955C311.212 278.489 312.216 278.313 312.914 278.752C314.003 279.439 313.821 281.231 314.818 282.039C315.359 282.471 316.105 282.521 316.778 282.751C317.648 283.04 318.338 283.656 319.035 284.227C321.452 286.319 323.92 288.436 325.619 291.166" fill="white"/>
<path d="M276.883 237.085C277.654 236.951 278.27 237.746 278.323 238.51C278.377 239.275 278.059 240.047 277.845 240.802C277.631 241.556 277.592 242.442 278.072 243.026C278.824 243.902 280.4 243.599 281.198 244.413C281.996 245.228 281.614 246.677 282.058 247.754C282.392 248.566 283.133 249.075 283.849 249.572C285.156 250.458 286.489 251.357 287.796 252.244C288.563 252.764 289.389 253.329 289.821 254.17C290.253 255.012 290.167 256.22 289.386 256.794C288.533 257.416 287.32 257.017 286.567 256.339C285.814 255.66 285.304 254.717 284.485 254.106C283.387 253.251 281.828 253.003 280.946 251.936C280.162 250.964 280.119 249.564 279.368 248.558C278.572 247.481 277.151 247.051 276.236 246.084C275.626 245.439 275.273 244.568 274.65 243.95C273.936 243.257 272.945 242.928 272.04 242.524C268.002 240.713 265.126 237.142 262.392 233.671C267.663 233.672 272.886 234.932 277.475 237.344" fill="white"/>
<path d="M332.852 227.275C332.619 229.102 334.315 230.843 336.142 230.642C336.885 230.561 337.65 230.211 338.327 230.46C339.101 230.738 339.395 231.629 339.552 232.441C339.71 233.253 339.828 234.145 340.444 234.677C341.526 235.623 343.545 234.872 344.483 235.981C344.956 236.545 344.93 237.403 345.37 238.001C346.203 239.193 348.142 238.732 349.415 239.456C350.142 239.859 350.568 240.615 351.157 241.201C351.727 241.794 352.604 242.251 353.388 241.894C353.977 241.61 354.314 240.897 354.279 240.257C354.244 239.617 353.916 239.021 353.528 238.513C351.873 236.431 348.854 235.486 347.958 232.969C347.612 231.988 347.588 230.779 346.803 230.135C345.986 229.46 344.707 229.718 343.785 229.191C342.226 228.335 342.288 225.788 340.723 224.912C340.151 224.581 339.363 224.461 339.139 223.848C338.992 223.468 339.151 223.017 339.102 222.6C339.052 222.183 338.605 221.762 338.271 222.017" fill="white"/>
</svg>
